  0
SECTION
  2
HEADER
  9
$ACADVER
  1
AC1004
  9
$INSBASE
 10
0.0
 20
0.0
  9
$EXTMIN
 10
1.000000000000000E+20
 20
1.000000000000000E+20
  9
$EXTMAX
 10
-1.000000000000000E+20
 20
-1.000000000000000E+20
  9
$LIMMIN
 10
0.0
 20
0.0
  9
$LIMMAX
 10
12.0
 20
9.0
  9
$ORTHOMODE
 70
     0
  9
$REGENMODE
 70
     1
  9
$FILLMODE
 70
     1
  9
$QTEXTMODE
 70
     0
  9
$DRAGMODE
 70
     2
  9
$LTSCALE
 40
1.0
  9
$OSMODE
 70
    37
  9
$ATTMODE
 70
     1
  9
$TEXTSIZE
 40
0.2
  9
$TRACEWID
 40
0.05
  9
$TEXTSTYLE
  7
STANDARD
  9
$CLAYER
  8
0
  9
$CELTYPE
  6
BYLAYER
  9
$CECOLOR
 62
   256
  9
$DIMSCALE
 40
1.0
  9
$DIMASZ
 40
0.125
  9
$DIMEXO
 40
0.03125
  9
$DIMDLI
 40
0.38
  9
$DIMRND
 40
0.0
  9
$DIMDLE
 40
0.0
  9
$DIMEXE
 40
0.0625
  9
$DIMTP
 40
0.0
  9
$DIMTM
 40
0.0
  9
$DIMTXT
 40
0.125
  9
$DIMCEN
 40
0.09
  9
$DIMTSZ
 40
0.0
  9
$DIMTOL
 70
     0
  9
$DIMLIM
 70
     0
  9
$DIMTIH
 70
     1
  9
$DIMTOH
 70
     1
  9
$DIMSE1
 70
     0
  9
$DIMSE2
 70
     0
  9
$DIMTAD
 70
     0
  9
$DIMZIN
 70
     8
  9
$DIMBLK
  1

  9
$DIMASO
 70
     1
  9
$DIMSHO
 70
     1
  9
$DIMPOST
  1

  9
$DIMAPOST
  1

  9
$DIMALT
 70
     0
  9
$DIMALTD
 70
     2
  9
$DIMALTF
 40
25.4
  9
$DIMLFAC
 40
1.0
  9
$DIMTOFL
 70
     0
  9
$DIMTVP
 40
0.0
  9
$DIMTIX
 70
     0
  9
$DIMSOXD
 70
     0
  9
$DIMSAH
 70
     0
  9
$DIMBLK1
  1

  9
$DIMBLK2
  1

  9
$LUNITS
 70
     2
  9
$LUPREC
 70
     4
  9
$SKETCHINC
 40
0.1
  9
$FILLETRAD
 40
0.5
  9
$AUNITS
 70
     0
  9
$AUPREC
 70
     0
  9
$MENU
  1
.
  9
$ELEVATION
 40
0.0
  9
$THICKNESS
 40
0.0
  9
$LIMCHECK
 70
     0
  9
$CHAMFERA
 40
0.0
  9
$CHAMFERB
 40
0.0
  9
$SKPOLY
 70
     0
  9
$TDCREATE
 40
2458196.772900972
  9
$TDUPDATE
 40
2458196.772901019
  9
$TDINDWG
 40
0.0000000116
  9
$TDUSRTIMER
 40
0.0000000116
  9
$USRTIMER
 70
     1
  9
$ANGBASE
 50
0.0
  9
$ANGDIR
 70
     0
  9
$PDMODE
 70
     0
  9
$PDSIZE
 40
0.0
  9
$PLINEWID
 40
0.0
  9
$COORDS
 70
     1
  9
$SPLFRAME
 70
     0
  9
$SPLINETYPE
 70
     6
  9
$SPLINESEGS
 70
     8
  9
$ATTDIA
 70
     0
  9
$ATTREQ
 70
     1
  9
$SURFTAB1
 70
     6
  9
$SURFTAB2
 70
     6
  9
$SURFTYPE
 70
     6
  9
$SURFU
 70
     6
  9
$SURFV
 70
     6
  9
$UCSNAME
  2

  9
$UCSORG
 10
0.0
 20
0.0
 30
0.0
  9
$UCSXDIR
 10
1.0
 20
0.0
 30
0.0
  9
$UCSYDIR
 10
0.0
 20
1.0
 30
0.0
  9
$USERI1
 70
     0
  9
$USERI2
 70
     0
  9
$USERI3
 70
     0
  9
$USERI4
 70
     0
  9
$USERI5
 70
     0
  9
$USERR1
 40
0.0
  9
$USERR2
 40
0.0
  9
$USERR3
 40
0.0
  9
$USERR4
 40
0.0
  9
$USERR5
 40
0.0
  9
$WORLDVIEW
 70
     1
  0
ENDSEC
  0
SECTION
  2
TABLES
  0
TABLE
  2
LTYPE
 70
    52
  0
LTYPE
  2
CONTINUOUS
 70
     0
  3
Solid line
 72
    65
 73
     0
 40
0.0
  0
LTYPE
  2
PHANTOM2
 70
     0
  3
Phantom (.5x) ___ _ _ ___ _ _ ___ _ _ ___ _ _
 72
    65
 73
     6
 40
31.75
 49
15.875
 49
-3.175
 49
3.175
 49
-3.175
 49
3.175
 49
-3.175
  0
LTYPE
  2
HIDDENX2
 70
     0
  3
Hidden (2x) ____ ____ ____ ____ ____ ____ ____ 
 72
    65
 73
     2
 40
19.05
 49
12.7
 49
-6.35
  0
LTYPE
  2
HOT_WATER_SUPPLY
 70
     0
  3
Hot water supply ---- HW ---- HW ---- HW ----
 72
    65
 73
     3
 40
22.86
 49
12.7
 49
-5.08
 49
-5.08
  0
LTYPE
  2
ZIGZAG
 70
     0
  3
Zig zag /\/\/\/\/\/\/\/\/\/\/\/\/\/\/\/\/\/\/\/\/\/\/\/
 72
    65
 73
     4
 40
20.32254
 49
0.00254
 49
-5.08
 49
-10.16
 49
-5.08
  0
LTYPE
  2
PHANTOMX2
 70
     0
  3
Phantom (2x) ____________    ____    ____   _
 72
    65
 73
     6
 40
127.0
 49
63.5
 49
-12.7
 49
12.7
 49
-12.7
 49
12.7
 49
-12.7
  0
LTYPE
  2
TRACKS
 70
     0
  3
Tracks -|-|-|-|-|-|-|-|-|-|-|-|-|-|-|-|-|-|-|-|-|-|-|-|-
 72
    65
 73
     2
 40
7.62
 49
3.81
 49
3.81
  0
LTYPE
  2
ACAD_ISO04W100
 70
     0
  3
ISO long-dash dot ____ . ____ . ____ . ____ . _
 72
    65
 73
     4
 40
30.0
 49
24.0
 49
-3.0
 49
0.0
 49
-3.0
  0
LTYPE
  2
ACAD_ISO05W100
 70
     0
  3
ISO long-dash double-dot ____ .. ____ .. ____ . 
 72
    65
 73
     6
 40
33.0
 49
24.0
 49
-3.0
 49
0.0
 49
-3.0
 49
0.0
 49
-3.0
  0
LTYPE
  2
ACAD_ISO02W100
 70
     0
  3
ISO dash __ __ __ __ __ __ __ __ __ __ __ __ __
 72
    65
 73
     2
 40
15.0
 49
12.0
 49
-3.0
  0
LTYPE
  2
ACAD_ISO03W100
 70
     0
  3
ISO dash space __    __    __    __    __    __
 72
    65
 73
     2
 40
30.0
 49
12.0
 49
-18.0
  0
LTYPE
  2
ACAD_ISO08W100
 70
     0
  3
ISO long-dash short-dash ____ __ ____ __ ____ _
 72
    65
 73
     4
 40
36.0
 49
24.0
 49
-3.0
 49
6.0
 49
-3.0
  0
LTYPE
  2
ACAD_ISO09W100
 70
     0
  3
ISO long-dash double-short-dash ____ __ __ ____
 72
    65
 73
     6
 40
45.0
 49
24.0
 49
-3.0
 49
6.0
 49
-3.0
 49
6.0
 49
-3.0
  0
LTYPE
  2
ACAD_ISO06W100
 70
     0
  3
ISO long-dash triple-dot ____ ... ____ ... ____
 72
    65
 73
     8
 40
36.0
 49
24.0
 49
-3.0
 49
0.0
 49
-3.0
 49
0.0
 49
-3.0
 49
0.0
 49
-3.0
  0
LTYPE
  2
ACAD_ISO07W100
 70
     0
  3
ISO dot . . . . . . . . . . . . . . . . . . . . 
 72
    65
 73
     2
 40
3.0
 49
0.0
 49
-3.0
  0
LTYPE
  2
ACAD_ISO12W100
 70
     0
  3
ISO dash double-dot __ . . __ . . __ . . __ . . 
 72
    65
 73
     6
 40
21.0
 49
12.0
 49
-3.0
 49
0.0
 49
-3.0
 49
0.0
 49
-3.0
  0
LTYPE
  2
ACAD_ISO13W100
 70
     0
  3
ISO double-dash double-dot __ __ . . __ __ . . _
 72
    65
 73
     8
 40
36.0
 49
12.0
 49
-3.0
 49
12.0
 49
-3.0
 49
0.0
 49
-3.0
 49
0.0
 49
-3.0
  0
LTYPE
  2
ACAD_ISO10W100
 70
     0
  3
ISO dash dot __ . __ . __ . __ . __ . __ . __ . 
 72
    65
 73
     4
 40
18.0
 49
12.0
 49
-3.0
 49
0.0
 49
-3.0
  0
LTYPE
  2
ACAD_ISO11W100
 70
     0
  3
ISO double-dash dot __ __ . __ __ . __ __ . __ _
 72
    65
 73
     6
 40
33.0
 49
12.0
 49
-3.0
 49
12.0
 49
-3.0
 49
0.0
 49
-3.0
  0
LTYPE
  2
BATTING
 70
     0
  3
Batting SSSSSSSSSSSSSSSSSSSSSSSSSSSSSSSSSSSSSSSSSSSSSSS
 72
    65
 73
     4
 40
10.16254
 49
0.00254
 49
-2.54
 49
-5.08
 49
-2.54
  0
LTYPE
  2
BORDER
 70
     0
  3
Border __ __ . __ __ . __ __ . __ __ . __ __ .
 72
    65
 73
     6
 40
44.45
 49
12.7
 49
-6.35
 49
12.7
 49
-6.35
 49
0.0
 49
-6.35
  0
LTYPE
  2
ACAD_ISO14W100
 70
     0
  3
ISO dash triple-dot __ . . . __ . . . __ . . . _
 72
    65
 73
     8
 40
24.0
 49
12.0
 49
-3.0
 49
0.0
 49
-3.0
 49
0.0
 49
-3.0
 49
0.0
 49
-3.0
  0
LTYPE
  2
ACAD_ISO15W100
 70
     0
  3
ISO double-dash triple-dot __ __ . . . __ __ . .
 72
    65
 73
    10
 40
39.0
 49
12.0
 49
-3.0
 49
12.0
 49
-3.0
 49
0.0
 49
-3.0
 49
0.0
 49
-3.0
 49
0.0
 49
-3.0
  0
LTYPE
  2
CENTER
 70
     0
  3
Center ____ _ ____ _ ____ _ ____ _ ____ _ ____
 72
    65
 73
     4
 40
50.8
 49
31.75
 49
-6.35
 49
6.35
 49
-6.35
  0
LTYPE
  2
CENTER2
 70
     0
  3
Center (.5x) ___ _ ___ _ ___ _ ___ _ ___ _ ___
 72
    65
 73
     4
 40
28.575
 49
19.05
 49
-3.175
 49
3.175
 49
-3.175
  0
LTYPE
  2
BORDER2
 70
     0
  3
Border (.5x) __.__.__.__.__.__.__.__.__.__.__.
 72
    65
 73
     6
 40
22.225
 49
6.35
 49
-3.175
 49
6.35
 49
-3.175
 49
0.0
 49
-3.175
  0
LTYPE
  2
BORDERX2
 70
     0
  3
Border (2x) ____  ____  .  ____  ____  .  ___
 72
    65
 73
     6
 40
88.89999999999999
 49
25.4
 49
-12.7
 49
25.4
 49
-12.7
 49
0.0
 49
-12.7
  0
LTYPE
  2
CUTLEFT2
 70
     0
  3
G41 reversed----/----/----/----
 72
    65
 73
     2
 40
10.16
 49
5.08
 49
5.08
  0
LTYPE
  2
CUTRIGHT
 70
     0
  3
G42 ----/----/-----/---
 72
    65
 73
     2
 40
10.16
 49
5.08
 49
5.08
  0
LTYPE
  2
CENTERX2
 70
     0
  3
Center (2x) ________  __  ________  __  _____
 72
    65
 73
     4
 40
101.6
 49
63.5
 49
-12.7
 49
12.7
 49
-12.7
  0
LTYPE
  2
CUTLEFT
 70
     0
  3
G41 ----\----\----\----
 72
    65
 73
     2
 40
10.16
 49
5.08
 49
5.08
  0
LTYPE
  2
DASHDOT2
 70
     0
  3
Dash dot (.5x) _._._._._._._._._._._._._._._.
 72
    65
 73
     4
 40
12.7
 49
6.35
 49
-3.175
 49
0.0
 49
-3.175
  0
LTYPE
  2
DASHDOTX2
 70
     0
  3
Dash dot (2x) ____  .  ____  .  ____  .  ___
 72
    65
 73
     4
 40
50.8
 49
25.4
 49
-12.7
 49
0.0
 49
-12.7
  0
LTYPE
  2
CUTRIGHT2
 70
     0
  3
G42 reversed----\----\----\----
 72
    65
 73
     2
 40
10.16
 49
5.08
 49
5.08
  0
LTYPE
  2
DASHDOT
 70
     0
  3
Dash dot __ . __ . __ . __ . __ . __ . __ . __
 72
    65
 73
     4
 40
25.4
 49
12.7
 49
-6.35
 49
0.0
 49
-6.35
  0
LTYPE
  2
DASHEDX2
 70
     0
  3
Dashed (2x) ____  ____  ____  ____  ____  ___
 72
    65
 73
     2
 40
38.09999999999999
 49
25.4
 49
-12.7
  0
LTYPE
  2
DIVIDE
 70
     0
  3
Divide ____ . . ____ . . ____ . . ____ . . ____
 72
    65
 73
     6
 40
31.75
 49
12.7
 49
-6.35
 49
0.0
 49
-6.35
 49
0.0
 49
-6.35
  0
LTYPE
  2
DASHED
 70
     0
  3
Dashed __ __ __ __ __ __ __ __ __ __ __ __ __ _
 72
    65
 73
     2
 40
19.05
 49
12.7
 49
-6.35
  0
LTYPE
  2
DASHED2
 70
     0
  3
Dashed (.5x) _ _ _ _ _ _ _ _ _ _ _ _ _ _ _ _ _ 
 72
    65
 73
     2
 40
9.524999999999999
 49
6.35
 49
-3.175
  0
LTYPE
  2
DOT
 70
     0
  3
Dot . . . . . . . . . . . . . . . . . . . . . . . .
 72
    65
 73
     2
 40
6.35
 49
0.0
 49
-6.35
  0
LTYPE
  2
DOT2
 70
     0
  3
Dot (.5x) ........................................
 72
    65
 73
     2
 40
3.175
 49
0.0
 49
-3.175
  0
LTYPE
  2
DIVIDE2
 70
     0
  3
Divide (.5x) __..__..__..__..__..__..__..__.._
 72
    65
 73
     6
 40
15.875
 49
6.35
 49
-3.175
 49
0.0
 49
-3.175
 49
0.0
 49
-3.175
  0
LTYPE
  2
DIVIDEX2
 70
     0
  3
Divide (2x) ________  .  .  ________  .  .  _
 72
    65
 73
     6
 40
63.5
 49
25.4
 49
-12.7
 49
0.0
 49
-12.7
 49
0.0
 49
-12.7
  0
LTYPE
  2
DRAINAGE2
 70
     0
  3
Drainage reversed----<----<----<----
 72
    65
 73
     2
 40
10.16
 49
5.08
 49
5.08
  0
LTYPE
  2
FENCELINE1
 70
     0
  3
Fenceline circle ----0-----0----0-----0----0-----0--
 72
    65
 73
     4
 40
36.83
 49
6.35
 49
-2.54
 49
-2.54
 49
25.4
  0
LTYPE
  2
DOTX2
 70
     0
  3
Dot (2x) .  .  .  .  .  .  .  .  .  .  .  .  .  .
 72
    65
 73
     2
 40
12.7
 49
0.0
 49
-12.7
  0
LTYPE
  2
DRAINAGE
 70
     0
  3
Drainage ---->---->---->----
 72
    65
 73
     2
 40
10.16
 49
5.08
 49
5.08
  0
LTYPE
  2
HIDDEN
 70
     0
  3
Hidden __ __ __ __ __ __ __ __ __ __ __ __ __ __
 72
    65
 73
     2
 40
9.524999999999999
 49
6.35
 49
-3.175
  0
LTYPE
  2
HIDDEN2
 70
     0
  3
Hidden (.5x) _ _ _ _ _ _ _ _ _ _ _ _ _ _ _ _ _ 
 72
    65
 73
     2
 40
4.762499999999999
 49
3.175
 49
-1.5875
  0
LTYPE
  2
FENCELINE2
 70
     0
  3
Fenceline square ----[]-----[]----[]-----[]----[]---
 72
    65
 73
     4
 40
36.83
 49
6.35
 49
-2.54
 49
-2.54
 49
25.4
  0
LTYPE
  2
GAS_LINE
 70
     0
  3
Gas line ----GAS----GAS----GAS----GAS----GAS----GAS--
 72
    65
 73
     3
 40
24.13
 49
12.7
 49
-5.08
 49
-6.35
  0
LTYPE
  2
PHANTOM
 70
     0
  3
Phantom ______  __  __  ______  __  __  ______ 
 72
    65
 73
     6
 40
63.50000000000001
 49
31.75
 49
-6.35
 49
6.35
 49
-6.35
 49
6.35
 49
-6.35
  0
ENDTAB
  0
TABLE
  2
LAYER
 70
     1
  0
LAYER
  2
0
 70
     0
 62
     7
  6
CONTINUOUS
  0
ENDTAB
  0
TABLE
  2
STYLE
 70
    16
  0
STYLE
  2
STANDARD
 70
     0
 40
0.0
 41
1.0
 50
0.0
 71
     0
 42
0.2
  3
txt
  4

  0
STYLE
  2
TEXTSTYLE0
 70
     0
 40
0.0
 41
1.0
 50
0.0
 71
     0
 42
0.2
  3
STANDARD
  4

  0
STYLE
  2
TEXTSTYLE1
 70
     0
 40
0.0
 41
1.0
 50
0.0
 71
     0
 42
0.2
  3
ltypeshp.shx
  4

  0
STYLE
  2
TEXTSTYLE2
 70
     0
 40
0.0
 41
1.0
 50
0.0
 71
     0
 42
0.2
  3
ltypeshp.shx
  4

  0
STYLE
  2
TEXTSTYLE3
 70
     0
 40
0.0
 41
1.0
 50
0.0
 71
     0
 42
0.2
  3
ltypeshp.shx
  4

  0
STYLE
  2
TEXTSTYLE4
 70
     0
 40
0.0
 41
1.0
 50
0.0
 71
     0
 42
0.2
  3
ltypeshp.shx
  4

  0
STYLE
  2
TEXTSTYLE5
 70
     0
 40
0.0
 41
1.0
 50
0.0
 71
     0
 42
0.2
  3
ltypeshp.shx
  4

  0
STYLE
  2
TEXTSTYLE6
 70
     0
 40
0.0
 41
1.0
 50
0.0
 71
     0
 42
0.2
  3
qcadshp.shx
  4

  0
STYLE
  2
TEXTSTYLE7
 70
     0
 40
0.0
 41
1.0
 50
0.0
 71
     0
 42
0.2
  3
qcadshp.shx
  4

  0
STYLE
  2
TEXTSTYLE8
 70
     0
 40
0.0
 41
1.0
 50
0.0
 71
     0
 42
0.2
  3
qcadshp.shx
  4

  0
STYLE
  2
TEXTSTYLE9
 70
     0
 40
0.0
 41
1.0
 50
0.0
 71
     0
 42
0.2
  3
qcadshp.shx
  4

  0
STYLE
  2
TEXTSTYLE10
 70
     0
 40
0.0
 41
1.0
 50
0.0
 71
     0
 42
0.2
  3
qcadshp.shx
  4

  0
STYLE
  2
TEXTSTYLE11
 70
     0
 40
0.0
 41
1.0
 50
0.0
 71
     0
 42
0.2
  3
ltypeshp.shx
  4

  0
STYLE
  2
TEXTSTYLE12
 70
     0
 40
0.0
 41
1.0
 50
0.0
 71
     0
 42
0.2
  3
qcadshp.shx
  4

  0
STYLE
  2
TEXTSTYLE13
 70
     0
 40
0.0
 41
1.0
 50
0.0
 71
     0
 42
0.2
  3
ltypeshp.shx
  4

  0
STYLE
  2
TEXTSTYLE14
 70
     0
 40
0.0
 41
1.0
 50
0.0
 71
     0
 42
0.2
  3
STANDARD
  4

  0
ENDTAB
  0
TABLE
  2
VIEW
 70
     0
  0
ENDTAB
  0
ENDSEC
  0
SECTION
  2
BLOCKS
  0
ENDSEC
  0
SECTION
  2
ENTITIES
  0
LINE
  8
0
 62
   178
 10
1.13861076561492
 20
3.701093223043648
 11
1.087595606634703
 21
3.608523339633058
  0
LINE
  8
0
 62
   178
 10
1.087595606634703
 20
3.608523339633058
 11
1.036580678668795
 21
3.515953875411506
  0
LINE
  8
0
 62
   178
 10
1.036580678668795
 20
3.515953875411506
 11
0.9855651236755807
 21
3.423383273414501
  0
LINE
  8
0
 62
   178
 10
0.9855651236755807
 20
3.423383273414501
 11
0.9089576153359478
 21
3.470219227079472
  0
LINE
  8
0
 62
   178
 10
0.9089576153359478
 20
3.470219227079472
 11
0.8323504539025444
 21
3.517054968655915
  0
LINE
  8
0
 62
   178
 10
0.8323504539025444
 20
3.517054968655915
 11
0.7557423508858636
 21
3.563891285891177
  0
LINE
  8
0
 62
   178
 10
0.7557423508858636
 20
3.563891285891177
 11
0.7294803061079442
 21
3.455596391722597
  0
LINE
  8
0
 62
   178
 10
0.7294803061079442
 20
3.455596391722597
 11
0.7032183802544971
 21
3.347301987952425
  0
LINE
  8
0
 62
   178
 10
0.7032183802544971
 20
3.347301987952425
 11
0.6769561316133087
 21
3.239006253130249
  0
LINE
  8
0
 62
   178
 10
0.6769561316133087
 20
3.239006253130249
 11
0.5507786716697453
 21
3.260190535724489
  0
LINE
  8
0
 62
   178
 10
0.5507786716697453
 20
3.260190535724489
 11
0.4246012117261819
 21
3.28137481831873
  0
LINE
  8
0
 62
   178
 10
0.4246012117261819
 20
3.28137481831873
 11
0.4256608502777436
 21
3.167942807598906
  0
LINE
  8
0
 62
   178
 10
0.4256608502777436
 20
3.167942807598906
 11
0.4267204840311286
 21
3.054511310539209
  0
LINE
  8
0
 62
   178
 10
0.4267204840311286
 20
3.054511310539209
 11
0.4277801308079502
 21
2.941078419286887
  0
LINE
  8
0
 62
   178
 10
0.4277801308079502
 20
2.941078419286887
 11
0.3026834976230217
 21
2.911107613777721
  0
LINE
  8
0
 62
   178
 10
0.3026834976230217
 20
2.911107613777721
 11
0.1775868644380932
 21
2.881136808268556
  0
LINE
  8
0
 62
   178
 10
0.1775868644380932
 20
2.881136808268556
 11
0.2058749312166095
 21
2.773681149257094
  0
LINE
  8
0
 62
   178
 10
0.2058749312166095
 20
2.773681149257094
 11
0.2341628698974771
 21
2.666225976841958
  0
LINE
  8
0
 62
   178
 10
0.2341628698974771
 20
2.666225976841958
 11
0.2624511562658239
 21
2.558769483691222
  0
LINE
  8
0
 62
   178
 10
0.2624511562658239
 20
2.558769483691222
 11
0.1879374875581712
 21
2.506652307734881
  0
LINE
  8
0
 62
   178
 10
0.1879374875581712
 20
2.506652307734881
 11
0.1134241562747172
 21
2.454535367783733
  0
LINE
  8
0
 62
   178
 10
0.1134241562747172
 20
2.454535367783733
 11
0.0389099091441823
 21
2.40241778726101
  0
LINE
  8
0
 62
   178
 10
0.0389099091441823
 20
2.40241778726101
 11
0.0916459203339013
 21
2.311450052202529
  0
LINE
  8
0
 62
   178
 10
0.0916459203339013
 20
2.311450052202529
 11
0.1443816927163428
 21
2.220482729071107
  0
LINE
  8
0
 62
   178
 10
0.1443816927163428
 20
2.220482729071107
 11
0.1971181132764802
 21
2.129514287866834
  0
LINE
  8
0
 62
   178
 10
0.1971181132764802
 20
2.129514287866834
 11
0.1387787421420239
 21
2.05034671299196
  0
LINE
  8
0
 62
   178
 10
0.1387787421420239
 20
2.05034671299196
 11
0.0804396351880207
 21
1.971179496619669
  0
LINE
  8
0
 62
   178
 10
0.0804396351880207
 20
1.971179496619669
 11
0.0220998111856227
 21
1.892011307200561
  0
LINE
  8
0
 62
   178
 10
0.0220998111856227
 20
1.892011307200561
 11
0.0941296919202946
 21
1.826440982480538
  0
LINE
  8
0
 62
   178
 10
0.0941296919202946
 20
1.826440982480538
 11
0.1661592464784233
 21
1.760870954700601
  0
LINE
  8
0
 62
   178
 10
0.1661592464784233
 20
1.760870954700601
 11
0.2381896863545983
 21
1.695300120983212
  0
LINE
  8
0
 62
   178
 10
0.2381896863545983
 20
1.695300120983212
 11
0.2017381748688914
 21
1.596847107984499
  0
LINE
  8
0
 62
   178
 10
0.2017381748688914
 20
1.596847107984499
 11
0.1652868284495808
 21
1.498394540806071
  0
LINE
  8
0
 62
   178
 10
0.1652868284495808
 20
1.498394540806071
 11
0.1288350340042553
 21
1.399940763549591
  0
LINE
  8
0
 62
   178
 10
0.1288350340042553
 20
1.399940763549591
 11
0.2131058400495749
 21
1.366184985973868
  0
LINE
  8
0
 62
   178
 10
0.2131058400495749
 20
1.366184985973868
 11
0.2973762644881465
 21
1.33242936126272
  0
LINE
  8
0
 62
   178
 10
0.2973762644881465
 20
1.33242936126272
 11
0.3816477246974897
 21
1.298673321655764
  0
LINE
  8
0
 62
   178
 10
0.3816477246974897
 20
1.298673321655764
 11
0.3706529325167651
 21
1.190556430755243
  0
LINE
  8
0
 62
   178
 10
0.3706529325167651
 20
1.190556430755243
 11
0.3596581901251
 21
1.082440029451047
  0
LINE
  8
0
 62
   178
 10
0.3596581901251
 20
1.082440029451047
 11
0.3486633125967242
 21
0.9743222992797428
  0
LINE
  8
0
 62
   178
 10
0.3486633125967242
 20
0.9743222992797428
 11
0.4369183510899791
 21
0.9756871414772155
  0
LINE
  8
0
 62
   178
 10
0.4369183510899791
 20
0.9756871414772155
 11
0.5251729899322162
 21
0.9770519774897922
  0
LINE
  8
0
 62
   178
 10
0.5251729899322162
 20
0.9770519774897922
 11
0.613428713516576
 21
0.9784168302862222
  0
LINE
  8
0
 62
   178
 10
0.613428713516576
 20
0.9784168302862222
 11
0.6289757053796854
 21
0.8712324036010765
  0
LINE
  8
0
 62
   178
 10
0.6289757053796854
 20
0.8712324036010765
 11
0.6445226268404552
 21
0.7640484622935066
  0
LINE
  8
0
 62
   178
 10
0.6445226268404552
 20
0.7640484622935066
 11
0.6600697393884534
 21
0.6568632035771603
  0
LINE
  8
0
 62
   178
 10
0.6600697393884534
 20
0.6568632035771603
 11
0.7436793317764838
 21
0.6932129886157927
  0
LINE
  8
0
 62
   178
 10
0.7436793317764838
 20
0.6932129886157927
 11
0.8272885455512555
 21
0.7295626090450595
  0
LINE
  8
0
 62
   178
 10
0.8272885455512555
 20
0.7295626090450595
 11
0.9108987869704975
 21
0.7659126762581541
  0
LINE
  8
0
 62
   178
 10
0.9108987869704975
 20
0.7659126762581541
 11
0.9514532113228623
 21
0.6701469431907613
  0
LINE
  8
0
 62
   178
 10
0.9514532113228623
 20
0.6701469431907613
 11
0.9920074520307071
 21
0.5743816437691761
  0
LINE
  8
0
 62
   178
 10
0.9920074520307071
 20
0.5743816437691761
 11
1.032562191192949
 21
0.4786151673033899
  0
LINE
  8
0
 62
   178
 10
1.032562191192949
 20
0.4786151673033899
 11
1.109313898867756
 21
0.5521116473072167
  0
LINE
  8
0
 62
   178
 10
1.109313898867756
 20
0.5521116473072167
 11
1.186065606542563
 21
0.6256081273110435
  0
ARC
  8
0
 62
   178
 10
2.495006621670008
 20
0.5584078365643707
 40
1.310664892395956
 50
177.0610474041307
 51
182.1168119003449
  0
ARC
  8
0
 62
   178
 10
2.139613241236374
 20
0.5442079620444361
 40
0.9549901247304581
 50
182.0530333457441
 51
188.9912825050712
  0
ARC
  8
0
 62
   178
 10
1.859661721366295
 20
0.4987227588065073
 40
0.6713710215452982
 50
188.8910667358415
 51
198.7616347015185
  0
ARC
  8
0
 62
   178
 10
1.669706260915814
 20
0.4332938320699974
 40
0.4704656353686477
 50
198.6573080725074
 51
212.7400615782175
  0
ARC
  8
0
 62
   178
 10
1.578683438366957
 20
0.3752904797734773
 40
0.3625337459420302
 50
212.8094769816331
 51
231.0886714067556
  0
ARC
  8
0
 62
   178
 10
1.569747101315132
 20
0.3672171337189061
 40
0.3506437111757452
 50
231.3962811874562
 51
250.2940028170661
  0
ARC
  8
0
 62
   178
 10
1.591824851994488
 20
0.4315205890914058
 40
0.4186266948480956
 50
250.4169022774098
 51
266.2427932531546
  0
ARC
  8
0
 62
   178
 10
1.59806926972867
 20
0.4454128930403799
 40
0.4329310243387113
 50
265.5386196000053
 51
280.8461273684212
  0
LINE
  8
0
 62
   178
 10
1.679534795943682
 20
0.0202157153998454
 11
1.806070722623739
 21
0.021550389174632
  0
LINE
  8
0
 62
   178
 10
1.806070722623739
 20
0.021550389174632
 11
1.932606873848053
 21
0.0228850653322314
  0
LINE
  8
0
 62
   178
 10
1.932606873848053
 20
0.0228850653322314
 11
2.059139314460608
 21
0.0242197023361883
  0
LINE
  8
0
 62
   178
 10
2.059139314460608
 20
0.0242197023361883
 11
2.185673958823032
 21
0.0255543625823305
  0
LINE
  8
0
 62
   178
 10
2.185673958823032
 20
0.0255543625823305
 11
2.312205760581459
 21
0.0268889928545173
  0
LINE
  8
0
 62
   178
 10
2.312205760581459
 20
0.0268889928545173
 11
2.438738606415344
 21
0.0282236341423268
  0
LINE
  8
0
 62
   178
 10
2.438738606415344
 20
0.0282236341423268
 11
2.565261429554513
 21
0.0295581697139972
  0
LINE
  8
0
 62
   178
 10
2.565261429554513
 20
0.0295581697139972
 11
2.691800322575539
 21
0.0308928747778457
  0
LINE
  8
0
 62
   178
 10
2.691800322575539
 20
0.0308928747778457
 11
2.818314690454793
 21
0.032227321156814
  0
LINE
  8
0
 62
   178
 10
2.818314690454793
 20
0.032227321156814
 11
2.944845007538829
 21
0.0335619357649379
  0
LINE
  8
0
 62
   178
 10
2.944845007538829
 20
0.0335619357649379
 11
3.071359103256643
 21
0.0348963792793221
  0
LINE
  8
0
 62
   178
 10
3.071359103256643
 20
0.0348963792793221
 11
3.197881052033884
 21
0.0362309056192232
  0
LINE
  8
0
 62
   178
 10
3.197881052033884
 20
0.0362309056192232
 11
3.324409733362809
 21
0.0375655029747444
  0
LINE
  8
0
 62
   178
 10
3.324409733362809
 20
0.0375655029747444
 11
3.450950121800412
 21
0.0389002238198414
  0
LINE
  8
0
 62
   178
 10
3.450950121800412
 20
0.0389002238198414
 11
3.57747899288193
 21
0.0402348231805709
  0
LINE
  8
0
 62
   178
 10
3.57747899288193
 20
0.0402348231805709
 11
3.704009737557085
 21
0.0415694422939027
  0
LINE
  8
0
 62
   178
 10
3.704009737557085
 20
0.0415694422939027
 11
3.830533332206625
 21
0.0429039860035944
  0
LINE
  8
0
 62
   178
 10
3.830533332206625
 20
0.0429039860035944
 11
3.95705505065836
 21
0.0442385099085983
  0
LINE
  8
0
 62
   178
 10
3.95705505065836
 20
0.0442385099085983
 11
4.083569623863124
 21
0.0455729584620455
  0
LINE
  8
0
 62
   178
 10
4.083569623863124
 20
0.0455729584620455
 11
4.210095496533361
 21
0.0469075261951722
  0
LINE
  8
0
 62
   178
 10
4.210095496533361
 20
0.0469075261951722
 11
4.336621571638482
 21
0.0482420960637163
  0
LINE
  8
0
 62
   178
 10
4.336621571638482
 20
0.0482420960637163
 11
4.463145189972917
 21
0.0495766400077822
  0
LINE
  8
0
 62
   178
 10
4.463145189972917
 20
0.0495766400077822
 11
4.589690872863329
 21
0.0509114166992301
  0
POLYLINE
  8
0
 62
   178
 66
     1
  0
VERTEX
  8
0
 62
   178
 10
4.589690872863329
 20
0.0509114166992301
  0
VERTEX
  8
0
 62
   178
 10
4.589732128873277
 20
0.050790321731823
  0
VERTEX
  8
0
 62
   178
 10
4.589867914837105
 20
0.0504781572574431
  0
VERTEX
  8
0
 62
   178
 10
4.590116257655788
 20
0.0500516039178527
  0
VERTEX
  8
0
 62
   178
 10
4.590495184230304
 20
0.0495873423548139
  0
VERTEX
  8
0
 62
   178
 10
4.591022721461624
 20
0.049162053210089
  0
VERTEX
  8
0
 62
   178
 10
4.591716896250726
 20
0.04885241712544
  0
VERTEX
  8
0
 62
   178
 10
4.592595735498586
 20
0.0487351147426293
  0
VERTEX
  8
0
 62
   178
 10
4.593677266106178
 20
0.048886826703419
  0
VERTEX
  8
0
 62
   178
 10
4.594979514974479
 20
0.0493842336495712
  0
VERTEX
  8
0
 62
   178
 10
4.596520509004464
 20
0.0503040162228483
  0
VERTEX
  8
0
 62
   178
 10
4.598318275097108
 20
0.0517228550650124
  0
VERTEX
  8
0
 62
   178
 10
4.600390840153386
 20
0.0537174308178256
  0
VERTEX
  8
0
 62
   178
 10
4.602756231074274
 20
0.0563644241230503
  0
VERTEX
  8
0
 62
   178
 10
4.605432474760748
 20
0.0597405156224485
  0
VERTEX
  8
0
 62
   178
 10
4.608437598113784
 20
0.0639223859577825
  0
VERTEX
  8
0
 62
   178
 10
4.611789628034355
 20
0.0689867157708144
  0
VERTEX
  8
0
 62
   178
 10
4.615506591423439
 20
0.0750101857033065
  0
VERTEX
  8
0
 62
   178
 10
4.61960651518201
 20
0.082069476397021
  0
VERTEX
  8
0
 62
   178
 10
4.624107426211044
 20
0.09024126849372
  0
VERTEX
  8
0
 62
   178
 10
4.629027351411516
 20
0.0996022426351657
  0
VERTEX
  8
0
 62
   178
 10
4.634384317684402
 20
0.1102290794631204
  0
VERTEX
  8
0
 62
   178
 10
4.640196351930679
 20
0.1221984596193462
  0
VERTEX
  8
0
 62
   178
 10
4.646481481051318
 20
0.1355870637456053
  0
VERTEX
  8
0
 62
   178
 10
4.6532577319473
 20
0.1504715724836601
  0
SEQEND
  8
0
 62
   178
  0
ARC
  8
0
 62
   178
 10
2.086055014493014
 20
1.290146934544569
 40
2.808805746824323
 50
336.0618112202117
 51
338.5903187168865
  0
ARC
  8
0
 62
   178
 10
-0.927944821943648
 20
2.486971410738202
 40
6.05171995477561
 50
338.4575450333779
 51
339.6308708264273
  0
ARC
  8
0
 62
   178
 10
-4.466957744441294
 20
3.806064301977671
 40
9.828571071601877
 50
339.602912554406
 51
340.3253741283883
  0
LINE
  8
0
 62
   178
 10
4.787818784634441
 20
0.4969978616658159
 11
4.829048903158858
 21
0.613871275639296
  0
LINE
  8
0
 62
   178
 10
4.829048903158858
 20
0.613871275639296
 11
4.869385647608805
 21
0.7310676627185679
  0
LINE
  8
0
 62
   178
 10
4.869385647608805
 20
0.7310676627185679
 11
4.909031869495654
 21
0.8485135828038319
  0
ARC
  8
0
 62
   178
 10
3.767040979492976
 20
1.235641666137268
 40
1.205823928172986
 50
341.2736484133907
 51
347.3089020364739
  0
ARC
  8
0
 62
   178
 10
4.241413754594055
 20
1.131750569022175
 40
0.7202220805512417
 50
347.0810418436661
 51
357.1860958637364
  0
ARC
  8
0
 62
   178
 10
4.579714448377573
 20
1.11867371413999
 40
0.3817037997584243
 50
356.653691356559
 51
15.71855216620085
  0
ARC
  8
0
 62
   178
 10
4.728573261350893
 20
1.160125299746712
 40
0.2271823612477609
 50
15.82603945519633
 51
47.85922206085232
  0
ARC
  8
0
 62
   178
 10
4.704513951422736
 20
1.123156967508167
 40
0.2708265808381331
 50
49.33270774008351
 51
76.20414138109804
  0
ARC
  8
0
 62
   178
 10
4.645027745196202
 20
0.8965906721886329
 40
0.5050559228611748
 50
75.77958516938
 51
90.18861666954652
  0
ARC
  8
0
 62
   178
 10
4.641153067063579
 20
0.5164040782122619
 40
0.8852425438953511
 50
89.85682902081811
 51
98.07765477498663
  0
ARC
  8
0
 62
   178
 10
4.70210813457192
 20
0.0652188696787197
 40
1.340519907087015
 50
97.94737709644058
 51
103.3757838486909
  0
ARC
  8
0
 62
   178
 10
4.795939693729155
 20
-0.3376974696318392
 40
1.754214373882156
 50
103.3129722255531
 51
107.4612671294392
  0
ARC
  8
0
 62
   178
 10
4.735601011293696
 20
-0.1720375354992294
 40
1.578102286818256
 50
107.1762509650747
 51
111.7878127243892
  0
ARC
  8
0
 62
   178
 10
3.965561708575869
 20
1.667739869793101
 40
0.4173070980374868
 50
296.2078087147265
 51
313.3825992938229
  0
ARC
  8
0
 62
   178
 10
3.945704960240917
 20
1.697767944928738
 40
0.452812305395106
 50
312.5988618562763
 51
328.4215584290509
  0
ARC
  8
0
 62
   178
 10
3.96149034970465
 20
1.686969119838755
 40
0.4337103864221378
 50
328.5448817209307
 51
345.0654754738064
  0
ARC
  8
0
 62
   178
 10
3.912230585031927
 20
1.698875075080764
 40
0.48437601234987
 50
345.2063799745494
 51
359.9998834231564
  0
ARC
  8
0
 62
   178
 10
3.778241733759723
 20
1.69882396915868
 40
0.6183648656522763
 50
0.0046439990786973
 51
11.59187196187343
  0
ARC
  8
0
 62
   178
 10
3.5677134700311
 20
1.656604219034869
 40
0.8330832735447322
 50
11.52689943996174
 51
20.12766511437222
  0
ARC
  8
0
 62
   178
 10
3.29694852348961
 20
1.558679730756603
 40
1.121009892515039
 50
20.06481412012818
 51
26.45702300457816
  0
ARC
  8
0
 62
   178
 10
2.980230228233439
 20
1.402339713786449
 40
1.474211946841498
 50
26.41271552643708
 51
31.27339050601716
  0
ARC
  8
0
 62
   178
 10
3.338496528032077
 20
1.626717020190574
 40
1.051538436231678
 50
30.95783565494687
 51
37.73973633490409
  0
ARC
  8
0
 62
   178
 10
3.620334799729236
 20
1.84712234937543
 40
0.693758526401856
 50
37.59190232877501
 51
47.8706113612398
  0
ARC
  8
0
 62
   178
 10
3.786625231507177
 20
2.033304877987553
 40
0.4441335886032433
 50
47.6685516395839
 51
63.72502777221428
  0
ARC
  8
0
 62
   178
 10
3.842050585077664
 20
2.144046007896718
 40
0.320299287692865
 50
63.84594608468658
 51
86.11093844362085
  0
ARC
  8
0
 62
   178
 10
3.844764667569928
 20
2.134382592887165
 40
0.3297735188734839
 50
86.6952894455382
 51
108.3229660884961
  0
ARC
  8
0
 62
   178
 10
3.88714610766747
 20
2.008346351516694
 40
0.462743647750647
 50
108.3985308796101
 51
123.809647979688
  0
ARC
  8
0
 62
   178
 10
4.00228161015185
 20
1.833038107042863
 40
0.6724737729041695
 50
123.6492381101055
 51
134.2542891458647
  0
ARC
  8
0
 62
   178
 10
4.026491381627903
 20
1.798345125194087
 40
0.7142502973400007
 50
133.7031784780913
 51
143.6869867356396
  0
ARC
  8
0
 62
   178
 10
2.740828349221187
 20
2.712429666719213
 40
0.8634026825486861
 50
325.3330261427708
 51
333.8366302334192
  0
ARC
  8
0
 62
   178
 10
2.65124864576921
 20
2.765926661139457
 40
0.9674301261856797
 50
333.3321980584708
 51
340.9215049549351
  0
ARC
  8
0
 62
   178
 10
2.825128781291588
 20
2.706701425485541
 40
0.783742862333649
 50
340.8584203990619
 51
350.2262783026688
  0
ARC
  8
0
 62
   178
 10
2.999895008968902
 20
2.677005009750424
 40
0.6064721594559433
 50
350.1882539324208
 51
2.294939173806488
  0
ARC
  8
0
 62
   178
 10
3.113808199336259
 20
2.681105182633078
 40
0.4924863684905215
 50
2.348990967989218
 51
17.2580674042181
  0
ARC
  8
0
 62
   178
 10
3.140638892964874
 20
2.687865520514197
 40
0.464860444379027
 50
17.44344733913376
 51
33.23747831221859
  0
ARC
  8
0
 62
   178
 10
3.085627940461104
 20
2.650296670199082
 40
0.5314653316867057
 50
33.37447252611045
 51
47.18860142097326
  0
ARC
  8
0
 62
   178
 10
2.976919210741614
 20
2.533134586368205
 40
0.6912918925076319
 50
47.17813454930752
 51
57.79763852154964
  0
ARC
  8
0
 62
   178
 10
2.844752309269054
 20
2.325276703010371
 40
0.9376090693878858
 50
57.73249440461741
 51
65.56374044207047
  0
ARC
  8
0
 62
   178
 10
2.709603618635408
 20
2.030910666684022
 40
1.261515437648453
 50
65.50611345130481
 51
71.32548667838806
  0
ARC
  8
0
 62
   178
 10
2.684006937181155
 20
1.978159243168474
 40
1.3197060045369
 50
71.00601054125008
 51
76.61823604773954
  0
ARC
  8
0
 62
   178
 10
2.793259513796715
 20
2.447508018624478
 40
0.8378182777193677
 50
76.45828248935548
 51
85.29794694779264
  0
ARC
  8
0
 62
   178
 10
2.819387975513165
 20
2.800704291476968
 40
0.4836776130364265
 50
84.95293840157035
 51
100.2664866956211
  0
ARC
  8
0
 62
   178
 10
2.783220361803236
 20
2.994406768896947
 40
0.2866323645922875
 50
100.0534806122556
 51
125.8930181507368
  0
ARC
  8
0
 62
   178
 10
2.775485144986834
 20
3.014020345166184
 40
0.2662596156318398
 50
127.019064818793
 51
154.8377534889755
  0
ARC
  8
0
 62
   178
 10
2.91400637313173
 20
2.94992006326525
 40
0.4188914780212474
 50
154.958014169762
 51
172.6389915495226
  0
ARC
  8
0
 62
   178
 10
3.202621501916909
 20
2.908662519284356
 40
0.710424879883623
 50
172.3212328926342
 51
182.7469334642694
  0
ARC
  8
0
 62
   178
 10
3.543243798121757
 20
2.921959926605803
 40
1.051297460234823
 50
182.5811395233955
 51
189.625193382281
  0
ARC
  8
0
 62
   178
 10
3.561026866822138
 20
2.917298529780525
 40
1.068077614076186
 50
189.2191519535838
 51
196.1541505010923
  0
ARC
  8
0
 62
   178
 10
2.274058151345546
 20
2.038471081755353
 40
0.6375631456401347
 50
65.82851177614911
 51
72.02498041553577
  0
ARC
  8
0
 62
   178
 10
2.207104228655683
 20
1.851973160480773
 40
0.8356429550224123
 50
71.60451682703376
 51
76.33247886465742
  0
LINE
  8
0
 62
   178
 10
2.404556106990001
 20
2.663953396706285
 11
2.439422511166335
 21
2.758176411935743
  0
LINE
  8
0
 62
   178
 10
2.439422511166335
 20
2.758176411935743
 11
2.355160150422597
 21
2.791932206869537
  0
LINE
  8
0
 62
   178
 10
2.355160150422597
 20
2.791932206869537
 11
2.270898171254357
 21
2.825687848945267
  0
LINE
  8
0
 62
   178
 10
2.270898171254357
 20
2.825687848945267
 11
2.186635156409094
 21
2.8594439059129
  0
LINE
  8
0
 62
   178
 10
2.186635156409094
 20
2.8594439059129
 11
2.197629978971328
 21
2.967552302897259
  0
LINE
  8
0
 62
   178
 10
2.197629978971328
 20
2.967552302897259
 11
2.208624751741897
 21
3.075660210328262
  0
LINE
  8
0
 62
   178
 10
2.208624751741897
 20
3.075660210328262
 11
2.219619659655688
 21
3.183769446519602
  0
LINE
  8
0
 62
   178
 10
2.219619659655688
 20
3.183769446519602
 11
2.131356131584813
 21
3.182404634703639
  0
LINE
  8
0
 62
   178
 10
2.131356131584813
 20
3.182404634703639
 11
2.043093003214435
 21
3.181039829068664
  0
LINE
  8
0
 62
   178
 10
2.043093003214435
 20
3.181039829068664
 11
1.954828789987351
 21
3.179675006658951
  0
LINE
  8
0
 62
   178
 10
1.954828789987351
 20
3.179675006658951
 11
1.939290266002644
 21
3.286867875170418
  0
LINE
  8
0
 62
   178
 10
1.939290266002644
 20
3.286867875170418
 11
1.923751812369496
 21
3.394060258275663
  0
LINE
  8
0
 62
   178
 10
1.923751812369496
 20
3.394060258275663
 11
1.908213167759796
 21
3.50125395888734
  0
LINE
  8
0
 62
   178
 10
1.908213167759796
 20
3.50125395888734
 11
1.824603584047546
 21
3.464904173848708
  0
LINE
  8
0
 62
   178
 10
1.824603584047546
 20
3.464904173848708
 11
1.740994378955065
 21
3.428554553415535
  0
LINE
  8
0
 62
   178
 10
1.740994378955065
 20
3.428554553415535
 11
1.657384146219417
 21
3.392204486206347
  0
LINE
  8
0
 62
   178
 10
1.657384146219417
 20
3.392204486206347
 11
1.616829721860541
 21
3.487970233169571
  0
LINE
  8
0
 62
   178
 10
1.616829721860541
 20
3.487970233169571
 11
1.576275481160509
 21
3.583735546470063
  0
LINE
  8
0
 62
   178
 10
1.576275481160509
 20
3.583735546470063
 11
1.535720741996965
 21
3.679502036827775
  0
LINE
  8
0
 62
   178
 10
1.535720741996965
 20
3.679502036827775
 11
1.464945475281816
 21
3.611719183379836
  0
LINE
  8
0
 62
   178
 10
1.464945475281816
 20
3.611719183379836
 11
1.394170529074461
 21
3.543936636877451
  0
LINE
  8
0
 62
   178
 10
1.394170529074461
 20
3.543936636877451
 11
1.323394712958303
 21
3.476153257255194
  0
LINE
  8
0
 62
   178
 10
1.323394712958303
 20
3.476153257255194
 11
1.26180013024922
 21
3.551133165015847
  0
LINE
  8
0
 62
   178
 10
1.26180013024922
 20
3.551133165015847
 11
1.200205826460693
 21
3.626112733240973
  0
LINE
  8
0
 62
   178
 10
1.200205826460693
 20
3.626112733240973
 11
1.13861076561492
 21
3.701093223043648
  0
POLYLINE
  8
0
 62
   178
 10
0.0
 20
0.0
 30
0.0
 66
     1
 70
     9
  0
VERTEX
  8
0
 62
   178
 10
1.13861076561492
 20
3.701093223043648
 30
0.0
 70
    32
  0
VERTEX
  8
0
 62
   178
 10
1.13861076561492
 20
3.701093223043649
 30
0.0
 70
    32
  0
VERTEX
  8
0
 62
   178
 10
1.13861076561492
 20
3.701093223043648
 30
0.0
 70
    32
  0
VERTEX
  8
0
 62
   178
 10
1.13861076561492
 20
3.701093223043647
 30
0.0
 70
    32
  0
VERTEX
  8
0
 62
   178
 10
1.13861076561492
 20
3.701093223043648
 30
0.0
 70
    32
  0
VERTEX
  8
0
 62
   178
 10
1.13861076561492
 20
3.701093223043648
 30
0.0
 70
    32
  0
VERTEX
  8
0
 62
   178
 10
1.13861076561492
 20
3.701093223043648
 30
0.0
 70
    32
  0
VERTEX
  8
0
 62
   178
 10
1.13861076561492
 20
3.701093223043648
 30
0.0
 70
    32
  0
VERTEX
  8
0
 62
   178
 10
1.13861076561492
 20
3.701093223043648
 30
0.0
 70
    32
  0
VERTEX
  8
0
 62
   178
 10
1.13861076561492
 20
3.701093223043648
 30
0.0
 70
    32
  0
VERTEX
  8
0
 62
   178
 10
1.13861076561492
 20
3.701093223043648
 30
0.0
 70
    32
  0
VERTEX
  8
0
 62
   178
 10
1.13861076561492
 20
3.701093223043648
 30
0.0
 70
    32
  0
VERTEX
  8
0
 62
   178
 10
1.13861076561492
 20
3.701093223043648
 30
0.0
 70
    32
  0
VERTEX
  8
0
 62
   178
 10
1.13861076561492
 20
3.701093223043648
 30
0.0
 70
    32
  0
VERTEX
  8
0
 62
   178
 10
1.13861076561492
 20
3.701093223043648
 30
0.0
 70
    32
  0
VERTEX
  8
0
 62
   178
 10
1.13861076561492
 20
3.701093223043648
 30
0.0
 70
    32
  0
VERTEX
  8
0
 62
   178
 10
1.13861076561492
 20
3.701093223043648
 30
0.0
 70
    32
  0
VERTEX
  8
0
 62
   178
 10
1.13861076561492
 20
3.701093223043648
 30
0.0
 70
    32
  0
VERTEX
  8
0
 62
   178
 10
1.13861076561492
 20
3.701093223043648
 30
0.0
 70
    32
  0
VERTEX
  8
0
 62
   178
 10
1.13861076561492
 20
3.701093223043648
 30
0.0
 70
    32
  0
VERTEX
  8
0
 62
   178
 10
1.13861076561492
 20
3.701093223043648
 30
0.0
 70
    32
  0
VERTEX
  8
0
 62
   178
 10
1.13861076561492
 20
3.701093223043648
 30
0.0
 70
    32
  0
VERTEX
  8
0
 62
   178
 10
1.13861076561492
 20
3.701093223043648
 30
0.0
 70
    32
  0
VERTEX
  8
0
 62
   178
 10
1.13861076561492
 20
3.701093223043648
 30
0.0
 70
    32
  0
SEQEND
  8
0
 62
   178
  0
ENDSEC
  0
EOF
