<?xml version="1.0" encoding="UTF-8" standalone="no"?>
<!-- Created with Inkscape (http://www.inkscape.org/) -->

<svg
   xmlns:dc="http://purl.org/dc/elements/1.1/"
   xmlns:cc="http://creativecommons.org/ns#"
   xmlns:rdf="http://www.w3.org/1999/02/22-rdf-syntax-ns#"
   xmlns:svg="http://www.w3.org/2000/svg"
   xmlns="http://www.w3.org/2000/svg"
   xmlns:sodipodi="http://sodipodi.sourceforge.net/DTD/sodipodi-0.dtd"
   xmlns:inkscape="http://www.inkscape.org/namespaces/inkscape"
   width="3.9978006in"
   height="3.0023918in"
   viewBox="0 0 101.54414 76.260754"
   version="1.1"
   id="svg8"
   inkscape:version="0.92.2 (5c3e80d, 2017-08-06)"
   sodipodi:docname="CloudSun-outline.svg">
  <sodipodi:namedview
     id="base"
     pagecolor="#ffffff"
     bordercolor="#666666"
     borderopacity="1.0"
     inkscape:pageopacity="0.0"
     inkscape:pageshadow="2"
     inkscape:zoom="1.72"
     inkscape:cx="136.67731"
     inkscape:cy="123.23345"
     inkscape:document-units="mm"
     inkscape:current-layer="layer1"
     showgrid="false"
     inkscape:window-width="1876"
     inkscape:window-height="1004"
     inkscape:window-x="0"
     inkscape:window-y="32"
     inkscape:window-maximized="1"
     fit-margin-top="0"
     fit-margin-left="0"
     fit-margin-right="0"
     fit-margin-bottom="0"
     units="in" />
  <defs
     id="defs2" />
  <metadata
     id="metadata5">
    <rdf:RDF>
      <cc:Work
         rdf:about="">
        <dc:format>image/svg+xml</dc:format>
        <dc:type
           rdf:resource="http://purl.org/dc/dcmitype/StillImage" />
        <dc:title></dc:title>
      </cc:Work>
    </rdf:RDF>
  </metadata>
  <g
     transform="translate(-26.477475,-39.484489)"
     id="layer1"
     inkscape:groupmode="layer"
     inkscape:label="Layer 1">
    <path
       id="path4522"
       transform="matrix(0.26458333,0,0,0.26458333,26.477475,39.484489)"
       d="M87.445312 2.1816406C87.445312 2.1816406 85.6852788395 5.37532004199 83.5273475573 9.29100806876C82.2666356968 11.5786408482 80.8701149011 14.112706601 79.6094008565 16.4003433438C77.4514556977 20.3160565503 75.691406 23.509766 75.691406 23.509766C75.691406 23.509766 73.0484316819 21.8939162565 69.8079490096 19.9127645446C67.914786344 18.7553312745 65.817684607 17.4732146529 63.9245186616 16.3157793776C60.6840151514 14.334614926 58.041016 12.71875 58.041016 12.71875C58.041016 12.71875 57.1349702168 16.4549454497 56.0240908411 21.0357983668C55.3750901913 23.7120353957 54.6561765898 26.6765674055 54.0071748156 29.352809071C52.8962882963 33.9336914451 51.990234 37.669922 51.990234 37.669922C51.990234 37.669922 47.14501925 36.8564455 42.2998045 36.042969C37.45458975 35.2294925 32.609375 34.416016 32.609375 34.416016C32.609375 34.416016 32.6459327414 38.3294429954 32.6907552456 43.1275949414C32.716941558 45.9307829374 32.7459487649 49.0359415813 32.7721351227 51.8391344337C32.8169579151 56.6373172342 32.853516 60.550781 32.853516 60.550781C32.853516 60.550781 28.049805 61.70166 23.246094 62.852539C18.442383 64.003418 13.638672 65.154297 13.638672 65.154297C13.638672 65.154297 14.6146159463 68.8615386694 15.8111956578 73.4068921029C16.5102643662 76.0623895373 17.2846395582 79.0039478002 17.9837094777 81.6594498352C19.1802968838 86.2048324975 20.15625 89.912109 20.15625 89.912109C20.15625 89.912109 17.5855135668 91.710161966 14.4335999029 93.9147083515C12.5921812387 95.2026538009 10.5523975744 96.629341897 8.71097571998 97.9172895778C5.55904178775 100.12185014 2.9882812 101.91992 2.9882812 101.91992C2.9882812 101.91992 4.80768410496 105.058325004 7.03840710025 108.906242468C8.34164551225 111.154282164 9.78527399023 113.644489709 11.0885146601 115.8925333C13.319252 119.740475507 15.138672 122.87891 15.138672 122.87891C15.138672 122.87891 13.1259520593 125.610207124 10.6582080304 128.958980112C9.21649661382 130.915408409 7.61947826416 133.082591004 6.17776434986 135.039022691C3.71000445219 138.387817213 1.6972656 141.11914 1.6972656 141.11914C1.6972656 141.11914 4.18231085268 143.381329282 7.22916076943 146.154941238C9.00919883579 147.775347558 10.9809897382 149.570310543 12.7610308885 151.190719671C15.8079003979 153.964349463 18.292969 156.22656 18.292969 156.22656C18.292969 156.22656 17.035384583 159.623208586 15.4934927514 163.787751848C14.5926849567 166.220771438 13.5948385353 168.915885652 12.6940291799 171.348909457C11.1521274332 175.513479499 9.8945312 178.91016 9.8945312 178.91016C9.8945312 178.91016 12.8018908175 180.074741059 16.3665294892 181.502603872C18.449071361 182.336793356 20.7559529913 183.260845075 22.838498471 184.095036004C26.403160065 185.522907998 29.310547 186.6875 29.310547 186.6875C29.310547 186.6875 28.9312244767 190.417554301 28.4661469103 194.990877715C28.1944381637 197.662715839 27.8934598618 200.622375076 27.6217506444 203.294217829C27.1566700874 207.867570651 26.777344 211.59766 26.777344 211.59766C26.777344 211.59766 29.8221604317 211.550572672 33.5553313594 211.492840113C35.7363335554 211.459111457 38.1522820509 211.421749415 40.3332880256 211.388020701C44.0664829593 211.33028777 47.111328 211.2832 47.111328 211.2832C47.111328 211.2832 47.6477023203 214.9810841 48.3053370461 219.514964459C48.6895420045 222.163759065 49.1151350612 225.097892445 49.4993406853 227.746691641C50.1569796399 232.280601155 50.693359 235.97852 50.693359 235.97852C50.693359 235.97852 53.5779066145 234.724445166 57.1145760773 233.186856343C59.1807777098 232.288562463 61.4695588649 231.293500764 63.5357640771 230.395205328C67.0724562824 228.857606618 69.957031 227.60352 69.957031 227.60352C69.957031 227.60352 71.3561667293 230.907456893 73.0716109755 234.958328737C74.0738119839 237.324938936 75.1839741024 239.946489871 76.1861768471 242.31310417C77.9016321245 246.364002063 79.300781 249.66797 79.300781 249.66797C79.300781 249.66797 82.24804675 246.845705 85.1953125 244.02344C88.14257825 241.201175 91.089844 238.37891 91.089844 238.37891C90.9341464723 241.543463388 90.9180223388 244.498612104 91.0261401028 247.257929958C91.151584931 250.459458933 91.4442849045 253.397359296 91.8802929928 256.092832661C92.3981930256 259.294575431 93.118289528 262.154272791 94.00044911 264.707457026C95.0674792334 267.795701539 96.3716156802 270.435502148 97.8418362017 272.689738732C99.6130637557 275.405498641 101.625343871 277.561655255 103.754491285 279.268156576C106.235200799 281.256433213 108.874557863 282.634302055 111.476144788 283.575662421C114.522844214 284.678082663 117.517743476 285.181849827 120.145375234 285.366264401C125.263536696 285.725471343 128.98828 284.87305 128.98828 284.87305C128.98828 284.87305 132.524084677 284.835755092 138.706239747 284.770547048C141.450161293 284.741604752 144.715410703 284.707163603 148.424216739 284.668043913C151.392605033 284.636733991 154.645126701 284.602427091 158.141908756 284.565543785C161.2029355 284.533256732 164.451138242 284.498995387 167.859770021 284.463041872C170.97202693 284.430214454 174.218027645 284.395976336 177.577412974 284.360542261C180.722823835 284.327365142 183.967635353 284.293139567 187.295136112 284.258041804C190.463941378 284.224617927 193.707736718 284.19040307 197.012089507 284.155549466C200.199457655 284.121929792 203.4431713 284.087715797 206.730277069 284.053044111C209.931870736 284.019274389 213.174628253 283.985070479 216.4465811 283.950558623C219.661357518 283.916649852 222.904317821 283.882443803 226.16411003 283.848060215C229.390054241 283.814033648 232.632482624 283.77983321 235.880393159 283.745574947C239.117540363 283.711430214 242.360133446 283.677228038 245.597279403 283.643083318C248.845567146 283.608821076 252.088370203 283.574616686 255.314682707 283.540586235C258.574739089 283.50619986 261.817958166 283.471991082 265.032985117 283.438079668C268.305321546 283.403563766 271.548451814 283.369355925 274.750402994 283.335582431C278.037300354 283.300912944 281.280804722 283.266701156 284.467964763 283.233083677C287.772345279 283.198229781 291.016160678 283.164014713 294.18497741 283.130590714C297.512186518 283.095496027 300.756712005 283.061273469 303.901845965 283.028099272C307.260765929 282.992670105 310.506323141 282.958436665 313.618165765 282.925613617C317.026556397 282.889662645 320.274533031 282.855403685 323.335353364 282.823118809C326.831952418 282.786237433 330.084309416 282.75193227 333.05255651 282.720623837C336.760936882 282.681508638 340.025856882 282.647070963 342.769570976 282.618130856C348.95218963 282.552917922 352.48828 282.51562 352.48828 282.51562C352.48828 282.51562 353.052321742 284.489688414 357.370215068 274.869399581C358.376167135 272.628133132 359.585864623 269.757567113 361.039642425 266.086129846C362.051513909 263.530703105 363.181631649 260.587289207 364.443596398 257.19803493C365.44523732 254.507931436 366.529939778 251.536955536 367.704504529 248.256178989C368.694763577 245.490202351 369.748896199 242.504021293 370.87097782 239.280300262C371.850874164 236.465075066 372.882590153 233.468695807 373.968839978 230.279617199C374.939584735 227.429645425 375.953882355 224.425776381 377.01367 221.25977C378.143281484 217.8851711 379.015624783 214.762025591 379.653530346 211.87365453C380.440657636 208.30962277 380.87083715 205.103051452 380.98696127 202.222605246C381.137992327 198.476296285 380.757779553 195.281647821 379.940688098 192.569720735C378.895941447 189.102205896 377.1369592 186.423873057 374.860998439 184.390614681C372.4848662 182.267866847 369.545246617 180.848226177 366.266605451 179.96770764C363.27350617 179.163874812 359.99786567 178.809347378 356.610461906 178.77936231C353.421014944 178.751129542 350.132485721 179.01061557 346.88742747 179.453677135C343.599340906 179.902613538 340.355885775 180.540026047 337.305361448 181.257573521C333.852290437 182.069808441 330.646428045 182.984722941 327.902870284 183.84517713C322.363684292 185.582416221 318.70898 187.09766 318.70898 187.09766C318.70898 187.09766 322.426601304 185.458754102 326.568680472 181.636001515C328.627987068 179.735453676 330.792209202 177.295112677 332.656658125 174.248012086C334.191686231 171.73928954 335.523513963 168.819276821 336.426292071 165.450601211C337.187350451 162.610746344 337.643491975 159.45203587 337.659406761 155.952079199C337.672753533 153.016876499 337.376481538 149.841669689 336.690781052 146.413252144C336.111951037 143.519173724 335.255622361 140.444662589 334.073787912 137.181774694C333.059773411 134.382215377 331.806133022 131.443979722 330.282544027 128.362050036C328.951320339 125.669238646 327.414011117 122.866727629 325.65039 119.95117C323.857325328 116.986937402 322.058078055 114.368113724 320.260036777 112.063642792C318.094899997 109.288681596 315.931511925 106.969535406 313.782773435 105.051978543C311.128864533 102.683602284 308.497303192 100.927840221 305.912396135 99.682524953C302.770779211 98.1690068908 299.698076394 97.4094814096 296.737924324 97.220532503C293.437154168 97.0098416679 290.276326925 97.5085921224 287.315942558 98.4624869949C284.221141457 99.4596936192 281.345398755 100.954314813 278.757835296 102.655817931C275.901097654 104.534321813 273.395614103 106.664988624 271.334398377 108.656857776C267.356458443 112.500965765 265.0332 115.82812 265.0332 115.82812C265.0332 115.828122434 267.390900693 112.582669915 270.010935528 107.348920276C271.305293861 104.763325851 272.663677216 101.69246952 273.833445436 98.2879278887C274.848655193 95.3332195759 275.721799501 92.1271785585 276.287731517 88.7688880481C276.82027577 85.6087234676 277.0807871 82.3137437267 276.93165722 78.9665097203C276.78908987 75.766572319 276.272140954 72.5188784098 275.260581036 69.2955620921C274.320425772 66.2997753402 272.95302283 63.3250460846 271.06184834 60.4292857864C269.381945942 57.8570246363 267.288761248 55.3470739956 264.714640478 52.9400241277C262.490222335 50.8599797646 259.906665353 48.8567765161 256.920312459 46.9566073313C254.344390029 45.3175885691 251.468780283 43.7552289813 248.26546571 42.2863382444C245.472081704 41.0054225562 242.429499473 39.795583855 239.11914 38.667969C235.7137217 37.5079735537 232.541968647 36.5931972422 229.588807645 35.9013381068C226.01334083 35.0636867297 222.758298445 34.5527997913 219.796929357 34.3290969177C216.048313206 34.0459251212 212.7702639 34.2229221619 209.908521725 34.779806593C206.242255147 35.4932484938 203.25927205 36.8301982792 200.84547967 38.6218468711C198.099179848 40.6603006537 196.089687261 43.2873539345 194.648965954 46.2543845121C193.233240655 49.1699381528 192.36672188 52.4137744539 191.889968903 55.7499885219C191.420213223 59.0372370267 191.32886613 62.4141715436 191.463404694 65.655122591C191.61077006 69.2050633745 192.029145809 72.5918555427 192.518093485 75.5189348821C193.473074922 81.2359196914 194.69727 85.199219 194.69727 85.199219C194.69727 85.199219 192.825742519 84.3163238919 189.758343167 83.2960940746C188.30629369 82.8131363625 186.586261465 82.2994033359 184.66992 81.833984C184.66992 81.833984 187.34766 74.597656 187.34766 74.597656C187.34766 74.597656 184.440591747 73.4330743417 180.87631031 72.0052107949C178.793977143 71.1710208819 176.4873267 70.2469686875 174.404989925 69.4127773293C170.840685568 67.9849046006 167.93359 66.820312 167.93359 66.820312C167.93359 66.820312 168.312913571 63.0905507403 168.777992423 58.5175866178C169.04970192 55.8459583996 169.350681054 52.8865316801 169.622391022 50.2148988333C170.087472864 45.6419053044 170.4668 41.912109 170.4668 41.912109C170.4668 41.912109 167.421690676 41.9591952799 163.688160641 42.0169265537C161.506948647 42.0506544588 159.090767752 42.0880156691 156.909551979 42.1217436327C153.175997935 42.1794752777 150.13086 42.226562 150.13086 42.226562C150.13086 42.226562 149.594777823 38.5283866553 148.937501287 33.9941492087C148.55350559 31.3451459832 148.128144339 28.4107815114 147.744147977 25.7617736966C147.086867214 21.2275070927 146.55078 17.529297 146.55078 17.529297C146.55078 17.529297 143.666232685 18.7833718343 140.129563589 20.320960657C138.063362171 21.2192545374 135.774581254 22.2143162356 133.708376256 23.1126116723C130.171684418 24.6502103825 127.28711 25.904297 127.28711 25.904297C127.28711 25.904297 125.887974271 22.600359628 124.172530024 18.5494871958C123.170329016 16.1828766544 122.060166898 13.5613253385 121.057964153 11.1947106969C119.342508876 7.14381221569 117.94336 3.8398438 117.94336 3.8398438C117.94336 3.8398438 115.501599181 6.17836576416 112.507819193 9.04556725441C110.75878577 10.7206506802 108.821339455 12.5761808075 107.072303001 14.2512671354C104.078503761 17.1184870632 101.63672 19.457031 101.63672 19.457031C101.63672 19.457031 99.5116946106 16.8702092265 96.9062557666 13.6985737415C95.3840999503 11.845633147 93.6979714077 9.79308636398 92.1758129543 7.94014255933C89.570357356 4.76848667921 87.445312 2.1816406 87.445312 2.1816406C87.445312 2.1816406 87.445312 2.1816406 87.445312 2.1816406"
       style="fill:none;fill-opacity:1;stroke:#000000;stroke-width:2.53451467;stroke-miterlimit:4;stroke-dasharray:none;stroke-opacity:1" />
  </g>
</svg>
