G75*
%MOIN*%
%OFA0B0*%
%FSLAX25Y25*%
%IPPOS*%
%LPD*%
%AMOC8*
5,1,8,0,0,1.08239X$1,22.5*
%
%ADD10C,0.00098*%
%ADD11C,0.00000*%
D10*
X0067607Y0067286D02*
X0075968Y0070921D01*
X0084329Y0074556D01*
X0092690Y0078191D01*
X0096745Y0068615D01*
X0100801Y0059038D01*
X0104856Y0049462D01*
X0112531Y0056811D01*
X0120207Y0064161D01*
X0136698Y0010920D02*
X0137349Y0010412D01*
X0138012Y0009920D01*
X0138687Y0009444D01*
X0139373Y0008983D01*
X0140069Y0008539D01*
X0140776Y0008111D01*
X0141493Y0007700D01*
X0142219Y0007306D01*
X0142954Y0006930D01*
X0143698Y0006571D01*
X0144450Y0006229D01*
X0145210Y0005905D01*
X0145977Y0005599D01*
X0146752Y0005312D01*
X0169553Y0003622D02*
X0182207Y0003755D01*
X0194861Y0003889D01*
X0207514Y0004022D01*
X0220167Y0004155D01*
X0232821Y0004289D01*
X0245474Y0004422D01*
X0258126Y0004556D01*
X0270780Y0004689D01*
X0283431Y0004823D01*
X0296084Y0004956D01*
X0308736Y0005090D01*
X0321388Y0005223D01*
X0334041Y0005357D01*
X0346695Y0005490D01*
X0359348Y0005623D01*
X0372001Y0005757D01*
X0384653Y0005890D01*
X0397306Y0006024D01*
X0409957Y0006157D01*
X0422610Y0006291D01*
X0435262Y0006424D01*
X0447915Y0006558D01*
X0460569Y0006691D01*
X0460573Y0006679D01*
X0460587Y0006648D01*
X0460612Y0006605D01*
X0460650Y0006559D01*
X0460702Y0006516D01*
X0460772Y0006485D01*
X0460860Y0006473D01*
X0460968Y0006489D01*
X0461098Y0006538D01*
X0461252Y0006630D01*
X0461432Y0006772D01*
X0461639Y0006972D01*
X0461876Y0007236D01*
X0462143Y0007574D01*
X0462444Y0007992D01*
X0462779Y0008499D01*
X0463151Y0009101D01*
X0463561Y0009807D01*
X0464011Y0010624D01*
X0464503Y0011560D01*
X0465038Y0012623D01*
X0465620Y0013820D01*
X0466248Y0015159D01*
X0466926Y0016647D01*
X0440800Y0138538D02*
X0443897Y0139236D01*
X0447010Y0139860D01*
X0450137Y0140410D01*
X0453276Y0140886D01*
X0489700Y0134458D02*
X0490105Y0134083D01*
X0490500Y0133698D01*
X0490887Y0133303D01*
X0491263Y0132899D01*
X0491630Y0132486D01*
X0491986Y0132064D01*
X0492332Y0131634D01*
X0492668Y0131195D01*
X0492992Y0130749D01*
X0493306Y0130294D01*
X0493609Y0129832D01*
X0493900Y0129363D01*
X0494180Y0128887D01*
X0494448Y0128405D01*
X0494705Y0127915D01*
X0494949Y0127420D01*
X0495181Y0126919D01*
X0495401Y0126413D01*
X0495609Y0125901D01*
X0495804Y0125385D01*
X0495987Y0124863D01*
X0496157Y0124338D01*
X0496314Y0123809D01*
X0489700Y0134459D02*
X0489214Y0134867D01*
X0488718Y0135263D01*
X0488212Y0135648D01*
X0487698Y0136021D01*
X0487176Y0136382D01*
X0486645Y0136731D01*
X0486106Y0137067D01*
X0485559Y0137390D01*
X0485005Y0137700D01*
X0484444Y0137997D01*
X0483876Y0138281D01*
X0483301Y0138552D01*
X0482720Y0138809D01*
X0482134Y0139052D01*
X0481542Y0139282D01*
X0480944Y0139497D01*
X0480342Y0139699D01*
X0479735Y0139886D01*
X0479124Y0140059D01*
X0478509Y0140218D01*
X0496314Y0123808D02*
X0496549Y0122932D01*
X0496763Y0122050D01*
X0496957Y0121164D01*
X0497129Y0120273D01*
X0497280Y0119379D01*
X0497410Y0118481D01*
X0497519Y0117580D01*
X0497606Y0116677D01*
X0497671Y0115772D01*
X0497715Y0114866D01*
X0497738Y0113959D01*
X0497739Y0113052D01*
X0497718Y0112145D01*
X0497676Y0111239D01*
X0478510Y0140217D02*
X0477388Y0140488D01*
X0476259Y0140733D01*
X0475126Y0140953D01*
X0473987Y0141146D01*
X0472845Y0141313D01*
X0471699Y0141454D01*
X0470550Y0141569D01*
X0469398Y0141657D01*
X0468245Y0141720D01*
X0467091Y0141755D01*
X0465937Y0141765D01*
X0497676Y0111239D02*
X0497581Y0109654D01*
X0497450Y0108072D01*
X0497285Y0106493D01*
X0497085Y0104918D01*
X0496851Y0103347D01*
X0496581Y0101783D01*
X0496278Y0100224D01*
X0495940Y0098673D01*
X0492503Y0086451D02*
X0488539Y0074707D01*
X0484505Y0062987D01*
X0480382Y0051300D01*
X0465936Y0141764D02*
X0463819Y0141744D01*
X0461704Y0141673D01*
X0459590Y0141552D01*
X0457480Y0141380D01*
X0455375Y0141158D01*
X0453276Y0140886D01*
X0354900Y0233069D02*
X0353787Y0231982D01*
X0352698Y0230871D01*
X0351634Y0229737D01*
X0350594Y0228579D01*
X0349580Y0227399D01*
X0348592Y0226198D01*
X0347630Y0224975D01*
X0346695Y0223732D01*
X0399923Y0244754D02*
X0400847Y0244284D01*
X0401761Y0243793D01*
X0402662Y0243280D01*
X0403552Y0242747D01*
X0404428Y0242193D01*
X0405292Y0241618D01*
X0406142Y0241024D01*
X0406978Y0240409D01*
X0407799Y0239776D01*
X0408605Y0239123D01*
X0409396Y0238452D01*
X0410171Y0237763D01*
X0399923Y0244756D02*
X0399221Y0245090D01*
X0398511Y0245407D01*
X0397793Y0245707D01*
X0397068Y0245989D01*
X0396337Y0246254D01*
X0395599Y0246501D01*
X0394855Y0246730D01*
X0394107Y0246940D01*
X0393353Y0247133D01*
X0392595Y0247307D01*
X0391833Y0247463D01*
X0391067Y0247600D01*
X0390298Y0247718D01*
X0389527Y0247818D01*
X0388753Y0247899D01*
X0387977Y0247961D01*
X0387977Y0247960D02*
X0387200Y0247996D01*
X0386422Y0248013D01*
X0385644Y0248012D01*
X0384866Y0247993D01*
X0384089Y0247955D01*
X0383313Y0247899D01*
X0382539Y0247825D01*
X0381766Y0247732D01*
X0380996Y0247621D01*
X0380229Y0247493D01*
X0379465Y0247346D01*
X0378705Y0247181D01*
X0377949Y0246998D01*
X0377197Y0246797D01*
X0376450Y0246579D01*
X0375709Y0246343D01*
X0375710Y0246344D02*
X0374641Y0245973D01*
X0373581Y0245577D01*
X0372531Y0245155D01*
X0371492Y0244708D01*
X0370464Y0244235D01*
X0369448Y0243737D01*
X0368444Y0243214D01*
X0367454Y0242667D01*
X0366477Y0242096D01*
X0365514Y0241502D01*
X0364566Y0240884D01*
X0360012Y0284322D02*
X0359680Y0285337D01*
X0359325Y0286344D01*
X0358947Y0287343D01*
X0358547Y0288332D01*
X0358123Y0289313D01*
X0357677Y0290283D01*
X0357209Y0291243D01*
X0356719Y0292191D01*
X0356207Y0293129D01*
X0355674Y0294054D01*
X0355120Y0294967D01*
X0354545Y0295866D01*
X0250901Y0289062D02*
X0251020Y0286911D01*
X0251183Y0284763D01*
X0251390Y0282619D01*
X0251641Y0280479D01*
X0251936Y0278345D01*
X0252274Y0276218D01*
X0245542Y0277418D02*
X0237116Y0280793D01*
X0228690Y0284169D01*
X0220264Y0287544D01*
X0221363Y0298355D01*
X0222462Y0309166D01*
X0223562Y0319977D01*
X0214736Y0319840D01*
X0205909Y0319704D01*
X0197083Y0319568D01*
X0195529Y0330287D01*
X0193975Y0341006D01*
X0192421Y0351725D01*
X0184060Y0348090D01*
X0175699Y0344455D01*
X0167338Y0340820D01*
X0163283Y0350397D01*
X0159228Y0359974D01*
X0155172Y0369550D01*
X0148095Y0362772D01*
X0141017Y0355994D01*
X0133939Y0349215D01*
X0127780Y0356713D01*
X0121621Y0364211D01*
X0115461Y0371709D01*
X0110360Y0362452D01*
X0105258Y0353195D01*
X0100156Y0343938D01*
X0092496Y0348622D01*
X0084835Y0353306D01*
X0077174Y0357989D01*
X0074548Y0347160D01*
X0071922Y0336330D01*
X0069296Y0325501D01*
X0056678Y0327619D01*
X0044060Y0329737D01*
X0044166Y0318394D01*
X0044272Y0307051D01*
X0044378Y0295708D01*
X0031868Y0292711D01*
X0019359Y0289714D01*
X0022187Y0278968D01*
X0025016Y0268223D01*
X0027845Y0257477D01*
X0020394Y0252265D01*
X0012942Y0247054D01*
X0005491Y0241842D01*
X0010765Y0232745D01*
X0016038Y0223648D01*
X0021312Y0214551D01*
X0015478Y0206635D01*
X0009644Y0198718D01*
X0003810Y0190801D01*
X0011013Y0184244D01*
X0018216Y0177687D01*
X0025419Y0171130D01*
X0021774Y0161285D01*
X0018129Y0151439D01*
X0014484Y0141594D01*
X0022911Y0138219D01*
X0031338Y0134843D01*
X0039765Y0131467D01*
X0038665Y0120656D01*
X0037566Y0109844D01*
X0036466Y0099032D01*
X0045292Y0099169D01*
X0054117Y0099305D01*
X0062943Y0099442D01*
X0064498Y0088723D01*
X0066052Y0078005D01*
X0067607Y0067286D01*
X0146751Y0005311D02*
X0147662Y0004998D01*
X0148581Y0004707D01*
X0149505Y0004436D01*
X0150436Y0004187D01*
X0151373Y0003960D01*
X0152314Y0003754D01*
X0153260Y0003570D01*
X0154210Y0003408D01*
X0155163Y0003268D01*
X0156119Y0003149D01*
X0157078Y0003053D01*
X0158039Y0002979D01*
X0136697Y0010920D02*
X0136012Y0011487D01*
X0135340Y0012071D01*
X0134684Y0012671D01*
X0134042Y0013287D01*
X0133415Y0013919D01*
X0132805Y0014566D01*
X0132210Y0015228D01*
X0131632Y0015904D01*
X0131070Y0016594D01*
X0130526Y0017297D01*
X0129999Y0018014D01*
X0129489Y0018744D01*
X0128998Y0019485D01*
X0158039Y0002979D02*
X0159089Y0002910D01*
X0160139Y0002867D01*
X0161190Y0002849D01*
X0162242Y0002856D01*
X0163293Y0002889D01*
X0164343Y0002948D01*
X0165391Y0003032D01*
X0166437Y0003141D01*
X0167479Y0003276D01*
X0168518Y0003436D01*
X0169554Y0003621D01*
X0128998Y0019485D02*
X0128440Y0020375D01*
X0127901Y0021278D01*
X0127383Y0022192D01*
X0126885Y0023118D01*
X0126408Y0024055D01*
X0125952Y0025002D01*
X0125518Y0025960D01*
X0125105Y0026926D01*
X0124713Y0027902D01*
X0124344Y0028886D01*
X0123996Y0029878D01*
X0123996Y0029879D02*
X0123546Y0031252D01*
X0123126Y0032636D01*
X0122735Y0034028D01*
X0122374Y0035428D01*
X0122044Y0036835D01*
X0121744Y0038249D01*
X0121475Y0039670D01*
X0121236Y0041096D01*
X0121235Y0041096D02*
X0120902Y0043385D01*
X0120623Y0045681D01*
X0120401Y0047983D01*
X0120234Y0050290D01*
X0120123Y0052600D01*
X0466927Y0016647D02*
X0469379Y0022339D01*
X0471705Y0028084D01*
X0428557Y0135168D02*
X0425533Y0134200D01*
X0422529Y0133171D01*
X0419546Y0132082D01*
X0416586Y0130933D01*
X0495940Y0098673D02*
X0495356Y0096201D01*
X0494720Y0093741D01*
X0494032Y0091296D01*
X0493293Y0088866D01*
X0492503Y0086451D01*
X0440800Y0138537D02*
X0436692Y0137512D01*
X0432610Y0136389D01*
X0428557Y0135168D01*
X0426820Y0138045D02*
X0426113Y0137392D01*
X0425391Y0136755D01*
X0424655Y0136136D01*
X0423904Y0135534D01*
X0423140Y0134949D01*
X0422363Y0134381D01*
X0421573Y0133832D01*
X0420770Y0133302D01*
X0419956Y0132790D01*
X0419129Y0132296D01*
X0418292Y0131822D01*
X0417444Y0131368D01*
X0416586Y0130933D01*
X0434747Y0147665D02*
X0435280Y0148560D01*
X0435791Y0149468D01*
X0436281Y0150388D01*
X0436748Y0151320D01*
X0437192Y0152262D01*
X0437614Y0153215D01*
X0438013Y0154178D01*
X0438389Y0155150D01*
X0438741Y0156130D01*
X0439070Y0157119D01*
X0439374Y0158116D01*
X0439655Y0159120D01*
X0364566Y0240883D02*
X0363281Y0240006D01*
X0362016Y0239100D01*
X0360773Y0238164D01*
X0359552Y0237200D01*
X0358354Y0236208D01*
X0357178Y0235189D01*
X0356027Y0234142D01*
X0354900Y0233070D01*
X0354546Y0295867D02*
X0353828Y0296928D01*
X0353085Y0297972D01*
X0352317Y0298998D01*
X0351524Y0300004D01*
X0350708Y0300992D01*
X0349867Y0301959D01*
X0349004Y0302906D01*
X0348118Y0303832D01*
X0347210Y0304736D01*
X0346281Y0305618D01*
X0252275Y0276218D02*
X0252720Y0273671D01*
X0253226Y0271136D01*
X0253794Y0268613D01*
X0254423Y0266106D01*
X0255112Y0263614D01*
X0242056Y0267995D02*
X0245542Y0277418D01*
X0353177Y0234773D02*
X0354114Y0236692D01*
X0355009Y0238631D01*
X0355861Y0240590D01*
X0356669Y0242567D01*
X0357434Y0244561D01*
X0358154Y0246571D01*
X0362189Y0271729D02*
X0362127Y0272892D01*
X0362038Y0274053D01*
X0361922Y0275213D01*
X0361778Y0276369D01*
X0361607Y0277521D01*
X0361408Y0278669D01*
X0361183Y0279812D01*
X0360930Y0280949D01*
X0360651Y0282080D01*
X0360345Y0283204D01*
X0360013Y0284321D01*
X0250902Y0289061D02*
X0250843Y0290676D01*
X0250820Y0292292D01*
X0250835Y0293908D01*
X0250886Y0295523D01*
X0250974Y0297136D01*
X0251098Y0298747D01*
X0251259Y0300355D01*
X0251457Y0301959D01*
X0255049Y0314323D02*
X0255331Y0314905D01*
X0255626Y0315479D01*
X0255936Y0316047D01*
X0256260Y0316606D01*
X0256597Y0317158D01*
X0256947Y0317701D01*
X0257310Y0318236D01*
X0257687Y0318761D01*
X0258075Y0319277D01*
X0258477Y0319784D01*
X0258890Y0320281D01*
X0259316Y0320768D01*
X0259753Y0321244D01*
X0260201Y0321709D01*
X0260661Y0322164D01*
X0261131Y0322607D01*
X0261613Y0323038D01*
X0262104Y0323458D01*
X0262606Y0323866D01*
X0263117Y0324261D01*
X0263118Y0324261D02*
X0263673Y0324654D01*
X0264238Y0325033D01*
X0264812Y0325398D01*
X0265395Y0325750D01*
X0265985Y0326088D01*
X0266584Y0326411D01*
X0267189Y0326721D01*
X0267803Y0327016D01*
X0268422Y0327296D01*
X0269049Y0327562D01*
X0269681Y0327812D01*
X0270320Y0328048D01*
X0270963Y0328268D01*
X0271612Y0328473D01*
X0272265Y0328662D01*
X0272923Y0328836D01*
X0273585Y0328995D01*
X0274250Y0329137D01*
X0274918Y0329264D01*
X0255050Y0314323D02*
X0254640Y0313417D01*
X0254251Y0312502D01*
X0253884Y0311578D01*
X0253540Y0310645D01*
X0253217Y0309704D01*
X0252917Y0308756D01*
X0252640Y0307801D01*
X0252385Y0306840D01*
X0252153Y0305873D01*
X0251944Y0304901D01*
X0251759Y0303924D01*
X0251596Y0302943D01*
X0251457Y0301959D01*
X0353177Y0234773D02*
X0352352Y0233139D01*
X0351493Y0231522D01*
X0350600Y0229924D01*
X0349673Y0228345D01*
X0348713Y0226787D01*
X0347720Y0225249D01*
X0346695Y0223732D01*
X0346280Y0305617D02*
X0345093Y0306692D01*
X0343881Y0307739D01*
X0342646Y0308758D01*
X0341387Y0309748D01*
X0340105Y0310708D01*
X0338802Y0311639D01*
X0337477Y0312539D01*
X0336132Y0313408D01*
X0287794Y0329850D02*
X0286622Y0329940D01*
X0285449Y0330000D01*
X0284274Y0330032D01*
X0283099Y0330036D01*
X0281924Y0330011D01*
X0280750Y0329958D01*
X0279578Y0329876D01*
X0278408Y0329765D01*
X0277241Y0329626D01*
X0276077Y0329459D01*
X0274919Y0329264D01*
X0361349Y0258965D02*
X0361018Y0257165D01*
X0360644Y0255373D01*
X0360228Y0253590D01*
X0359771Y0251818D01*
X0359273Y0250056D01*
X0358734Y0248307D01*
X0358154Y0246571D01*
X0361350Y0258966D02*
X0361576Y0260372D01*
X0361769Y0261782D01*
X0361929Y0263197D01*
X0362056Y0264615D01*
X0362149Y0266036D01*
X0362209Y0267459D01*
X0362236Y0268882D01*
X0362229Y0270306D01*
X0362188Y0271729D01*
X0336131Y0313409D02*
X0334313Y0314529D01*
X0332469Y0315607D01*
X0330601Y0316642D01*
X0328710Y0317635D01*
X0326796Y0318584D01*
X0324862Y0319490D01*
X0300544Y0327804D02*
X0298744Y0328216D01*
X0296936Y0328589D01*
X0295119Y0328922D01*
X0293296Y0329215D01*
X0291467Y0329467D01*
X0289633Y0329679D01*
X0287794Y0329851D01*
X0312953Y0324201D02*
X0315372Y0323356D01*
X0317774Y0322462D01*
X0320156Y0321520D01*
X0322520Y0320529D01*
X0324862Y0319490D01*
X0255112Y0263613D02*
X0253848Y0264164D01*
X0252572Y0264688D01*
X0251285Y0265184D01*
X0249988Y0265651D01*
X0248681Y0266091D01*
X0300544Y0327804D02*
X0303679Y0327018D01*
X0306793Y0326155D01*
X0309885Y0325216D01*
X0312953Y0324202D01*
X0410171Y0237763D02*
X0411313Y0236707D01*
X0412431Y0235625D01*
X0413524Y0234519D01*
X0414593Y0233388D01*
X0415636Y0232233D01*
X0416652Y0231056D01*
X0417642Y0229856D01*
X0418605Y0228634D01*
X0434746Y0147665D02*
X0434190Y0146783D01*
X0433614Y0145915D01*
X0433018Y0145060D01*
X0432403Y0144219D01*
X0431768Y0143393D01*
X0431115Y0142581D01*
X0430443Y0141784D01*
X0429753Y0141004D01*
X0429045Y0140239D01*
X0428320Y0139491D01*
X0427578Y0138759D01*
X0426819Y0138045D01*
X0439655Y0159120D02*
X0439933Y0160222D01*
X0440184Y0161331D01*
X0440410Y0162446D01*
X0440609Y0163565D01*
X0440781Y0164689D01*
X0440928Y0165816D01*
X0441048Y0166947D01*
X0441141Y0168080D01*
X0441208Y0169215D01*
X0441248Y0170351D01*
X0441261Y0171488D01*
X0441261Y0171487D02*
X0441245Y0172876D01*
X0441198Y0174265D01*
X0441120Y0175652D01*
X0441011Y0177038D01*
X0440871Y0178420D01*
X0440699Y0179799D01*
X0440497Y0181173D01*
X0440264Y0182543D01*
X0440000Y0183907D01*
X0439999Y0183907D02*
X0439623Y0185654D01*
X0439210Y0187392D01*
X0438760Y0189121D01*
X0438272Y0190839D01*
X0437748Y0192547D01*
X0437188Y0194244D01*
X0436591Y0195927D01*
X0425624Y0218364D02*
X0424319Y0220483D01*
X0422963Y0222571D01*
X0421559Y0224626D01*
X0420106Y0226648D01*
X0418606Y0228634D01*
X0431656Y0207412D02*
X0432745Y0205160D01*
X0433784Y0202885D01*
X0434771Y0200587D01*
X0435708Y0198268D01*
X0436592Y0195928D01*
X0431655Y0207412D02*
X0430235Y0210197D01*
X0428756Y0212952D01*
X0427218Y0215674D01*
X0425624Y0218364D01*
X0248681Y0266091D02*
X0247039Y0266618D01*
X0245387Y0267111D01*
X0243726Y0267570D01*
X0242055Y0267995D01*
X0476136Y0039656D02*
X0471704Y0028083D01*
X0120124Y0052600D02*
X0120050Y0055490D01*
X0120038Y0058381D01*
X0120091Y0061272D01*
X0120207Y0064161D01*
X0476136Y0039657D02*
X0480382Y0051300D01*
D11*
X0450301Y0031600D02*
X0450303Y0031758D01*
X0450309Y0031916D01*
X0450319Y0032074D01*
X0450333Y0032232D01*
X0450351Y0032389D01*
X0450372Y0032546D01*
X0450398Y0032702D01*
X0450428Y0032858D01*
X0450461Y0033013D01*
X0450499Y0033166D01*
X0450540Y0033319D01*
X0450585Y0033471D01*
X0450634Y0033622D01*
X0450687Y0033771D01*
X0450743Y0033919D01*
X0450803Y0034065D01*
X0450867Y0034210D01*
X0450935Y0034353D01*
X0451006Y0034495D01*
X0451080Y0034635D01*
X0451158Y0034772D01*
X0451240Y0034908D01*
X0451324Y0035042D01*
X0451413Y0035173D01*
X0451504Y0035302D01*
X0451599Y0035429D01*
X0451696Y0035554D01*
X0451797Y0035676D01*
X0451901Y0035795D01*
X0452008Y0035912D01*
X0452118Y0036026D01*
X0452231Y0036137D01*
X0452346Y0036246D01*
X0452464Y0036351D01*
X0452585Y0036453D01*
X0452708Y0036553D01*
X0452834Y0036649D01*
X0452962Y0036742D01*
X0453092Y0036832D01*
X0453225Y0036918D01*
X0453360Y0037002D01*
X0453496Y0037081D01*
X0453635Y0037158D01*
X0453776Y0037230D01*
X0453918Y0037300D01*
X0454062Y0037365D01*
X0454208Y0037427D01*
X0454355Y0037485D01*
X0454504Y0037540D01*
X0454654Y0037591D01*
X0454805Y0037638D01*
X0454957Y0037681D01*
X0455110Y0037720D01*
X0455265Y0037756D01*
X0455420Y0037787D01*
X0455576Y0037815D01*
X0455732Y0037839D01*
X0455889Y0037859D01*
X0456047Y0037875D01*
X0456204Y0037887D01*
X0456363Y0037895D01*
X0456521Y0037899D01*
X0456679Y0037899D01*
X0456837Y0037895D01*
X0456996Y0037887D01*
X0457153Y0037875D01*
X0457311Y0037859D01*
X0457468Y0037839D01*
X0457624Y0037815D01*
X0457780Y0037787D01*
X0457935Y0037756D01*
X0458090Y0037720D01*
X0458243Y0037681D01*
X0458395Y0037638D01*
X0458546Y0037591D01*
X0458696Y0037540D01*
X0458845Y0037485D01*
X0458992Y0037427D01*
X0459138Y0037365D01*
X0459282Y0037300D01*
X0459424Y0037230D01*
X0459565Y0037158D01*
X0459704Y0037081D01*
X0459840Y0037002D01*
X0459975Y0036918D01*
X0460108Y0036832D01*
X0460238Y0036742D01*
X0460366Y0036649D01*
X0460492Y0036553D01*
X0460615Y0036453D01*
X0460736Y0036351D01*
X0460854Y0036246D01*
X0460969Y0036137D01*
X0461082Y0036026D01*
X0461192Y0035912D01*
X0461299Y0035795D01*
X0461403Y0035676D01*
X0461504Y0035554D01*
X0461601Y0035429D01*
X0461696Y0035302D01*
X0461787Y0035173D01*
X0461876Y0035042D01*
X0461960Y0034908D01*
X0462042Y0034772D01*
X0462120Y0034635D01*
X0462194Y0034495D01*
X0462265Y0034353D01*
X0462333Y0034210D01*
X0462397Y0034065D01*
X0462457Y0033919D01*
X0462513Y0033771D01*
X0462566Y0033622D01*
X0462615Y0033471D01*
X0462660Y0033319D01*
X0462701Y0033166D01*
X0462739Y0033013D01*
X0462772Y0032858D01*
X0462802Y0032702D01*
X0462828Y0032546D01*
X0462849Y0032389D01*
X0462867Y0032232D01*
X0462881Y0032074D01*
X0462891Y0031916D01*
X0462897Y0031758D01*
X0462899Y0031600D01*
X0462897Y0031442D01*
X0462891Y0031284D01*
X0462881Y0031126D01*
X0462867Y0030968D01*
X0462849Y0030811D01*
X0462828Y0030654D01*
X0462802Y0030498D01*
X0462772Y0030342D01*
X0462739Y0030187D01*
X0462701Y0030034D01*
X0462660Y0029881D01*
X0462615Y0029729D01*
X0462566Y0029578D01*
X0462513Y0029429D01*
X0462457Y0029281D01*
X0462397Y0029135D01*
X0462333Y0028990D01*
X0462265Y0028847D01*
X0462194Y0028705D01*
X0462120Y0028565D01*
X0462042Y0028428D01*
X0461960Y0028292D01*
X0461876Y0028158D01*
X0461787Y0028027D01*
X0461696Y0027898D01*
X0461601Y0027771D01*
X0461504Y0027646D01*
X0461403Y0027524D01*
X0461299Y0027405D01*
X0461192Y0027288D01*
X0461082Y0027174D01*
X0460969Y0027063D01*
X0460854Y0026954D01*
X0460736Y0026849D01*
X0460615Y0026747D01*
X0460492Y0026647D01*
X0460366Y0026551D01*
X0460238Y0026458D01*
X0460108Y0026368D01*
X0459975Y0026282D01*
X0459840Y0026198D01*
X0459704Y0026119D01*
X0459565Y0026042D01*
X0459424Y0025970D01*
X0459282Y0025900D01*
X0459138Y0025835D01*
X0458992Y0025773D01*
X0458845Y0025715D01*
X0458696Y0025660D01*
X0458546Y0025609D01*
X0458395Y0025562D01*
X0458243Y0025519D01*
X0458090Y0025480D01*
X0457935Y0025444D01*
X0457780Y0025413D01*
X0457624Y0025385D01*
X0457468Y0025361D01*
X0457311Y0025341D01*
X0457153Y0025325D01*
X0456996Y0025313D01*
X0456837Y0025305D01*
X0456679Y0025301D01*
X0456521Y0025301D01*
X0456363Y0025305D01*
X0456204Y0025313D01*
X0456047Y0025325D01*
X0455889Y0025341D01*
X0455732Y0025361D01*
X0455576Y0025385D01*
X0455420Y0025413D01*
X0455265Y0025444D01*
X0455110Y0025480D01*
X0454957Y0025519D01*
X0454805Y0025562D01*
X0454654Y0025609D01*
X0454504Y0025660D01*
X0454355Y0025715D01*
X0454208Y0025773D01*
X0454062Y0025835D01*
X0453918Y0025900D01*
X0453776Y0025970D01*
X0453635Y0026042D01*
X0453496Y0026119D01*
X0453360Y0026198D01*
X0453225Y0026282D01*
X0453092Y0026368D01*
X0452962Y0026458D01*
X0452834Y0026551D01*
X0452708Y0026647D01*
X0452585Y0026747D01*
X0452464Y0026849D01*
X0452346Y0026954D01*
X0452231Y0027063D01*
X0452118Y0027174D01*
X0452008Y0027288D01*
X0451901Y0027405D01*
X0451797Y0027524D01*
X0451696Y0027646D01*
X0451599Y0027771D01*
X0451504Y0027898D01*
X0451413Y0028027D01*
X0451324Y0028158D01*
X0451240Y0028292D01*
X0451158Y0028428D01*
X0451080Y0028565D01*
X0451006Y0028705D01*
X0450935Y0028847D01*
X0450867Y0028990D01*
X0450803Y0029135D01*
X0450743Y0029281D01*
X0450687Y0029429D01*
X0450634Y0029578D01*
X0450585Y0029729D01*
X0450540Y0029881D01*
X0450499Y0030034D01*
X0450461Y0030187D01*
X0450428Y0030342D01*
X0450398Y0030498D01*
X0450372Y0030654D01*
X0450351Y0030811D01*
X0450333Y0030968D01*
X0450319Y0031126D01*
X0450309Y0031284D01*
X0450303Y0031442D01*
X0450301Y0031600D01*
X0450301Y0111600D02*
X0450303Y0111758D01*
X0450309Y0111916D01*
X0450319Y0112074D01*
X0450333Y0112232D01*
X0450351Y0112389D01*
X0450372Y0112546D01*
X0450398Y0112702D01*
X0450428Y0112858D01*
X0450461Y0113013D01*
X0450499Y0113166D01*
X0450540Y0113319D01*
X0450585Y0113471D01*
X0450634Y0113622D01*
X0450687Y0113771D01*
X0450743Y0113919D01*
X0450803Y0114065D01*
X0450867Y0114210D01*
X0450935Y0114353D01*
X0451006Y0114495D01*
X0451080Y0114635D01*
X0451158Y0114772D01*
X0451240Y0114908D01*
X0451324Y0115042D01*
X0451413Y0115173D01*
X0451504Y0115302D01*
X0451599Y0115429D01*
X0451696Y0115554D01*
X0451797Y0115676D01*
X0451901Y0115795D01*
X0452008Y0115912D01*
X0452118Y0116026D01*
X0452231Y0116137D01*
X0452346Y0116246D01*
X0452464Y0116351D01*
X0452585Y0116453D01*
X0452708Y0116553D01*
X0452834Y0116649D01*
X0452962Y0116742D01*
X0453092Y0116832D01*
X0453225Y0116918D01*
X0453360Y0117002D01*
X0453496Y0117081D01*
X0453635Y0117158D01*
X0453776Y0117230D01*
X0453918Y0117300D01*
X0454062Y0117365D01*
X0454208Y0117427D01*
X0454355Y0117485D01*
X0454504Y0117540D01*
X0454654Y0117591D01*
X0454805Y0117638D01*
X0454957Y0117681D01*
X0455110Y0117720D01*
X0455265Y0117756D01*
X0455420Y0117787D01*
X0455576Y0117815D01*
X0455732Y0117839D01*
X0455889Y0117859D01*
X0456047Y0117875D01*
X0456204Y0117887D01*
X0456363Y0117895D01*
X0456521Y0117899D01*
X0456679Y0117899D01*
X0456837Y0117895D01*
X0456996Y0117887D01*
X0457153Y0117875D01*
X0457311Y0117859D01*
X0457468Y0117839D01*
X0457624Y0117815D01*
X0457780Y0117787D01*
X0457935Y0117756D01*
X0458090Y0117720D01*
X0458243Y0117681D01*
X0458395Y0117638D01*
X0458546Y0117591D01*
X0458696Y0117540D01*
X0458845Y0117485D01*
X0458992Y0117427D01*
X0459138Y0117365D01*
X0459282Y0117300D01*
X0459424Y0117230D01*
X0459565Y0117158D01*
X0459704Y0117081D01*
X0459840Y0117002D01*
X0459975Y0116918D01*
X0460108Y0116832D01*
X0460238Y0116742D01*
X0460366Y0116649D01*
X0460492Y0116553D01*
X0460615Y0116453D01*
X0460736Y0116351D01*
X0460854Y0116246D01*
X0460969Y0116137D01*
X0461082Y0116026D01*
X0461192Y0115912D01*
X0461299Y0115795D01*
X0461403Y0115676D01*
X0461504Y0115554D01*
X0461601Y0115429D01*
X0461696Y0115302D01*
X0461787Y0115173D01*
X0461876Y0115042D01*
X0461960Y0114908D01*
X0462042Y0114772D01*
X0462120Y0114635D01*
X0462194Y0114495D01*
X0462265Y0114353D01*
X0462333Y0114210D01*
X0462397Y0114065D01*
X0462457Y0113919D01*
X0462513Y0113771D01*
X0462566Y0113622D01*
X0462615Y0113471D01*
X0462660Y0113319D01*
X0462701Y0113166D01*
X0462739Y0113013D01*
X0462772Y0112858D01*
X0462802Y0112702D01*
X0462828Y0112546D01*
X0462849Y0112389D01*
X0462867Y0112232D01*
X0462881Y0112074D01*
X0462891Y0111916D01*
X0462897Y0111758D01*
X0462899Y0111600D01*
X0462897Y0111442D01*
X0462891Y0111284D01*
X0462881Y0111126D01*
X0462867Y0110968D01*
X0462849Y0110811D01*
X0462828Y0110654D01*
X0462802Y0110498D01*
X0462772Y0110342D01*
X0462739Y0110187D01*
X0462701Y0110034D01*
X0462660Y0109881D01*
X0462615Y0109729D01*
X0462566Y0109578D01*
X0462513Y0109429D01*
X0462457Y0109281D01*
X0462397Y0109135D01*
X0462333Y0108990D01*
X0462265Y0108847D01*
X0462194Y0108705D01*
X0462120Y0108565D01*
X0462042Y0108428D01*
X0461960Y0108292D01*
X0461876Y0108158D01*
X0461787Y0108027D01*
X0461696Y0107898D01*
X0461601Y0107771D01*
X0461504Y0107646D01*
X0461403Y0107524D01*
X0461299Y0107405D01*
X0461192Y0107288D01*
X0461082Y0107174D01*
X0460969Y0107063D01*
X0460854Y0106954D01*
X0460736Y0106849D01*
X0460615Y0106747D01*
X0460492Y0106647D01*
X0460366Y0106551D01*
X0460238Y0106458D01*
X0460108Y0106368D01*
X0459975Y0106282D01*
X0459840Y0106198D01*
X0459704Y0106119D01*
X0459565Y0106042D01*
X0459424Y0105970D01*
X0459282Y0105900D01*
X0459138Y0105835D01*
X0458992Y0105773D01*
X0458845Y0105715D01*
X0458696Y0105660D01*
X0458546Y0105609D01*
X0458395Y0105562D01*
X0458243Y0105519D01*
X0458090Y0105480D01*
X0457935Y0105444D01*
X0457780Y0105413D01*
X0457624Y0105385D01*
X0457468Y0105361D01*
X0457311Y0105341D01*
X0457153Y0105325D01*
X0456996Y0105313D01*
X0456837Y0105305D01*
X0456679Y0105301D01*
X0456521Y0105301D01*
X0456363Y0105305D01*
X0456204Y0105313D01*
X0456047Y0105325D01*
X0455889Y0105341D01*
X0455732Y0105361D01*
X0455576Y0105385D01*
X0455420Y0105413D01*
X0455265Y0105444D01*
X0455110Y0105480D01*
X0454957Y0105519D01*
X0454805Y0105562D01*
X0454654Y0105609D01*
X0454504Y0105660D01*
X0454355Y0105715D01*
X0454208Y0105773D01*
X0454062Y0105835D01*
X0453918Y0105900D01*
X0453776Y0105970D01*
X0453635Y0106042D01*
X0453496Y0106119D01*
X0453360Y0106198D01*
X0453225Y0106282D01*
X0453092Y0106368D01*
X0452962Y0106458D01*
X0452834Y0106551D01*
X0452708Y0106647D01*
X0452585Y0106747D01*
X0452464Y0106849D01*
X0452346Y0106954D01*
X0452231Y0107063D01*
X0452118Y0107174D01*
X0452008Y0107288D01*
X0451901Y0107405D01*
X0451797Y0107524D01*
X0451696Y0107646D01*
X0451599Y0107771D01*
X0451504Y0107898D01*
X0451413Y0108027D01*
X0451324Y0108158D01*
X0451240Y0108292D01*
X0451158Y0108428D01*
X0451080Y0108565D01*
X0451006Y0108705D01*
X0450935Y0108847D01*
X0450867Y0108990D01*
X0450803Y0109135D01*
X0450743Y0109281D01*
X0450687Y0109429D01*
X0450634Y0109578D01*
X0450585Y0109729D01*
X0450540Y0109881D01*
X0450499Y0110034D01*
X0450461Y0110187D01*
X0450428Y0110342D01*
X0450398Y0110498D01*
X0450372Y0110654D01*
X0450351Y0110811D01*
X0450333Y0110968D01*
X0450319Y0111126D01*
X0450309Y0111284D01*
X0450303Y0111442D01*
X0450301Y0111600D01*
X0291029Y0146000D02*
X0291031Y0146125D01*
X0291037Y0146250D01*
X0291047Y0146374D01*
X0291061Y0146498D01*
X0291078Y0146622D01*
X0291100Y0146745D01*
X0291126Y0146867D01*
X0291155Y0146989D01*
X0291188Y0147109D01*
X0291226Y0147228D01*
X0291266Y0147347D01*
X0291311Y0147463D01*
X0291359Y0147578D01*
X0291411Y0147692D01*
X0291467Y0147804D01*
X0291526Y0147914D01*
X0291588Y0148022D01*
X0291654Y0148129D01*
X0291723Y0148233D01*
X0291796Y0148334D01*
X0291871Y0148434D01*
X0291950Y0148531D01*
X0292032Y0148625D01*
X0292117Y0148717D01*
X0292204Y0148806D01*
X0292295Y0148892D01*
X0292388Y0148975D01*
X0292484Y0149056D01*
X0292582Y0149133D01*
X0292682Y0149207D01*
X0292785Y0149278D01*
X0292890Y0149345D01*
X0292998Y0149410D01*
X0293107Y0149470D01*
X0293218Y0149528D01*
X0293331Y0149581D01*
X0293445Y0149631D01*
X0293561Y0149678D01*
X0293678Y0149720D01*
X0293797Y0149759D01*
X0293917Y0149795D01*
X0294038Y0149826D01*
X0294160Y0149854D01*
X0294282Y0149877D01*
X0294406Y0149897D01*
X0294530Y0149913D01*
X0294654Y0149925D01*
X0294779Y0149933D01*
X0294904Y0149937D01*
X0295028Y0149937D01*
X0295153Y0149933D01*
X0295278Y0149925D01*
X0295402Y0149913D01*
X0295526Y0149897D01*
X0295650Y0149877D01*
X0295772Y0149854D01*
X0295894Y0149826D01*
X0296015Y0149795D01*
X0296135Y0149759D01*
X0296254Y0149720D01*
X0296371Y0149678D01*
X0296487Y0149631D01*
X0296601Y0149581D01*
X0296714Y0149528D01*
X0296825Y0149470D01*
X0296935Y0149410D01*
X0297042Y0149345D01*
X0297147Y0149278D01*
X0297250Y0149207D01*
X0297350Y0149133D01*
X0297448Y0149056D01*
X0297544Y0148975D01*
X0297637Y0148892D01*
X0297728Y0148806D01*
X0297815Y0148717D01*
X0297900Y0148625D01*
X0297982Y0148531D01*
X0298061Y0148434D01*
X0298136Y0148334D01*
X0298209Y0148233D01*
X0298278Y0148129D01*
X0298344Y0148022D01*
X0298406Y0147914D01*
X0298465Y0147804D01*
X0298521Y0147692D01*
X0298573Y0147578D01*
X0298621Y0147463D01*
X0298666Y0147347D01*
X0298706Y0147228D01*
X0298744Y0147109D01*
X0298777Y0146989D01*
X0298806Y0146867D01*
X0298832Y0146745D01*
X0298854Y0146622D01*
X0298871Y0146498D01*
X0298885Y0146374D01*
X0298895Y0146250D01*
X0298901Y0146125D01*
X0298903Y0146000D01*
X0298901Y0145875D01*
X0298895Y0145750D01*
X0298885Y0145626D01*
X0298871Y0145502D01*
X0298854Y0145378D01*
X0298832Y0145255D01*
X0298806Y0145133D01*
X0298777Y0145011D01*
X0298744Y0144891D01*
X0298706Y0144772D01*
X0298666Y0144653D01*
X0298621Y0144537D01*
X0298573Y0144422D01*
X0298521Y0144308D01*
X0298465Y0144196D01*
X0298406Y0144086D01*
X0298344Y0143978D01*
X0298278Y0143871D01*
X0298209Y0143767D01*
X0298136Y0143666D01*
X0298061Y0143566D01*
X0297982Y0143469D01*
X0297900Y0143375D01*
X0297815Y0143283D01*
X0297728Y0143194D01*
X0297637Y0143108D01*
X0297544Y0143025D01*
X0297448Y0142944D01*
X0297350Y0142867D01*
X0297250Y0142793D01*
X0297147Y0142722D01*
X0297042Y0142655D01*
X0296934Y0142590D01*
X0296825Y0142530D01*
X0296714Y0142472D01*
X0296601Y0142419D01*
X0296487Y0142369D01*
X0296371Y0142322D01*
X0296254Y0142280D01*
X0296135Y0142241D01*
X0296015Y0142205D01*
X0295894Y0142174D01*
X0295772Y0142146D01*
X0295650Y0142123D01*
X0295526Y0142103D01*
X0295402Y0142087D01*
X0295278Y0142075D01*
X0295153Y0142067D01*
X0295028Y0142063D01*
X0294904Y0142063D01*
X0294779Y0142067D01*
X0294654Y0142075D01*
X0294530Y0142087D01*
X0294406Y0142103D01*
X0294282Y0142123D01*
X0294160Y0142146D01*
X0294038Y0142174D01*
X0293917Y0142205D01*
X0293797Y0142241D01*
X0293678Y0142280D01*
X0293561Y0142322D01*
X0293445Y0142369D01*
X0293331Y0142419D01*
X0293218Y0142472D01*
X0293107Y0142530D01*
X0292997Y0142590D01*
X0292890Y0142655D01*
X0292785Y0142722D01*
X0292682Y0142793D01*
X0292582Y0142867D01*
X0292484Y0142944D01*
X0292388Y0143025D01*
X0292295Y0143108D01*
X0292204Y0143194D01*
X0292117Y0143283D01*
X0292032Y0143375D01*
X0291950Y0143469D01*
X0291871Y0143566D01*
X0291796Y0143666D01*
X0291723Y0143767D01*
X0291654Y0143871D01*
X0291588Y0143978D01*
X0291526Y0144086D01*
X0291467Y0144196D01*
X0291411Y0144308D01*
X0291359Y0144422D01*
X0291311Y0144537D01*
X0291266Y0144653D01*
X0291226Y0144772D01*
X0291188Y0144891D01*
X0291155Y0145011D01*
X0291126Y0145133D01*
X0291100Y0145255D01*
X0291078Y0145378D01*
X0291061Y0145502D01*
X0291047Y0145626D01*
X0291037Y0145750D01*
X0291031Y0145875D01*
X0291029Y0146000D01*
X0280301Y0111600D02*
X0280303Y0111758D01*
X0280309Y0111916D01*
X0280319Y0112074D01*
X0280333Y0112232D01*
X0280351Y0112389D01*
X0280372Y0112546D01*
X0280398Y0112702D01*
X0280428Y0112858D01*
X0280461Y0113013D01*
X0280499Y0113166D01*
X0280540Y0113319D01*
X0280585Y0113471D01*
X0280634Y0113622D01*
X0280687Y0113771D01*
X0280743Y0113919D01*
X0280803Y0114065D01*
X0280867Y0114210D01*
X0280935Y0114353D01*
X0281006Y0114495D01*
X0281080Y0114635D01*
X0281158Y0114772D01*
X0281240Y0114908D01*
X0281324Y0115042D01*
X0281413Y0115173D01*
X0281504Y0115302D01*
X0281599Y0115429D01*
X0281696Y0115554D01*
X0281797Y0115676D01*
X0281901Y0115795D01*
X0282008Y0115912D01*
X0282118Y0116026D01*
X0282231Y0116137D01*
X0282346Y0116246D01*
X0282464Y0116351D01*
X0282585Y0116453D01*
X0282708Y0116553D01*
X0282834Y0116649D01*
X0282962Y0116742D01*
X0283092Y0116832D01*
X0283225Y0116918D01*
X0283360Y0117002D01*
X0283496Y0117081D01*
X0283635Y0117158D01*
X0283776Y0117230D01*
X0283918Y0117300D01*
X0284062Y0117365D01*
X0284208Y0117427D01*
X0284355Y0117485D01*
X0284504Y0117540D01*
X0284654Y0117591D01*
X0284805Y0117638D01*
X0284957Y0117681D01*
X0285110Y0117720D01*
X0285265Y0117756D01*
X0285420Y0117787D01*
X0285576Y0117815D01*
X0285732Y0117839D01*
X0285889Y0117859D01*
X0286047Y0117875D01*
X0286204Y0117887D01*
X0286363Y0117895D01*
X0286521Y0117899D01*
X0286679Y0117899D01*
X0286837Y0117895D01*
X0286996Y0117887D01*
X0287153Y0117875D01*
X0287311Y0117859D01*
X0287468Y0117839D01*
X0287624Y0117815D01*
X0287780Y0117787D01*
X0287935Y0117756D01*
X0288090Y0117720D01*
X0288243Y0117681D01*
X0288395Y0117638D01*
X0288546Y0117591D01*
X0288696Y0117540D01*
X0288845Y0117485D01*
X0288992Y0117427D01*
X0289138Y0117365D01*
X0289282Y0117300D01*
X0289424Y0117230D01*
X0289565Y0117158D01*
X0289704Y0117081D01*
X0289840Y0117002D01*
X0289975Y0116918D01*
X0290108Y0116832D01*
X0290238Y0116742D01*
X0290366Y0116649D01*
X0290492Y0116553D01*
X0290615Y0116453D01*
X0290736Y0116351D01*
X0290854Y0116246D01*
X0290969Y0116137D01*
X0291082Y0116026D01*
X0291192Y0115912D01*
X0291299Y0115795D01*
X0291403Y0115676D01*
X0291504Y0115554D01*
X0291601Y0115429D01*
X0291696Y0115302D01*
X0291787Y0115173D01*
X0291876Y0115042D01*
X0291960Y0114908D01*
X0292042Y0114772D01*
X0292120Y0114635D01*
X0292194Y0114495D01*
X0292265Y0114353D01*
X0292333Y0114210D01*
X0292397Y0114065D01*
X0292457Y0113919D01*
X0292513Y0113771D01*
X0292566Y0113622D01*
X0292615Y0113471D01*
X0292660Y0113319D01*
X0292701Y0113166D01*
X0292739Y0113013D01*
X0292772Y0112858D01*
X0292802Y0112702D01*
X0292828Y0112546D01*
X0292849Y0112389D01*
X0292867Y0112232D01*
X0292881Y0112074D01*
X0292891Y0111916D01*
X0292897Y0111758D01*
X0292899Y0111600D01*
X0292897Y0111442D01*
X0292891Y0111284D01*
X0292881Y0111126D01*
X0292867Y0110968D01*
X0292849Y0110811D01*
X0292828Y0110654D01*
X0292802Y0110498D01*
X0292772Y0110342D01*
X0292739Y0110187D01*
X0292701Y0110034D01*
X0292660Y0109881D01*
X0292615Y0109729D01*
X0292566Y0109578D01*
X0292513Y0109429D01*
X0292457Y0109281D01*
X0292397Y0109135D01*
X0292333Y0108990D01*
X0292265Y0108847D01*
X0292194Y0108705D01*
X0292120Y0108565D01*
X0292042Y0108428D01*
X0291960Y0108292D01*
X0291876Y0108158D01*
X0291787Y0108027D01*
X0291696Y0107898D01*
X0291601Y0107771D01*
X0291504Y0107646D01*
X0291403Y0107524D01*
X0291299Y0107405D01*
X0291192Y0107288D01*
X0291082Y0107174D01*
X0290969Y0107063D01*
X0290854Y0106954D01*
X0290736Y0106849D01*
X0290615Y0106747D01*
X0290492Y0106647D01*
X0290366Y0106551D01*
X0290238Y0106458D01*
X0290108Y0106368D01*
X0289975Y0106282D01*
X0289840Y0106198D01*
X0289704Y0106119D01*
X0289565Y0106042D01*
X0289424Y0105970D01*
X0289282Y0105900D01*
X0289138Y0105835D01*
X0288992Y0105773D01*
X0288845Y0105715D01*
X0288696Y0105660D01*
X0288546Y0105609D01*
X0288395Y0105562D01*
X0288243Y0105519D01*
X0288090Y0105480D01*
X0287935Y0105444D01*
X0287780Y0105413D01*
X0287624Y0105385D01*
X0287468Y0105361D01*
X0287311Y0105341D01*
X0287153Y0105325D01*
X0286996Y0105313D01*
X0286837Y0105305D01*
X0286679Y0105301D01*
X0286521Y0105301D01*
X0286363Y0105305D01*
X0286204Y0105313D01*
X0286047Y0105325D01*
X0285889Y0105341D01*
X0285732Y0105361D01*
X0285576Y0105385D01*
X0285420Y0105413D01*
X0285265Y0105444D01*
X0285110Y0105480D01*
X0284957Y0105519D01*
X0284805Y0105562D01*
X0284654Y0105609D01*
X0284504Y0105660D01*
X0284355Y0105715D01*
X0284208Y0105773D01*
X0284062Y0105835D01*
X0283918Y0105900D01*
X0283776Y0105970D01*
X0283635Y0106042D01*
X0283496Y0106119D01*
X0283360Y0106198D01*
X0283225Y0106282D01*
X0283092Y0106368D01*
X0282962Y0106458D01*
X0282834Y0106551D01*
X0282708Y0106647D01*
X0282585Y0106747D01*
X0282464Y0106849D01*
X0282346Y0106954D01*
X0282231Y0107063D01*
X0282118Y0107174D01*
X0282008Y0107288D01*
X0281901Y0107405D01*
X0281797Y0107524D01*
X0281696Y0107646D01*
X0281599Y0107771D01*
X0281504Y0107898D01*
X0281413Y0108027D01*
X0281324Y0108158D01*
X0281240Y0108292D01*
X0281158Y0108428D01*
X0281080Y0108565D01*
X0281006Y0108705D01*
X0280935Y0108847D01*
X0280867Y0108990D01*
X0280803Y0109135D01*
X0280743Y0109281D01*
X0280687Y0109429D01*
X0280634Y0109578D01*
X0280585Y0109729D01*
X0280540Y0109881D01*
X0280499Y0110034D01*
X0280461Y0110187D01*
X0280428Y0110342D01*
X0280398Y0110498D01*
X0280372Y0110654D01*
X0280351Y0110811D01*
X0280333Y0110968D01*
X0280319Y0111126D01*
X0280309Y0111284D01*
X0280303Y0111442D01*
X0280301Y0111600D01*
X0199297Y0146000D02*
X0199299Y0146125D01*
X0199305Y0146250D01*
X0199315Y0146374D01*
X0199329Y0146498D01*
X0199346Y0146622D01*
X0199368Y0146745D01*
X0199394Y0146867D01*
X0199423Y0146989D01*
X0199456Y0147109D01*
X0199494Y0147228D01*
X0199534Y0147347D01*
X0199579Y0147463D01*
X0199627Y0147578D01*
X0199679Y0147692D01*
X0199735Y0147804D01*
X0199794Y0147914D01*
X0199856Y0148022D01*
X0199922Y0148129D01*
X0199991Y0148233D01*
X0200064Y0148334D01*
X0200139Y0148434D01*
X0200218Y0148531D01*
X0200300Y0148625D01*
X0200385Y0148717D01*
X0200472Y0148806D01*
X0200563Y0148892D01*
X0200656Y0148975D01*
X0200752Y0149056D01*
X0200850Y0149133D01*
X0200950Y0149207D01*
X0201053Y0149278D01*
X0201158Y0149345D01*
X0201266Y0149410D01*
X0201375Y0149470D01*
X0201486Y0149528D01*
X0201599Y0149581D01*
X0201713Y0149631D01*
X0201829Y0149678D01*
X0201946Y0149720D01*
X0202065Y0149759D01*
X0202185Y0149795D01*
X0202306Y0149826D01*
X0202428Y0149854D01*
X0202550Y0149877D01*
X0202674Y0149897D01*
X0202798Y0149913D01*
X0202922Y0149925D01*
X0203047Y0149933D01*
X0203172Y0149937D01*
X0203296Y0149937D01*
X0203421Y0149933D01*
X0203546Y0149925D01*
X0203670Y0149913D01*
X0203794Y0149897D01*
X0203918Y0149877D01*
X0204040Y0149854D01*
X0204162Y0149826D01*
X0204283Y0149795D01*
X0204403Y0149759D01*
X0204522Y0149720D01*
X0204639Y0149678D01*
X0204755Y0149631D01*
X0204869Y0149581D01*
X0204982Y0149528D01*
X0205093Y0149470D01*
X0205203Y0149410D01*
X0205310Y0149345D01*
X0205415Y0149278D01*
X0205518Y0149207D01*
X0205618Y0149133D01*
X0205716Y0149056D01*
X0205812Y0148975D01*
X0205905Y0148892D01*
X0205996Y0148806D01*
X0206083Y0148717D01*
X0206168Y0148625D01*
X0206250Y0148531D01*
X0206329Y0148434D01*
X0206404Y0148334D01*
X0206477Y0148233D01*
X0206546Y0148129D01*
X0206612Y0148022D01*
X0206674Y0147914D01*
X0206733Y0147804D01*
X0206789Y0147692D01*
X0206841Y0147578D01*
X0206889Y0147463D01*
X0206934Y0147347D01*
X0206974Y0147228D01*
X0207012Y0147109D01*
X0207045Y0146989D01*
X0207074Y0146867D01*
X0207100Y0146745D01*
X0207122Y0146622D01*
X0207139Y0146498D01*
X0207153Y0146374D01*
X0207163Y0146250D01*
X0207169Y0146125D01*
X0207171Y0146000D01*
X0207169Y0145875D01*
X0207163Y0145750D01*
X0207153Y0145626D01*
X0207139Y0145502D01*
X0207122Y0145378D01*
X0207100Y0145255D01*
X0207074Y0145133D01*
X0207045Y0145011D01*
X0207012Y0144891D01*
X0206974Y0144772D01*
X0206934Y0144653D01*
X0206889Y0144537D01*
X0206841Y0144422D01*
X0206789Y0144308D01*
X0206733Y0144196D01*
X0206674Y0144086D01*
X0206612Y0143978D01*
X0206546Y0143871D01*
X0206477Y0143767D01*
X0206404Y0143666D01*
X0206329Y0143566D01*
X0206250Y0143469D01*
X0206168Y0143375D01*
X0206083Y0143283D01*
X0205996Y0143194D01*
X0205905Y0143108D01*
X0205812Y0143025D01*
X0205716Y0142944D01*
X0205618Y0142867D01*
X0205518Y0142793D01*
X0205415Y0142722D01*
X0205310Y0142655D01*
X0205202Y0142590D01*
X0205093Y0142530D01*
X0204982Y0142472D01*
X0204869Y0142419D01*
X0204755Y0142369D01*
X0204639Y0142322D01*
X0204522Y0142280D01*
X0204403Y0142241D01*
X0204283Y0142205D01*
X0204162Y0142174D01*
X0204040Y0142146D01*
X0203918Y0142123D01*
X0203794Y0142103D01*
X0203670Y0142087D01*
X0203546Y0142075D01*
X0203421Y0142067D01*
X0203296Y0142063D01*
X0203172Y0142063D01*
X0203047Y0142067D01*
X0202922Y0142075D01*
X0202798Y0142087D01*
X0202674Y0142103D01*
X0202550Y0142123D01*
X0202428Y0142146D01*
X0202306Y0142174D01*
X0202185Y0142205D01*
X0202065Y0142241D01*
X0201946Y0142280D01*
X0201829Y0142322D01*
X0201713Y0142369D01*
X0201599Y0142419D01*
X0201486Y0142472D01*
X0201375Y0142530D01*
X0201265Y0142590D01*
X0201158Y0142655D01*
X0201053Y0142722D01*
X0200950Y0142793D01*
X0200850Y0142867D01*
X0200752Y0142944D01*
X0200656Y0143025D01*
X0200563Y0143108D01*
X0200472Y0143194D01*
X0200385Y0143283D01*
X0200300Y0143375D01*
X0200218Y0143469D01*
X0200139Y0143566D01*
X0200064Y0143666D01*
X0199991Y0143767D01*
X0199922Y0143871D01*
X0199856Y0143978D01*
X0199794Y0144086D01*
X0199735Y0144196D01*
X0199679Y0144308D01*
X0199627Y0144422D01*
X0199579Y0144537D01*
X0199534Y0144653D01*
X0199494Y0144772D01*
X0199456Y0144891D01*
X0199423Y0145011D01*
X0199394Y0145133D01*
X0199368Y0145255D01*
X0199346Y0145378D01*
X0199329Y0145502D01*
X0199315Y0145626D01*
X0199305Y0145750D01*
X0199299Y0145875D01*
X0199297Y0146000D01*
X0199297Y0239700D02*
X0199299Y0239825D01*
X0199305Y0239950D01*
X0199315Y0240074D01*
X0199329Y0240198D01*
X0199346Y0240322D01*
X0199368Y0240445D01*
X0199394Y0240567D01*
X0199423Y0240689D01*
X0199456Y0240809D01*
X0199494Y0240928D01*
X0199534Y0241047D01*
X0199579Y0241163D01*
X0199627Y0241278D01*
X0199679Y0241392D01*
X0199735Y0241504D01*
X0199794Y0241614D01*
X0199856Y0241722D01*
X0199922Y0241829D01*
X0199991Y0241933D01*
X0200064Y0242034D01*
X0200139Y0242134D01*
X0200218Y0242231D01*
X0200300Y0242325D01*
X0200385Y0242417D01*
X0200472Y0242506D01*
X0200563Y0242592D01*
X0200656Y0242675D01*
X0200752Y0242756D01*
X0200850Y0242833D01*
X0200950Y0242907D01*
X0201053Y0242978D01*
X0201158Y0243045D01*
X0201266Y0243110D01*
X0201375Y0243170D01*
X0201486Y0243228D01*
X0201599Y0243281D01*
X0201713Y0243331D01*
X0201829Y0243378D01*
X0201946Y0243420D01*
X0202065Y0243459D01*
X0202185Y0243495D01*
X0202306Y0243526D01*
X0202428Y0243554D01*
X0202550Y0243577D01*
X0202674Y0243597D01*
X0202798Y0243613D01*
X0202922Y0243625D01*
X0203047Y0243633D01*
X0203172Y0243637D01*
X0203296Y0243637D01*
X0203421Y0243633D01*
X0203546Y0243625D01*
X0203670Y0243613D01*
X0203794Y0243597D01*
X0203918Y0243577D01*
X0204040Y0243554D01*
X0204162Y0243526D01*
X0204283Y0243495D01*
X0204403Y0243459D01*
X0204522Y0243420D01*
X0204639Y0243378D01*
X0204755Y0243331D01*
X0204869Y0243281D01*
X0204982Y0243228D01*
X0205093Y0243170D01*
X0205203Y0243110D01*
X0205310Y0243045D01*
X0205415Y0242978D01*
X0205518Y0242907D01*
X0205618Y0242833D01*
X0205716Y0242756D01*
X0205812Y0242675D01*
X0205905Y0242592D01*
X0205996Y0242506D01*
X0206083Y0242417D01*
X0206168Y0242325D01*
X0206250Y0242231D01*
X0206329Y0242134D01*
X0206404Y0242034D01*
X0206477Y0241933D01*
X0206546Y0241829D01*
X0206612Y0241722D01*
X0206674Y0241614D01*
X0206733Y0241504D01*
X0206789Y0241392D01*
X0206841Y0241278D01*
X0206889Y0241163D01*
X0206934Y0241047D01*
X0206974Y0240928D01*
X0207012Y0240809D01*
X0207045Y0240689D01*
X0207074Y0240567D01*
X0207100Y0240445D01*
X0207122Y0240322D01*
X0207139Y0240198D01*
X0207153Y0240074D01*
X0207163Y0239950D01*
X0207169Y0239825D01*
X0207171Y0239700D01*
X0207169Y0239575D01*
X0207163Y0239450D01*
X0207153Y0239326D01*
X0207139Y0239202D01*
X0207122Y0239078D01*
X0207100Y0238955D01*
X0207074Y0238833D01*
X0207045Y0238711D01*
X0207012Y0238591D01*
X0206974Y0238472D01*
X0206934Y0238353D01*
X0206889Y0238237D01*
X0206841Y0238122D01*
X0206789Y0238008D01*
X0206733Y0237896D01*
X0206674Y0237786D01*
X0206612Y0237678D01*
X0206546Y0237571D01*
X0206477Y0237467D01*
X0206404Y0237366D01*
X0206329Y0237266D01*
X0206250Y0237169D01*
X0206168Y0237075D01*
X0206083Y0236983D01*
X0205996Y0236894D01*
X0205905Y0236808D01*
X0205812Y0236725D01*
X0205716Y0236644D01*
X0205618Y0236567D01*
X0205518Y0236493D01*
X0205415Y0236422D01*
X0205310Y0236355D01*
X0205202Y0236290D01*
X0205093Y0236230D01*
X0204982Y0236172D01*
X0204869Y0236119D01*
X0204755Y0236069D01*
X0204639Y0236022D01*
X0204522Y0235980D01*
X0204403Y0235941D01*
X0204283Y0235905D01*
X0204162Y0235874D01*
X0204040Y0235846D01*
X0203918Y0235823D01*
X0203794Y0235803D01*
X0203670Y0235787D01*
X0203546Y0235775D01*
X0203421Y0235767D01*
X0203296Y0235763D01*
X0203172Y0235763D01*
X0203047Y0235767D01*
X0202922Y0235775D01*
X0202798Y0235787D01*
X0202674Y0235803D01*
X0202550Y0235823D01*
X0202428Y0235846D01*
X0202306Y0235874D01*
X0202185Y0235905D01*
X0202065Y0235941D01*
X0201946Y0235980D01*
X0201829Y0236022D01*
X0201713Y0236069D01*
X0201599Y0236119D01*
X0201486Y0236172D01*
X0201375Y0236230D01*
X0201265Y0236290D01*
X0201158Y0236355D01*
X0201053Y0236422D01*
X0200950Y0236493D01*
X0200850Y0236567D01*
X0200752Y0236644D01*
X0200656Y0236725D01*
X0200563Y0236808D01*
X0200472Y0236894D01*
X0200385Y0236983D01*
X0200300Y0237075D01*
X0200218Y0237169D01*
X0200139Y0237266D01*
X0200064Y0237366D01*
X0199991Y0237467D01*
X0199922Y0237571D01*
X0199856Y0237678D01*
X0199794Y0237786D01*
X0199735Y0237896D01*
X0199679Y0238008D01*
X0199627Y0238122D01*
X0199579Y0238237D01*
X0199534Y0238353D01*
X0199494Y0238472D01*
X0199456Y0238591D01*
X0199423Y0238711D01*
X0199394Y0238833D01*
X0199368Y0238955D01*
X0199346Y0239078D01*
X0199329Y0239202D01*
X0199315Y0239326D01*
X0199305Y0239450D01*
X0199299Y0239575D01*
X0199297Y0239700D01*
X0291029Y0239700D02*
X0291031Y0239825D01*
X0291037Y0239950D01*
X0291047Y0240074D01*
X0291061Y0240198D01*
X0291078Y0240322D01*
X0291100Y0240445D01*
X0291126Y0240567D01*
X0291155Y0240689D01*
X0291188Y0240809D01*
X0291226Y0240928D01*
X0291266Y0241047D01*
X0291311Y0241163D01*
X0291359Y0241278D01*
X0291411Y0241392D01*
X0291467Y0241504D01*
X0291526Y0241614D01*
X0291588Y0241722D01*
X0291654Y0241829D01*
X0291723Y0241933D01*
X0291796Y0242034D01*
X0291871Y0242134D01*
X0291950Y0242231D01*
X0292032Y0242325D01*
X0292117Y0242417D01*
X0292204Y0242506D01*
X0292295Y0242592D01*
X0292388Y0242675D01*
X0292484Y0242756D01*
X0292582Y0242833D01*
X0292682Y0242907D01*
X0292785Y0242978D01*
X0292890Y0243045D01*
X0292998Y0243110D01*
X0293107Y0243170D01*
X0293218Y0243228D01*
X0293331Y0243281D01*
X0293445Y0243331D01*
X0293561Y0243378D01*
X0293678Y0243420D01*
X0293797Y0243459D01*
X0293917Y0243495D01*
X0294038Y0243526D01*
X0294160Y0243554D01*
X0294282Y0243577D01*
X0294406Y0243597D01*
X0294530Y0243613D01*
X0294654Y0243625D01*
X0294779Y0243633D01*
X0294904Y0243637D01*
X0295028Y0243637D01*
X0295153Y0243633D01*
X0295278Y0243625D01*
X0295402Y0243613D01*
X0295526Y0243597D01*
X0295650Y0243577D01*
X0295772Y0243554D01*
X0295894Y0243526D01*
X0296015Y0243495D01*
X0296135Y0243459D01*
X0296254Y0243420D01*
X0296371Y0243378D01*
X0296487Y0243331D01*
X0296601Y0243281D01*
X0296714Y0243228D01*
X0296825Y0243170D01*
X0296935Y0243110D01*
X0297042Y0243045D01*
X0297147Y0242978D01*
X0297250Y0242907D01*
X0297350Y0242833D01*
X0297448Y0242756D01*
X0297544Y0242675D01*
X0297637Y0242592D01*
X0297728Y0242506D01*
X0297815Y0242417D01*
X0297900Y0242325D01*
X0297982Y0242231D01*
X0298061Y0242134D01*
X0298136Y0242034D01*
X0298209Y0241933D01*
X0298278Y0241829D01*
X0298344Y0241722D01*
X0298406Y0241614D01*
X0298465Y0241504D01*
X0298521Y0241392D01*
X0298573Y0241278D01*
X0298621Y0241163D01*
X0298666Y0241047D01*
X0298706Y0240928D01*
X0298744Y0240809D01*
X0298777Y0240689D01*
X0298806Y0240567D01*
X0298832Y0240445D01*
X0298854Y0240322D01*
X0298871Y0240198D01*
X0298885Y0240074D01*
X0298895Y0239950D01*
X0298901Y0239825D01*
X0298903Y0239700D01*
X0298901Y0239575D01*
X0298895Y0239450D01*
X0298885Y0239326D01*
X0298871Y0239202D01*
X0298854Y0239078D01*
X0298832Y0238955D01*
X0298806Y0238833D01*
X0298777Y0238711D01*
X0298744Y0238591D01*
X0298706Y0238472D01*
X0298666Y0238353D01*
X0298621Y0238237D01*
X0298573Y0238122D01*
X0298521Y0238008D01*
X0298465Y0237896D01*
X0298406Y0237786D01*
X0298344Y0237678D01*
X0298278Y0237571D01*
X0298209Y0237467D01*
X0298136Y0237366D01*
X0298061Y0237266D01*
X0297982Y0237169D01*
X0297900Y0237075D01*
X0297815Y0236983D01*
X0297728Y0236894D01*
X0297637Y0236808D01*
X0297544Y0236725D01*
X0297448Y0236644D01*
X0297350Y0236567D01*
X0297250Y0236493D01*
X0297147Y0236422D01*
X0297042Y0236355D01*
X0296934Y0236290D01*
X0296825Y0236230D01*
X0296714Y0236172D01*
X0296601Y0236119D01*
X0296487Y0236069D01*
X0296371Y0236022D01*
X0296254Y0235980D01*
X0296135Y0235941D01*
X0296015Y0235905D01*
X0295894Y0235874D01*
X0295772Y0235846D01*
X0295650Y0235823D01*
X0295526Y0235803D01*
X0295402Y0235787D01*
X0295278Y0235775D01*
X0295153Y0235767D01*
X0295028Y0235763D01*
X0294904Y0235763D01*
X0294779Y0235767D01*
X0294654Y0235775D01*
X0294530Y0235787D01*
X0294406Y0235803D01*
X0294282Y0235823D01*
X0294160Y0235846D01*
X0294038Y0235874D01*
X0293917Y0235905D01*
X0293797Y0235941D01*
X0293678Y0235980D01*
X0293561Y0236022D01*
X0293445Y0236069D01*
X0293331Y0236119D01*
X0293218Y0236172D01*
X0293107Y0236230D01*
X0292997Y0236290D01*
X0292890Y0236355D01*
X0292785Y0236422D01*
X0292682Y0236493D01*
X0292582Y0236567D01*
X0292484Y0236644D01*
X0292388Y0236725D01*
X0292295Y0236808D01*
X0292204Y0236894D01*
X0292117Y0236983D01*
X0292032Y0237075D01*
X0291950Y0237169D01*
X0291871Y0237266D01*
X0291796Y0237366D01*
X0291723Y0237467D01*
X0291654Y0237571D01*
X0291588Y0237678D01*
X0291526Y0237786D01*
X0291467Y0237896D01*
X0291411Y0238008D01*
X0291359Y0238122D01*
X0291311Y0238237D01*
X0291266Y0238353D01*
X0291226Y0238472D01*
X0291188Y0238591D01*
X0291155Y0238711D01*
X0291126Y0238833D01*
X0291100Y0238955D01*
X0291078Y0239078D01*
X0291061Y0239202D01*
X0291047Y0239326D01*
X0291037Y0239450D01*
X0291031Y0239575D01*
X0291029Y0239700D01*
X0280301Y0031600D02*
X0280303Y0031758D01*
X0280309Y0031916D01*
X0280319Y0032074D01*
X0280333Y0032232D01*
X0280351Y0032389D01*
X0280372Y0032546D01*
X0280398Y0032702D01*
X0280428Y0032858D01*
X0280461Y0033013D01*
X0280499Y0033166D01*
X0280540Y0033319D01*
X0280585Y0033471D01*
X0280634Y0033622D01*
X0280687Y0033771D01*
X0280743Y0033919D01*
X0280803Y0034065D01*
X0280867Y0034210D01*
X0280935Y0034353D01*
X0281006Y0034495D01*
X0281080Y0034635D01*
X0281158Y0034772D01*
X0281240Y0034908D01*
X0281324Y0035042D01*
X0281413Y0035173D01*
X0281504Y0035302D01*
X0281599Y0035429D01*
X0281696Y0035554D01*
X0281797Y0035676D01*
X0281901Y0035795D01*
X0282008Y0035912D01*
X0282118Y0036026D01*
X0282231Y0036137D01*
X0282346Y0036246D01*
X0282464Y0036351D01*
X0282585Y0036453D01*
X0282708Y0036553D01*
X0282834Y0036649D01*
X0282962Y0036742D01*
X0283092Y0036832D01*
X0283225Y0036918D01*
X0283360Y0037002D01*
X0283496Y0037081D01*
X0283635Y0037158D01*
X0283776Y0037230D01*
X0283918Y0037300D01*
X0284062Y0037365D01*
X0284208Y0037427D01*
X0284355Y0037485D01*
X0284504Y0037540D01*
X0284654Y0037591D01*
X0284805Y0037638D01*
X0284957Y0037681D01*
X0285110Y0037720D01*
X0285265Y0037756D01*
X0285420Y0037787D01*
X0285576Y0037815D01*
X0285732Y0037839D01*
X0285889Y0037859D01*
X0286047Y0037875D01*
X0286204Y0037887D01*
X0286363Y0037895D01*
X0286521Y0037899D01*
X0286679Y0037899D01*
X0286837Y0037895D01*
X0286996Y0037887D01*
X0287153Y0037875D01*
X0287311Y0037859D01*
X0287468Y0037839D01*
X0287624Y0037815D01*
X0287780Y0037787D01*
X0287935Y0037756D01*
X0288090Y0037720D01*
X0288243Y0037681D01*
X0288395Y0037638D01*
X0288546Y0037591D01*
X0288696Y0037540D01*
X0288845Y0037485D01*
X0288992Y0037427D01*
X0289138Y0037365D01*
X0289282Y0037300D01*
X0289424Y0037230D01*
X0289565Y0037158D01*
X0289704Y0037081D01*
X0289840Y0037002D01*
X0289975Y0036918D01*
X0290108Y0036832D01*
X0290238Y0036742D01*
X0290366Y0036649D01*
X0290492Y0036553D01*
X0290615Y0036453D01*
X0290736Y0036351D01*
X0290854Y0036246D01*
X0290969Y0036137D01*
X0291082Y0036026D01*
X0291192Y0035912D01*
X0291299Y0035795D01*
X0291403Y0035676D01*
X0291504Y0035554D01*
X0291601Y0035429D01*
X0291696Y0035302D01*
X0291787Y0035173D01*
X0291876Y0035042D01*
X0291960Y0034908D01*
X0292042Y0034772D01*
X0292120Y0034635D01*
X0292194Y0034495D01*
X0292265Y0034353D01*
X0292333Y0034210D01*
X0292397Y0034065D01*
X0292457Y0033919D01*
X0292513Y0033771D01*
X0292566Y0033622D01*
X0292615Y0033471D01*
X0292660Y0033319D01*
X0292701Y0033166D01*
X0292739Y0033013D01*
X0292772Y0032858D01*
X0292802Y0032702D01*
X0292828Y0032546D01*
X0292849Y0032389D01*
X0292867Y0032232D01*
X0292881Y0032074D01*
X0292891Y0031916D01*
X0292897Y0031758D01*
X0292899Y0031600D01*
X0292897Y0031442D01*
X0292891Y0031284D01*
X0292881Y0031126D01*
X0292867Y0030968D01*
X0292849Y0030811D01*
X0292828Y0030654D01*
X0292802Y0030498D01*
X0292772Y0030342D01*
X0292739Y0030187D01*
X0292701Y0030034D01*
X0292660Y0029881D01*
X0292615Y0029729D01*
X0292566Y0029578D01*
X0292513Y0029429D01*
X0292457Y0029281D01*
X0292397Y0029135D01*
X0292333Y0028990D01*
X0292265Y0028847D01*
X0292194Y0028705D01*
X0292120Y0028565D01*
X0292042Y0028428D01*
X0291960Y0028292D01*
X0291876Y0028158D01*
X0291787Y0028027D01*
X0291696Y0027898D01*
X0291601Y0027771D01*
X0291504Y0027646D01*
X0291403Y0027524D01*
X0291299Y0027405D01*
X0291192Y0027288D01*
X0291082Y0027174D01*
X0290969Y0027063D01*
X0290854Y0026954D01*
X0290736Y0026849D01*
X0290615Y0026747D01*
X0290492Y0026647D01*
X0290366Y0026551D01*
X0290238Y0026458D01*
X0290108Y0026368D01*
X0289975Y0026282D01*
X0289840Y0026198D01*
X0289704Y0026119D01*
X0289565Y0026042D01*
X0289424Y0025970D01*
X0289282Y0025900D01*
X0289138Y0025835D01*
X0288992Y0025773D01*
X0288845Y0025715D01*
X0288696Y0025660D01*
X0288546Y0025609D01*
X0288395Y0025562D01*
X0288243Y0025519D01*
X0288090Y0025480D01*
X0287935Y0025444D01*
X0287780Y0025413D01*
X0287624Y0025385D01*
X0287468Y0025361D01*
X0287311Y0025341D01*
X0287153Y0025325D01*
X0286996Y0025313D01*
X0286837Y0025305D01*
X0286679Y0025301D01*
X0286521Y0025301D01*
X0286363Y0025305D01*
X0286204Y0025313D01*
X0286047Y0025325D01*
X0285889Y0025341D01*
X0285732Y0025361D01*
X0285576Y0025385D01*
X0285420Y0025413D01*
X0285265Y0025444D01*
X0285110Y0025480D01*
X0284957Y0025519D01*
X0284805Y0025562D01*
X0284654Y0025609D01*
X0284504Y0025660D01*
X0284355Y0025715D01*
X0284208Y0025773D01*
X0284062Y0025835D01*
X0283918Y0025900D01*
X0283776Y0025970D01*
X0283635Y0026042D01*
X0283496Y0026119D01*
X0283360Y0026198D01*
X0283225Y0026282D01*
X0283092Y0026368D01*
X0282962Y0026458D01*
X0282834Y0026551D01*
X0282708Y0026647D01*
X0282585Y0026747D01*
X0282464Y0026849D01*
X0282346Y0026954D01*
X0282231Y0027063D01*
X0282118Y0027174D01*
X0282008Y0027288D01*
X0281901Y0027405D01*
X0281797Y0027524D01*
X0281696Y0027646D01*
X0281599Y0027771D01*
X0281504Y0027898D01*
X0281413Y0028027D01*
X0281324Y0028158D01*
X0281240Y0028292D01*
X0281158Y0028428D01*
X0281080Y0028565D01*
X0281006Y0028705D01*
X0280935Y0028847D01*
X0280867Y0028990D01*
X0280803Y0029135D01*
X0280743Y0029281D01*
X0280687Y0029429D01*
X0280634Y0029578D01*
X0280585Y0029729D01*
X0280540Y0029881D01*
X0280499Y0030034D01*
X0280461Y0030187D01*
X0280428Y0030342D01*
X0280398Y0030498D01*
X0280372Y0030654D01*
X0280351Y0030811D01*
X0280333Y0030968D01*
X0280319Y0031126D01*
X0280309Y0031284D01*
X0280303Y0031442D01*
X0280301Y0031600D01*
M02*
