G75*
%MOIN*%
%OFA0B0*%
%FSLAX25Y25*%
%IPPOS*%
%LPD*%
%AMOC8*
5,1,8,0,0,1.08239X$1,22.5*
%
%ADD10C,0.05543*%
%ADD11C,0.07400*%
%ADD12C,0.06075*%
%ADD13C,0.07600*%
%ADD14C,0.07400*%
%ADD15C,0.06000*%
%ADD16OC8,0.06000*%
%ADD17C,0.01200*%
%ADD18C,0.02800*%
%ADD19C,0.02400*%
D10*
X0232850Y0116350D03*
X0232850Y0146350D03*
D11*
X0199400Y0100500D03*
X0199400Y0082700D03*
X0199400Y0065500D03*
X0199400Y0047700D03*
X0199400Y0031750D03*
X0199400Y0013950D03*
X0173800Y0013950D03*
X0173800Y0031750D03*
X0173800Y0047700D03*
X0173800Y0065500D03*
X0173800Y0082700D03*
X0173800Y0100500D03*
X0378475Y0205975D03*
X0380975Y0227225D03*
X0390975Y0227225D03*
X0408475Y0205975D03*
D12*
X0193387Y0116950D02*
X0187312Y0116950D01*
X0143388Y0116950D02*
X0137313Y0116950D01*
D13*
X0301600Y0116600D03*
X0311600Y0116600D03*
X0321600Y0116600D03*
X0331600Y0116600D03*
X0341600Y0116600D03*
X0351600Y0116600D03*
X0361600Y0116600D03*
X0371600Y0116600D03*
X0381600Y0116600D03*
X0391600Y0116600D03*
X0401600Y0116600D03*
X0411600Y0116600D03*
X0421600Y0116600D03*
X0431600Y0116600D03*
X0441600Y0116600D03*
X0441600Y0026600D03*
X0431600Y0026600D03*
X0421600Y0026600D03*
X0411600Y0026600D03*
X0401600Y0026600D03*
X0391600Y0026600D03*
X0381600Y0026600D03*
X0371600Y0026600D03*
X0361600Y0026600D03*
X0351600Y0026600D03*
X0341600Y0026600D03*
X0331600Y0026600D03*
X0321600Y0026600D03*
X0311600Y0026600D03*
X0301600Y0026600D03*
D14*
X0264100Y0237969D02*
X0264100Y0245369D01*
X0254100Y0245369D02*
X0254100Y0237969D01*
X0244100Y0237969D02*
X0244100Y0245369D01*
X0234100Y0245369D02*
X0234100Y0237969D01*
D15*
X0388600Y0176600D02*
X0394600Y0176600D01*
X0394600Y0166600D02*
X0388600Y0166600D01*
X0388600Y0156600D02*
X0394600Y0156600D01*
X0394600Y0146600D02*
X0388600Y0146600D01*
D16*
X0349100Y0275350D03*
X0339100Y0275350D03*
X0329100Y0275350D03*
X0319100Y0275350D03*
X0309100Y0275350D03*
X0299100Y0275350D03*
X0289100Y0275350D03*
X0279100Y0275350D03*
X0269100Y0275350D03*
X0259100Y0275350D03*
X0259100Y0285350D03*
X0269100Y0285350D03*
X0279100Y0285350D03*
X0289100Y0285350D03*
X0299100Y0285350D03*
X0309100Y0285350D03*
X0319100Y0285350D03*
X0329100Y0285350D03*
X0339100Y0285350D03*
X0349100Y0285350D03*
D17*
X0067782Y0077566D02*
X0068929Y0069659D01*
X0074684Y0072161D01*
X0074684Y0072161D01*
X0083045Y0075796D01*
X0083045Y0075796D01*
X0091414Y0079435D01*
X0091418Y0079444D01*
X0092040Y0079707D01*
X0092659Y0079976D01*
X0092667Y0079973D01*
X0092676Y0079976D01*
X0093302Y0079723D01*
X0093930Y0079475D01*
X0093934Y0079467D01*
X0093942Y0079463D01*
X0094206Y0078841D01*
X0094475Y0078222D01*
X0094471Y0078214D01*
X0098530Y0068629D01*
X0098530Y0068629D01*
X0102586Y0059052D01*
X0102586Y0059052D01*
X0105442Y0052306D01*
X0110897Y0057530D01*
X0110897Y0057530D01*
X0111740Y0058337D01*
X0111884Y0058475D01*
X0111884Y0058475D01*
X0118593Y0064899D01*
X0118595Y0064928D01*
X0119084Y0065369D01*
X0119559Y0065824D01*
X0119588Y0065824D01*
X0119609Y0065843D01*
X0120267Y0065809D01*
X0120925Y0065795D01*
X0120945Y0065774D01*
X0120973Y0065773D01*
X0121415Y0065284D01*
X0121870Y0064808D01*
X0121870Y0064780D01*
X0121889Y0064758D01*
X0121855Y0064101D01*
X0121841Y0063442D01*
X0121835Y0063437D01*
X0121687Y0058369D01*
X0121772Y0052661D01*
X0121772Y0052658D01*
X0122147Y0046990D01*
X0122865Y0041354D01*
X0122865Y0041350D01*
X0123361Y0038574D01*
X0124709Y0033099D01*
X0125558Y0030410D01*
X0125559Y0030406D01*
X0126532Y0027793D01*
X0128950Y0022768D01*
X0130385Y0020378D01*
X0131971Y0018121D01*
X0131971Y0018121D01*
X0135657Y0014020D01*
X0137730Y0012206D01*
X0139948Y0010580D01*
X0144755Y0007898D01*
X0147306Y0006864D01*
X0149950Y0006025D01*
X0155385Y0004902D01*
X0158141Y0004626D01*
X0158159Y0004624D01*
X0158173Y0004623D01*
X0160946Y0004500D01*
X0166496Y0004809D01*
X0168756Y0005165D01*
X0168853Y0005263D01*
X0169388Y0005269D01*
X0169914Y0005370D01*
X0170052Y0005276D01*
X0181507Y0005397D01*
X0194160Y0005530D01*
X0206813Y0005664D01*
X0206813Y0005664D01*
X0219467Y0005797D01*
X0232120Y0005931D01*
X0244773Y0006064D01*
X0257426Y0006198D01*
X0257426Y0006198D01*
X0270080Y0006331D01*
X0282731Y0006465D01*
X0295384Y0006598D01*
X0308035Y0006732D01*
X0308035Y0006732D01*
X0320688Y0006865D01*
X0321931Y0006878D01*
X0322054Y0006879D01*
X0333369Y0006999D01*
X0345995Y0007132D01*
X0345995Y0007132D01*
X0347265Y0007145D01*
X0347361Y0007146D01*
X0358712Y0007266D01*
X0371300Y0007399D01*
X0385319Y0007547D01*
X0396605Y0007666D01*
X0396605Y0007666D01*
X0409256Y0007799D01*
X0409256Y0007799D01*
X0421909Y0007933D01*
X0421909Y0007933D01*
X0434562Y0008066D01*
X0434562Y0008066D01*
X0447214Y0008200D01*
X0447214Y0008200D01*
X0460211Y0008337D01*
X0460349Y0008417D01*
X0460401Y0008403D01*
X0460541Y0008464D01*
X0460595Y0008442D01*
X0460684Y0008473D01*
X0460732Y0008449D01*
X0460827Y0008568D01*
X0461086Y0008929D01*
X0461389Y0009387D01*
X0461736Y0009948D01*
X0462125Y0010619D01*
X0462558Y0011406D01*
X0463036Y0012315D01*
X0463560Y0013354D01*
X0464131Y0014530D01*
X0464751Y0015851D01*
X0465420Y0017320D01*
X0467856Y0022975D01*
X0470168Y0028684D01*
X0470170Y0028689D01*
X0472409Y0034449D01*
X0472409Y0034449D01*
X0474590Y0040231D01*
X0474590Y0040232D01*
X0476728Y0046037D01*
X0478828Y0051854D01*
X0482947Y0063529D01*
X0486977Y0075237D01*
X0490723Y0086333D01*
X0490722Y0086334D01*
X0490941Y0086981D01*
X0492795Y0092963D01*
X0494332Y0099035D01*
X0494332Y0099036D01*
X0494333Y0099043D01*
X0494960Y0102080D01*
X0495809Y0108226D01*
X0496029Y0111314D01*
X0496030Y0111329D01*
X0496030Y0111337D01*
X0496081Y0114372D01*
X0495427Y0120406D01*
X0494727Y0123360D01*
X0494105Y0125220D01*
X0492355Y0128728D01*
X0489986Y0131852D01*
X0488608Y0133221D01*
X0487068Y0134442D01*
X0483689Y0136530D01*
X0480027Y0138066D01*
X0478118Y0138615D01*
X0478108Y0138617D01*
X0478103Y0138619D01*
X0475105Y0139279D01*
X0469012Y0140029D01*
X0465944Y0140115D01*
X0465934Y0140115D01*
X0465932Y0140115D01*
X0462817Y0140067D01*
X0456601Y0139636D01*
X0453508Y0139254D01*
X0453503Y0139253D01*
X0447315Y0138239D01*
X0441181Y0136933D01*
X0441179Y0136932D01*
X0435085Y0135374D01*
X0429056Y0133596D01*
X0429044Y0133593D01*
X0423079Y0131616D01*
X0417245Y0129420D01*
X0416701Y0129152D01*
X0416632Y0129176D01*
X0416563Y0129148D01*
X0415994Y0129392D01*
X0415408Y0129592D01*
X0415375Y0129658D01*
X0415308Y0129687D01*
X0415078Y0130262D01*
X0414804Y0130818D01*
X0414828Y0130887D01*
X0414801Y0130955D01*
X0415045Y0131525D01*
X0415244Y0132111D01*
X0415310Y0132144D01*
X0415339Y0132211D01*
X0415895Y0132433D01*
X0418500Y0133839D01*
X0423429Y0137264D01*
X0425682Y0139239D01*
X0425695Y0139251D01*
X0425709Y0139264D01*
X0427849Y0141373D01*
X0431677Y0146018D01*
X0433341Y0148527D01*
X0434815Y0151145D01*
X0437182Y0156669D01*
X0438061Y0159543D01*
X0438737Y0162484D01*
X0439514Y0168469D01*
X0439611Y0171487D01*
X0439534Y0174529D01*
X0438920Y0180581D01*
X0438384Y0183576D01*
X0438383Y0183578D01*
X0437715Y0186569D01*
X0436044Y0192464D01*
X0435043Y0195360D01*
X0435042Y0195363D01*
X0432769Y0201087D01*
X0430179Y0206676D01*
X0430178Y0206678D01*
X0427311Y0212156D01*
X0424214Y0217507D01*
X0424208Y0217517D01*
X0420905Y0222672D01*
X0417301Y0227624D01*
X0417299Y0227628D01*
X0417298Y0227628D01*
X0415392Y0229992D01*
X0411271Y0234453D01*
X0409066Y0236539D01*
X0409061Y0236544D01*
X0406777Y0238483D01*
X0401831Y0241857D01*
X0399195Y0243275D01*
X0396488Y0244445D01*
X0390796Y0245973D01*
X0387874Y0246314D01*
X0384927Y0246345D01*
X0379074Y0245574D01*
X0376229Y0244778D01*
X0373416Y0243737D01*
X0368031Y0241098D01*
X0365484Y0239513D01*
X0365482Y0239512D01*
X0365479Y0239511D01*
X0362993Y0237771D01*
X0358273Y0233956D01*
X0356055Y0231892D01*
X0356045Y0231883D01*
X0356035Y0231873D01*
X0353888Y0229730D01*
X0349877Y0225165D01*
X0348033Y0222766D01*
X0347663Y0222232D01*
X0347636Y0222227D01*
X0347620Y0222205D01*
X0346968Y0222105D01*
X0346319Y0221987D01*
X0346296Y0222003D01*
X0346269Y0221999D01*
X0345738Y0222389D01*
X0345195Y0222764D01*
X0345190Y0222791D01*
X0345168Y0222808D01*
X0345069Y0223460D01*
X0344950Y0224108D01*
X0344966Y0224131D01*
X0344962Y0224158D01*
X0345347Y0224682D01*
X0347078Y0227287D01*
X0350259Y0232706D01*
X0351695Y0235497D01*
X0351698Y0235504D01*
X0351708Y0235523D01*
X0353069Y0238350D01*
X0355517Y0244152D01*
X0356595Y0247108D01*
X0356596Y0247112D01*
X0357563Y0250095D01*
X0359129Y0256167D01*
X0359724Y0259245D01*
X0359725Y0259247D01*
X0360174Y0262330D01*
X0360583Y0268547D01*
X0360540Y0271662D01*
X0360313Y0274749D01*
X0359259Y0280847D01*
X0358438Y0283830D01*
X0357412Y0286741D01*
X0354769Y0292321D01*
X0353167Y0294960D01*
X0351383Y0297498D01*
X0347372Y0302231D01*
X0345160Y0304408D01*
X0345160Y0304408D01*
X0345158Y0304409D01*
X0342818Y0306479D01*
X0337859Y0310286D01*
X0335253Y0312013D01*
X0335251Y0312014D01*
X0332562Y0313649D01*
X0327023Y0316637D01*
X0324180Y0317988D01*
X0324178Y0317989D01*
X0318361Y0320463D01*
X0312426Y0322638D01*
X0312420Y0322640D01*
X0312415Y0322642D01*
X0306333Y0324570D01*
X0300163Y0326199D01*
X0300158Y0326200D01*
X0297064Y0326882D01*
X0290810Y0327887D01*
X0287661Y0328207D01*
X0287654Y0328207D01*
X0287648Y0328208D01*
X0284532Y0328378D01*
X0278300Y0328094D01*
X0275214Y0327641D01*
X0275206Y0327640D01*
X0273222Y0327211D01*
X0269378Y0325912D01*
X0265773Y0324053D01*
X0264098Y0322934D01*
X0262548Y0321664D01*
X0259758Y0318745D01*
X0257474Y0315414D01*
X0256543Y0313623D01*
X0255339Y0310764D01*
X0253608Y0304808D01*
X0253093Y0301749D01*
X0253091Y0301740D01*
X0253091Y0301738D01*
X0252741Y0298602D01*
X0252741Y0298602D01*
X0252469Y0292296D01*
X0252549Y0289141D01*
X0252549Y0289138D01*
X0252549Y0289135D01*
X0252741Y0285961D01*
X0253417Y0279637D01*
X0253900Y0276495D01*
X0253901Y0276492D01*
X0253904Y0276474D01*
X0254460Y0273350D01*
X0255857Y0267142D01*
X0256681Y0264127D01*
X0256896Y0263561D01*
X0256865Y0263491D01*
X0256886Y0263416D01*
X0256589Y0262877D01*
X0256337Y0262315D01*
X0256264Y0262287D01*
X0256227Y0262219D01*
X0255636Y0262048D01*
X0255060Y0261829D01*
X0254989Y0261861D01*
X0254915Y0261839D01*
X0254390Y0262128D01*
X0251337Y0263401D01*
X0248174Y0264522D01*
X0248166Y0264525D01*
X0248158Y0264528D01*
X0244933Y0265527D01*
X0242206Y0266249D01*
X0242124Y0266212D01*
X0241573Y0266415D01*
X0241002Y0266554D01*
X0240945Y0266648D01*
X0240843Y0266686D01*
X0240597Y0267219D01*
X0240292Y0267721D01*
X0240318Y0267828D01*
X0240272Y0267927D01*
X0240476Y0268478D01*
X0240615Y0269049D01*
X0240708Y0269106D01*
X0243438Y0276484D01*
X0236152Y0279403D01*
X0228711Y0282384D01*
X0228711Y0282384D01*
X0219866Y0285927D01*
X0219417Y0285973D01*
X0219255Y0286172D01*
X0219016Y0286268D01*
X0218839Y0286682D01*
X0218554Y0287032D01*
X0218580Y0287287D01*
X0218479Y0287524D01*
X0218646Y0287942D01*
X0219653Y0297842D01*
X0220753Y0308653D01*
X0221734Y0318299D01*
X0214629Y0318189D01*
X0206618Y0318066D01*
X0206618Y0318066D01*
X0206076Y0318057D01*
X0205252Y0318044D01*
X0205252Y0318044D01*
X0197214Y0317920D01*
X0196643Y0317837D01*
X0196546Y0317910D01*
X0196425Y0317908D01*
X0196011Y0318310D01*
X0195549Y0318655D01*
X0195531Y0318775D01*
X0195444Y0318859D01*
X0195435Y0319436D01*
X0193799Y0330726D01*
X0193799Y0330726D01*
X0192338Y0340806D01*
X0191099Y0349352D01*
X0185344Y0346850D01*
X0185344Y0346850D01*
X0176983Y0343215D01*
X0176983Y0343215D01*
X0168614Y0339577D01*
X0168611Y0339568D01*
X0167988Y0339305D01*
X0167370Y0339036D01*
X0167361Y0339039D01*
X0167352Y0339035D01*
X0166727Y0339289D01*
X0166098Y0339536D01*
X0166095Y0339545D01*
X0166086Y0339548D01*
X0165823Y0340170D01*
X0165554Y0340789D01*
X0165557Y0340798D01*
X0162031Y0349125D01*
X0162031Y0349125D01*
X0161838Y0349581D01*
X0161498Y0350383D01*
X0161498Y0350383D01*
X0157868Y0358955D01*
X0154586Y0366705D01*
X0149729Y0362053D01*
X0141664Y0354330D01*
X0141664Y0354330D01*
X0135521Y0348447D01*
X0135514Y0348375D01*
X0135035Y0347981D01*
X0134587Y0347552D01*
X0134514Y0347553D01*
X0134459Y0347507D01*
X0133841Y0347568D01*
X0133221Y0347581D01*
X0133171Y0347634D01*
X0133099Y0347641D01*
X0132705Y0348120D01*
X0132276Y0348568D01*
X0132277Y0348640D01*
X0126939Y0355139D01*
X0126939Y0355139D01*
X0126553Y0355609D01*
X0126072Y0356194D01*
X0126072Y0356194D01*
X0119913Y0363692D01*
X0119913Y0363692D01*
X0115731Y0368782D01*
X0112134Y0362255D01*
X0112134Y0362255D01*
X0107032Y0352998D01*
X0107032Y0352998D01*
X0101910Y0343703D01*
X0101920Y0343661D01*
X0101583Y0343110D01*
X0101271Y0342544D01*
X0101230Y0342532D01*
X0101207Y0342495D01*
X0100579Y0342344D01*
X0099959Y0342164D01*
X0099921Y0342185D01*
X0099879Y0342175D01*
X0099328Y0342512D01*
X0098762Y0342824D01*
X0098750Y0342865D01*
X0092218Y0346859D01*
X0092218Y0346859D01*
X0084558Y0351542D01*
X0084558Y0351542D01*
X0078244Y0355402D01*
X0076312Y0347435D01*
X0076312Y0347435D01*
X0073686Y0336605D01*
X0073597Y0336241D01*
X0073364Y0335278D01*
X0073364Y0335278D01*
X0070912Y0325169D01*
X0070809Y0324554D01*
X0070753Y0324514D01*
X0070737Y0324448D01*
X0070205Y0324123D01*
X0069696Y0323761D01*
X0069629Y0323772D01*
X0069571Y0323737D01*
X0068964Y0323884D01*
X0057079Y0325880D01*
X0045728Y0327785D01*
X0045809Y0319093D01*
X0045809Y0319093D01*
X0045928Y0306383D01*
X0045928Y0306383D01*
X0046025Y0295910D01*
X0046141Y0295428D01*
X0046032Y0295249D01*
X0046034Y0295040D01*
X0045686Y0294686D01*
X0045427Y0294263D01*
X0045223Y0294214D01*
X0045077Y0294065D01*
X0044580Y0294060D01*
X0032917Y0291266D01*
X0021383Y0288503D01*
X0023870Y0279056D01*
X0026785Y0267982D01*
X0026785Y0267982D01*
X0029365Y0258181D01*
X0029588Y0257862D01*
X0029532Y0257546D01*
X0029614Y0257236D01*
X0029418Y0256900D01*
X0029350Y0256517D01*
X0029087Y0256333D01*
X0028926Y0256056D01*
X0028549Y0255957D01*
X0020779Y0250522D01*
X0020779Y0250522D01*
X0013328Y0245311D01*
X0013328Y0245311D01*
X0007677Y0241358D01*
X0011849Y0234163D01*
X0011849Y0234163D01*
X0017122Y0225066D01*
X0017122Y0225066D01*
X0022566Y0215675D01*
X0022840Y0215474D01*
X0022896Y0215108D01*
X0023081Y0214788D01*
X0022994Y0214459D01*
X0023045Y0214123D01*
X0022825Y0213825D01*
X0022730Y0213467D01*
X0022436Y0213297D01*
X0017211Y0206206D01*
X0017211Y0206206D01*
X0011377Y0198290D01*
X0011377Y0198290D01*
X0006020Y0191020D01*
X0012114Y0185472D01*
X0019831Y0178447D01*
X0019831Y0178447D01*
X0026292Y0172565D01*
X0026632Y0172439D01*
X0026777Y0172124D01*
X0027034Y0171890D01*
X0027051Y0171527D01*
X0027203Y0171198D01*
X0027082Y0170872D01*
X0027098Y0170525D01*
X0026854Y0170257D01*
X0023311Y0160685D01*
X0019912Y0151507D01*
X0019467Y0150305D01*
X0019438Y0150226D01*
X0016588Y0142528D01*
X0024158Y0139495D01*
X0024158Y0139495D01*
X0031317Y0136628D01*
X0031622Y0136505D01*
X0032585Y0136120D01*
X0032585Y0136120D01*
X0040163Y0133085D01*
X0040611Y0133039D01*
X0040774Y0132840D01*
X0041012Y0132744D01*
X0041190Y0132330D01*
X0041475Y0131980D01*
X0041449Y0131724D01*
X0041550Y0131488D01*
X0041382Y0131070D01*
X0040340Y0120826D01*
X0039276Y0110357D01*
X0039276Y0110357D01*
X0038295Y0100710D01*
X0045264Y0100818D01*
X0054775Y0100965D01*
X0054775Y0100965D01*
X0062811Y0101089D01*
X0063382Y0101172D01*
X0063479Y0101099D01*
X0063600Y0101101D01*
X0064015Y0100700D01*
X0064477Y0100354D01*
X0064494Y0100235D01*
X0064581Y0100150D01*
X0064590Y0099573D01*
X0066032Y0089636D01*
X0066032Y0089636D01*
X0067782Y0077566D01*
X0067782Y0077566D01*
X0067849Y0077106D02*
X0086058Y0077106D01*
X0088814Y0078305D02*
X0067675Y0078305D01*
X0067501Y0079503D02*
X0091559Y0079503D01*
X0093859Y0079503D02*
X0170067Y0079503D01*
X0169646Y0079924D02*
X0171024Y0078546D01*
X0172825Y0077800D01*
X0174775Y0077800D01*
X0176576Y0078546D01*
X0177954Y0079924D01*
X0178700Y0081725D01*
X0178700Y0083675D01*
X0177954Y0085476D01*
X0176576Y0086854D01*
X0174775Y0087600D01*
X0172825Y0087600D01*
X0171024Y0086854D01*
X0169646Y0085476D01*
X0168900Y0083675D01*
X0168900Y0081725D01*
X0169646Y0079924D01*
X0169324Y0080702D02*
X0067328Y0080702D01*
X0067154Y0081900D02*
X0168900Y0081900D01*
X0168900Y0083099D02*
X0066980Y0083099D01*
X0066806Y0084297D02*
X0169158Y0084297D01*
X0169666Y0085496D02*
X0066632Y0085496D01*
X0066458Y0086694D02*
X0170865Y0086694D01*
X0176735Y0086694D02*
X0195899Y0086694D01*
X0195947Y0086743D02*
X0195357Y0086153D01*
X0194867Y0085478D01*
X0194488Y0084734D01*
X0194230Y0083941D01*
X0194100Y0083117D01*
X0194100Y0083100D01*
X0199000Y0083100D01*
X0199000Y0088000D01*
X0198983Y0088000D01*
X0198159Y0087869D01*
X0197366Y0087612D01*
X0196622Y0087233D01*
X0195947Y0086743D01*
X0194880Y0085496D02*
X0177934Y0085496D01*
X0178442Y0084297D02*
X0194346Y0084297D01*
X0194100Y0082300D02*
X0194100Y0082283D01*
X0194230Y0081459D01*
X0194488Y0080666D01*
X0194867Y0079922D01*
X0195357Y0079247D01*
X0195947Y0078657D01*
X0196622Y0078167D01*
X0197366Y0077788D01*
X0198159Y0077530D01*
X0198983Y0077400D01*
X0199000Y0077400D01*
X0199000Y0082300D01*
X0199800Y0082300D01*
X0199800Y0083100D01*
X0204700Y0083100D01*
X0204700Y0083117D01*
X0204569Y0083941D01*
X0204312Y0084734D01*
X0203933Y0085478D01*
X0203443Y0086153D01*
X0202853Y0086743D01*
X0202178Y0087233D01*
X0201434Y0087612D01*
X0200641Y0087869D01*
X0199817Y0088000D01*
X0199800Y0088000D01*
X0199800Y0083100D01*
X0199000Y0083100D01*
X0199000Y0082300D01*
X0194100Y0082300D01*
X0194161Y0081900D02*
X0178700Y0081900D01*
X0178700Y0083099D02*
X0199000Y0083099D01*
X0199800Y0083099D02*
X0214453Y0083099D01*
X0215652Y0084297D02*
X0204454Y0084297D01*
X0203920Y0085496D02*
X0216850Y0085496D01*
X0218049Y0086694D02*
X0202901Y0086694D01*
X0200494Y0087893D02*
X0219247Y0087893D01*
X0219754Y0088400D02*
X0218700Y0087346D01*
X0218700Y0087346D01*
X0201350Y0069996D01*
X0200375Y0070400D01*
X0198425Y0070400D01*
X0196624Y0069654D01*
X0195246Y0068276D01*
X0194500Y0066475D01*
X0194500Y0064525D01*
X0195246Y0062724D01*
X0177954Y0062724D01*
X0178700Y0064525D01*
X0178700Y0066475D01*
X0177954Y0068276D01*
X0176576Y0069654D01*
X0174775Y0070400D01*
X0172825Y0070400D01*
X0171024Y0069654D01*
X0169646Y0068276D01*
X0168900Y0066475D01*
X0168900Y0064525D01*
X0169646Y0062724D01*
X0121814Y0062724D01*
X0121779Y0061526D02*
X0170845Y0061526D01*
X0171024Y0061346D02*
X0172825Y0060600D01*
X0174775Y0060600D01*
X0176576Y0061346D01*
X0177954Y0062724D01*
X0178450Y0063923D02*
X0194750Y0063923D01*
X0194500Y0065121D02*
X0178700Y0065121D01*
X0178700Y0066320D02*
X0194500Y0066320D01*
X0194932Y0067518D02*
X0178268Y0067518D01*
X0177513Y0068717D02*
X0195687Y0068717D01*
X0197255Y0069915D02*
X0175945Y0069915D01*
X0171655Y0069915D02*
X0097986Y0069915D01*
X0098493Y0068717D02*
X0170087Y0068717D01*
X0169332Y0067518D02*
X0099001Y0067518D01*
X0099508Y0066320D02*
X0168900Y0066320D01*
X0168900Y0065121D02*
X0121570Y0065121D01*
X0121851Y0063923D02*
X0169150Y0063923D01*
X0169646Y0062724D02*
X0171024Y0061346D01*
X0176755Y0061526D02*
X0196445Y0061526D01*
X0196624Y0061346D02*
X0198425Y0060600D01*
X0200375Y0060600D01*
X0202176Y0061346D01*
X0203554Y0062724D01*
X0482663Y0062724D01*
X0483083Y0063923D02*
X0204050Y0063923D01*
X0204300Y0064525D02*
X0203554Y0062724D01*
X0202355Y0061526D02*
X0482240Y0061526D01*
X0481818Y0060327D02*
X0121744Y0060327D01*
X0121709Y0059129D02*
X0481395Y0059129D01*
X0480972Y0057930D02*
X0121693Y0057930D01*
X0121711Y0056732D02*
X0480549Y0056732D01*
X0480126Y0055533D02*
X0121729Y0055533D01*
X0121747Y0054334D02*
X0479704Y0054334D01*
X0479281Y0053136D02*
X0121765Y0053136D01*
X0121820Y0051937D02*
X0171226Y0051937D01*
X0171024Y0051854D02*
X0169646Y0050476D01*
X0168900Y0048675D01*
X0168900Y0046725D01*
X0169646Y0044924D01*
X0171024Y0043546D01*
X0172825Y0042800D01*
X0174775Y0042800D01*
X0176576Y0043546D01*
X0177954Y0044924D01*
X0178700Y0046725D01*
X0178700Y0048675D01*
X0177954Y0050476D01*
X0176576Y0051854D01*
X0174775Y0052600D01*
X0172825Y0052600D01*
X0171024Y0051854D01*
X0169909Y0050739D02*
X0121899Y0050739D01*
X0121978Y0049540D02*
X0169259Y0049540D01*
X0168900Y0048342D02*
X0122058Y0048342D01*
X0122137Y0047143D02*
X0168900Y0047143D01*
X0169223Y0045945D02*
X0122280Y0045945D01*
X0122433Y0044746D02*
X0169824Y0044746D01*
X0171022Y0043548D02*
X0122585Y0043548D01*
X0122738Y0042349D02*
X0207454Y0042349D01*
X0207450Y0042346D02*
X0201350Y0036246D01*
X0200375Y0036650D01*
X0198425Y0036650D01*
X0196624Y0035904D01*
X0195246Y0034526D01*
X0194500Y0032725D01*
X0194500Y0030775D01*
X0195246Y0028974D01*
X0196624Y0027596D01*
X0198425Y0026850D01*
X0200375Y0026850D01*
X0202176Y0027596D01*
X0203554Y0028974D01*
X0204300Y0030775D01*
X0204300Y0032725D01*
X0203896Y0033700D01*
X0209996Y0039800D01*
X0309723Y0039800D01*
X0310127Y0039396D01*
X0311083Y0039000D01*
X0312117Y0039000D01*
X0313073Y0039396D01*
X0313804Y0040127D01*
X0314200Y0041083D01*
X0314200Y0042117D01*
X0313804Y0043073D01*
X0313073Y0043804D01*
X0312117Y0044200D01*
X0311083Y0044200D01*
X0310127Y0043804D01*
X0309723Y0043400D01*
X0208504Y0043400D01*
X0207450Y0042346D01*
X0206255Y0041151D02*
X0122901Y0041151D01*
X0123115Y0039952D02*
X0205057Y0039952D01*
X0203858Y0038754D02*
X0123329Y0038754D01*
X0123612Y0037555D02*
X0202660Y0037555D01*
X0201461Y0036357D02*
X0201082Y0036357D01*
X0197718Y0036357D02*
X0175482Y0036357D01*
X0174775Y0036650D02*
X0172825Y0036650D01*
X0171024Y0035904D01*
X0169646Y0034526D01*
X0168900Y0032725D01*
X0168900Y0030775D01*
X0169646Y0028974D01*
X0171024Y0027596D01*
X0172825Y0026850D01*
X0174775Y0026850D01*
X0176576Y0027596D01*
X0177954Y0028974D01*
X0178700Y0030775D01*
X0178700Y0032725D01*
X0177954Y0034526D01*
X0176576Y0035904D01*
X0174775Y0036650D01*
X0172118Y0036357D02*
X0123907Y0036357D01*
X0124202Y0035158D02*
X0170279Y0035158D01*
X0169412Y0033960D02*
X0124497Y0033960D01*
X0124815Y0032761D02*
X0168915Y0032761D01*
X0168900Y0031563D02*
X0125194Y0031563D01*
X0125575Y0030364D02*
X0169070Y0030364D01*
X0169567Y0029166D02*
X0126021Y0029166D01*
X0126467Y0027967D02*
X0170653Y0027967D01*
X0176947Y0027967D02*
X0196253Y0027967D01*
X0195167Y0029166D02*
X0178033Y0029166D01*
X0178530Y0030364D02*
X0194670Y0030364D01*
X0194500Y0031563D02*
X0178700Y0031563D01*
X0178685Y0032761D02*
X0194515Y0032761D01*
X0195012Y0033960D02*
X0178188Y0033960D01*
X0177321Y0035158D02*
X0195879Y0035158D01*
X0199400Y0031750D02*
X0209250Y0041600D01*
X0311600Y0041600D01*
X0313329Y0043548D02*
X0475811Y0043548D01*
X0475370Y0042349D02*
X0314104Y0042349D01*
X0314200Y0041151D02*
X0474929Y0041151D01*
X0474485Y0039952D02*
X0313629Y0039952D01*
X0309871Y0043548D02*
X0202702Y0043548D01*
X0202853Y0043657D02*
X0203443Y0044247D01*
X0203933Y0044922D01*
X0204312Y0045666D01*
X0204569Y0046459D01*
X0204700Y0047283D01*
X0204700Y0047300D01*
X0199800Y0047300D01*
X0199800Y0048100D01*
X0204700Y0048100D01*
X0204700Y0048117D01*
X0204569Y0048941D01*
X0204312Y0049734D01*
X0203933Y0050478D01*
X0203443Y0051153D01*
X0202853Y0051743D01*
X0202178Y0052233D01*
X0201434Y0052612D01*
X0200641Y0052869D01*
X0199817Y0053000D01*
X0199800Y0053000D01*
X0199800Y0048100D01*
X0199000Y0048100D01*
X0199000Y0053000D01*
X0198983Y0053000D01*
X0198159Y0052869D01*
X0197366Y0052612D01*
X0196622Y0052233D01*
X0195947Y0051743D01*
X0195357Y0051153D01*
X0194867Y0050478D01*
X0194488Y0049734D01*
X0194230Y0048941D01*
X0194100Y0048117D01*
X0194100Y0048100D01*
X0199000Y0048100D01*
X0199000Y0047300D01*
X0199800Y0047300D01*
X0199800Y0042400D01*
X0199817Y0042400D01*
X0200641Y0042530D01*
X0201434Y0042788D01*
X0202178Y0043167D01*
X0202853Y0043657D01*
X0203805Y0044746D02*
X0476253Y0044746D01*
X0476694Y0045945D02*
X0204402Y0045945D01*
X0204678Y0047143D02*
X0477128Y0047143D01*
X0477560Y0048342D02*
X0204664Y0048342D01*
X0204375Y0049540D02*
X0477993Y0049540D01*
X0478426Y0050739D02*
X0203743Y0050739D01*
X0202584Y0051937D02*
X0478858Y0051937D01*
X0474033Y0038754D02*
X0459971Y0038754D01*
X0461075Y0038297D02*
X0458171Y0039499D01*
X0455029Y0039499D01*
X0452125Y0038297D01*
X0449903Y0036075D01*
X0448701Y0033171D01*
X0448701Y0030029D01*
X0449903Y0027125D01*
X0452125Y0024903D01*
X0455029Y0023701D01*
X0458171Y0023701D01*
X0461075Y0024903D01*
X0463297Y0027125D01*
X0464499Y0030029D01*
X0464499Y0033171D01*
X0463297Y0036075D01*
X0461075Y0038297D01*
X0461816Y0037555D02*
X0473581Y0037555D01*
X0473129Y0036357D02*
X0463014Y0036357D01*
X0463676Y0035158D02*
X0472677Y0035158D01*
X0472219Y0033960D02*
X0464173Y0033960D01*
X0464499Y0032761D02*
X0471753Y0032761D01*
X0471287Y0031563D02*
X0464499Y0031563D01*
X0464499Y0030364D02*
X0470821Y0030364D01*
X0470355Y0029166D02*
X0464142Y0029166D01*
X0463645Y0027967D02*
X0469877Y0027967D01*
X0469392Y0026769D02*
X0462940Y0026769D01*
X0461741Y0025570D02*
X0468907Y0025570D01*
X0468422Y0024372D02*
X0459791Y0024372D01*
X0453409Y0024372D02*
X0446089Y0024372D01*
X0445839Y0023768D02*
X0446600Y0025605D01*
X0446600Y0027595D01*
X0445839Y0029432D01*
X0444432Y0030839D01*
X0442595Y0031600D01*
X0440605Y0031600D01*
X0438768Y0030839D01*
X0437361Y0029432D01*
X0436799Y0028074D01*
X0436604Y0028673D01*
X0436218Y0029430D01*
X0435719Y0030118D01*
X0435118Y0030719D01*
X0434430Y0031218D01*
X0433673Y0031604D01*
X0432865Y0031867D01*
X0432025Y0032000D01*
X0431787Y0032000D01*
X0431787Y0026787D01*
X0431413Y0026787D01*
X0431413Y0032000D01*
X0431175Y0032000D01*
X0430335Y0031867D01*
X0429527Y0031604D01*
X0428770Y0031218D01*
X0428082Y0030719D01*
X0427481Y0030118D01*
X0426982Y0029430D01*
X0426596Y0028673D01*
X0426401Y0028074D01*
X0425839Y0029432D01*
X0424432Y0030839D01*
X0422595Y0031600D01*
X0420605Y0031600D01*
X0418768Y0030839D01*
X0417361Y0029432D01*
X0416600Y0027595D01*
X0416600Y0025605D01*
X0417361Y0023768D01*
X0418768Y0022361D01*
X0420605Y0021600D01*
X0422595Y0021600D01*
X0424432Y0022361D01*
X0425839Y0023768D01*
X0426401Y0025126D01*
X0426596Y0024527D01*
X0426982Y0023770D01*
X0427481Y0023082D01*
X0428082Y0022481D01*
X0428770Y0021982D01*
X0429527Y0021596D01*
X0430335Y0021333D01*
X0431175Y0021200D01*
X0431413Y0021200D01*
X0431413Y0026413D01*
X0431787Y0026413D01*
X0431787Y0021200D01*
X0432025Y0021200D01*
X0432865Y0021333D01*
X0433673Y0021596D01*
X0434430Y0021982D01*
X0435118Y0022481D01*
X0435719Y0023082D01*
X0436218Y0023770D01*
X0436604Y0024527D01*
X0436799Y0025126D01*
X0437361Y0023768D01*
X0438768Y0022361D01*
X0440605Y0021600D01*
X0442595Y0021600D01*
X0444432Y0022361D01*
X0445839Y0023768D01*
X0445244Y0023173D02*
X0467936Y0023173D01*
X0467425Y0021975D02*
X0443499Y0021975D01*
X0439701Y0021975D02*
X0434417Y0021975D01*
X0435785Y0023173D02*
X0437956Y0023173D01*
X0437111Y0024372D02*
X0436525Y0024372D01*
X0431787Y0024372D02*
X0431413Y0024372D01*
X0431413Y0025570D02*
X0431787Y0025570D01*
X0431787Y0023173D02*
X0431413Y0023173D01*
X0431413Y0021975D02*
X0431787Y0021975D01*
X0428783Y0021975D02*
X0423499Y0021975D01*
X0425244Y0023173D02*
X0427415Y0023173D01*
X0426675Y0024372D02*
X0426089Y0024372D01*
X0425949Y0029166D02*
X0426847Y0029166D01*
X0427728Y0030364D02*
X0424907Y0030364D01*
X0422684Y0031563D02*
X0429446Y0031563D01*
X0431413Y0031563D02*
X0431787Y0031563D01*
X0431787Y0030364D02*
X0431413Y0030364D01*
X0431413Y0029166D02*
X0431787Y0029166D01*
X0431787Y0027967D02*
X0431413Y0027967D01*
X0433754Y0031563D02*
X0440516Y0031563D01*
X0442684Y0031563D02*
X0448701Y0031563D01*
X0448701Y0032761D02*
X0294499Y0032761D01*
X0294499Y0033171D02*
X0293297Y0036075D01*
X0291075Y0038297D01*
X0288171Y0039499D01*
X0285029Y0039499D01*
X0282125Y0038297D01*
X0279903Y0036075D01*
X0278701Y0033171D01*
X0278701Y0030029D01*
X0279903Y0027125D01*
X0282125Y0024903D01*
X0285029Y0023701D01*
X0288171Y0023701D01*
X0291075Y0024903D01*
X0293297Y0027125D01*
X0294499Y0030029D01*
X0294499Y0033171D01*
X0294173Y0033960D02*
X0449027Y0033960D01*
X0449524Y0035158D02*
X0293676Y0035158D01*
X0293014Y0036357D02*
X0450186Y0036357D01*
X0451384Y0037555D02*
X0291816Y0037555D01*
X0289971Y0038754D02*
X0453229Y0038754D01*
X0448701Y0030364D02*
X0444907Y0030364D01*
X0445949Y0029166D02*
X0449058Y0029166D01*
X0449555Y0027967D02*
X0446446Y0027967D01*
X0446600Y0026769D02*
X0450260Y0026769D01*
X0451459Y0025570D02*
X0446585Y0025570D01*
X0438293Y0030364D02*
X0435472Y0030364D01*
X0436353Y0029166D02*
X0437251Y0029166D01*
X0420516Y0031563D02*
X0412684Y0031563D01*
X0412595Y0031600D02*
X0410605Y0031600D01*
X0408768Y0030839D01*
X0407361Y0029432D01*
X0406600Y0027595D01*
X0406600Y0025605D01*
X0407361Y0023768D01*
X0408768Y0022361D01*
X0410605Y0021600D01*
X0412595Y0021600D01*
X0414432Y0022361D01*
X0415839Y0023768D01*
X0416600Y0025605D01*
X0416600Y0027595D01*
X0415839Y0029432D01*
X0414432Y0030839D01*
X0412595Y0031600D01*
X0410516Y0031563D02*
X0402684Y0031563D01*
X0402595Y0031600D02*
X0400605Y0031600D01*
X0398768Y0030839D01*
X0397361Y0029432D01*
X0396799Y0028074D01*
X0396604Y0028673D01*
X0396218Y0029430D01*
X0395719Y0030118D01*
X0395118Y0030719D01*
X0394430Y0031218D01*
X0393673Y0031604D01*
X0392865Y0031867D01*
X0392025Y0032000D01*
X0391787Y0032000D01*
X0391787Y0026787D01*
X0391413Y0026787D01*
X0391413Y0032000D01*
X0391175Y0032000D01*
X0390335Y0031867D01*
X0389527Y0031604D01*
X0388770Y0031218D01*
X0388082Y0030719D01*
X0387481Y0030118D01*
X0386982Y0029430D01*
X0386596Y0028673D01*
X0386401Y0028074D01*
X0385839Y0029432D01*
X0384432Y0030839D01*
X0382595Y0031600D01*
X0380605Y0031600D01*
X0378768Y0030839D01*
X0377361Y0029432D01*
X0376600Y0027595D01*
X0376600Y0025605D01*
X0377361Y0023768D01*
X0378768Y0022361D01*
X0380605Y0021600D01*
X0382595Y0021600D01*
X0384432Y0022361D01*
X0385839Y0023768D01*
X0386401Y0025126D01*
X0386596Y0024527D01*
X0386982Y0023770D01*
X0387481Y0023082D01*
X0388082Y0022481D01*
X0388770Y0021982D01*
X0389527Y0021596D01*
X0390335Y0021333D01*
X0391175Y0021200D01*
X0391413Y0021200D01*
X0391413Y0026413D01*
X0391787Y0026413D01*
X0391787Y0021200D01*
X0392025Y0021200D01*
X0392865Y0021333D01*
X0393673Y0021596D01*
X0394430Y0021982D01*
X0395118Y0022481D01*
X0395719Y0023082D01*
X0396218Y0023770D01*
X0396604Y0024527D01*
X0396799Y0025126D01*
X0397361Y0023768D01*
X0398768Y0022361D01*
X0400605Y0021600D01*
X0402595Y0021600D01*
X0404432Y0022361D01*
X0405839Y0023768D01*
X0406600Y0025605D01*
X0406600Y0027595D01*
X0405839Y0029432D01*
X0404432Y0030839D01*
X0402595Y0031600D01*
X0400516Y0031563D02*
X0393754Y0031563D01*
X0391787Y0031563D02*
X0391413Y0031563D01*
X0391413Y0030364D02*
X0391787Y0030364D01*
X0391787Y0029166D02*
X0391413Y0029166D01*
X0391413Y0027967D02*
X0391787Y0027967D01*
X0391787Y0025570D02*
X0391413Y0025570D01*
X0391413Y0024372D02*
X0391787Y0024372D01*
X0391787Y0023173D02*
X0391413Y0023173D01*
X0391413Y0021975D02*
X0391787Y0021975D01*
X0394417Y0021975D02*
X0399701Y0021975D01*
X0397956Y0023173D02*
X0395785Y0023173D01*
X0396525Y0024372D02*
X0397111Y0024372D01*
X0397251Y0029166D02*
X0396353Y0029166D01*
X0395472Y0030364D02*
X0398293Y0030364D01*
X0404907Y0030364D02*
X0408293Y0030364D01*
X0407251Y0029166D02*
X0405949Y0029166D01*
X0406446Y0027967D02*
X0406754Y0027967D01*
X0406600Y0026769D02*
X0406600Y0026769D01*
X0406585Y0025570D02*
X0406615Y0025570D01*
X0407111Y0024372D02*
X0406089Y0024372D01*
X0405244Y0023173D02*
X0407956Y0023173D01*
X0409701Y0021975D02*
X0403499Y0021975D01*
X0413499Y0021975D02*
X0419701Y0021975D01*
X0417956Y0023173D02*
X0415244Y0023173D01*
X0416089Y0024372D02*
X0417111Y0024372D01*
X0416615Y0025570D02*
X0416585Y0025570D01*
X0416600Y0026769D02*
X0416600Y0026769D01*
X0416446Y0027967D02*
X0416754Y0027967D01*
X0417251Y0029166D02*
X0415949Y0029166D01*
X0414907Y0030364D02*
X0418293Y0030364D01*
X0389446Y0031563D02*
X0382684Y0031563D01*
X0380516Y0031563D02*
X0372684Y0031563D01*
X0372595Y0031600D02*
X0370605Y0031600D01*
X0368768Y0030839D01*
X0367361Y0029432D01*
X0366600Y0027595D01*
X0366600Y0025605D01*
X0367361Y0023768D01*
X0368768Y0022361D01*
X0370605Y0021600D01*
X0372595Y0021600D01*
X0374432Y0022361D01*
X0375839Y0023768D01*
X0376600Y0025605D01*
X0376600Y0027595D01*
X0375839Y0029432D01*
X0374432Y0030839D01*
X0372595Y0031600D01*
X0370516Y0031563D02*
X0362684Y0031563D01*
X0362595Y0031600D02*
X0360605Y0031600D01*
X0358768Y0030839D01*
X0357361Y0029432D01*
X0356600Y0027595D01*
X0356600Y0025605D01*
X0357361Y0023768D01*
X0358768Y0022361D01*
X0360605Y0021600D01*
X0362595Y0021600D01*
X0364432Y0022361D01*
X0365839Y0023768D01*
X0366600Y0025605D01*
X0366600Y0027595D01*
X0365839Y0029432D01*
X0364432Y0030839D01*
X0362595Y0031600D01*
X0360516Y0031563D02*
X0352684Y0031563D01*
X0352595Y0031600D02*
X0350605Y0031600D01*
X0348768Y0030839D01*
X0347361Y0029432D01*
X0346600Y0027595D01*
X0346600Y0025605D01*
X0347361Y0023768D01*
X0348768Y0022361D01*
X0350605Y0021600D01*
X0352595Y0021600D01*
X0354432Y0022361D01*
X0355839Y0023768D01*
X0356600Y0025605D01*
X0356600Y0027595D01*
X0355839Y0029432D01*
X0354432Y0030839D01*
X0352595Y0031600D01*
X0350516Y0031563D02*
X0342684Y0031563D01*
X0342595Y0031600D02*
X0340605Y0031600D01*
X0338768Y0030839D01*
X0337361Y0029432D01*
X0336600Y0027595D01*
X0336600Y0025605D01*
X0337361Y0023768D01*
X0338768Y0022361D01*
X0340605Y0021600D01*
X0342595Y0021600D01*
X0344432Y0022361D01*
X0345839Y0023768D01*
X0346600Y0025605D01*
X0346600Y0027595D01*
X0345839Y0029432D01*
X0344432Y0030839D01*
X0342595Y0031600D01*
X0340516Y0031563D02*
X0332684Y0031563D01*
X0332595Y0031600D02*
X0330605Y0031600D01*
X0328768Y0030839D01*
X0327361Y0029432D01*
X0326600Y0027595D01*
X0326600Y0025605D01*
X0327361Y0023768D01*
X0328768Y0022361D01*
X0330605Y0021600D01*
X0332595Y0021600D01*
X0334432Y0022361D01*
X0335839Y0023768D01*
X0336600Y0025605D01*
X0336600Y0027595D01*
X0335839Y0029432D01*
X0334432Y0030839D01*
X0332595Y0031600D01*
X0330516Y0031563D02*
X0322684Y0031563D01*
X0322595Y0031600D02*
X0320605Y0031600D01*
X0318768Y0030839D01*
X0317361Y0029432D01*
X0316600Y0027595D01*
X0316600Y0025605D01*
X0317361Y0023768D01*
X0318768Y0022361D01*
X0320605Y0021600D01*
X0322595Y0021600D01*
X0324432Y0022361D01*
X0325839Y0023768D01*
X0326600Y0025605D01*
X0326600Y0027595D01*
X0325839Y0029432D01*
X0324432Y0030839D01*
X0322595Y0031600D01*
X0320516Y0031563D02*
X0312684Y0031563D01*
X0312595Y0031600D02*
X0310605Y0031600D01*
X0308768Y0030839D01*
X0307361Y0029432D01*
X0306600Y0027595D01*
X0306600Y0025605D01*
X0307361Y0023768D01*
X0308768Y0022361D01*
X0310605Y0021600D01*
X0312595Y0021600D01*
X0314432Y0022361D01*
X0315839Y0023768D01*
X0316600Y0025605D01*
X0316600Y0027595D01*
X0315839Y0029432D01*
X0314432Y0030839D01*
X0312595Y0031600D01*
X0310516Y0031563D02*
X0302684Y0031563D01*
X0302595Y0031600D02*
X0300605Y0031600D01*
X0298768Y0030839D01*
X0297361Y0029432D01*
X0296600Y0027595D01*
X0296600Y0025605D01*
X0297361Y0023768D01*
X0298768Y0022361D01*
X0300605Y0021600D01*
X0302595Y0021600D01*
X0304432Y0022361D01*
X0305839Y0023768D01*
X0306600Y0025605D01*
X0306600Y0027595D01*
X0305839Y0029432D01*
X0304432Y0030839D01*
X0302595Y0031600D01*
X0300516Y0031563D02*
X0294499Y0031563D01*
X0294499Y0030364D02*
X0298293Y0030364D01*
X0297251Y0029166D02*
X0294142Y0029166D01*
X0293645Y0027967D02*
X0296754Y0027967D01*
X0296600Y0026769D02*
X0292940Y0026769D01*
X0291741Y0025570D02*
X0296615Y0025570D01*
X0297111Y0024372D02*
X0289791Y0024372D01*
X0283409Y0024372D02*
X0128178Y0024372D01*
X0127601Y0025570D02*
X0281459Y0025570D01*
X0280260Y0026769D02*
X0127025Y0026769D01*
X0128755Y0023173D02*
X0297956Y0023173D01*
X0299701Y0021975D02*
X0129426Y0021975D01*
X0130146Y0020776D02*
X0466909Y0020776D01*
X0466393Y0019578D02*
X0130947Y0019578D01*
X0131789Y0018379D02*
X0171689Y0018379D01*
X0171024Y0018104D02*
X0169646Y0016726D01*
X0168900Y0014925D01*
X0168900Y0012975D01*
X0169646Y0011174D01*
X0171024Y0009796D01*
X0172825Y0009050D01*
X0174775Y0009050D01*
X0176576Y0009796D01*
X0177954Y0011174D01*
X0178700Y0012975D01*
X0178700Y0014925D01*
X0177954Y0016726D01*
X0176576Y0018104D01*
X0174775Y0018850D01*
X0172825Y0018850D01*
X0171024Y0018104D01*
X0170101Y0017181D02*
X0132816Y0017181D01*
X0133893Y0015982D02*
X0169338Y0015982D01*
X0168900Y0014784D02*
X0134971Y0014784D01*
X0136154Y0013585D02*
X0168900Y0013585D01*
X0169144Y0012387D02*
X0137523Y0012387D01*
X0139118Y0011188D02*
X0169640Y0011188D01*
X0170831Y0009990D02*
X0141006Y0009990D01*
X0143154Y0008791D02*
X0198126Y0008791D01*
X0198159Y0008780D02*
X0198983Y0008650D01*
X0199000Y0008650D01*
X0199000Y0013550D01*
X0199800Y0013550D01*
X0199800Y0014350D01*
X0204700Y0014350D01*
X0204700Y0014367D01*
X0204569Y0015191D01*
X0204312Y0015984D01*
X0203933Y0016728D01*
X0203443Y0017403D01*
X0202853Y0017993D01*
X0202178Y0018483D01*
X0201434Y0018862D01*
X0200641Y0019119D01*
X0199817Y0019250D01*
X0199800Y0019250D01*
X0199800Y0014350D01*
X0199000Y0014350D01*
X0199000Y0019250D01*
X0198983Y0019250D01*
X0198159Y0019119D01*
X0197366Y0018862D01*
X0196622Y0018483D01*
X0195947Y0017993D01*
X0195357Y0017403D01*
X0194867Y0016728D01*
X0194488Y0015984D01*
X0194230Y0015191D01*
X0194100Y0014367D01*
X0194100Y0014350D01*
X0199000Y0014350D01*
X0199000Y0013550D01*
X0194100Y0013550D01*
X0194100Y0013533D01*
X0194230Y0012709D01*
X0194488Y0011916D01*
X0194867Y0011172D01*
X0195357Y0010497D01*
X0195947Y0009907D01*
X0196622Y0009417D01*
X0197366Y0009038D01*
X0198159Y0008780D01*
X0199000Y0008791D02*
X0199800Y0008791D01*
X0199800Y0008650D02*
X0199817Y0008650D01*
X0200641Y0008780D01*
X0201434Y0009038D01*
X0202178Y0009417D01*
X0202853Y0009907D01*
X0203443Y0010497D01*
X0203933Y0011172D01*
X0204312Y0011916D01*
X0204569Y0012709D01*
X0204700Y0013533D01*
X0204700Y0013550D01*
X0199800Y0013550D01*
X0199800Y0008650D01*
X0200674Y0008791D02*
X0460987Y0008791D01*
X0461760Y0009990D02*
X0202935Y0009990D01*
X0203941Y0011188D02*
X0462439Y0011188D01*
X0463072Y0012387D02*
X0204465Y0012387D01*
X0204634Y0014784D02*
X0464250Y0014784D01*
X0464811Y0015982D02*
X0204312Y0015982D01*
X0203604Y0017181D02*
X0465357Y0017181D01*
X0465876Y0018379D02*
X0202321Y0018379D01*
X0199800Y0018379D02*
X0199000Y0018379D01*
X0199000Y0017181D02*
X0199800Y0017181D01*
X0199800Y0015982D02*
X0199000Y0015982D01*
X0199000Y0014784D02*
X0199800Y0014784D01*
X0199800Y0013585D02*
X0463672Y0013585D01*
X0483495Y0065121D02*
X0204300Y0065121D01*
X0204300Y0064525D02*
X0204300Y0066475D01*
X0203896Y0067450D01*
X0221246Y0084800D01*
X0269723Y0084800D01*
X0270127Y0084396D01*
X0271083Y0084000D01*
X0272117Y0084000D01*
X0273073Y0084396D01*
X0273477Y0084800D01*
X0379723Y0084800D01*
X0380127Y0084396D01*
X0381083Y0084000D01*
X0382117Y0084000D01*
X0383073Y0084396D01*
X0383804Y0085127D01*
X0384200Y0086083D01*
X0384200Y0087117D01*
X0383804Y0088073D01*
X0383073Y0088804D01*
X0382117Y0089200D01*
X0381083Y0089200D01*
X0380127Y0088804D01*
X0379723Y0088400D01*
X0273477Y0088400D01*
X0273073Y0088804D01*
X0272117Y0089200D01*
X0271083Y0089200D01*
X0270127Y0088804D01*
X0269723Y0088400D01*
X0219754Y0088400D01*
X0220500Y0086600D02*
X0271600Y0086600D01*
X0381600Y0086600D01*
X0384200Y0086694D02*
X0490844Y0086694D01*
X0491224Y0087893D02*
X0383879Y0087893D01*
X0382380Y0089091D02*
X0491595Y0089091D01*
X0491967Y0090290D02*
X0397835Y0090290D01*
X0397346Y0089800D02*
X0419573Y0112028D01*
X0420605Y0111600D01*
X0422595Y0111600D01*
X0424432Y0112361D01*
X0425839Y0113768D01*
X0426401Y0115126D01*
X0426596Y0114527D01*
X0426982Y0113770D01*
X0427481Y0113082D01*
X0428082Y0112481D01*
X0428770Y0111982D01*
X0429527Y0111596D01*
X0430335Y0111333D01*
X0431175Y0111200D01*
X0431413Y0111200D01*
X0431413Y0116413D01*
X0431787Y0116413D01*
X0431787Y0111200D01*
X0432025Y0111200D01*
X0432865Y0111333D01*
X0433673Y0111596D01*
X0434430Y0111982D01*
X0435118Y0112481D01*
X0435719Y0113082D01*
X0436218Y0113770D01*
X0436604Y0114527D01*
X0436799Y0115126D01*
X0437361Y0113768D01*
X0438768Y0112361D01*
X0440605Y0111600D01*
X0442595Y0111600D01*
X0444432Y0112361D01*
X0445839Y0113768D01*
X0446600Y0115605D01*
X0446600Y0117595D01*
X0445839Y0119432D01*
X0444432Y0120839D01*
X0442595Y0121600D01*
X0440605Y0121600D01*
X0438768Y0120839D01*
X0437361Y0119432D01*
X0436799Y0118074D01*
X0436604Y0118673D01*
X0436218Y0119430D01*
X0435719Y0120118D01*
X0435118Y0120719D01*
X0434430Y0121218D01*
X0433673Y0121604D01*
X0432865Y0121867D01*
X0432025Y0122000D01*
X0431787Y0122000D01*
X0431787Y0116787D01*
X0431413Y0116787D01*
X0431413Y0122000D01*
X0431175Y0122000D01*
X0430335Y0121867D01*
X0429527Y0121604D01*
X0428770Y0121218D01*
X0428082Y0120719D01*
X0427481Y0120118D01*
X0426982Y0119430D01*
X0426596Y0118673D01*
X0426401Y0118074D01*
X0425839Y0119432D01*
X0424432Y0120839D01*
X0422595Y0121600D01*
X0420605Y0121600D01*
X0418768Y0120839D01*
X0417361Y0119432D01*
X0416600Y0117595D01*
X0415839Y0119432D01*
X0414432Y0120839D01*
X0412595Y0121600D01*
X0410605Y0121600D01*
X0408768Y0120839D01*
X0407361Y0119432D01*
X0406600Y0117595D01*
X0406600Y0115605D01*
X0407028Y0114573D01*
X0395854Y0103400D01*
X0260977Y0103400D01*
X0260573Y0103804D01*
X0259617Y0104200D01*
X0258583Y0104200D01*
X0257627Y0103804D01*
X0256896Y0103073D01*
X0256500Y0102117D01*
X0256500Y0101083D01*
X0256896Y0100127D01*
X0257627Y0099396D01*
X0258583Y0099000D01*
X0259617Y0099000D01*
X0260573Y0099396D01*
X0260977Y0099800D01*
X0395854Y0099800D01*
X0397346Y0099800D01*
X0409573Y0112028D01*
X0410605Y0111600D01*
X0412595Y0111600D01*
X0414432Y0112361D01*
X0415839Y0113768D01*
X0416600Y0115605D01*
X0416600Y0117595D01*
X0416600Y0115605D01*
X0417028Y0114573D01*
X0395854Y0093400D01*
X0250977Y0093400D01*
X0250573Y0093804D01*
X0249617Y0094200D01*
X0248583Y0094200D01*
X0247627Y0093804D01*
X0246896Y0093073D01*
X0246500Y0092117D01*
X0246500Y0091083D01*
X0246896Y0090127D01*
X0247627Y0089396D01*
X0248583Y0089000D01*
X0249617Y0089000D01*
X0250573Y0089396D01*
X0250977Y0089800D01*
X0395854Y0089800D01*
X0397346Y0089800D01*
X0396600Y0091600D02*
X0421600Y0116600D01*
X0425133Y0113062D02*
X0427502Y0113062D01*
X0426732Y0114260D02*
X0426043Y0114260D01*
X0423230Y0111863D02*
X0429002Y0111863D01*
X0431413Y0111863D02*
X0431787Y0111863D01*
X0431787Y0113062D02*
X0431413Y0113062D01*
X0431413Y0114260D02*
X0431787Y0114260D01*
X0431787Y0115459D02*
X0431413Y0115459D01*
X0431413Y0117856D02*
X0431787Y0117856D01*
X0431787Y0119054D02*
X0431413Y0119054D01*
X0431413Y0120253D02*
X0431787Y0120253D01*
X0431787Y0121451D02*
X0431413Y0121451D01*
X0429226Y0121451D02*
X0422954Y0121451D01*
X0425018Y0120253D02*
X0427616Y0120253D01*
X0426790Y0119054D02*
X0425995Y0119054D01*
X0433974Y0121451D02*
X0440246Y0121451D01*
X0438182Y0120253D02*
X0435584Y0120253D01*
X0436410Y0119054D02*
X0437205Y0119054D01*
X0437157Y0114260D02*
X0436468Y0114260D01*
X0435698Y0113062D02*
X0438067Y0113062D01*
X0439970Y0111863D02*
X0434198Y0111863D01*
X0443230Y0111863D02*
X0448701Y0111863D01*
X0448701Y0110665D02*
X0418210Y0110665D01*
X0419409Y0111863D02*
X0419970Y0111863D01*
X0417012Y0109466D02*
X0448934Y0109466D01*
X0448701Y0110029D02*
X0449903Y0107125D01*
X0452125Y0104903D01*
X0455029Y0103701D01*
X0458171Y0103701D01*
X0461075Y0104903D01*
X0463297Y0107125D01*
X0464499Y0110029D01*
X0464499Y0113171D01*
X0463297Y0116075D01*
X0461075Y0118297D01*
X0458171Y0119499D01*
X0455029Y0119499D01*
X0452125Y0118297D01*
X0449903Y0116075D01*
X0448701Y0113171D01*
X0448701Y0110029D01*
X0449430Y0108268D02*
X0415813Y0108268D01*
X0414615Y0107069D02*
X0449960Y0107069D01*
X0451158Y0105870D02*
X0413416Y0105870D01*
X0412218Y0104672D02*
X0452684Y0104672D01*
X0460516Y0104672D02*
X0495318Y0104672D01*
X0495484Y0105870D02*
X0462042Y0105870D01*
X0463240Y0107069D02*
X0495649Y0107069D01*
X0495812Y0108268D02*
X0463770Y0108268D01*
X0464266Y0109466D02*
X0495897Y0109466D01*
X0495983Y0110665D02*
X0464499Y0110665D01*
X0464499Y0111863D02*
X0496039Y0111863D01*
X0496059Y0113062D02*
X0464499Y0113062D01*
X0464048Y0114260D02*
X0496080Y0114260D01*
X0495964Y0115459D02*
X0463552Y0115459D01*
X0462714Y0116657D02*
X0495834Y0116657D01*
X0495704Y0117856D02*
X0461516Y0117856D01*
X0459246Y0119054D02*
X0495574Y0119054D01*
X0495444Y0120253D02*
X0445018Y0120253D01*
X0445995Y0119054D02*
X0453954Y0119054D01*
X0451684Y0117856D02*
X0446492Y0117856D01*
X0446600Y0116657D02*
X0450486Y0116657D01*
X0449648Y0115459D02*
X0446539Y0115459D01*
X0446043Y0114260D02*
X0449152Y0114260D01*
X0448701Y0113062D02*
X0445133Y0113062D01*
X0442954Y0121451D02*
X0495180Y0121451D01*
X0494896Y0122650D02*
X0310195Y0122650D01*
X0310605Y0121600D02*
X0308768Y0120839D01*
X0307361Y0119432D01*
X0306600Y0117595D01*
X0306600Y0115605D01*
X0307361Y0113768D01*
X0308768Y0112361D01*
X0310605Y0111600D01*
X0312595Y0111600D01*
X0314432Y0112361D01*
X0315839Y0113768D01*
X0316600Y0115605D01*
X0317361Y0113768D01*
X0318768Y0112361D01*
X0320605Y0111600D01*
X0322595Y0111600D01*
X0324432Y0112361D01*
X0325839Y0113768D01*
X0326600Y0115605D01*
X0327361Y0113768D01*
X0328768Y0112361D01*
X0330605Y0111600D01*
X0332595Y0111600D01*
X0334432Y0112361D01*
X0335839Y0113768D01*
X0336600Y0115605D01*
X0337361Y0113768D01*
X0338768Y0112361D01*
X0340605Y0111600D01*
X0342595Y0111600D01*
X0344432Y0112361D01*
X0345839Y0113768D01*
X0346600Y0115605D01*
X0347361Y0113768D01*
X0348768Y0112361D01*
X0350605Y0111600D01*
X0352595Y0111600D01*
X0354432Y0112361D01*
X0355839Y0113768D01*
X0356401Y0115126D01*
X0356596Y0114527D01*
X0356982Y0113770D01*
X0357481Y0113082D01*
X0358082Y0112481D01*
X0358770Y0111982D01*
X0359527Y0111596D01*
X0360335Y0111333D01*
X0361175Y0111200D01*
X0361413Y0111200D01*
X0361413Y0116413D01*
X0361787Y0116413D01*
X0361787Y0111200D01*
X0362025Y0111200D01*
X0362865Y0111333D01*
X0363673Y0111596D01*
X0364430Y0111982D01*
X0365118Y0112481D01*
X0365719Y0113082D01*
X0366218Y0113770D01*
X0366604Y0114527D01*
X0366799Y0115126D01*
X0367361Y0113768D01*
X0368768Y0112361D01*
X0370605Y0111600D01*
X0372595Y0111600D01*
X0374432Y0112361D01*
X0375839Y0113768D01*
X0376600Y0115605D01*
X0377361Y0113768D01*
X0378768Y0112361D01*
X0380605Y0111600D01*
X0382595Y0111600D01*
X0384432Y0112361D01*
X0385839Y0113768D01*
X0386600Y0115605D01*
X0387361Y0113768D01*
X0388768Y0112361D01*
X0390605Y0111600D01*
X0392595Y0111600D01*
X0394432Y0112361D01*
X0395839Y0113768D01*
X0396600Y0115605D01*
X0397361Y0113768D01*
X0398768Y0112361D01*
X0400605Y0111600D01*
X0402595Y0111600D01*
X0404432Y0112361D01*
X0405839Y0113768D01*
X0406600Y0115605D01*
X0406600Y0117595D01*
X0405839Y0119432D01*
X0404432Y0120839D01*
X0402595Y0121600D01*
X0400605Y0121600D01*
X0398768Y0120839D01*
X0397361Y0119432D01*
X0396600Y0117595D01*
X0396600Y0115605D01*
X0396600Y0117595D01*
X0395839Y0119432D01*
X0394432Y0120839D01*
X0392595Y0121600D01*
X0390605Y0121600D01*
X0388768Y0120839D01*
X0387361Y0119432D01*
X0386600Y0117595D01*
X0386600Y0115605D01*
X0386600Y0117595D01*
X0385839Y0119432D01*
X0384432Y0120839D01*
X0382595Y0121600D01*
X0380605Y0121600D01*
X0378768Y0120839D01*
X0377361Y0119432D01*
X0376600Y0117595D01*
X0376600Y0115605D01*
X0376600Y0117595D01*
X0375839Y0119432D01*
X0374432Y0120839D01*
X0372595Y0121600D01*
X0370605Y0121600D01*
X0368768Y0120839D01*
X0367361Y0119432D01*
X0366799Y0118074D01*
X0366604Y0118673D01*
X0366218Y0119430D01*
X0365719Y0120118D01*
X0365118Y0120719D01*
X0364430Y0121218D01*
X0363673Y0121604D01*
X0362865Y0121867D01*
X0362025Y0122000D01*
X0361787Y0122000D01*
X0361787Y0116787D01*
X0361413Y0116787D01*
X0361413Y0122000D01*
X0361175Y0122000D01*
X0360335Y0121867D01*
X0359527Y0121604D01*
X0358770Y0121218D01*
X0358082Y0120719D01*
X0357481Y0120118D01*
X0356982Y0119430D01*
X0356596Y0118673D01*
X0356401Y0118074D01*
X0355839Y0119432D01*
X0354432Y0120839D01*
X0352595Y0121600D01*
X0350605Y0121600D01*
X0348768Y0120839D01*
X0347361Y0119432D01*
X0346600Y0117595D01*
X0346600Y0115605D01*
X0346600Y0117595D01*
X0345839Y0119432D01*
X0344432Y0120839D01*
X0342595Y0121600D01*
X0340605Y0121600D01*
X0338768Y0120839D01*
X0337361Y0119432D01*
X0336600Y0117595D01*
X0336600Y0115605D01*
X0336600Y0117595D01*
X0335839Y0119432D01*
X0334432Y0120839D01*
X0332595Y0121600D01*
X0330605Y0121600D01*
X0328768Y0120839D01*
X0327361Y0119432D01*
X0326600Y0117595D01*
X0326600Y0115605D01*
X0326600Y0117595D01*
X0325839Y0119432D01*
X0324432Y0120839D01*
X0322595Y0121600D01*
X0320605Y0121600D01*
X0318768Y0120839D01*
X0317361Y0119432D01*
X0316600Y0117595D01*
X0316600Y0115605D01*
X0316600Y0117595D01*
X0315839Y0119432D01*
X0314432Y0120839D01*
X0312595Y0121600D01*
X0310605Y0121600D01*
X0310246Y0121451D02*
X0308997Y0121451D01*
X0308182Y0120253D02*
X0307798Y0120253D01*
X0307205Y0119054D02*
X0306600Y0119054D01*
X0306172Y0118627D02*
X0312346Y0124800D01*
X0324723Y0124800D01*
X0325127Y0124396D01*
X0326083Y0124000D01*
X0327117Y0124000D01*
X0328073Y0124396D01*
X0328804Y0125127D01*
X0329200Y0126083D01*
X0329200Y0127117D01*
X0328804Y0128073D01*
X0328073Y0128804D01*
X0327117Y0129200D01*
X0326083Y0129200D01*
X0325127Y0128804D01*
X0324723Y0128400D01*
X0310854Y0128400D01*
X0309800Y0127346D01*
X0303627Y0121172D01*
X0302595Y0121600D01*
X0300605Y0121600D01*
X0298768Y0120839D01*
X0297361Y0119432D01*
X0296600Y0117595D01*
X0296600Y0115605D01*
X0297361Y0113768D01*
X0298768Y0112361D01*
X0300605Y0111600D01*
X0302595Y0111600D01*
X0304432Y0112361D01*
X0305839Y0113768D01*
X0306600Y0115605D01*
X0306600Y0117595D01*
X0306172Y0118627D01*
X0306492Y0117856D02*
X0306708Y0117856D01*
X0306600Y0116657D02*
X0306600Y0116657D01*
X0306539Y0115459D02*
X0306661Y0115459D01*
X0307157Y0114260D02*
X0306043Y0114260D01*
X0305133Y0113062D02*
X0308067Y0113062D01*
X0309970Y0111863D02*
X0303230Y0111863D01*
X0299970Y0111863D02*
X0294499Y0111863D01*
X0294499Y0110665D02*
X0403119Y0110665D01*
X0403230Y0111863D02*
X0404317Y0111863D01*
X0405133Y0113062D02*
X0405516Y0113062D01*
X0406043Y0114260D02*
X0406714Y0114260D01*
X0406661Y0115459D02*
X0406539Y0115459D01*
X0406600Y0116657D02*
X0406600Y0116657D01*
X0406492Y0117856D02*
X0406708Y0117856D01*
X0407205Y0119054D02*
X0405995Y0119054D01*
X0405018Y0120253D02*
X0408182Y0120253D01*
X0410246Y0121451D02*
X0402954Y0121451D01*
X0400246Y0121451D02*
X0392954Y0121451D01*
X0395018Y0120253D02*
X0398182Y0120253D01*
X0397205Y0119054D02*
X0395995Y0119054D01*
X0396492Y0117856D02*
X0396708Y0117856D01*
X0396600Y0116657D02*
X0396600Y0116657D01*
X0396539Y0115459D02*
X0396661Y0115459D01*
X0397157Y0114260D02*
X0396043Y0114260D01*
X0395133Y0113062D02*
X0398067Y0113062D01*
X0399970Y0111863D02*
X0393230Y0111863D01*
X0389970Y0111863D02*
X0383230Y0111863D01*
X0385133Y0113062D02*
X0388067Y0113062D01*
X0387157Y0114260D02*
X0386043Y0114260D01*
X0386539Y0115459D02*
X0386661Y0115459D01*
X0386600Y0116657D02*
X0386600Y0116657D01*
X0386492Y0117856D02*
X0386708Y0117856D01*
X0387205Y0119054D02*
X0385995Y0119054D01*
X0385018Y0120253D02*
X0388182Y0120253D01*
X0390246Y0121451D02*
X0382954Y0121451D01*
X0380246Y0121451D02*
X0372954Y0121451D01*
X0375018Y0120253D02*
X0378182Y0120253D01*
X0377205Y0119054D02*
X0375995Y0119054D01*
X0376492Y0117856D02*
X0376708Y0117856D01*
X0376600Y0116657D02*
X0376600Y0116657D01*
X0376539Y0115459D02*
X0376661Y0115459D01*
X0377157Y0114260D02*
X0376043Y0114260D01*
X0375133Y0113062D02*
X0378067Y0113062D01*
X0379970Y0111863D02*
X0373230Y0111863D01*
X0369970Y0111863D02*
X0364198Y0111863D01*
X0365698Y0113062D02*
X0368067Y0113062D01*
X0367157Y0114260D02*
X0366468Y0114260D01*
X0361787Y0114260D02*
X0361413Y0114260D01*
X0361413Y0113062D02*
X0361787Y0113062D01*
X0361787Y0111863D02*
X0361413Y0111863D01*
X0359002Y0111863D02*
X0353230Y0111863D01*
X0355133Y0113062D02*
X0357502Y0113062D01*
X0356732Y0114260D02*
X0356043Y0114260D01*
X0355995Y0119054D02*
X0356790Y0119054D01*
X0357616Y0120253D02*
X0355018Y0120253D01*
X0352954Y0121451D02*
X0359226Y0121451D01*
X0361413Y0121451D02*
X0361787Y0121451D01*
X0361787Y0120253D02*
X0361413Y0120253D01*
X0361413Y0119054D02*
X0361787Y0119054D01*
X0361787Y0117856D02*
X0361413Y0117856D01*
X0361413Y0115459D02*
X0361787Y0115459D01*
X0366410Y0119054D02*
X0367205Y0119054D01*
X0368182Y0120253D02*
X0365584Y0120253D01*
X0363974Y0121451D02*
X0370246Y0121451D01*
X0350246Y0121451D02*
X0342954Y0121451D01*
X0345018Y0120253D02*
X0348182Y0120253D01*
X0347205Y0119054D02*
X0345995Y0119054D01*
X0346492Y0117856D02*
X0346708Y0117856D01*
X0346600Y0116657D02*
X0346600Y0116657D01*
X0346539Y0115459D02*
X0346661Y0115459D01*
X0347157Y0114260D02*
X0346043Y0114260D01*
X0345133Y0113062D02*
X0348067Y0113062D01*
X0349970Y0111863D02*
X0343230Y0111863D01*
X0339970Y0111863D02*
X0333230Y0111863D01*
X0335133Y0113062D02*
X0338067Y0113062D01*
X0337157Y0114260D02*
X0336043Y0114260D01*
X0336539Y0115459D02*
X0336661Y0115459D01*
X0336600Y0116657D02*
X0336600Y0116657D01*
X0336492Y0117856D02*
X0336708Y0117856D01*
X0337205Y0119054D02*
X0335995Y0119054D01*
X0335018Y0120253D02*
X0338182Y0120253D01*
X0340246Y0121451D02*
X0332954Y0121451D01*
X0330246Y0121451D02*
X0322954Y0121451D01*
X0325018Y0120253D02*
X0328182Y0120253D01*
X0327205Y0119054D02*
X0325995Y0119054D01*
X0326492Y0117856D02*
X0326708Y0117856D01*
X0326600Y0116657D02*
X0326600Y0116657D01*
X0326539Y0115459D02*
X0326661Y0115459D01*
X0327157Y0114260D02*
X0326043Y0114260D01*
X0325133Y0113062D02*
X0328067Y0113062D01*
X0329970Y0111863D02*
X0323230Y0111863D01*
X0319970Y0111863D02*
X0313230Y0111863D01*
X0315133Y0113062D02*
X0318067Y0113062D01*
X0317157Y0114260D02*
X0316043Y0114260D01*
X0316539Y0115459D02*
X0316661Y0115459D01*
X0316600Y0116657D02*
X0316600Y0116657D01*
X0316492Y0117856D02*
X0316708Y0117856D01*
X0317205Y0119054D02*
X0315995Y0119054D01*
X0315018Y0120253D02*
X0318182Y0120253D01*
X0320246Y0121451D02*
X0312954Y0121451D01*
X0311394Y0123848D02*
X0494564Y0123848D01*
X0494163Y0125047D02*
X0328724Y0125047D01*
X0329200Y0126245D02*
X0493594Y0126245D01*
X0492996Y0127444D02*
X0329065Y0127444D01*
X0328235Y0128642D02*
X0492398Y0128642D01*
X0491512Y0129841D02*
X0418363Y0129841D01*
X0415246Y0129841D02*
X0041257Y0129841D01*
X0041379Y0131039D02*
X0414837Y0131039D01*
X0415406Y0132238D02*
X0041265Y0132238D01*
X0039285Y0133436D02*
X0417753Y0133436D01*
X0419645Y0134635D02*
X0343312Y0134635D01*
X0343073Y0134396D02*
X0343804Y0135127D01*
X0344200Y0136083D01*
X0344200Y0137117D01*
X0343804Y0138073D01*
X0343073Y0138804D01*
X0342117Y0139200D01*
X0341083Y0139200D01*
X0340127Y0138804D01*
X0339723Y0138400D01*
X0318477Y0138400D01*
X0318073Y0138804D01*
X0317117Y0139200D01*
X0316083Y0139200D01*
X0315127Y0138804D01*
X0314396Y0138073D01*
X0314000Y0137117D01*
X0314000Y0136083D01*
X0314396Y0135127D01*
X0315127Y0134396D01*
X0316083Y0134000D01*
X0317117Y0134000D01*
X0318073Y0134396D01*
X0318477Y0134800D01*
X0339723Y0134800D01*
X0340127Y0134396D01*
X0341083Y0134000D01*
X0342117Y0134000D01*
X0343073Y0134396D01*
X0344097Y0135833D02*
X0421370Y0135833D01*
X0423094Y0137032D02*
X0344200Y0137032D01*
X0343647Y0138230D02*
X0424531Y0138230D01*
X0425876Y0139429D02*
X0024324Y0139429D01*
X0021332Y0140627D02*
X0201735Y0140627D01*
X0202132Y0140463D02*
X0204335Y0140463D01*
X0206370Y0141306D01*
X0207928Y0142863D01*
X0208771Y0144898D01*
X0208771Y0147101D01*
X0207928Y0149136D01*
X0206370Y0150694D01*
X0204335Y0151537D01*
X0202132Y0151537D01*
X0200097Y0150694D01*
X0198540Y0149136D01*
X0197697Y0147101D01*
X0197697Y0144898D01*
X0198540Y0142863D01*
X0200097Y0141306D01*
X0202132Y0140463D01*
X0204733Y0140627D02*
X0293467Y0140627D01*
X0293865Y0140463D02*
X0296068Y0140463D01*
X0298103Y0141306D01*
X0299660Y0142863D01*
X0300503Y0144898D01*
X0300503Y0147101D01*
X0299660Y0149136D01*
X0298103Y0150694D01*
X0296068Y0151537D01*
X0293865Y0151537D01*
X0291830Y0150694D01*
X0290272Y0149136D01*
X0289429Y0147101D01*
X0289429Y0144898D01*
X0290272Y0142863D01*
X0291830Y0141306D01*
X0293865Y0140463D01*
X0296465Y0140627D02*
X0427092Y0140627D01*
X0428222Y0141826D02*
X0298623Y0141826D01*
X0299727Y0143024D02*
X0386257Y0143024D01*
X0386221Y0143039D02*
X0387765Y0142400D01*
X0395435Y0142400D01*
X0396979Y0143039D01*
X0398161Y0144221D01*
X0398800Y0145765D01*
X0398800Y0147435D01*
X0398161Y0148979D01*
X0396979Y0150161D01*
X0395435Y0150800D01*
X0387765Y0150800D01*
X0386221Y0150161D01*
X0385039Y0148979D01*
X0384400Y0147435D01*
X0384400Y0145765D01*
X0385039Y0144221D01*
X0386221Y0143039D01*
X0385039Y0144223D02*
X0300223Y0144223D01*
X0300503Y0145421D02*
X0384542Y0145421D01*
X0384400Y0146620D02*
X0300503Y0146620D01*
X0300206Y0147818D02*
X0384559Y0147818D01*
X0385077Y0149017D02*
X0299710Y0149017D01*
X0298581Y0150215D02*
X0386353Y0150215D01*
X0386834Y0152337D02*
X0387523Y0152113D01*
X0388238Y0152000D01*
X0391200Y0152000D01*
X0391200Y0156200D01*
X0392000Y0156200D01*
X0392000Y0157000D01*
X0391200Y0157000D01*
X0391200Y0161200D01*
X0388238Y0161200D01*
X0387523Y0161087D01*
X0386834Y0160863D01*
X0386189Y0160534D01*
X0385603Y0160109D01*
X0385091Y0159597D01*
X0384666Y0159011D01*
X0384337Y0158366D01*
X0384113Y0157677D01*
X0384006Y0157000D01*
X0391200Y0157000D01*
X0391200Y0156200D01*
X0384006Y0156200D01*
X0384113Y0155523D01*
X0384337Y0154834D01*
X0384666Y0154189D01*
X0385091Y0153603D01*
X0385603Y0153091D01*
X0386189Y0152666D01*
X0386834Y0152337D01*
X0386294Y0152612D02*
X0020322Y0152612D01*
X0019878Y0151414D02*
X0201836Y0151414D01*
X0199619Y0150215D02*
X0019434Y0150215D01*
X0018990Y0149017D02*
X0198490Y0149017D01*
X0197994Y0147818D02*
X0018547Y0147818D01*
X0018103Y0146620D02*
X0197697Y0146620D01*
X0197697Y0145421D02*
X0017659Y0145421D01*
X0017215Y0144223D02*
X0197977Y0144223D01*
X0198473Y0143024D02*
X0016772Y0143024D01*
X0018340Y0141826D02*
X0199577Y0141826D01*
X0206891Y0141826D02*
X0291309Y0141826D01*
X0290205Y0143024D02*
X0235141Y0143024D01*
X0235100Y0142983D02*
X0236217Y0144100D01*
X0236822Y0145560D01*
X0236822Y0147140D01*
X0236217Y0148600D01*
X0235100Y0149717D01*
X0233640Y0150322D01*
X0232060Y0150322D01*
X0230600Y0149717D01*
X0229483Y0148600D01*
X0228878Y0147140D01*
X0228878Y0145560D01*
X0229483Y0144100D01*
X0230600Y0142983D01*
X0232060Y0142378D01*
X0233640Y0142378D01*
X0235100Y0142983D01*
X0236268Y0144223D02*
X0289709Y0144223D01*
X0289429Y0145421D02*
X0236764Y0145421D01*
X0236822Y0146620D02*
X0289429Y0146620D01*
X0289726Y0147818D02*
X0236541Y0147818D01*
X0235800Y0149017D02*
X0290223Y0149017D01*
X0291351Y0150215D02*
X0233896Y0150215D01*
X0231804Y0150215D02*
X0206849Y0150215D01*
X0207977Y0149017D02*
X0229900Y0149017D01*
X0229159Y0147818D02*
X0208474Y0147818D01*
X0208771Y0146620D02*
X0228878Y0146620D01*
X0228936Y0145421D02*
X0208771Y0145421D01*
X0208491Y0144223D02*
X0229432Y0144223D01*
X0230559Y0143024D02*
X0207995Y0143024D01*
X0204631Y0151414D02*
X0293569Y0151414D01*
X0296364Y0151414D02*
X0434931Y0151414D01*
X0435444Y0152612D02*
X0396906Y0152612D01*
X0397011Y0152666D02*
X0397597Y0153091D01*
X0398109Y0153603D01*
X0398534Y0154189D01*
X0398863Y0154834D01*
X0399087Y0155523D01*
X0399194Y0156200D01*
X0392000Y0156200D01*
X0392000Y0152000D01*
X0394962Y0152000D01*
X0395677Y0152113D01*
X0396366Y0152337D01*
X0397011Y0152666D01*
X0398260Y0153811D02*
X0435958Y0153811D01*
X0436471Y0155009D02*
X0398920Y0155009D01*
X0399194Y0157000D02*
X0392000Y0157000D01*
X0392000Y0161200D01*
X0394962Y0161200D01*
X0395677Y0161087D01*
X0396366Y0160863D01*
X0397011Y0160534D01*
X0397597Y0160109D01*
X0398109Y0159597D01*
X0398534Y0159011D01*
X0398863Y0158366D01*
X0399087Y0157677D01*
X0399194Y0157000D01*
X0399130Y0157406D02*
X0437408Y0157406D01*
X0437774Y0158605D02*
X0398741Y0158605D01*
X0397902Y0159803D02*
X0438121Y0159803D01*
X0438396Y0161002D02*
X0395938Y0161002D01*
X0395435Y0162400D02*
X0396979Y0163039D01*
X0398161Y0164221D01*
X0398800Y0165765D01*
X0398800Y0167435D01*
X0398161Y0168979D01*
X0396979Y0170161D01*
X0395435Y0170800D01*
X0387765Y0170800D01*
X0386221Y0170161D01*
X0385039Y0168979D01*
X0384800Y0168400D01*
X0255977Y0168400D01*
X0255573Y0168804D01*
X0254617Y0169200D01*
X0253583Y0169200D01*
X0252627Y0168804D01*
X0251896Y0168073D01*
X0251500Y0167117D01*
X0251500Y0166083D01*
X0251896Y0165127D01*
X0252627Y0164396D01*
X0253583Y0164000D01*
X0254617Y0164000D01*
X0255573Y0164396D01*
X0255977Y0164800D01*
X0384800Y0164800D01*
X0385039Y0164221D01*
X0386221Y0163039D01*
X0387765Y0162400D01*
X0395435Y0162400D01*
X0397339Y0163399D02*
X0438856Y0163399D01*
X0439011Y0164598D02*
X0398317Y0164598D01*
X0398800Y0165796D02*
X0439167Y0165796D01*
X0439323Y0166995D02*
X0398800Y0166995D01*
X0398486Y0168193D02*
X0439478Y0168193D01*
X0439544Y0169392D02*
X0397748Y0169392D01*
X0395942Y0170590D02*
X0439582Y0170590D01*
X0439604Y0171789D02*
X0027039Y0171789D01*
X0027095Y0170590D02*
X0387258Y0170590D01*
X0387765Y0172400D02*
X0395435Y0172400D01*
X0396979Y0173039D01*
X0398161Y0174221D01*
X0398800Y0175765D01*
X0398800Y0177435D01*
X0398161Y0178979D01*
X0396979Y0180161D01*
X0395435Y0180800D01*
X0387765Y0180800D01*
X0386221Y0180161D01*
X0385039Y0178979D01*
X0384800Y0178400D01*
X0323477Y0178400D01*
X0323073Y0178804D01*
X0322117Y0179200D01*
X0321083Y0179200D01*
X0320127Y0178804D01*
X0319723Y0178400D01*
X0265977Y0178400D01*
X0265573Y0178804D01*
X0264617Y0179200D01*
X0263583Y0179200D01*
X0262627Y0178804D01*
X0261896Y0178073D01*
X0261500Y0177117D01*
X0261500Y0176083D01*
X0261896Y0175127D01*
X0262627Y0174396D01*
X0263583Y0174000D01*
X0264617Y0174000D01*
X0265573Y0174396D01*
X0265977Y0174800D01*
X0319723Y0174800D01*
X0320127Y0174396D01*
X0321083Y0174000D01*
X0322117Y0174000D01*
X0323073Y0174396D01*
X0323477Y0174800D01*
X0384800Y0174800D01*
X0385039Y0174221D01*
X0386221Y0173039D01*
X0387765Y0172400D01*
X0386347Y0172987D02*
X0025829Y0172987D01*
X0024512Y0174186D02*
X0263135Y0174186D01*
X0261789Y0175384D02*
X0023196Y0175384D01*
X0021879Y0176583D02*
X0261500Y0176583D01*
X0261775Y0177781D02*
X0020562Y0177781D01*
X0019246Y0178980D02*
X0263051Y0178980D01*
X0265149Y0178980D02*
X0320551Y0178980D01*
X0322649Y0178980D02*
X0385040Y0178980D01*
X0386263Y0180178D02*
X0017929Y0180178D01*
X0016613Y0181377D02*
X0438777Y0181377D01*
X0438961Y0180178D02*
X0396937Y0180178D01*
X0398160Y0178980D02*
X0439082Y0178980D01*
X0439204Y0177781D02*
X0398657Y0177781D01*
X0398800Y0176583D02*
X0439326Y0176583D01*
X0439447Y0175384D02*
X0398642Y0175384D01*
X0398125Y0174186D02*
X0439543Y0174186D01*
X0439573Y0172987D02*
X0396853Y0172987D01*
X0391600Y0176600D02*
X0321600Y0176600D01*
X0264100Y0176600D01*
X0265065Y0174186D02*
X0320635Y0174186D01*
X0322565Y0174186D02*
X0385075Y0174186D01*
X0385452Y0169392D02*
X0026534Y0169392D01*
X0026090Y0168193D02*
X0252016Y0168193D01*
X0251500Y0166995D02*
X0025646Y0166995D01*
X0025203Y0165796D02*
X0251619Y0165796D01*
X0252426Y0164598D02*
X0024759Y0164598D01*
X0024315Y0163399D02*
X0385861Y0163399D01*
X0384883Y0164598D02*
X0255774Y0164598D01*
X0254100Y0166600D02*
X0391600Y0166600D01*
X0391200Y0161002D02*
X0392000Y0161002D01*
X0392000Y0159803D02*
X0391200Y0159803D01*
X0391200Y0158605D02*
X0392000Y0158605D01*
X0392000Y0157406D02*
X0391200Y0157406D01*
X0391200Y0156208D02*
X0021653Y0156208D01*
X0022097Y0157406D02*
X0384070Y0157406D01*
X0384459Y0158605D02*
X0022540Y0158605D01*
X0022984Y0159803D02*
X0385298Y0159803D01*
X0387262Y0161002D02*
X0023428Y0161002D01*
X0023871Y0162201D02*
X0438672Y0162201D01*
X0436985Y0156208D02*
X0392000Y0156208D01*
X0392000Y0155009D02*
X0391200Y0155009D01*
X0391200Y0153811D02*
X0392000Y0153811D01*
X0392000Y0152612D02*
X0391200Y0152612D01*
X0396847Y0150215D02*
X0434292Y0150215D01*
X0433617Y0149017D02*
X0398123Y0149017D01*
X0398641Y0147818D02*
X0432871Y0147818D01*
X0432076Y0146620D02*
X0398800Y0146620D01*
X0398658Y0145421D02*
X0431185Y0145421D01*
X0430197Y0144223D02*
X0398161Y0144223D01*
X0396943Y0143024D02*
X0429210Y0143024D01*
X0432579Y0134635D02*
X0486757Y0134635D01*
X0488337Y0133436D02*
X0428572Y0133436D01*
X0424954Y0132238D02*
X0489598Y0132238D01*
X0490603Y0131039D02*
X0421546Y0131039D01*
X0420246Y0121451D02*
X0412954Y0121451D01*
X0415018Y0120253D02*
X0418182Y0120253D01*
X0417205Y0119054D02*
X0415995Y0119054D01*
X0416492Y0117856D02*
X0416708Y0117856D01*
X0416600Y0116657D02*
X0416600Y0116657D01*
X0416539Y0115459D02*
X0416661Y0115459D01*
X0416714Y0114260D02*
X0416043Y0114260D01*
X0415516Y0113062D02*
X0415133Y0113062D01*
X0414317Y0111863D02*
X0413230Y0111863D01*
X0413119Y0110665D02*
X0408210Y0110665D01*
X0409409Y0111863D02*
X0409970Y0111863D01*
X0411920Y0109466D02*
X0407012Y0109466D01*
X0405813Y0108268D02*
X0410722Y0108268D01*
X0409523Y0107069D02*
X0404615Y0107069D01*
X0403416Y0105870D02*
X0408325Y0105870D01*
X0407126Y0104672D02*
X0402218Y0104672D01*
X0401019Y0103473D02*
X0405928Y0103473D01*
X0404729Y0102275D02*
X0399821Y0102275D01*
X0398622Y0101076D02*
X0403531Y0101076D01*
X0402332Y0099878D02*
X0397424Y0099878D01*
X0396600Y0101600D02*
X0411600Y0116600D01*
X0401920Y0109466D02*
X0294266Y0109466D01*
X0294499Y0110029D02*
X0293297Y0107125D01*
X0291075Y0104903D01*
X0288171Y0103701D01*
X0285029Y0103701D01*
X0282125Y0104903D01*
X0279903Y0107125D01*
X0278701Y0110029D01*
X0278701Y0113171D01*
X0279903Y0116075D01*
X0282125Y0118297D01*
X0285029Y0119499D01*
X0288171Y0119499D01*
X0291075Y0118297D01*
X0293297Y0116075D01*
X0294499Y0113171D01*
X0294499Y0110029D01*
X0293770Y0108268D02*
X0400722Y0108268D01*
X0399523Y0107069D02*
X0293240Y0107069D01*
X0292042Y0105870D02*
X0398325Y0105870D01*
X0397126Y0104672D02*
X0290516Y0104672D01*
X0282684Y0104672D02*
X0202132Y0104672D01*
X0202176Y0104654D02*
X0200375Y0105400D01*
X0198425Y0105400D01*
X0196624Y0104654D01*
X0195246Y0103276D01*
X0194500Y0101475D01*
X0194500Y0099525D01*
X0195246Y0097724D01*
X0196624Y0096346D01*
X0198425Y0095600D01*
X0200375Y0095600D01*
X0201350Y0096004D01*
X0202554Y0094800D01*
X0274723Y0094800D01*
X0275127Y0094396D01*
X0276083Y0094000D01*
X0277117Y0094000D01*
X0278073Y0094396D01*
X0278477Y0094800D01*
X0389723Y0094800D01*
X0390127Y0094396D01*
X0391083Y0094000D01*
X0392117Y0094000D01*
X0393073Y0094396D01*
X0393804Y0095127D01*
X0394200Y0096083D01*
X0394200Y0097117D01*
X0393804Y0098073D01*
X0393073Y0098804D01*
X0392117Y0099200D01*
X0391083Y0099200D01*
X0390127Y0098804D01*
X0389723Y0098400D01*
X0278477Y0098400D01*
X0278073Y0098804D01*
X0277117Y0099200D01*
X0276083Y0099200D01*
X0275127Y0098804D01*
X0274723Y0098400D01*
X0204046Y0098400D01*
X0203896Y0098550D01*
X0204300Y0099525D01*
X0204300Y0101475D01*
X0203554Y0103276D01*
X0202176Y0104654D01*
X0203356Y0103473D02*
X0257297Y0103473D01*
X0256565Y0102275D02*
X0203969Y0102275D01*
X0204300Y0101076D02*
X0256503Y0101076D01*
X0257145Y0099878D02*
X0204300Y0099878D01*
X0203950Y0098679D02*
X0275002Y0098679D01*
X0276600Y0096600D02*
X0203300Y0096600D01*
X0199400Y0100500D01*
X0194850Y0098679D02*
X0178350Y0098679D01*
X0178700Y0099525D02*
X0177954Y0097724D01*
X0176576Y0096346D01*
X0174775Y0095600D01*
X0172825Y0095600D01*
X0171024Y0096346D01*
X0169646Y0097724D01*
X0168900Y0099525D01*
X0168900Y0101475D01*
X0169646Y0103276D01*
X0171024Y0104654D01*
X0172825Y0105400D01*
X0174775Y0105400D01*
X0176576Y0104654D01*
X0177954Y0103276D01*
X0178700Y0101475D01*
X0178700Y0099525D01*
X0178700Y0099878D02*
X0194500Y0099878D01*
X0194500Y0101076D02*
X0178700Y0101076D01*
X0178369Y0102275D02*
X0194831Y0102275D01*
X0195444Y0103473D02*
X0177756Y0103473D01*
X0176532Y0104672D02*
X0196668Y0104672D01*
X0195489Y0097481D02*
X0177711Y0097481D01*
X0176422Y0096282D02*
X0196778Y0096282D01*
X0202271Y0095084D02*
X0065241Y0095084D01*
X0065068Y0096282D02*
X0171178Y0096282D01*
X0169889Y0097481D02*
X0064894Y0097481D01*
X0064720Y0098679D02*
X0169250Y0098679D01*
X0168900Y0099878D02*
X0064586Y0099878D01*
X0063626Y0101076D02*
X0168900Y0101076D01*
X0169231Y0102275D02*
X0038454Y0102275D01*
X0038576Y0103473D02*
X0169844Y0103473D01*
X0171068Y0104672D02*
X0038698Y0104672D01*
X0038819Y0105870D02*
X0281158Y0105870D01*
X0279960Y0107069D02*
X0038941Y0107069D01*
X0039063Y0108268D02*
X0279430Y0108268D01*
X0278934Y0109466D02*
X0039185Y0109466D01*
X0039307Y0110665D02*
X0278701Y0110665D01*
X0278701Y0111863D02*
X0039429Y0111863D01*
X0039551Y0113062D02*
X0134775Y0113062D01*
X0134882Y0112984D02*
X0135532Y0112652D01*
X0136227Y0112427D01*
X0136948Y0112312D01*
X0139937Y0112312D01*
X0139937Y0116537D01*
X0140763Y0116537D01*
X0140763Y0117362D01*
X0148017Y0117362D01*
X0147911Y0118036D01*
X0147685Y0118730D01*
X0147354Y0119381D01*
X0146925Y0119971D01*
X0146409Y0120487D01*
X0145818Y0120916D01*
X0145168Y0121248D01*
X0144473Y0121473D01*
X0143752Y0121587D01*
X0140763Y0121587D01*
X0140763Y0117363D01*
X0139937Y0117363D01*
X0139937Y0121587D01*
X0136948Y0121587D01*
X0136227Y0121473D01*
X0135532Y0121248D01*
X0134882Y0120916D01*
X0134291Y0120487D01*
X0133775Y0119971D01*
X0133346Y0119381D01*
X0133015Y0118730D01*
X0132789Y0118036D01*
X0132683Y0117362D01*
X0139937Y0117362D01*
X0139937Y0116537D01*
X0132683Y0116537D01*
X0132789Y0115864D01*
X0133015Y0115170D01*
X0133346Y0114519D01*
X0133775Y0113929D01*
X0134291Y0113413D01*
X0134882Y0112984D01*
X0133535Y0114260D02*
X0039673Y0114260D01*
X0039794Y0115459D02*
X0132921Y0115459D01*
X0132761Y0117856D02*
X0040038Y0117856D01*
X0040160Y0119054D02*
X0133180Y0119054D01*
X0134057Y0120253D02*
X0040282Y0120253D01*
X0040404Y0121451D02*
X0136158Y0121451D01*
X0139937Y0121451D02*
X0140763Y0121451D01*
X0140763Y0120253D02*
X0139937Y0120253D01*
X0139937Y0119054D02*
X0140763Y0119054D01*
X0140763Y0117856D02*
X0139937Y0117856D01*
X0139937Y0116657D02*
X0039916Y0116657D01*
X0040526Y0122650D02*
X0305104Y0122650D01*
X0306303Y0123848D02*
X0040648Y0123848D01*
X0040770Y0125047D02*
X0307501Y0125047D01*
X0308700Y0126245D02*
X0040891Y0126245D01*
X0041013Y0127444D02*
X0309898Y0127444D01*
X0311600Y0126600D02*
X0326600Y0126600D01*
X0324965Y0128642D02*
X0041135Y0128642D01*
X0036293Y0134635D02*
X0314888Y0134635D01*
X0314103Y0135833D02*
X0033301Y0135833D01*
X0030308Y0137032D02*
X0314000Y0137032D01*
X0314553Y0138230D02*
X0027316Y0138230D01*
X0020765Y0153811D02*
X0384940Y0153811D01*
X0384280Y0155009D02*
X0021209Y0155009D01*
X0015296Y0182575D02*
X0438563Y0182575D01*
X0438340Y0183774D02*
X0013980Y0183774D01*
X0012663Y0184972D02*
X0438072Y0184972D01*
X0437804Y0186171D02*
X0011346Y0186171D01*
X0010030Y0187369D02*
X0437488Y0187369D01*
X0437148Y0188568D02*
X0008713Y0188568D01*
X0007397Y0189766D02*
X0319757Y0189766D01*
X0319396Y0190127D02*
X0320127Y0189396D01*
X0321083Y0189000D01*
X0322117Y0189000D01*
X0323073Y0189396D01*
X0323477Y0189800D01*
X0399723Y0189800D01*
X0400127Y0189396D01*
X0401083Y0189000D01*
X0402117Y0189000D01*
X0403073Y0189396D01*
X0403804Y0190127D01*
X0404200Y0191083D01*
X0404200Y0192117D01*
X0403804Y0193073D01*
X0403073Y0193804D01*
X0402117Y0194200D01*
X0401083Y0194200D01*
X0400127Y0193804D01*
X0399723Y0193400D01*
X0323477Y0193400D01*
X0323073Y0193804D01*
X0322117Y0194200D01*
X0321083Y0194200D01*
X0320127Y0193804D01*
X0319396Y0193073D01*
X0319000Y0192117D01*
X0319000Y0191083D01*
X0319396Y0190127D01*
X0319049Y0190965D02*
X0006080Y0190965D01*
X0006862Y0192163D02*
X0319019Y0192163D01*
X0319685Y0193362D02*
X0007746Y0193362D01*
X0008629Y0194560D02*
X0339963Y0194560D01*
X0340127Y0194396D02*
X0341083Y0194000D01*
X0342117Y0194000D01*
X0343073Y0194396D01*
X0343477Y0194800D01*
X0409723Y0194800D01*
X0410127Y0194396D01*
X0411083Y0194000D01*
X0412117Y0194000D01*
X0413073Y0194396D01*
X0413804Y0195127D01*
X0414200Y0196083D01*
X0414200Y0197117D01*
X0413804Y0198073D01*
X0413073Y0198804D01*
X0412117Y0199200D01*
X0411083Y0199200D01*
X0410127Y0198804D01*
X0409723Y0198400D01*
X0343477Y0198400D01*
X0343073Y0198804D01*
X0342117Y0199200D01*
X0341083Y0199200D01*
X0340127Y0198804D01*
X0339396Y0198073D01*
X0339000Y0197117D01*
X0339000Y0196083D01*
X0339396Y0195127D01*
X0340127Y0194396D01*
X0339134Y0195759D02*
X0009512Y0195759D01*
X0010395Y0196957D02*
X0339000Y0196957D01*
X0339479Y0198156D02*
X0011278Y0198156D01*
X0012162Y0199354D02*
X0433457Y0199354D01*
X0433933Y0198156D02*
X0413721Y0198156D01*
X0414200Y0196957D02*
X0434409Y0196957D01*
X0434885Y0195759D02*
X0414066Y0195759D01*
X0413237Y0194560D02*
X0435320Y0194560D01*
X0435734Y0193362D02*
X0403515Y0193362D01*
X0404181Y0192163D02*
X0436129Y0192163D01*
X0436469Y0190965D02*
X0404151Y0190965D01*
X0403443Y0189766D02*
X0436808Y0189766D01*
X0432981Y0200553D02*
X0013045Y0200553D01*
X0013928Y0201751D02*
X0375867Y0201751D01*
X0375699Y0201821D02*
X0377500Y0201075D01*
X0379450Y0201075D01*
X0381251Y0201821D01*
X0382629Y0203199D01*
X0383375Y0205000D01*
X0383375Y0206950D01*
X0382629Y0208751D01*
X0381580Y0209800D01*
X0390973Y0209800D01*
X0391377Y0209396D01*
X0392333Y0209000D01*
X0393367Y0209000D01*
X0394323Y0209396D01*
X0395054Y0210127D01*
X0395450Y0211083D01*
X0395450Y0212117D01*
X0395054Y0213073D01*
X0394323Y0213804D01*
X0393367Y0214200D01*
X0392333Y0214200D01*
X0391377Y0213804D01*
X0390973Y0213400D01*
X0333477Y0213400D01*
X0333073Y0213804D01*
X0332117Y0214200D01*
X0331083Y0214200D01*
X0330127Y0213804D01*
X0329396Y0213073D01*
X0329000Y0212117D01*
X0329000Y0211083D01*
X0329396Y0210127D01*
X0330127Y0209396D01*
X0330841Y0209100D01*
X0330127Y0208804D01*
X0329723Y0208400D01*
X0308477Y0208400D01*
X0308073Y0208804D01*
X0307117Y0209200D01*
X0306083Y0209200D01*
X0305127Y0208804D01*
X0304396Y0208073D01*
X0304000Y0207117D01*
X0304000Y0206083D01*
X0304396Y0205127D01*
X0305127Y0204396D01*
X0306083Y0204000D01*
X0307117Y0204000D01*
X0308073Y0204396D01*
X0308477Y0204800D01*
X0329723Y0204800D01*
X0330127Y0204396D01*
X0331083Y0204000D01*
X0332117Y0204000D01*
X0333073Y0204396D01*
X0333477Y0204800D01*
X0373658Y0204800D01*
X0374321Y0203199D01*
X0375699Y0201821D01*
X0374570Y0202950D02*
X0014811Y0202950D01*
X0015694Y0204148D02*
X0305725Y0204148D01*
X0307475Y0204148D02*
X0330725Y0204148D01*
X0332475Y0204148D02*
X0373928Y0204148D01*
X0377850Y0206600D02*
X0378475Y0205975D01*
X0377850Y0206600D02*
X0331600Y0206600D01*
X0306600Y0206600D01*
X0304000Y0206545D02*
X0017461Y0206545D01*
X0016578Y0205347D02*
X0304305Y0205347D01*
X0304260Y0207744D02*
X0018344Y0207744D01*
X0019227Y0208942D02*
X0305461Y0208942D01*
X0307739Y0208942D02*
X0330461Y0208942D01*
X0329390Y0210141D02*
X0020110Y0210141D01*
X0020994Y0211339D02*
X0329000Y0211339D01*
X0329174Y0212538D02*
X0021877Y0212538D01*
X0022802Y0213737D02*
X0330060Y0213737D01*
X0331600Y0211600D02*
X0392850Y0211600D01*
X0395276Y0212538D02*
X0399366Y0212538D01*
X0398168Y0213737D02*
X0394390Y0213737D01*
X0395450Y0211339D02*
X0400565Y0211339D01*
X0401763Y0210141D02*
X0395060Y0210141D01*
X0396969Y0214935D02*
X0372079Y0214935D01*
X0371709Y0214565D02*
X0379625Y0222481D01*
X0380000Y0222325D01*
X0381950Y0222325D01*
X0383751Y0223071D01*
X0385129Y0224449D01*
X0385875Y0226250D01*
X0385875Y0228200D01*
X0385129Y0230001D01*
X0383751Y0231379D01*
X0381950Y0232125D01*
X0380000Y0232125D01*
X0378199Y0231379D01*
X0376821Y0230001D01*
X0376075Y0228200D01*
X0376075Y0226250D01*
X0376231Y0225875D01*
X0369356Y0219000D01*
X0280100Y0219000D01*
X0279617Y0219200D01*
X0278583Y0219200D01*
X0277627Y0218804D01*
X0276896Y0218073D01*
X0276500Y0217117D01*
X0276500Y0216083D01*
X0276896Y0215127D01*
X0277627Y0214396D01*
X0278583Y0214000D01*
X0279617Y0214000D01*
X0280100Y0214200D01*
X0370827Y0214200D01*
X0371709Y0214565D01*
X0373278Y0216134D02*
X0395771Y0216134D01*
X0394572Y0217332D02*
X0374476Y0217332D01*
X0375675Y0218531D02*
X0393374Y0218531D01*
X0392175Y0219729D02*
X0376873Y0219729D01*
X0378072Y0220928D02*
X0390977Y0220928D01*
X0389778Y0222126D02*
X0379270Y0222126D01*
X0376078Y0225722D02*
X0350366Y0225722D01*
X0349384Y0224523D02*
X0374879Y0224523D01*
X0373680Y0223325D02*
X0348462Y0223325D01*
X0347103Y0222126D02*
X0372482Y0222126D01*
X0371283Y0220928D02*
X0019522Y0220928D01*
X0018827Y0222126D02*
X0346096Y0222126D01*
X0345089Y0223325D02*
X0018132Y0223325D01*
X0017437Y0224523D02*
X0345230Y0224523D01*
X0346038Y0225722D02*
X0016742Y0225722D01*
X0016048Y0226920D02*
X0346834Y0226920D01*
X0347566Y0228119D02*
X0015353Y0228119D01*
X0014658Y0229317D02*
X0348270Y0229317D01*
X0348973Y0230516D02*
X0013963Y0230516D01*
X0013268Y0231714D02*
X0349677Y0231714D01*
X0350365Y0232913D02*
X0235690Y0232913D01*
X0235341Y0232799D02*
X0236134Y0233057D01*
X0236878Y0233436D01*
X0237553Y0233926D01*
X0238143Y0234516D01*
X0238633Y0235191D01*
X0239012Y0235934D01*
X0239269Y0236728D01*
X0239281Y0236799D01*
X0239946Y0235193D01*
X0241324Y0233815D01*
X0243125Y0233069D01*
X0245075Y0233069D01*
X0246876Y0233815D01*
X0248254Y0235193D01*
X0249000Y0236994D01*
X0249000Y0246344D01*
X0248254Y0248145D01*
X0246876Y0249523D01*
X0245075Y0250269D01*
X0243125Y0250269D01*
X0241324Y0249523D01*
X0239946Y0248145D01*
X0239281Y0246539D01*
X0239269Y0246610D01*
X0239012Y0247403D01*
X0238633Y0248147D01*
X0238143Y0248822D01*
X0237553Y0249412D01*
X0236878Y0249902D01*
X0236134Y0250281D01*
X0235341Y0250538D01*
X0234600Y0250656D01*
X0234600Y0242169D01*
X0233600Y0242169D01*
X0233600Y0250656D01*
X0232859Y0250538D01*
X0232066Y0250281D01*
X0231322Y0249902D01*
X0230647Y0249412D01*
X0230057Y0248822D01*
X0229567Y0248147D01*
X0229188Y0247403D01*
X0228930Y0246610D01*
X0228800Y0245786D01*
X0228800Y0242169D01*
X0233600Y0242169D01*
X0233600Y0241169D01*
X0228800Y0241169D01*
X0228800Y0237552D01*
X0228930Y0236728D01*
X0229188Y0235934D01*
X0229567Y0235191D01*
X0230057Y0234516D01*
X0230647Y0233926D01*
X0231322Y0233436D01*
X0232066Y0233057D01*
X0232859Y0232799D01*
X0233600Y0232682D01*
X0233600Y0241169D01*
X0234600Y0241169D01*
X0234600Y0232682D01*
X0235341Y0232799D01*
X0234600Y0232913D02*
X0233600Y0232913D01*
X0232510Y0232913D02*
X0012574Y0232913D01*
X0011879Y0234111D02*
X0230462Y0234111D01*
X0229507Y0235310D02*
X0206674Y0235310D01*
X0206370Y0235006D02*
X0207928Y0236564D01*
X0208771Y0238599D01*
X0208771Y0240802D01*
X0207928Y0242837D01*
X0206370Y0244394D01*
X0204335Y0245237D01*
X0202132Y0245237D01*
X0200097Y0244394D01*
X0198540Y0242837D01*
X0197697Y0240802D01*
X0197697Y0238599D01*
X0198540Y0236564D01*
X0200097Y0235006D01*
X0202132Y0234163D01*
X0204335Y0234163D01*
X0206370Y0235006D01*
X0207872Y0236508D02*
X0229002Y0236508D01*
X0228800Y0237707D02*
X0208401Y0237707D01*
X0208771Y0238905D02*
X0228800Y0238905D01*
X0228800Y0240104D02*
X0208771Y0240104D01*
X0208564Y0241302D02*
X0233600Y0241302D01*
X0233600Y0240104D02*
X0234600Y0240104D01*
X0234600Y0238905D02*
X0233600Y0238905D01*
X0233600Y0237707D02*
X0234600Y0237707D01*
X0234600Y0236508D02*
X0233600Y0236508D01*
X0233600Y0235310D02*
X0234600Y0235310D01*
X0234600Y0234111D02*
X0233600Y0234111D01*
X0237738Y0234111D02*
X0241028Y0234111D01*
X0239898Y0235310D02*
X0238693Y0235310D01*
X0239198Y0236508D02*
X0239401Y0236508D01*
X0234600Y0242501D02*
X0233600Y0242501D01*
X0233600Y0243699D02*
X0234600Y0243699D01*
X0234600Y0244898D02*
X0233600Y0244898D01*
X0233600Y0246096D02*
X0234600Y0246096D01*
X0234600Y0247295D02*
X0233600Y0247295D01*
X0233600Y0248493D02*
X0234600Y0248493D01*
X0234600Y0249692D02*
X0233600Y0249692D01*
X0231033Y0249692D02*
X0019592Y0249692D01*
X0021305Y0250890D02*
X0253345Y0250890D01*
X0253354Y0250900D02*
X0252439Y0249985D01*
X0251324Y0249523D01*
X0249946Y0248145D01*
X0249200Y0246344D01*
X0249200Y0236994D01*
X0249946Y0235193D01*
X0251324Y0233815D01*
X0253125Y0233069D01*
X0255075Y0233069D01*
X0256876Y0233815D01*
X0258254Y0235193D01*
X0259000Y0236994D01*
X0259000Y0246344D01*
X0258254Y0248145D01*
X0256972Y0249426D01*
X0262300Y0254754D01*
X0262300Y0249927D01*
X0261324Y0249523D01*
X0259946Y0248145D01*
X0259200Y0246344D01*
X0259200Y0236994D01*
X0259946Y0235193D01*
X0261324Y0233815D01*
X0263125Y0233069D01*
X0265075Y0233069D01*
X0266876Y0233815D01*
X0268254Y0235193D01*
X0269000Y0236994D01*
X0269000Y0246344D01*
X0268254Y0248145D01*
X0266876Y0249523D01*
X0265900Y0249927D01*
X0265900Y0253354D01*
X0272346Y0259800D01*
X0307346Y0259800D01*
X0308400Y0260854D01*
X0312346Y0264800D01*
X0322346Y0264800D01*
X0323400Y0265854D01*
X0328696Y0271150D01*
X0330840Y0271150D01*
X0332300Y0272610D01*
X0332300Y0267346D01*
X0330854Y0265900D01*
X0328477Y0265900D01*
X0328073Y0266304D01*
X0327117Y0266700D01*
X0326083Y0266700D01*
X0325127Y0266304D01*
X0324396Y0265573D01*
X0324000Y0264617D01*
X0324000Y0263583D01*
X0324396Y0262627D01*
X0324873Y0262150D01*
X0314727Y0262150D01*
X0314323Y0262554D01*
X0313367Y0262950D01*
X0312333Y0262950D01*
X0311377Y0262554D01*
X0310646Y0261823D01*
X0310250Y0260867D01*
X0310250Y0259833D01*
X0310646Y0258877D01*
X0311377Y0258146D01*
X0312333Y0257750D01*
X0313367Y0257750D01*
X0314323Y0258146D01*
X0314727Y0258550D01*
X0337223Y0258550D01*
X0337627Y0258146D01*
X0338583Y0257750D01*
X0339617Y0257750D01*
X0340573Y0258146D01*
X0341304Y0258877D01*
X0341700Y0259833D01*
X0341700Y0260867D01*
X0341304Y0261823D01*
X0340573Y0262554D01*
X0339617Y0262950D01*
X0338583Y0262950D01*
X0337627Y0262554D01*
X0337223Y0262150D01*
X0328327Y0262150D01*
X0328477Y0262300D01*
X0332346Y0262300D01*
X0333400Y0263354D01*
X0335900Y0265854D01*
X0335900Y0272610D01*
X0337360Y0271150D01*
X0340840Y0271150D01*
X0343300Y0273610D01*
X0343300Y0277090D01*
X0340840Y0279550D01*
X0337360Y0279550D01*
X0335900Y0278090D01*
X0335900Y0281096D01*
X0334846Y0282150D01*
X0333300Y0283696D01*
X0333300Y0287090D01*
X0330840Y0289550D01*
X0327360Y0289550D01*
X0324900Y0287090D01*
X0324900Y0283610D01*
X0327360Y0281150D01*
X0330754Y0281150D01*
X0332300Y0279604D01*
X0332300Y0278090D01*
X0330840Y0279550D01*
X0327360Y0279550D01*
X0324900Y0277090D01*
X0324900Y0273610D01*
X0325482Y0273028D01*
X0320854Y0268400D01*
X0310854Y0268400D01*
X0305854Y0263400D01*
X0270946Y0263400D01*
X0272346Y0264800D01*
X0302223Y0264800D01*
X0302627Y0264396D01*
X0303583Y0264000D01*
X0304617Y0264000D01*
X0305573Y0264396D01*
X0306304Y0265127D01*
X0306700Y0266083D01*
X0306700Y0267117D01*
X0306304Y0268073D01*
X0305573Y0268804D01*
X0304617Y0269200D01*
X0303583Y0269200D01*
X0302627Y0268804D01*
X0302223Y0268400D01*
X0270854Y0268400D01*
X0266443Y0263988D01*
X0266304Y0264323D01*
X0265900Y0264727D01*
X0265900Y0272045D01*
X0267195Y0270750D01*
X0268700Y0270750D01*
X0268700Y0274950D01*
X0269500Y0274950D01*
X0269500Y0275750D01*
X0268700Y0275750D01*
X0268700Y0279950D01*
X0267195Y0279950D01*
X0265900Y0278655D01*
X0265900Y0281096D01*
X0264846Y0282150D01*
X0263300Y0283696D01*
X0263300Y0287090D01*
X0260840Y0289550D01*
X0257360Y0289550D01*
X0254900Y0287090D01*
X0254900Y0283610D01*
X0257360Y0281150D01*
X0260754Y0281150D01*
X0262300Y0279604D01*
X0262300Y0278090D01*
X0260840Y0279550D01*
X0257360Y0279550D01*
X0254900Y0277090D01*
X0254900Y0273610D01*
X0257360Y0271150D01*
X0260840Y0271150D01*
X0262300Y0272610D01*
X0262300Y0264727D01*
X0261896Y0264323D01*
X0261500Y0263367D01*
X0261500Y0262333D01*
X0261896Y0261377D01*
X0262627Y0260646D01*
X0262962Y0260507D01*
X0253354Y0250900D01*
X0254543Y0252089D02*
X0023019Y0252089D01*
X0024733Y0253287D02*
X0255742Y0253287D01*
X0256940Y0254486D02*
X0026446Y0254486D01*
X0028160Y0255684D02*
X0258139Y0255684D01*
X0259337Y0256883D02*
X0029415Y0256883D01*
X0029435Y0258081D02*
X0260536Y0258081D01*
X0261734Y0259280D02*
X0029076Y0259280D01*
X0028760Y0260478D02*
X0262933Y0260478D01*
X0261772Y0261677D02*
X0028445Y0261677D01*
X0028129Y0262875D02*
X0252597Y0262875D01*
X0249438Y0264074D02*
X0027814Y0264074D01*
X0027498Y0265272D02*
X0245753Y0265272D01*
X0241344Y0266471D02*
X0027183Y0266471D01*
X0026867Y0267670D02*
X0240323Y0267670D01*
X0240571Y0268868D02*
X0026552Y0268868D01*
X0026236Y0270067D02*
X0241064Y0270067D01*
X0241507Y0271265D02*
X0025921Y0271265D01*
X0025605Y0272464D02*
X0241951Y0272464D01*
X0242394Y0273662D02*
X0025290Y0273662D01*
X0024974Y0274861D02*
X0242838Y0274861D01*
X0243281Y0276059D02*
X0024659Y0276059D01*
X0024343Y0277258D02*
X0241507Y0277258D01*
X0238515Y0278456D02*
X0024028Y0278456D01*
X0023712Y0279655D02*
X0235523Y0279655D01*
X0232532Y0280853D02*
X0023397Y0280853D01*
X0023081Y0282052D02*
X0229540Y0282052D01*
X0226548Y0283250D02*
X0022766Y0283250D01*
X0022450Y0284449D02*
X0223556Y0284449D01*
X0220565Y0285647D02*
X0022135Y0285647D01*
X0021819Y0286846D02*
X0218705Y0286846D01*
X0218657Y0288044D02*
X0021504Y0288044D01*
X0024471Y0289243D02*
X0218779Y0289243D01*
X0218900Y0290441D02*
X0029474Y0290441D01*
X0034477Y0291640D02*
X0219022Y0291640D01*
X0219144Y0292838D02*
X0039479Y0292838D01*
X0044482Y0294037D02*
X0219266Y0294037D01*
X0219388Y0295235D02*
X0046032Y0295235D01*
X0046021Y0296434D02*
X0219510Y0296434D01*
X0219632Y0297632D02*
X0046009Y0297632D01*
X0045998Y0298831D02*
X0219754Y0298831D01*
X0219876Y0300029D02*
X0045987Y0300029D01*
X0045976Y0301228D02*
X0219997Y0301228D01*
X0220119Y0302426D02*
X0045965Y0302426D01*
X0045953Y0303625D02*
X0220241Y0303625D01*
X0220363Y0304823D02*
X0045942Y0304823D01*
X0045931Y0306022D02*
X0220485Y0306022D01*
X0220607Y0307220D02*
X0045920Y0307220D01*
X0045909Y0308419D02*
X0220729Y0308419D01*
X0220851Y0309617D02*
X0045897Y0309617D01*
X0045886Y0310816D02*
X0220973Y0310816D01*
X0221094Y0312014D02*
X0045875Y0312014D01*
X0045864Y0313213D02*
X0221216Y0313213D01*
X0221338Y0314411D02*
X0045853Y0314411D01*
X0045841Y0315610D02*
X0221460Y0315610D01*
X0221582Y0316808D02*
X0045830Y0316808D01*
X0045819Y0318007D02*
X0196323Y0318007D01*
X0195439Y0319205D02*
X0045808Y0319205D01*
X0045797Y0320404D02*
X0195295Y0320404D01*
X0195121Y0321603D02*
X0045785Y0321603D01*
X0045774Y0322801D02*
X0194948Y0322801D01*
X0194774Y0324000D02*
X0070031Y0324000D01*
X0070919Y0325198D02*
X0194600Y0325198D01*
X0194426Y0326397D02*
X0071210Y0326397D01*
X0071501Y0327595D02*
X0194253Y0327595D01*
X0194079Y0328794D02*
X0071791Y0328794D01*
X0072082Y0329992D02*
X0193905Y0329992D01*
X0193732Y0331191D02*
X0072372Y0331191D01*
X0072663Y0332389D02*
X0193558Y0332389D01*
X0193384Y0333588D02*
X0072954Y0333588D01*
X0073244Y0334786D02*
X0193210Y0334786D01*
X0193037Y0335985D02*
X0073535Y0335985D01*
X0073826Y0337183D02*
X0192863Y0337183D01*
X0192689Y0338382D02*
X0074116Y0338382D01*
X0074407Y0339580D02*
X0166073Y0339580D01*
X0165558Y0340779D02*
X0074698Y0340779D01*
X0074988Y0341977D02*
X0165058Y0341977D01*
X0164550Y0343176D02*
X0101623Y0343176D01*
X0102280Y0344374D02*
X0164042Y0344374D01*
X0163535Y0345573D02*
X0102940Y0345573D01*
X0103601Y0346771D02*
X0163027Y0346771D01*
X0162520Y0347970D02*
X0135023Y0347970D01*
X0136275Y0349168D02*
X0162012Y0349168D01*
X0161505Y0350367D02*
X0137526Y0350367D01*
X0138778Y0351565D02*
X0160997Y0351565D01*
X0160490Y0352764D02*
X0140029Y0352764D01*
X0141280Y0353962D02*
X0159982Y0353962D01*
X0159475Y0355161D02*
X0142532Y0355161D01*
X0143783Y0356359D02*
X0158967Y0356359D01*
X0158460Y0357558D02*
X0145035Y0357558D01*
X0146286Y0358756D02*
X0157952Y0358756D01*
X0157444Y0359955D02*
X0147538Y0359955D01*
X0148789Y0361153D02*
X0156937Y0361153D01*
X0156429Y0362352D02*
X0150040Y0362352D01*
X0151292Y0363550D02*
X0155922Y0363550D01*
X0155414Y0364749D02*
X0152543Y0364749D01*
X0153795Y0365947D02*
X0154907Y0365947D01*
X0132828Y0347970D02*
X0104261Y0347970D01*
X0104922Y0349168D02*
X0131844Y0349168D01*
X0130859Y0350367D02*
X0105582Y0350367D01*
X0106243Y0351565D02*
X0129875Y0351565D01*
X0128890Y0352764D02*
X0106903Y0352764D01*
X0107564Y0353962D02*
X0127906Y0353962D01*
X0126921Y0355161D02*
X0108224Y0355161D01*
X0108885Y0356359D02*
X0125936Y0356359D01*
X0124952Y0357558D02*
X0109545Y0357558D01*
X0110206Y0358756D02*
X0123967Y0358756D01*
X0122983Y0359955D02*
X0110866Y0359955D01*
X0111527Y0361153D02*
X0121998Y0361153D01*
X0121014Y0362352D02*
X0112187Y0362352D01*
X0112848Y0363550D02*
X0120029Y0363550D01*
X0119045Y0364749D02*
X0113508Y0364749D01*
X0114169Y0365947D02*
X0118060Y0365947D01*
X0117075Y0367146D02*
X0114829Y0367146D01*
X0115490Y0368344D02*
X0116091Y0368344D01*
X0090401Y0347970D02*
X0076441Y0347970D01*
X0076732Y0349168D02*
X0088440Y0349168D01*
X0086480Y0350367D02*
X0077023Y0350367D01*
X0077313Y0351565D02*
X0084520Y0351565D01*
X0082559Y0352764D02*
X0077604Y0352764D01*
X0077895Y0353962D02*
X0080599Y0353962D01*
X0078639Y0355161D02*
X0078185Y0355161D01*
X0076151Y0346771D02*
X0092361Y0346771D01*
X0094321Y0345573D02*
X0075860Y0345573D01*
X0075570Y0344374D02*
X0096282Y0344374D01*
X0098242Y0343176D02*
X0075279Y0343176D01*
X0053999Y0326397D02*
X0045741Y0326397D01*
X0045729Y0327595D02*
X0046860Y0327595D01*
X0045752Y0325198D02*
X0061137Y0325198D01*
X0068276Y0324000D02*
X0045763Y0324000D01*
X0017878Y0248493D02*
X0229819Y0248493D01*
X0229153Y0247295D02*
X0016165Y0247295D01*
X0014451Y0246096D02*
X0228849Y0246096D01*
X0228800Y0244898D02*
X0205155Y0244898D01*
X0207065Y0243699D02*
X0228800Y0243699D01*
X0228800Y0242501D02*
X0208067Y0242501D01*
X0201313Y0244898D02*
X0012738Y0244898D01*
X0011024Y0243699D02*
X0199402Y0243699D01*
X0198401Y0242501D02*
X0009311Y0242501D01*
X0007710Y0241302D02*
X0197904Y0241302D01*
X0197697Y0240104D02*
X0008405Y0240104D01*
X0009100Y0238905D02*
X0197697Y0238905D01*
X0198066Y0237707D02*
X0009794Y0237707D01*
X0010489Y0236508D02*
X0198596Y0236508D01*
X0199794Y0235310D02*
X0011184Y0235310D01*
X0020216Y0219729D02*
X0370085Y0219729D01*
X0376075Y0226920D02*
X0351419Y0226920D01*
X0352472Y0228119D02*
X0376075Y0228119D01*
X0376538Y0229317D02*
X0353526Y0229317D01*
X0354675Y0230516D02*
X0377336Y0230516D01*
X0379009Y0231714D02*
X0355876Y0231714D01*
X0357152Y0232913D02*
X0412694Y0232913D01*
X0411587Y0234111D02*
X0358466Y0234111D01*
X0359948Y0235310D02*
X0410366Y0235310D01*
X0409099Y0236508D02*
X0361431Y0236508D01*
X0362913Y0237707D02*
X0407691Y0237707D01*
X0406158Y0238905D02*
X0364614Y0238905D01*
X0366433Y0240104D02*
X0404401Y0240104D01*
X0402644Y0241302D02*
X0368448Y0241302D01*
X0370894Y0242501D02*
X0400635Y0242501D01*
X0398214Y0243699D02*
X0373340Y0243699D01*
X0376656Y0244898D02*
X0394801Y0244898D01*
X0389738Y0246096D02*
X0383038Y0246096D01*
X0382941Y0231714D02*
X0389009Y0231714D01*
X0388199Y0231379D02*
X0386821Y0230001D01*
X0386075Y0228200D01*
X0386075Y0226250D01*
X0386821Y0224449D01*
X0388199Y0223071D01*
X0389282Y0222623D01*
X0403979Y0207925D01*
X0403575Y0206950D01*
X0403575Y0205000D01*
X0404321Y0203199D01*
X0405699Y0201821D01*
X0407500Y0201075D01*
X0409450Y0201075D01*
X0411251Y0201821D01*
X0412629Y0203199D01*
X0413375Y0205000D01*
X0413375Y0206950D01*
X0412629Y0208751D01*
X0411251Y0210129D01*
X0409450Y0210875D01*
X0407500Y0210875D01*
X0406525Y0210471D01*
X0393838Y0223158D01*
X0395129Y0224449D01*
X0395875Y0226250D01*
X0395875Y0228200D01*
X0395129Y0230001D01*
X0393751Y0231379D01*
X0391950Y0232125D01*
X0390000Y0232125D01*
X0388199Y0231379D01*
X0387336Y0230516D02*
X0384614Y0230516D01*
X0385412Y0229317D02*
X0386538Y0229317D01*
X0386075Y0228119D02*
X0385875Y0228119D01*
X0385875Y0226920D02*
X0386075Y0226920D01*
X0386294Y0225722D02*
X0385656Y0225722D01*
X0385160Y0224523D02*
X0386790Y0224523D01*
X0387946Y0223325D02*
X0384004Y0223325D01*
X0390975Y0223475D02*
X0408475Y0205975D01*
X0413022Y0204148D02*
X0431350Y0204148D01*
X0431906Y0202950D02*
X0412380Y0202950D01*
X0411083Y0201751D02*
X0432461Y0201751D01*
X0430795Y0205347D02*
X0413375Y0205347D01*
X0413375Y0206545D02*
X0430240Y0206545D01*
X0429621Y0207744D02*
X0413046Y0207744D01*
X0412437Y0208942D02*
X0428993Y0208942D01*
X0428366Y0210141D02*
X0411222Y0210141D01*
X0405656Y0211339D02*
X0427739Y0211339D01*
X0427090Y0212538D02*
X0404458Y0212538D01*
X0403259Y0213737D02*
X0426397Y0213737D01*
X0425703Y0214935D02*
X0402061Y0214935D01*
X0400862Y0216134D02*
X0425009Y0216134D01*
X0424316Y0217332D02*
X0399664Y0217332D01*
X0398465Y0218531D02*
X0423559Y0218531D01*
X0422791Y0219729D02*
X0397266Y0219729D01*
X0396068Y0220928D02*
X0422023Y0220928D01*
X0421255Y0222126D02*
X0394869Y0222126D01*
X0394004Y0223325D02*
X0420430Y0223325D01*
X0419558Y0224523D02*
X0395160Y0224523D01*
X0395656Y0225722D02*
X0418686Y0225722D01*
X0417814Y0226920D02*
X0395875Y0226920D01*
X0395875Y0228119D02*
X0416903Y0228119D01*
X0415936Y0229317D02*
X0395412Y0229317D01*
X0394614Y0230516D02*
X0414909Y0230516D01*
X0413801Y0231714D02*
X0392941Y0231714D01*
X0390975Y0227225D02*
X0390975Y0223475D01*
X0391310Y0213737D02*
X0333140Y0213737D01*
X0341600Y0196600D02*
X0411600Y0196600D01*
X0409963Y0194560D02*
X0343237Y0194560D01*
X0323443Y0189766D02*
X0399757Y0189766D01*
X0401600Y0191600D02*
X0321600Y0191600D01*
X0277354Y0218531D02*
X0020911Y0218531D01*
X0021606Y0217332D02*
X0276589Y0217332D01*
X0276500Y0216134D02*
X0022301Y0216134D01*
X0022996Y0214935D02*
X0277088Y0214935D01*
X0267172Y0234111D02*
X0350982Y0234111D01*
X0351599Y0235310D02*
X0298406Y0235310D01*
X0298103Y0235006D02*
X0299660Y0236564D01*
X0300503Y0238599D01*
X0300503Y0240802D01*
X0299660Y0242837D01*
X0298103Y0244394D01*
X0296068Y0245237D01*
X0293865Y0245237D01*
X0291830Y0244394D01*
X0290272Y0242837D01*
X0289429Y0240802D01*
X0289429Y0238599D01*
X0290272Y0236564D01*
X0291830Y0235006D01*
X0293865Y0234163D01*
X0296068Y0234163D01*
X0298103Y0235006D01*
X0299604Y0236508D02*
X0352182Y0236508D01*
X0352760Y0237707D02*
X0300134Y0237707D01*
X0300503Y0238905D02*
X0353304Y0238905D01*
X0353809Y0240104D02*
X0300503Y0240104D01*
X0300296Y0241302D02*
X0354315Y0241302D01*
X0354821Y0242501D02*
X0299799Y0242501D01*
X0298798Y0243699D02*
X0355326Y0243699D01*
X0355789Y0244898D02*
X0296887Y0244898D01*
X0293045Y0244898D02*
X0269000Y0244898D01*
X0269000Y0246096D02*
X0356226Y0246096D01*
X0356655Y0247295D02*
X0268606Y0247295D01*
X0267905Y0248493D02*
X0357044Y0248493D01*
X0357433Y0249692D02*
X0266468Y0249692D01*
X0265900Y0250890D02*
X0357769Y0250890D01*
X0358078Y0252089D02*
X0265900Y0252089D01*
X0265900Y0253287D02*
X0358387Y0253287D01*
X0358696Y0254486D02*
X0267031Y0254486D01*
X0268230Y0255684D02*
X0359005Y0255684D01*
X0359267Y0256883D02*
X0269428Y0256883D01*
X0270627Y0258081D02*
X0311533Y0258081D01*
X0310479Y0259280D02*
X0271826Y0259280D01*
X0271600Y0261600D02*
X0264100Y0254100D01*
X0264100Y0241669D01*
X0269000Y0241302D02*
X0289636Y0241302D01*
X0289429Y0240104D02*
X0269000Y0240104D01*
X0269000Y0238905D02*
X0289429Y0238905D01*
X0289799Y0237707D02*
X0269000Y0237707D01*
X0268799Y0236508D02*
X0290328Y0236508D01*
X0291526Y0235310D02*
X0268302Y0235310D01*
X0269000Y0242501D02*
X0290133Y0242501D01*
X0291135Y0243699D02*
X0269000Y0243699D01*
X0261732Y0249692D02*
X0257237Y0249692D01*
X0257905Y0248493D02*
X0260295Y0248493D01*
X0259594Y0247295D02*
X0258606Y0247295D01*
X0259000Y0246096D02*
X0259200Y0246096D01*
X0259200Y0244898D02*
X0259000Y0244898D01*
X0259000Y0243699D02*
X0259200Y0243699D01*
X0259200Y0242501D02*
X0259000Y0242501D01*
X0259000Y0241302D02*
X0259200Y0241302D01*
X0259200Y0240104D02*
X0259000Y0240104D01*
X0259000Y0238905D02*
X0259200Y0238905D01*
X0259200Y0237707D02*
X0259000Y0237707D01*
X0258799Y0236508D02*
X0259401Y0236508D01*
X0259898Y0235310D02*
X0258302Y0235310D01*
X0257172Y0234111D02*
X0261028Y0234111D01*
X0251028Y0234111D02*
X0247172Y0234111D01*
X0248302Y0235310D02*
X0249898Y0235310D01*
X0249401Y0236508D02*
X0248799Y0236508D01*
X0249000Y0237707D02*
X0249200Y0237707D01*
X0249200Y0238905D02*
X0249000Y0238905D01*
X0249000Y0240104D02*
X0249200Y0240104D01*
X0249200Y0241302D02*
X0249000Y0241302D01*
X0249000Y0242501D02*
X0249200Y0242501D01*
X0249200Y0243699D02*
X0249000Y0243699D01*
X0249000Y0244898D02*
X0249200Y0244898D01*
X0249200Y0246096D02*
X0249000Y0246096D01*
X0248606Y0247295D02*
X0249594Y0247295D01*
X0250295Y0248493D02*
X0247905Y0248493D01*
X0246468Y0249692D02*
X0251732Y0249692D01*
X0254100Y0249100D02*
X0254100Y0241669D01*
X0254100Y0249100D02*
X0271600Y0266600D01*
X0304100Y0266600D01*
X0306471Y0267670D02*
X0310124Y0267670D01*
X0308925Y0266471D02*
X0306700Y0266471D01*
X0306364Y0265272D02*
X0307727Y0265272D01*
X0306528Y0264074D02*
X0304796Y0264074D01*
X0303404Y0264074D02*
X0271620Y0264074D01*
X0271600Y0261600D02*
X0306600Y0261600D01*
X0311600Y0266600D01*
X0321600Y0266600D01*
X0329100Y0274100D01*
X0329100Y0275350D01*
X0332153Y0272464D02*
X0332300Y0272464D01*
X0332300Y0271265D02*
X0330955Y0271265D01*
X0332300Y0270067D02*
X0327612Y0270067D01*
X0326414Y0268868D02*
X0332300Y0268868D01*
X0332300Y0267670D02*
X0325215Y0267670D01*
X0325530Y0266471D02*
X0324017Y0266471D01*
X0324271Y0265272D02*
X0322818Y0265272D01*
X0324000Y0264074D02*
X0311620Y0264074D01*
X0312153Y0262875D02*
X0310421Y0262875D01*
X0310585Y0261677D02*
X0309223Y0261677D01*
X0310250Y0260478D02*
X0308024Y0260478D01*
X0312850Y0260350D02*
X0339100Y0260350D01*
X0341471Y0259280D02*
X0359729Y0259280D01*
X0359904Y0260478D02*
X0341700Y0260478D01*
X0341365Y0261677D02*
X0360079Y0261677D01*
X0360210Y0262875D02*
X0339797Y0262875D01*
X0338403Y0262875D02*
X0332921Y0262875D01*
X0334120Y0264074D02*
X0360289Y0264074D01*
X0360368Y0265272D02*
X0335318Y0265272D01*
X0335900Y0266471D02*
X0360446Y0266471D01*
X0360525Y0267670D02*
X0335900Y0267670D01*
X0335900Y0268868D02*
X0360578Y0268868D01*
X0360562Y0270067D02*
X0335900Y0270067D01*
X0335900Y0271265D02*
X0337245Y0271265D01*
X0336047Y0272464D02*
X0335900Y0272464D01*
X0340955Y0271265D02*
X0347245Y0271265D01*
X0347360Y0271150D02*
X0350840Y0271150D01*
X0353300Y0273610D01*
X0353300Y0277090D01*
X0350840Y0279550D01*
X0347360Y0279550D01*
X0344900Y0277090D01*
X0344900Y0273610D01*
X0347360Y0271150D01*
X0346047Y0272464D02*
X0342153Y0272464D01*
X0343300Y0273662D02*
X0344900Y0273662D01*
X0344900Y0274861D02*
X0343300Y0274861D01*
X0343300Y0276059D02*
X0344900Y0276059D01*
X0345068Y0277258D02*
X0343132Y0277258D01*
X0341934Y0278456D02*
X0346266Y0278456D01*
X0347360Y0281150D02*
X0350840Y0281150D01*
X0353300Y0283610D01*
X0353300Y0287090D01*
X0350840Y0289550D01*
X0347360Y0289550D01*
X0344900Y0287090D01*
X0344900Y0283610D01*
X0347360Y0281150D01*
X0346459Y0282052D02*
X0341741Y0282052D01*
X0340840Y0281150D02*
X0343300Y0283610D01*
X0343300Y0287090D01*
X0340840Y0289550D01*
X0337360Y0289550D01*
X0334900Y0287090D01*
X0334900Y0283610D01*
X0337360Y0281150D01*
X0340840Y0281150D01*
X0342940Y0283250D02*
X0345260Y0283250D01*
X0344900Y0284449D02*
X0343300Y0284449D01*
X0343300Y0285647D02*
X0344900Y0285647D01*
X0344900Y0286846D02*
X0343300Y0286846D01*
X0342345Y0288044D02*
X0345855Y0288044D01*
X0347053Y0289243D02*
X0341147Y0289243D01*
X0337053Y0289243D02*
X0331147Y0289243D01*
X0332345Y0288044D02*
X0335855Y0288044D01*
X0334900Y0286846D02*
X0333300Y0286846D01*
X0333300Y0285647D02*
X0334900Y0285647D01*
X0334900Y0284449D02*
X0333300Y0284449D01*
X0333745Y0283250D02*
X0335260Y0283250D01*
X0334944Y0282052D02*
X0336459Y0282052D01*
X0335900Y0280853D02*
X0359257Y0280853D01*
X0359465Y0279655D02*
X0335900Y0279655D01*
X0335900Y0278456D02*
X0336266Y0278456D01*
X0334100Y0280350D02*
X0334100Y0266600D01*
X0331600Y0264100D01*
X0326600Y0264100D01*
X0327670Y0266471D02*
X0331425Y0266471D01*
X0324293Y0262875D02*
X0313547Y0262875D01*
X0314167Y0258081D02*
X0337783Y0258081D01*
X0340417Y0258081D02*
X0359499Y0258081D01*
X0360546Y0271265D02*
X0350955Y0271265D01*
X0352153Y0272464D02*
X0360481Y0272464D01*
X0360393Y0273662D02*
X0353300Y0273662D01*
X0353300Y0274861D02*
X0360294Y0274861D01*
X0360086Y0276059D02*
X0353300Y0276059D01*
X0353132Y0277258D02*
X0359879Y0277258D01*
X0359672Y0278456D02*
X0351934Y0278456D01*
X0351741Y0282052D02*
X0358927Y0282052D01*
X0358597Y0283250D02*
X0352940Y0283250D01*
X0353300Y0284449D02*
X0358220Y0284449D01*
X0357797Y0285647D02*
X0353300Y0285647D01*
X0353300Y0286846D02*
X0357362Y0286846D01*
X0356794Y0288044D02*
X0352345Y0288044D01*
X0351147Y0289243D02*
X0356227Y0289243D01*
X0355659Y0290441D02*
X0252516Y0290441D01*
X0252546Y0289243D02*
X0257053Y0289243D01*
X0255855Y0288044D02*
X0252615Y0288044D01*
X0252687Y0286846D02*
X0254900Y0286846D01*
X0254900Y0285647D02*
X0252774Y0285647D01*
X0252903Y0284449D02*
X0254900Y0284449D01*
X0255260Y0283250D02*
X0253031Y0283250D01*
X0253159Y0282052D02*
X0256459Y0282052D01*
X0253287Y0280853D02*
X0261051Y0280853D01*
X0262250Y0279655D02*
X0253415Y0279655D01*
X0253599Y0278456D02*
X0256266Y0278456D01*
X0255068Y0277258D02*
X0253783Y0277258D01*
X0253978Y0276059D02*
X0254900Y0276059D01*
X0254900Y0274861D02*
X0254191Y0274861D01*
X0254404Y0273662D02*
X0254900Y0273662D01*
X0254659Y0272464D02*
X0256047Y0272464D01*
X0254929Y0271265D02*
X0257245Y0271265D01*
X0255199Y0270067D02*
X0262300Y0270067D01*
X0262300Y0271265D02*
X0260955Y0271265D01*
X0262153Y0272464D02*
X0262300Y0272464D01*
X0262300Y0268868D02*
X0255469Y0268868D01*
X0255738Y0267670D02*
X0262300Y0267670D01*
X0262300Y0266471D02*
X0256041Y0266471D01*
X0256368Y0265272D02*
X0262300Y0265272D01*
X0261793Y0264074D02*
X0256701Y0264074D01*
X0256588Y0262875D02*
X0261500Y0262875D01*
X0264100Y0262850D02*
X0264100Y0280350D01*
X0259100Y0285350D01*
X0263300Y0285647D02*
X0264900Y0285647D01*
X0264900Y0284449D02*
X0263300Y0284449D01*
X0263745Y0283250D02*
X0265260Y0283250D01*
X0264900Y0283610D02*
X0267360Y0281150D01*
X0270840Y0281150D01*
X0273300Y0283610D01*
X0273300Y0287090D01*
X0270840Y0289550D01*
X0267360Y0289550D01*
X0264900Y0287090D01*
X0264900Y0283610D01*
X0264944Y0282052D02*
X0266459Y0282052D01*
X0265900Y0280853D02*
X0331051Y0280853D01*
X0332250Y0279655D02*
X0291301Y0279655D01*
X0291005Y0279950D02*
X0289500Y0279950D01*
X0289500Y0275750D01*
X0293700Y0275750D01*
X0293700Y0277255D01*
X0291005Y0279950D01*
X0290840Y0281150D02*
X0293300Y0283610D01*
X0293300Y0287090D01*
X0290840Y0289550D01*
X0287360Y0289550D01*
X0284900Y0287090D01*
X0284900Y0283610D01*
X0287360Y0281150D01*
X0290840Y0281150D01*
X0291741Y0282052D02*
X0296459Y0282052D01*
X0297360Y0281150D02*
X0300840Y0281150D01*
X0303300Y0283610D01*
X0303300Y0287090D01*
X0300840Y0289550D01*
X0297360Y0289550D01*
X0294900Y0287090D01*
X0294900Y0283610D01*
X0297360Y0281150D01*
X0297360Y0279550D02*
X0294900Y0277090D01*
X0294900Y0273610D01*
X0297360Y0271150D01*
X0300840Y0271150D01*
X0303300Y0273610D01*
X0303300Y0277090D01*
X0300840Y0279550D01*
X0297360Y0279550D01*
X0296266Y0278456D02*
X0292499Y0278456D01*
X0293698Y0277258D02*
X0295068Y0277258D01*
X0294900Y0276059D02*
X0293700Y0276059D01*
X0293700Y0274950D02*
X0289500Y0274950D01*
X0289500Y0275750D01*
X0288700Y0275750D01*
X0288700Y0279950D01*
X0287195Y0279950D01*
X0284500Y0277255D01*
X0284500Y0275750D01*
X0288700Y0275750D01*
X0288700Y0274950D01*
X0289500Y0274950D01*
X0289500Y0270750D01*
X0291005Y0270750D01*
X0293700Y0273445D01*
X0293700Y0274950D01*
X0293700Y0274861D02*
X0294900Y0274861D01*
X0294900Y0273662D02*
X0293700Y0273662D01*
X0292719Y0272464D02*
X0296047Y0272464D01*
X0297245Y0271265D02*
X0291520Y0271265D01*
X0289500Y0271265D02*
X0288700Y0271265D01*
X0288700Y0270750D02*
X0288700Y0274950D01*
X0284500Y0274950D01*
X0284500Y0273445D01*
X0287195Y0270750D01*
X0288700Y0270750D01*
X0288700Y0272464D02*
X0289500Y0272464D01*
X0289500Y0273662D02*
X0288700Y0273662D01*
X0288700Y0274861D02*
X0289500Y0274861D01*
X0289500Y0276059D02*
X0288700Y0276059D01*
X0288700Y0277258D02*
X0289500Y0277258D01*
X0289500Y0278456D02*
X0288700Y0278456D01*
X0288700Y0279655D02*
X0289500Y0279655D01*
X0286899Y0279655D02*
X0271301Y0279655D01*
X0271005Y0279950D02*
X0269500Y0279950D01*
X0269500Y0275750D01*
X0273700Y0275750D01*
X0273700Y0277255D01*
X0271005Y0279950D01*
X0269500Y0279655D02*
X0268700Y0279655D01*
X0268700Y0278456D02*
X0269500Y0278456D01*
X0269500Y0277258D02*
X0268700Y0277258D01*
X0268700Y0276059D02*
X0269500Y0276059D01*
X0269500Y0274950D02*
X0273700Y0274950D01*
X0273700Y0273445D01*
X0271005Y0270750D01*
X0269500Y0270750D01*
X0269500Y0274950D01*
X0269500Y0274861D02*
X0268700Y0274861D01*
X0268700Y0273662D02*
X0269500Y0273662D01*
X0269500Y0272464D02*
X0268700Y0272464D01*
X0268700Y0271265D02*
X0269500Y0271265D01*
X0271520Y0271265D02*
X0277245Y0271265D01*
X0277360Y0271150D02*
X0280840Y0271150D01*
X0283300Y0273610D01*
X0283300Y0277090D01*
X0280840Y0279550D01*
X0277360Y0279550D01*
X0274900Y0277090D01*
X0274900Y0273610D01*
X0277360Y0271150D01*
X0276047Y0272464D02*
X0272719Y0272464D01*
X0273700Y0273662D02*
X0274900Y0273662D01*
X0274900Y0274861D02*
X0273700Y0274861D01*
X0273700Y0276059D02*
X0274900Y0276059D01*
X0275068Y0277258D02*
X0273698Y0277258D01*
X0272499Y0278456D02*
X0276266Y0278456D01*
X0277360Y0281150D02*
X0274900Y0283610D01*
X0274900Y0287090D01*
X0277360Y0289550D01*
X0280840Y0289550D01*
X0283300Y0287090D01*
X0283300Y0283610D01*
X0280840Y0281150D01*
X0277360Y0281150D01*
X0276459Y0282052D02*
X0271741Y0282052D01*
X0272940Y0283250D02*
X0275260Y0283250D01*
X0274900Y0284449D02*
X0273300Y0284449D01*
X0273300Y0285647D02*
X0274900Y0285647D01*
X0274900Y0286846D02*
X0273300Y0286846D01*
X0272345Y0288044D02*
X0275855Y0288044D01*
X0277053Y0289243D02*
X0271147Y0289243D01*
X0267053Y0289243D02*
X0261147Y0289243D01*
X0262345Y0288044D02*
X0265855Y0288044D01*
X0264900Y0286846D02*
X0263300Y0286846D01*
X0265900Y0279655D02*
X0266899Y0279655D01*
X0262300Y0278456D02*
X0261934Y0278456D01*
X0265900Y0271265D02*
X0266680Y0271265D01*
X0265900Y0270067D02*
X0322521Y0270067D01*
X0323719Y0271265D02*
X0320955Y0271265D01*
X0320840Y0271150D02*
X0323300Y0273610D01*
X0323300Y0277090D01*
X0320840Y0279550D01*
X0317360Y0279550D01*
X0314900Y0277090D01*
X0314900Y0273610D01*
X0317360Y0271150D01*
X0320840Y0271150D01*
X0322153Y0272464D02*
X0324918Y0272464D01*
X0324900Y0273662D02*
X0323300Y0273662D01*
X0323300Y0274861D02*
X0324900Y0274861D01*
X0324900Y0276059D02*
X0323300Y0276059D01*
X0323132Y0277258D02*
X0325068Y0277258D01*
X0326266Y0278456D02*
X0321934Y0278456D01*
X0320840Y0281150D02*
X0317360Y0281150D01*
X0314900Y0283610D01*
X0314900Y0287090D01*
X0317360Y0289550D01*
X0320840Y0289550D01*
X0323300Y0287090D01*
X0323300Y0283610D01*
X0320840Y0281150D01*
X0321741Y0282052D02*
X0326459Y0282052D01*
X0325260Y0283250D02*
X0322940Y0283250D01*
X0323300Y0284449D02*
X0324900Y0284449D01*
X0324900Y0285647D02*
X0323300Y0285647D01*
X0323300Y0286846D02*
X0324900Y0286846D01*
X0325855Y0288044D02*
X0322345Y0288044D01*
X0321147Y0289243D02*
X0327053Y0289243D01*
X0329100Y0285350D02*
X0334100Y0280350D01*
X0332300Y0278456D02*
X0331934Y0278456D01*
X0321322Y0268868D02*
X0305419Y0268868D01*
X0302781Y0268868D02*
X0265900Y0268868D01*
X0265900Y0267670D02*
X0270124Y0267670D01*
X0268925Y0266471D02*
X0265900Y0266471D01*
X0265900Y0265272D02*
X0267727Y0265272D01*
X0266528Y0264074D02*
X0266407Y0264074D01*
X0262300Y0254486D02*
X0262031Y0254486D01*
X0262300Y0253287D02*
X0260833Y0253287D01*
X0259634Y0252089D02*
X0262300Y0252089D01*
X0262300Y0250890D02*
X0258436Y0250890D01*
X0241732Y0249692D02*
X0237167Y0249692D01*
X0238381Y0248493D02*
X0240295Y0248493D01*
X0239594Y0247295D02*
X0239047Y0247295D01*
X0280955Y0271265D02*
X0286680Y0271265D01*
X0285481Y0272464D02*
X0282153Y0272464D01*
X0283300Y0273662D02*
X0284500Y0273662D01*
X0284500Y0274861D02*
X0283300Y0274861D01*
X0283300Y0276059D02*
X0284500Y0276059D01*
X0284502Y0277258D02*
X0283132Y0277258D01*
X0281934Y0278456D02*
X0285701Y0278456D01*
X0286459Y0282052D02*
X0281741Y0282052D01*
X0282940Y0283250D02*
X0285260Y0283250D01*
X0284900Y0284449D02*
X0283300Y0284449D01*
X0283300Y0285647D02*
X0284900Y0285647D01*
X0284900Y0286846D02*
X0283300Y0286846D01*
X0282345Y0288044D02*
X0285855Y0288044D01*
X0287053Y0289243D02*
X0281147Y0289243D01*
X0291147Y0289243D02*
X0297053Y0289243D01*
X0295855Y0288044D02*
X0292345Y0288044D01*
X0293300Y0286846D02*
X0294900Y0286846D01*
X0294900Y0285647D02*
X0293300Y0285647D01*
X0293300Y0284449D02*
X0294900Y0284449D01*
X0295260Y0283250D02*
X0292940Y0283250D01*
X0301741Y0282052D02*
X0306459Y0282052D01*
X0307360Y0281150D02*
X0310840Y0281150D01*
X0313300Y0283610D01*
X0313300Y0287090D01*
X0310840Y0289550D01*
X0307360Y0289550D01*
X0304900Y0287090D01*
X0304900Y0283610D01*
X0307360Y0281150D01*
X0307360Y0279550D02*
X0304900Y0277090D01*
X0304900Y0273610D01*
X0307360Y0271150D01*
X0310840Y0271150D01*
X0313300Y0273610D01*
X0313300Y0277090D01*
X0310840Y0279550D01*
X0307360Y0279550D01*
X0306266Y0278456D02*
X0301934Y0278456D01*
X0303132Y0277258D02*
X0305068Y0277258D01*
X0304900Y0276059D02*
X0303300Y0276059D01*
X0303300Y0274861D02*
X0304900Y0274861D01*
X0304900Y0273662D02*
X0303300Y0273662D01*
X0302153Y0272464D02*
X0306047Y0272464D01*
X0307245Y0271265D02*
X0300955Y0271265D01*
X0310955Y0271265D02*
X0317245Y0271265D01*
X0316047Y0272464D02*
X0312153Y0272464D01*
X0313300Y0273662D02*
X0314900Y0273662D01*
X0314900Y0274861D02*
X0313300Y0274861D01*
X0313300Y0276059D02*
X0314900Y0276059D01*
X0315068Y0277258D02*
X0313132Y0277258D01*
X0311934Y0278456D02*
X0316266Y0278456D01*
X0316459Y0282052D02*
X0311741Y0282052D01*
X0312940Y0283250D02*
X0315260Y0283250D01*
X0314900Y0284449D02*
X0313300Y0284449D01*
X0313300Y0285647D02*
X0314900Y0285647D01*
X0314900Y0286846D02*
X0313300Y0286846D01*
X0312345Y0288044D02*
X0315855Y0288044D01*
X0317053Y0289243D02*
X0311147Y0289243D01*
X0307053Y0289243D02*
X0301147Y0289243D01*
X0302345Y0288044D02*
X0305855Y0288044D01*
X0304900Y0286846D02*
X0303300Y0286846D01*
X0303300Y0285647D02*
X0304900Y0285647D01*
X0304900Y0284449D02*
X0303300Y0284449D01*
X0302940Y0283250D02*
X0305260Y0283250D01*
X0338730Y0309617D02*
X0255006Y0309617D01*
X0254658Y0308419D02*
X0340291Y0308419D01*
X0341853Y0307220D02*
X0254309Y0307220D01*
X0253961Y0306022D02*
X0343335Y0306022D01*
X0344690Y0304823D02*
X0253613Y0304823D01*
X0253409Y0303625D02*
X0345955Y0303625D01*
X0347173Y0302426D02*
X0253207Y0302426D01*
X0253034Y0301228D02*
X0348222Y0301228D01*
X0349238Y0300029D02*
X0252900Y0300029D01*
X0252766Y0298831D02*
X0350254Y0298831D01*
X0351269Y0297632D02*
X0252699Y0297632D01*
X0252647Y0296434D02*
X0352131Y0296434D01*
X0352973Y0295235D02*
X0252596Y0295235D01*
X0252544Y0294037D02*
X0353727Y0294037D01*
X0354455Y0292838D02*
X0252492Y0292838D01*
X0252486Y0291640D02*
X0355092Y0291640D01*
X0337059Y0310816D02*
X0255361Y0310816D01*
X0255865Y0312014D02*
X0335251Y0312014D01*
X0333279Y0313213D02*
X0256370Y0313213D01*
X0256953Y0314411D02*
X0331148Y0314411D01*
X0328927Y0315610D02*
X0257608Y0315610D01*
X0258430Y0316808D02*
X0326663Y0316808D01*
X0324136Y0318007D02*
X0259252Y0318007D01*
X0260198Y0319205D02*
X0321318Y0319205D01*
X0318500Y0320404D02*
X0261344Y0320404D01*
X0262489Y0321603D02*
X0315252Y0321603D01*
X0311914Y0322801D02*
X0263936Y0322801D01*
X0265693Y0324000D02*
X0308133Y0324000D01*
X0303955Y0325198D02*
X0267994Y0325198D01*
X0270812Y0326397D02*
X0299267Y0326397D01*
X0292625Y0327595D02*
X0274999Y0327595D01*
X0221704Y0318007D02*
X0202832Y0318007D01*
X0192515Y0339580D02*
X0168622Y0339580D01*
X0171379Y0340779D02*
X0192342Y0340779D01*
X0192168Y0341977D02*
X0174136Y0341977D01*
X0176892Y0343176D02*
X0191994Y0343176D01*
X0191820Y0344374D02*
X0179649Y0344374D01*
X0182406Y0345573D02*
X0191647Y0345573D01*
X0191473Y0346771D02*
X0185162Y0346771D01*
X0187919Y0347970D02*
X0191299Y0347970D01*
X0191126Y0349168D02*
X0190676Y0349168D01*
X0382437Y0208942D02*
X0402962Y0208942D01*
X0403904Y0207744D02*
X0383046Y0207744D01*
X0383375Y0206545D02*
X0403575Y0206545D01*
X0403575Y0205347D02*
X0383375Y0205347D01*
X0383022Y0204148D02*
X0403928Y0204148D01*
X0404570Y0202950D02*
X0382380Y0202950D01*
X0381083Y0201751D02*
X0405867Y0201751D01*
X0441645Y0137032D02*
X0482494Y0137032D01*
X0484817Y0135833D02*
X0436882Y0135833D01*
X0447274Y0138230D02*
X0479456Y0138230D01*
X0473887Y0139429D02*
X0454925Y0139429D01*
X0495152Y0103473D02*
X0411019Y0103473D01*
X0409821Y0102275D02*
X0494987Y0102275D01*
X0494753Y0101076D02*
X0408622Y0101076D01*
X0407424Y0099878D02*
X0494506Y0099878D01*
X0494242Y0098679D02*
X0406225Y0098679D01*
X0405026Y0097481D02*
X0493938Y0097481D01*
X0493635Y0096282D02*
X0403828Y0096282D01*
X0402629Y0095084D02*
X0493332Y0095084D01*
X0493028Y0093885D02*
X0401431Y0093885D01*
X0400232Y0092687D02*
X0492710Y0092687D01*
X0492338Y0091488D02*
X0399034Y0091488D01*
X0396600Y0091600D02*
X0249100Y0091600D01*
X0246736Y0092687D02*
X0065589Y0092687D01*
X0065415Y0093885D02*
X0247823Y0093885D01*
X0250377Y0093885D02*
X0396340Y0093885D01*
X0397538Y0095084D02*
X0393761Y0095084D01*
X0394200Y0096282D02*
X0398737Y0096282D01*
X0399935Y0097481D02*
X0394049Y0097481D01*
X0393198Y0098679D02*
X0401134Y0098679D01*
X0396600Y0101600D02*
X0259100Y0101600D01*
X0260903Y0103473D02*
X0395928Y0103473D01*
X0390002Y0098679D02*
X0278198Y0098679D01*
X0276600Y0096600D02*
X0391600Y0096600D01*
X0380820Y0089091D02*
X0272380Y0089091D01*
X0270820Y0089091D02*
X0249838Y0089091D01*
X0248362Y0089091D02*
X0066111Y0089091D01*
X0066284Y0087893D02*
X0198306Y0087893D01*
X0199000Y0087893D02*
X0199800Y0087893D01*
X0199800Y0086694D02*
X0199000Y0086694D01*
X0199000Y0085496D02*
X0199800Y0085496D01*
X0199800Y0084297D02*
X0199000Y0084297D01*
X0199800Y0082300D02*
X0204700Y0082300D01*
X0204700Y0082283D01*
X0204569Y0081459D01*
X0204312Y0080666D01*
X0203933Y0079922D01*
X0203443Y0079247D01*
X0202853Y0078657D01*
X0202178Y0078167D01*
X0201434Y0077788D01*
X0200641Y0077530D01*
X0199817Y0077400D01*
X0199800Y0077400D01*
X0199800Y0082300D01*
X0199800Y0081900D02*
X0199000Y0081900D01*
X0199000Y0080702D02*
X0199800Y0080702D01*
X0199800Y0079503D02*
X0199000Y0079503D01*
X0199000Y0078305D02*
X0199800Y0078305D01*
X0202367Y0078305D02*
X0209659Y0078305D01*
X0210858Y0079503D02*
X0203629Y0079503D01*
X0204323Y0080702D02*
X0212056Y0080702D01*
X0213255Y0081900D02*
X0204639Y0081900D01*
X0208461Y0077106D02*
X0094940Y0077106D01*
X0094439Y0078305D02*
X0171607Y0078305D01*
X0175993Y0078305D02*
X0196433Y0078305D01*
X0195171Y0079503D02*
X0177533Y0079503D01*
X0178276Y0080702D02*
X0194477Y0080702D01*
X0203667Y0072312D02*
X0096971Y0072312D01*
X0097478Y0071114D02*
X0202468Y0071114D01*
X0204865Y0073511D02*
X0096463Y0073511D01*
X0095955Y0074709D02*
X0206064Y0074709D01*
X0207262Y0075908D02*
X0095448Y0075908D01*
X0083301Y0075908D02*
X0068023Y0075908D01*
X0068197Y0074709D02*
X0080544Y0074709D01*
X0077788Y0073511D02*
X0068371Y0073511D01*
X0068544Y0072312D02*
X0075031Y0072312D01*
X0072274Y0071114D02*
X0068718Y0071114D01*
X0068892Y0069915D02*
X0069517Y0069915D01*
X0065937Y0090290D02*
X0246828Y0090290D01*
X0246500Y0091488D02*
X0065763Y0091488D01*
X0061996Y0101076D02*
X0038332Y0101076D01*
X0100016Y0065121D02*
X0118809Y0065121D01*
X0117573Y0063923D02*
X0100523Y0063923D01*
X0101031Y0062724D02*
X0116322Y0062724D01*
X0115070Y0061526D02*
X0101538Y0061526D01*
X0102046Y0060327D02*
X0113818Y0060327D01*
X0112567Y0059129D02*
X0102553Y0059129D01*
X0103061Y0057930D02*
X0111315Y0057930D01*
X0110064Y0056732D02*
X0103569Y0056732D01*
X0104076Y0055533D02*
X0108812Y0055533D01*
X0107560Y0054334D02*
X0104584Y0054334D01*
X0105091Y0053136D02*
X0106309Y0053136D01*
X0145509Y0007593D02*
X0389666Y0007593D01*
X0388783Y0021975D02*
X0383499Y0021975D01*
X0385244Y0023173D02*
X0387415Y0023173D01*
X0386675Y0024372D02*
X0386089Y0024372D01*
X0385949Y0029166D02*
X0386847Y0029166D01*
X0387728Y0030364D02*
X0384907Y0030364D01*
X0378293Y0030364D02*
X0374907Y0030364D01*
X0375949Y0029166D02*
X0377251Y0029166D01*
X0376754Y0027967D02*
X0376446Y0027967D01*
X0376600Y0026769D02*
X0376600Y0026769D01*
X0376585Y0025570D02*
X0376615Y0025570D01*
X0377111Y0024372D02*
X0376089Y0024372D01*
X0375244Y0023173D02*
X0377956Y0023173D01*
X0379701Y0021975D02*
X0373499Y0021975D01*
X0369701Y0021975D02*
X0363499Y0021975D01*
X0365244Y0023173D02*
X0367956Y0023173D01*
X0367111Y0024372D02*
X0366089Y0024372D01*
X0366585Y0025570D02*
X0366615Y0025570D01*
X0366600Y0026769D02*
X0366600Y0026769D01*
X0366446Y0027967D02*
X0366754Y0027967D01*
X0367251Y0029166D02*
X0365949Y0029166D01*
X0364907Y0030364D02*
X0368293Y0030364D01*
X0358293Y0030364D02*
X0354907Y0030364D01*
X0355949Y0029166D02*
X0357251Y0029166D01*
X0356754Y0027967D02*
X0356446Y0027967D01*
X0356600Y0026769D02*
X0356600Y0026769D01*
X0356585Y0025570D02*
X0356615Y0025570D01*
X0357111Y0024372D02*
X0356089Y0024372D01*
X0355244Y0023173D02*
X0357956Y0023173D01*
X0359701Y0021975D02*
X0353499Y0021975D01*
X0349701Y0021975D02*
X0343499Y0021975D01*
X0345244Y0023173D02*
X0347956Y0023173D01*
X0347111Y0024372D02*
X0346089Y0024372D01*
X0346585Y0025570D02*
X0346615Y0025570D01*
X0346600Y0026769D02*
X0346600Y0026769D01*
X0346446Y0027967D02*
X0346754Y0027967D01*
X0347251Y0029166D02*
X0345949Y0029166D01*
X0344907Y0030364D02*
X0348293Y0030364D01*
X0338293Y0030364D02*
X0334907Y0030364D01*
X0335949Y0029166D02*
X0337251Y0029166D01*
X0336754Y0027967D02*
X0336446Y0027967D01*
X0336600Y0026769D02*
X0336600Y0026769D01*
X0336585Y0025570D02*
X0336615Y0025570D01*
X0337111Y0024372D02*
X0336089Y0024372D01*
X0335244Y0023173D02*
X0337956Y0023173D01*
X0339701Y0021975D02*
X0333499Y0021975D01*
X0329701Y0021975D02*
X0323499Y0021975D01*
X0325244Y0023173D02*
X0327956Y0023173D01*
X0327111Y0024372D02*
X0326089Y0024372D01*
X0326585Y0025570D02*
X0326615Y0025570D01*
X0326600Y0026769D02*
X0326600Y0026769D01*
X0326446Y0027967D02*
X0326754Y0027967D01*
X0327251Y0029166D02*
X0325949Y0029166D01*
X0324907Y0030364D02*
X0328293Y0030364D01*
X0318293Y0030364D02*
X0314907Y0030364D01*
X0315949Y0029166D02*
X0317251Y0029166D01*
X0316754Y0027967D02*
X0316446Y0027967D01*
X0316600Y0026769D02*
X0316600Y0026769D01*
X0316585Y0025570D02*
X0316615Y0025570D01*
X0317111Y0024372D02*
X0316089Y0024372D01*
X0315244Y0023173D02*
X0317956Y0023173D01*
X0319701Y0021975D02*
X0313499Y0021975D01*
X0309701Y0021975D02*
X0303499Y0021975D01*
X0305244Y0023173D02*
X0307956Y0023173D01*
X0307111Y0024372D02*
X0306089Y0024372D01*
X0306585Y0025570D02*
X0306615Y0025570D01*
X0306600Y0026769D02*
X0306600Y0026769D01*
X0306446Y0027967D02*
X0306754Y0027967D01*
X0307251Y0029166D02*
X0305949Y0029166D01*
X0304907Y0030364D02*
X0308293Y0030364D01*
X0283229Y0038754D02*
X0208949Y0038754D01*
X0207751Y0037555D02*
X0281384Y0037555D01*
X0280186Y0036357D02*
X0206552Y0036357D01*
X0205354Y0035158D02*
X0279524Y0035158D01*
X0279027Y0033960D02*
X0204155Y0033960D01*
X0204285Y0032761D02*
X0278701Y0032761D01*
X0278701Y0031563D02*
X0204300Y0031563D01*
X0204130Y0030364D02*
X0278701Y0030364D01*
X0279058Y0029166D02*
X0203633Y0029166D01*
X0202547Y0027967D02*
X0279555Y0027967D01*
X0276039Y0006394D02*
X0148787Y0006394D01*
X0153966Y0005196D02*
X0168786Y0005196D01*
X0176769Y0009990D02*
X0195865Y0009990D01*
X0194859Y0011188D02*
X0177960Y0011188D01*
X0178456Y0012387D02*
X0194335Y0012387D01*
X0194166Y0014784D02*
X0178700Y0014784D01*
X0178700Y0013585D02*
X0199000Y0013585D01*
X0199000Y0012387D02*
X0199800Y0012387D01*
X0199800Y0011188D02*
X0199000Y0011188D01*
X0199000Y0009990D02*
X0199800Y0009990D01*
X0194488Y0015982D02*
X0178262Y0015982D01*
X0177499Y0017181D02*
X0195196Y0017181D01*
X0196479Y0018379D02*
X0175911Y0018379D01*
X0176578Y0043548D02*
X0196098Y0043548D01*
X0195947Y0043657D02*
X0196622Y0043167D01*
X0197366Y0042788D01*
X0198159Y0042530D01*
X0198983Y0042400D01*
X0199000Y0042400D01*
X0199000Y0047300D01*
X0194100Y0047300D01*
X0194100Y0047283D01*
X0194230Y0046459D01*
X0194488Y0045666D01*
X0194867Y0044922D01*
X0195357Y0044247D01*
X0195947Y0043657D01*
X0194995Y0044746D02*
X0177776Y0044746D01*
X0178377Y0045945D02*
X0194398Y0045945D01*
X0194122Y0047143D02*
X0178700Y0047143D01*
X0178700Y0048342D02*
X0194136Y0048342D01*
X0194425Y0049540D02*
X0178341Y0049540D01*
X0177691Y0050739D02*
X0195057Y0050739D01*
X0196216Y0051937D02*
X0176374Y0051937D01*
X0195246Y0062724D02*
X0196624Y0061346D01*
X0199400Y0065500D02*
X0220500Y0086600D01*
X0220743Y0084297D02*
X0270365Y0084297D01*
X0272835Y0084297D02*
X0380365Y0084297D01*
X0382835Y0084297D02*
X0490035Y0084297D01*
X0489631Y0083099D02*
X0219544Y0083099D01*
X0218346Y0081900D02*
X0489226Y0081900D01*
X0488822Y0080702D02*
X0217147Y0080702D01*
X0215949Y0079503D02*
X0488417Y0079503D01*
X0488012Y0078305D02*
X0443572Y0078305D01*
X0443804Y0078073D02*
X0443073Y0078804D01*
X0442117Y0079200D01*
X0441083Y0079200D01*
X0440600Y0079000D01*
X0402600Y0079000D01*
X0402117Y0079200D01*
X0401083Y0079200D01*
X0400600Y0079000D01*
X0352600Y0079000D01*
X0352117Y0079200D01*
X0351083Y0079200D01*
X0350127Y0078804D01*
X0349396Y0078073D01*
X0349000Y0077117D01*
X0349000Y0076083D01*
X0349396Y0075127D01*
X0350127Y0074396D01*
X0351083Y0074000D01*
X0352117Y0074000D01*
X0352600Y0074200D01*
X0400600Y0074200D01*
X0401083Y0074000D01*
X0402117Y0074000D01*
X0402600Y0074200D01*
X0440600Y0074200D01*
X0441083Y0074000D01*
X0442117Y0074000D01*
X0443073Y0074396D01*
X0443804Y0075127D01*
X0444200Y0076083D01*
X0444200Y0077117D01*
X0443804Y0078073D01*
X0444200Y0077106D02*
X0487608Y0077106D01*
X0487203Y0075908D02*
X0444127Y0075908D01*
X0443386Y0074709D02*
X0486795Y0074709D01*
X0486383Y0073511D02*
X0209956Y0073511D01*
X0211155Y0074709D02*
X0349814Y0074709D01*
X0349073Y0075908D02*
X0212353Y0075908D01*
X0213552Y0077106D02*
X0349000Y0077106D01*
X0349628Y0078305D02*
X0214750Y0078305D01*
X0208758Y0072312D02*
X0485970Y0072312D01*
X0485558Y0071114D02*
X0207559Y0071114D01*
X0206361Y0069915D02*
X0485145Y0069915D01*
X0484733Y0068717D02*
X0205162Y0068717D01*
X0203964Y0067518D02*
X0484320Y0067518D01*
X0483908Y0066320D02*
X0204300Y0066320D01*
X0199800Y0051937D02*
X0199000Y0051937D01*
X0199000Y0050739D02*
X0199800Y0050739D01*
X0199800Y0049540D02*
X0199000Y0049540D01*
X0199000Y0048342D02*
X0199800Y0048342D01*
X0199800Y0047143D02*
X0199000Y0047143D01*
X0199000Y0045945D02*
X0199800Y0045945D01*
X0199800Y0044746D02*
X0199000Y0044746D01*
X0199000Y0043548D02*
X0199800Y0043548D01*
X0194230Y0112712D02*
X0186470Y0112712D01*
X0184912Y0113358D01*
X0183720Y0114550D01*
X0183075Y0116107D01*
X0183075Y0117793D01*
X0183720Y0119350D01*
X0184912Y0120542D01*
X0186470Y0121187D01*
X0194230Y0121187D01*
X0195788Y0120542D01*
X0196980Y0119350D01*
X0197625Y0117793D01*
X0197625Y0116107D01*
X0196980Y0114550D01*
X0195788Y0113358D01*
X0194230Y0112712D01*
X0195073Y0113062D02*
X0230522Y0113062D01*
X0230600Y0112983D02*
X0232060Y0112378D01*
X0233640Y0112378D01*
X0235100Y0112983D01*
X0236217Y0114100D01*
X0236822Y0115560D01*
X0236822Y0117140D01*
X0236217Y0118600D01*
X0235100Y0119717D01*
X0233640Y0120322D01*
X0232060Y0120322D01*
X0230600Y0119717D01*
X0229483Y0118600D01*
X0228878Y0117140D01*
X0228878Y0115560D01*
X0229483Y0114100D01*
X0230600Y0112983D01*
X0229417Y0114260D02*
X0196690Y0114260D01*
X0197356Y0115459D02*
X0228920Y0115459D01*
X0228878Y0116657D02*
X0197625Y0116657D01*
X0197599Y0117856D02*
X0229175Y0117856D01*
X0229937Y0119054D02*
X0197103Y0119054D01*
X0196078Y0120253D02*
X0231893Y0120253D01*
X0233807Y0120253D02*
X0298182Y0120253D01*
X0297205Y0119054D02*
X0289246Y0119054D01*
X0291516Y0117856D02*
X0296708Y0117856D01*
X0296600Y0116657D02*
X0292714Y0116657D01*
X0293552Y0115459D02*
X0296661Y0115459D01*
X0297157Y0114260D02*
X0294048Y0114260D01*
X0294499Y0113062D02*
X0298067Y0113062D01*
X0301600Y0116600D02*
X0311600Y0126600D01*
X0303906Y0121451D02*
X0302954Y0121451D01*
X0300246Y0121451D02*
X0144542Y0121451D01*
X0146643Y0120253D02*
X0184622Y0120253D01*
X0183597Y0119054D02*
X0147520Y0119054D01*
X0147939Y0117856D02*
X0183101Y0117856D01*
X0183075Y0116657D02*
X0140763Y0116657D01*
X0140763Y0116537D02*
X0148017Y0116537D01*
X0147911Y0115864D01*
X0147685Y0115170D01*
X0147354Y0114519D01*
X0146925Y0113929D01*
X0146409Y0113413D01*
X0145818Y0112984D01*
X0145168Y0112652D01*
X0144473Y0112427D01*
X0143752Y0112312D01*
X0140763Y0112312D01*
X0140763Y0116537D01*
X0140763Y0115459D02*
X0139937Y0115459D01*
X0139937Y0114260D02*
X0140763Y0114260D01*
X0140763Y0113062D02*
X0139937Y0113062D01*
X0145925Y0113062D02*
X0185627Y0113062D01*
X0184010Y0114260D02*
X0147165Y0114260D01*
X0147779Y0115459D02*
X0183344Y0115459D01*
X0235178Y0113062D02*
X0278701Y0113062D01*
X0279152Y0114260D02*
X0236283Y0114260D01*
X0236780Y0115459D02*
X0279648Y0115459D01*
X0280486Y0116657D02*
X0236822Y0116657D01*
X0236525Y0117856D02*
X0281684Y0117856D01*
X0283954Y0119054D02*
X0235763Y0119054D01*
X0316600Y0136600D02*
X0341600Y0136600D01*
X0339888Y0134635D02*
X0318312Y0134635D01*
X0383957Y0085496D02*
X0490440Y0085496D01*
D18*
X0441600Y0076600D03*
X0401600Y0076600D03*
X0381600Y0086600D03*
X0391600Y0096600D03*
X0351600Y0076600D03*
X0311600Y0041600D03*
X0271600Y0086600D03*
X0276600Y0096600D03*
X0259100Y0101600D03*
X0249100Y0091600D03*
X0316600Y0136600D03*
X0326600Y0126600D03*
X0341600Y0136600D03*
X0321600Y0176600D03*
X0321600Y0191600D03*
X0331600Y0206600D03*
X0331600Y0211600D03*
X0341600Y0196600D03*
X0306600Y0206600D03*
X0279100Y0216600D03*
X0264100Y0176600D03*
X0254100Y0166600D03*
X0312850Y0260350D03*
X0304100Y0266600D03*
X0326600Y0264100D03*
X0339100Y0260350D03*
X0392850Y0211600D03*
X0411600Y0196600D03*
X0401600Y0191600D03*
X0264100Y0262850D03*
D19*
X0279100Y0216600D02*
X0370350Y0216600D01*
X0380975Y0227225D01*
X0401600Y0076600D02*
X0351600Y0076600D01*
X0401600Y0076600D02*
X0441600Y0076600D01*
M02*
