%
M48
M72
T01C0.0120
T02C0.0315
T03C0.0320
T04C0.0354
T05C0.0400
T06C0.0405
T07C0.0440
T08C0.0787
T09C0.1260
%
T01
X24910Y9160
X25910Y10160
X27660Y9660
X27160Y8660
X32660Y12660
X31660Y13660
X34160Y13660
X32160Y17660
X32160Y19160
X33160Y20660
X33160Y21160
X34160Y19660
X30660Y20660
X27910Y21660
X26410Y17660
X25410Y16660
X31285Y26035
X30410Y26660
X32660Y26410
X33910Y26035
X39285Y21160
X41160Y19660
X40160Y19160
X39160Y9660
X38160Y8660
X40160Y7660
X44160Y7660
X35160Y7660
X31160Y4160
X26410Y26285
T02
X30160Y11660
X31160Y11660
X32160Y11660
X33160Y11660
X34160Y11660
X35160Y11660
X36160Y11660
X37160Y11660
X38160Y11660
X39160Y11660
X40160Y11660
X41160Y11660
X42160Y11660
X43160Y11660
X44160Y11660
X44160Y2660
X43160Y2660
X42160Y2660
X41160Y2660
X40160Y2660
X39160Y2660
X38160Y2660
X37160Y2660
X36160Y2660
X35160Y2660
X34160Y2660
X33160Y2660
X32160Y2660
X31160Y2660
X30160Y2660
T03
X38098Y22723
X39098Y22723
T04
X37848Y20598
X40848Y20598
X23285Y14635
X23285Y11635
T05
X19940Y10050
X19940Y8270
X19940Y6550
X19940Y4770
X19940Y3175
X19940Y1395
X17380Y1395
X17380Y3175
X17380Y4770
X17380Y6550
X17380Y8270
X17380Y10050
X39160Y14660
X39160Y15660
X39160Y16660
X39160Y17660
X34910Y27535
X33910Y27535
X32910Y27535
X31910Y27535
X30910Y27535
X29910Y27535
X28910Y27535
X27910Y27535
X26910Y27535
X25910Y27535
X25910Y28535
X26910Y28535
X27910Y28535
X28910Y28535
X29910Y28535
X30910Y28535
X31910Y28535
X32910Y28535
X33910Y28535
X34910Y28535
T06
X14035Y11695
X19035Y11695
T07
X23410Y24167
X24410Y24167
X25410Y24167
X26410Y24167
T08
X29497Y23970
X20323Y23970
X20323Y14600
X29497Y14600
T09
X28660Y11160
X28660Y3160
X45660Y3160
X45660Y11160
M30
