G75*
%MOIN*%
%OFA0B0*%
%FSLAX25Y25*%
%IPPOS*%
%LPD*%
%AMOC8*
5,1,8,0,0,1.08239X$1,22.5*
%
%ADD10C,0.00400*%
%ADD11C,0.00600*%
%ADD12C,0.00800*%
%ADD13C,0.00500*%
%ADD14C,0.13600*%
D10*
X0161800Y0116800D02*
X0166404Y0116800D01*
X0166404Y0119102D01*
X0165637Y0119869D01*
X0164102Y0119869D01*
X0163335Y0119102D01*
X0163335Y0116800D01*
X0163335Y0118335D02*
X0161800Y0119869D01*
X0162567Y0121404D02*
X0164102Y0121404D01*
X0164869Y0122171D01*
X0164869Y0123706D01*
X0164102Y0124473D01*
X0163335Y0124473D01*
X0163335Y0121404D01*
X0162567Y0121404D02*
X0161800Y0122171D01*
X0161800Y0123706D01*
X0161800Y0126008D02*
X0164869Y0126008D01*
X0164869Y0126775D01*
X0164102Y0127542D01*
X0164869Y0128310D01*
X0164102Y0129077D01*
X0161800Y0129077D01*
X0161800Y0127542D02*
X0164102Y0127542D01*
X0164869Y0130612D02*
X0164869Y0131379D01*
X0161800Y0131379D01*
X0161800Y0130612D02*
X0161800Y0132146D01*
X0161800Y0133681D02*
X0164869Y0133681D01*
X0164869Y0135983D01*
X0164102Y0136750D01*
X0161800Y0136750D01*
X0162567Y0138285D02*
X0164102Y0138285D01*
X0164869Y0139052D01*
X0164869Y0141354D01*
X0166404Y0141354D02*
X0161800Y0141354D01*
X0161800Y0139052D01*
X0162567Y0138285D01*
X0162567Y0142889D02*
X0164102Y0142889D01*
X0164869Y0143656D01*
X0164869Y0145191D01*
X0164102Y0145958D01*
X0163335Y0145958D01*
X0163335Y0142889D01*
X0162567Y0142889D02*
X0161800Y0143656D01*
X0161800Y0145191D01*
X0161800Y0147493D02*
X0164869Y0147493D01*
X0163335Y0147493D02*
X0164869Y0149027D01*
X0164869Y0149795D01*
X0164869Y0151329D02*
X0164102Y0151329D01*
X0164102Y0152097D01*
X0164869Y0152097D01*
X0164869Y0151329D01*
X0162567Y0151329D02*
X0161800Y0151329D01*
X0161800Y0152097D01*
X0162567Y0152097D01*
X0162567Y0151329D01*
X0161800Y0158235D02*
X0161800Y0160537D01*
X0162567Y0161305D01*
X0164102Y0161305D01*
X0164869Y0160537D01*
X0164869Y0158235D01*
X0160265Y0158235D01*
X0162567Y0162839D02*
X0161800Y0163607D01*
X0161800Y0165909D01*
X0164869Y0165909D01*
X0164869Y0167443D02*
X0164869Y0168978D01*
X0165637Y0168210D02*
X0162567Y0168210D01*
X0161800Y0168978D01*
X0162567Y0162839D02*
X0164869Y0162839D01*
X0164869Y0175116D02*
X0164869Y0176651D01*
X0165637Y0175884D02*
X0162567Y0175884D01*
X0161800Y0176651D01*
X0161800Y0178186D02*
X0166404Y0178186D01*
X0164869Y0178953D02*
X0164869Y0180488D01*
X0164102Y0181255D01*
X0161800Y0181255D01*
X0162567Y0182790D02*
X0164102Y0182790D01*
X0164869Y0183557D01*
X0164869Y0185092D01*
X0164102Y0185859D01*
X0163335Y0185859D01*
X0163335Y0182790D01*
X0162567Y0182790D02*
X0161800Y0183557D01*
X0161800Y0185092D01*
X0164869Y0178953D02*
X0164102Y0178186D01*
X0164869Y0191997D02*
X0164869Y0194299D01*
X0164102Y0195067D01*
X0162567Y0195067D01*
X0161800Y0194299D01*
X0161800Y0191997D01*
X0166404Y0191997D01*
X0162567Y0196601D02*
X0163335Y0197369D01*
X0163335Y0199671D01*
X0164102Y0199671D02*
X0161800Y0199671D01*
X0161800Y0197369D01*
X0162567Y0196601D01*
X0164869Y0197369D02*
X0164869Y0198903D01*
X0164102Y0199671D01*
X0164869Y0201205D02*
X0164869Y0202740D01*
X0165637Y0201973D02*
X0162567Y0201973D01*
X0161800Y0202740D01*
X0162567Y0205042D02*
X0161800Y0205809D01*
X0162567Y0205042D02*
X0165637Y0205042D01*
X0164869Y0204275D02*
X0164869Y0205809D01*
X0164102Y0207344D02*
X0164869Y0208111D01*
X0164869Y0209646D01*
X0164102Y0210413D01*
X0163335Y0210413D01*
X0163335Y0207344D01*
X0164102Y0207344D02*
X0162567Y0207344D01*
X0161800Y0208111D01*
X0161800Y0209646D01*
X0161800Y0211948D02*
X0164869Y0211948D01*
X0163335Y0211948D02*
X0164869Y0213482D01*
X0164869Y0214250D01*
X0164869Y0215784D02*
X0162567Y0215784D01*
X0161800Y0216552D01*
X0161800Y0218854D01*
X0161033Y0218854D02*
X0160265Y0218086D01*
X0160265Y0217319D01*
X0161033Y0218854D02*
X0164869Y0218854D01*
X0164102Y0224992D02*
X0164869Y0225760D01*
X0164869Y0227294D01*
X0164102Y0228061D01*
X0161800Y0228061D01*
X0162567Y0229596D02*
X0161800Y0230363D01*
X0161800Y0231898D01*
X0162567Y0232665D01*
X0164102Y0232665D01*
X0164869Y0231898D01*
X0164869Y0230363D01*
X0164102Y0229596D01*
X0162567Y0229596D01*
X0161800Y0224992D02*
X0166404Y0224992D01*
X0166404Y0234200D02*
X0166404Y0234967D01*
X0161800Y0234967D01*
X0161800Y0234200D02*
X0161800Y0235735D01*
X0162567Y0237269D02*
X0164102Y0237269D01*
X0164869Y0238037D01*
X0164869Y0240339D01*
X0166404Y0240339D02*
X0161800Y0240339D01*
X0161800Y0238037D01*
X0162567Y0237269D01*
X0162567Y0241873D02*
X0164102Y0241873D01*
X0164869Y0242641D01*
X0164869Y0244175D01*
X0164102Y0244943D01*
X0163335Y0244943D01*
X0163335Y0241873D01*
X0162567Y0241873D02*
X0161800Y0242641D01*
X0161800Y0244175D01*
X0161800Y0246477D02*
X0164869Y0246477D01*
X0163335Y0246477D02*
X0164869Y0248012D01*
X0164869Y0248779D01*
X0164102Y0254918D02*
X0162567Y0254918D01*
X0161800Y0255685D01*
X0161800Y0257220D01*
X0162567Y0257987D01*
X0164102Y0257987D01*
X0164869Y0257220D01*
X0164869Y0255685D01*
X0164102Y0254918D01*
X0164869Y0259522D02*
X0161800Y0259522D01*
X0161800Y0262591D02*
X0164102Y0262591D01*
X0164869Y0261824D01*
X0164869Y0259522D01*
X0166404Y0268729D02*
X0166404Y0269497D01*
X0161800Y0269497D01*
X0161800Y0270264D02*
X0161800Y0268729D01*
X0162567Y0271799D02*
X0163335Y0272566D01*
X0163335Y0274868D01*
X0164102Y0274868D02*
X0161800Y0274868D01*
X0161800Y0272566D01*
X0162567Y0271799D01*
X0164869Y0272566D02*
X0164869Y0274101D01*
X0164102Y0274868D01*
X0164102Y0276403D02*
X0164869Y0277170D01*
X0164869Y0279472D01*
X0164869Y0281007D02*
X0164869Y0282541D01*
X0165637Y0281774D02*
X0162567Y0281774D01*
X0161800Y0282541D01*
X0161800Y0284076D02*
X0162567Y0284076D01*
X0164102Y0284076D02*
X0167171Y0284076D01*
X0162567Y0279472D02*
X0163335Y0278705D01*
X0163335Y0277170D01*
X0164102Y0276403D01*
X0161800Y0276403D02*
X0161800Y0278705D01*
X0162567Y0279472D01*
X0217567Y0214717D02*
X0216800Y0213950D01*
X0216800Y0212415D01*
X0217567Y0211648D01*
X0220637Y0211648D01*
X0221404Y0212415D01*
X0221404Y0213950D01*
X0220637Y0214717D01*
X0220637Y0210113D02*
X0221404Y0209346D01*
X0221404Y0207811D01*
X0220637Y0207044D01*
X0217567Y0207044D01*
X0216800Y0207811D01*
X0216800Y0209346D01*
X0217567Y0210113D01*
X0218335Y0205509D02*
X0221404Y0205509D01*
X0221404Y0202440D02*
X0218335Y0202440D01*
X0216800Y0203974D01*
X0218335Y0205509D01*
X0226800Y0204742D02*
X0226800Y0203207D01*
X0227567Y0202440D01*
X0230637Y0202440D01*
X0231404Y0203207D01*
X0231404Y0204742D01*
X0230637Y0205509D01*
X0229102Y0205509D02*
X0229102Y0203974D01*
X0229102Y0205509D02*
X0227567Y0205509D01*
X0226800Y0204742D01*
X0226800Y0207044D02*
X0231404Y0207044D01*
X0226800Y0210113D01*
X0231404Y0210113D01*
X0231404Y0211648D02*
X0231404Y0213950D01*
X0230637Y0214717D01*
X0227567Y0214717D01*
X0226800Y0213950D01*
X0226800Y0211648D01*
X0231404Y0211648D01*
X0236800Y0211648D02*
X0236800Y0214717D01*
X0236800Y0211648D02*
X0241404Y0211648D01*
X0240637Y0210113D02*
X0241404Y0209346D01*
X0241404Y0207811D01*
X0240637Y0207044D01*
X0237567Y0207044D01*
X0236800Y0207811D01*
X0236800Y0209346D01*
X0237567Y0210113D01*
X0237567Y0205509D02*
X0236800Y0204742D01*
X0236800Y0203207D01*
X0237567Y0202440D01*
X0239102Y0203207D02*
X0239102Y0204742D01*
X0238335Y0205509D01*
X0237567Y0205509D01*
X0239102Y0203207D02*
X0239869Y0202440D01*
X0240637Y0202440D01*
X0241404Y0203207D01*
X0241404Y0204742D01*
X0240637Y0205509D01*
X0246800Y0204742D02*
X0246800Y0203207D01*
X0247567Y0202440D01*
X0249102Y0203207D02*
X0249102Y0204742D01*
X0248335Y0205509D01*
X0247567Y0205509D01*
X0246800Y0204742D01*
X0246800Y0207044D02*
X0246800Y0209346D01*
X0247567Y0210113D01*
X0250637Y0210113D01*
X0251404Y0209346D01*
X0251404Y0207044D01*
X0246800Y0207044D01*
X0250637Y0205509D02*
X0251404Y0204742D01*
X0251404Y0203207D01*
X0250637Y0202440D01*
X0249869Y0202440D01*
X0249102Y0203207D01*
X0249102Y0211648D02*
X0249102Y0214717D01*
X0249869Y0214717D02*
X0246800Y0214717D01*
X0249869Y0214717D02*
X0251404Y0213182D01*
X0249869Y0211648D01*
X0246800Y0211648D01*
X0167171Y0131379D02*
X0166404Y0131379D01*
X0057654Y0143372D02*
X0056119Y0141838D01*
X0054585Y0141838D01*
X0053050Y0143372D01*
X0053817Y0144907D02*
X0053050Y0145674D01*
X0053050Y0147209D01*
X0053817Y0147976D01*
X0053050Y0149511D02*
X0054585Y0151046D01*
X0056119Y0151046D01*
X0057654Y0149511D01*
X0056887Y0147976D02*
X0057654Y0147209D01*
X0057654Y0145674D01*
X0056887Y0144907D01*
X0053817Y0144907D01*
X0050154Y0144140D02*
X0050154Y0142605D01*
X0049387Y0141838D01*
X0046317Y0141838D01*
X0045550Y0142605D01*
X0045550Y0144140D01*
X0046317Y0144907D01*
X0046317Y0146442D02*
X0045550Y0147209D01*
X0045550Y0148744D01*
X0046317Y0149511D01*
X0047852Y0151046D02*
X0047852Y0154115D01*
X0047852Y0155650D02*
X0047852Y0157952D01*
X0047085Y0158719D01*
X0046317Y0158719D01*
X0045550Y0157952D01*
X0045550Y0155650D01*
X0050154Y0155650D01*
X0050154Y0157952D01*
X0049387Y0158719D01*
X0048619Y0158719D01*
X0047852Y0157952D01*
X0049387Y0160254D02*
X0047852Y0161788D01*
X0045550Y0161788D01*
X0047852Y0161788D02*
X0049387Y0163323D01*
X0050154Y0163323D01*
X0047852Y0164857D02*
X0047852Y0167927D01*
X0048619Y0169461D02*
X0047852Y0170229D01*
X0047852Y0171763D01*
X0047085Y0172531D01*
X0046317Y0172531D01*
X0045550Y0171763D01*
X0045550Y0170229D01*
X0046317Y0169461D01*
X0048619Y0169461D02*
X0049387Y0169461D01*
X0050154Y0170229D01*
X0050154Y0171763D01*
X0049387Y0172531D01*
X0048619Y0174065D02*
X0045550Y0174065D01*
X0047852Y0174065D02*
X0047852Y0177135D01*
X0048619Y0177135D02*
X0045550Y0177135D01*
X0048619Y0177135D02*
X0050154Y0175600D01*
X0048619Y0174065D01*
X0053050Y0174065D02*
X0055352Y0174065D01*
X0056119Y0173298D01*
X0056119Y0170996D01*
X0053050Y0170996D01*
X0053050Y0169461D02*
X0055352Y0169461D01*
X0056119Y0168694D01*
X0056119Y0167159D01*
X0055352Y0166392D01*
X0055352Y0164857D02*
X0056119Y0164090D01*
X0056119Y0162555D01*
X0055352Y0161788D01*
X0053817Y0161788D01*
X0053050Y0162555D01*
X0053050Y0164090D01*
X0053817Y0164857D01*
X0055352Y0164857D01*
X0057654Y0166392D02*
X0053050Y0166392D01*
X0050154Y0160254D02*
X0049387Y0160254D01*
X0053050Y0158719D02*
X0053817Y0159486D01*
X0057654Y0159486D01*
X0057654Y0158719D02*
X0057654Y0160254D01*
X0053050Y0158719D02*
X0053050Y0157952D01*
X0053817Y0157184D01*
X0049387Y0149511D02*
X0050154Y0148744D01*
X0050154Y0147209D01*
X0049387Y0146442D01*
X0046317Y0146442D01*
X0049387Y0144907D02*
X0050154Y0144140D01*
X0035154Y0143372D02*
X0033619Y0144907D01*
X0030550Y0144907D01*
X0030550Y0146442D02*
X0033619Y0146442D01*
X0032085Y0146442D02*
X0033619Y0147976D01*
X0033619Y0148744D01*
X0033619Y0150278D02*
X0033619Y0151813D01*
X0034387Y0151046D02*
X0031317Y0151046D01*
X0030550Y0151813D01*
X0031317Y0153348D02*
X0030550Y0154115D01*
X0031317Y0154882D01*
X0030550Y0155650D01*
X0031317Y0156417D01*
X0033619Y0156417D01*
X0032852Y0157952D02*
X0031317Y0157952D01*
X0030550Y0158719D01*
X0030550Y0160254D01*
X0031317Y0161021D01*
X0032852Y0161021D01*
X0033619Y0160254D01*
X0033619Y0158719D01*
X0032852Y0157952D01*
X0033619Y0162556D02*
X0030550Y0162556D01*
X0032085Y0162556D02*
X0033619Y0164090D01*
X0033619Y0164857D01*
X0032085Y0166392D02*
X0033619Y0168694D01*
X0032085Y0166392D02*
X0030550Y0168694D01*
X0030550Y0166392D02*
X0035154Y0166392D01*
X0035154Y0174833D02*
X0030550Y0174833D01*
X0030550Y0177135D01*
X0031317Y0177902D01*
X0032852Y0177902D01*
X0033619Y0177135D01*
X0033619Y0174833D01*
X0033619Y0179437D02*
X0031317Y0179437D01*
X0030550Y0180204D01*
X0030550Y0182506D01*
X0029783Y0182506D02*
X0029015Y0181739D01*
X0029015Y0180971D01*
X0029783Y0182506D02*
X0033619Y0182506D01*
X0035154Y0188644D02*
X0030550Y0188644D01*
X0030550Y0190946D01*
X0031317Y0191714D01*
X0034387Y0191714D01*
X0035154Y0190946D01*
X0035154Y0188644D01*
X0033619Y0193248D02*
X0030550Y0193248D01*
X0032085Y0193248D02*
X0033619Y0194783D01*
X0033619Y0195550D01*
X0031317Y0197085D02*
X0030550Y0197085D01*
X0030550Y0197852D01*
X0031317Y0197852D01*
X0031317Y0197085D01*
X0035154Y0203991D02*
X0035154Y0207060D01*
X0035154Y0205525D02*
X0030550Y0205525D01*
X0031317Y0208595D02*
X0030550Y0209362D01*
X0030550Y0210897D01*
X0032085Y0211664D02*
X0032085Y0208595D01*
X0032852Y0208595D02*
X0033619Y0209362D01*
X0033619Y0210897D01*
X0032852Y0211664D01*
X0032085Y0211664D01*
X0032085Y0213199D02*
X0033619Y0214733D01*
X0033619Y0215501D01*
X0033619Y0217035D02*
X0030550Y0217035D01*
X0032085Y0217035D02*
X0033619Y0218570D01*
X0033619Y0219337D01*
X0033619Y0220872D02*
X0033619Y0221639D01*
X0030550Y0221639D01*
X0030550Y0220872D02*
X0030550Y0222407D01*
X0035154Y0221639D02*
X0035921Y0221639D01*
X0034387Y0228545D02*
X0031317Y0228545D01*
X0030550Y0229312D01*
X0030550Y0230847D01*
X0031317Y0231614D01*
X0034387Y0231614D01*
X0035154Y0230847D01*
X0035154Y0229312D01*
X0034387Y0228545D01*
X0032852Y0233149D02*
X0033619Y0233916D01*
X0033619Y0236218D01*
X0035154Y0236218D02*
X0030550Y0236218D01*
X0030550Y0233916D01*
X0031317Y0233149D01*
X0032852Y0233149D01*
X0031317Y0237753D02*
X0032085Y0238520D01*
X0032085Y0240822D01*
X0032852Y0240822D02*
X0030550Y0240822D01*
X0030550Y0238520D01*
X0031317Y0237753D01*
X0033619Y0238520D02*
X0033619Y0240055D01*
X0032852Y0240822D01*
X0051515Y0246961D02*
X0051515Y0247728D01*
X0052283Y0248495D01*
X0056119Y0248495D01*
X0056119Y0245426D02*
X0053817Y0245426D01*
X0053050Y0246193D01*
X0053050Y0248495D01*
X0054585Y0243891D02*
X0054585Y0240822D01*
X0055352Y0240822D02*
X0056119Y0241590D01*
X0056119Y0243124D01*
X0055352Y0243891D01*
X0054585Y0243891D01*
X0053050Y0243124D02*
X0053050Y0241590D01*
X0053817Y0240822D01*
X0055352Y0240822D01*
X0053050Y0239288D02*
X0053050Y0237753D01*
X0053050Y0238520D02*
X0057654Y0238520D01*
X0057654Y0237753D01*
X0056119Y0236218D02*
X0053817Y0236218D01*
X0053050Y0235451D01*
X0053817Y0234684D01*
X0053050Y0233916D01*
X0053817Y0233149D01*
X0056119Y0233149D01*
X0055352Y0231614D02*
X0053050Y0231614D01*
X0053050Y0229312D01*
X0053817Y0228545D01*
X0054585Y0229312D01*
X0054585Y0231614D01*
X0055352Y0231614D02*
X0056119Y0230847D01*
X0056119Y0229312D01*
X0055352Y0227010D02*
X0055352Y0223941D01*
X0053050Y0223941D02*
X0057654Y0223941D01*
X0057654Y0227010D02*
X0053050Y0227010D01*
X0056887Y0217803D02*
X0056119Y0217035D01*
X0056887Y0217803D02*
X0058421Y0217803D01*
X0056887Y0215501D02*
X0053817Y0215501D01*
X0053050Y0214733D01*
X0053050Y0213199D01*
X0053817Y0212431D01*
X0053050Y0210897D02*
X0053050Y0208595D01*
X0053817Y0207827D01*
X0055352Y0207827D01*
X0056119Y0208595D01*
X0056119Y0210897D01*
X0052283Y0210897D01*
X0051515Y0210129D01*
X0051515Y0209362D01*
X0053817Y0206293D02*
X0055352Y0206293D01*
X0056119Y0205525D01*
X0056119Y0203991D01*
X0055352Y0203223D01*
X0053817Y0203223D01*
X0053050Y0203991D01*
X0053050Y0205525D01*
X0053817Y0206293D01*
X0053050Y0201689D02*
X0055352Y0201689D01*
X0056119Y0200922D01*
X0056119Y0199387D01*
X0055352Y0198620D01*
X0056119Y0197085D02*
X0056119Y0195550D01*
X0056887Y0196318D02*
X0053817Y0196318D01*
X0053050Y0197085D01*
X0053050Y0198620D02*
X0057654Y0198620D01*
X0056119Y0194016D02*
X0056119Y0193248D01*
X0054585Y0191714D01*
X0056119Y0191714D02*
X0053050Y0191714D01*
X0053050Y0190179D02*
X0053050Y0187877D01*
X0053817Y0187110D01*
X0054585Y0187877D01*
X0054585Y0190179D01*
X0055352Y0190179D02*
X0053050Y0190179D01*
X0055352Y0190179D02*
X0056119Y0189412D01*
X0056119Y0187877D01*
X0057654Y0185575D02*
X0053050Y0185575D01*
X0054585Y0184040D01*
X0053050Y0182506D01*
X0057654Y0182506D01*
X0058421Y0180971D02*
X0056887Y0180971D01*
X0056119Y0180204D01*
X0033619Y0153348D02*
X0031317Y0153348D01*
X0032852Y0144907D02*
X0032852Y0141838D01*
X0033619Y0141838D02*
X0035154Y0143372D01*
X0033619Y0141838D02*
X0030550Y0141838D01*
X0031317Y0208595D02*
X0032852Y0208595D01*
X0033619Y0213199D02*
X0030550Y0213199D01*
X0055352Y0213199D02*
X0055352Y0215501D01*
X0056887Y0215501D02*
X0057654Y0214733D01*
X0057654Y0213199D01*
X0056887Y0212431D01*
X0056119Y0212431D01*
X0055352Y0213199D01*
X0056887Y0254634D02*
X0057654Y0255401D01*
X0057654Y0256936D01*
X0056887Y0257703D01*
X0056119Y0257703D01*
X0053050Y0254634D01*
X0053050Y0257703D01*
X0053817Y0259238D02*
X0056887Y0262307D01*
X0053817Y0262307D01*
X0053050Y0261540D01*
X0053050Y0260005D01*
X0053817Y0259238D01*
X0056887Y0259238D01*
X0057654Y0260005D01*
X0057654Y0261540D01*
X0056887Y0262307D01*
X0056119Y0263842D02*
X0057654Y0265376D01*
X0053050Y0265376D01*
X0053050Y0263842D02*
X0053050Y0266911D01*
X0053817Y0268446D02*
X0054585Y0268446D01*
X0055352Y0269213D01*
X0055352Y0270748D01*
X0054585Y0271515D01*
X0053817Y0271515D01*
X0053050Y0270748D01*
X0053050Y0269213D01*
X0053817Y0268446D01*
X0055352Y0269213D02*
X0056119Y0268446D01*
X0056887Y0268446D01*
X0057654Y0269213D01*
X0057654Y0270748D01*
X0056887Y0271515D01*
X0056119Y0271515D01*
X0055352Y0270748D01*
X0212293Y0016404D02*
X0211525Y0015637D01*
X0211525Y0014869D01*
X0212293Y0014102D01*
X0213827Y0014102D01*
X0214595Y0014869D01*
X0214595Y0015637D01*
X0213827Y0016404D01*
X0212293Y0016404D01*
X0212293Y0014102D02*
X0211525Y0013335D01*
X0211525Y0012567D01*
X0212293Y0011800D01*
X0213827Y0011800D01*
X0214595Y0012567D01*
X0214595Y0013335D01*
X0213827Y0014102D01*
X0216129Y0011800D02*
X0219199Y0011800D01*
X0217664Y0011800D02*
X0217664Y0016404D01*
X0219199Y0014869D01*
X0220733Y0015637D02*
X0223803Y0012567D01*
X0223035Y0011800D01*
X0221501Y0011800D01*
X0220733Y0012567D01*
X0220733Y0015637D01*
X0221501Y0016404D01*
X0223035Y0016404D01*
X0223803Y0015637D01*
X0223803Y0012567D01*
X0225337Y0011800D02*
X0228406Y0011800D01*
X0225337Y0014869D01*
X0225337Y0015637D01*
X0226105Y0016404D01*
X0227639Y0016404D01*
X0228406Y0015637D01*
X0229941Y0014102D02*
X0233010Y0014102D01*
X0234545Y0014869D02*
X0236080Y0014869D01*
X0235312Y0015637D02*
X0235312Y0012567D01*
X0234545Y0011800D01*
X0237614Y0011800D02*
X0239149Y0011800D01*
X0238382Y0011800D02*
X0238382Y0014869D01*
X0239149Y0014869D01*
X0240684Y0014869D02*
X0242986Y0013335D01*
X0240684Y0011800D01*
X0242986Y0011800D02*
X0242986Y0016404D01*
X0244520Y0014869D02*
X0245288Y0014869D01*
X0246822Y0013335D01*
X0246822Y0014869D02*
X0246822Y0011800D01*
X0248357Y0013335D02*
X0251426Y0013335D01*
X0251426Y0014102D02*
X0250659Y0014869D01*
X0249124Y0014869D01*
X0248357Y0014102D01*
X0248357Y0013335D01*
X0249124Y0011800D02*
X0250659Y0011800D01*
X0251426Y0012567D01*
X0251426Y0014102D01*
X0252961Y0014869D02*
X0255263Y0014869D01*
X0256030Y0014102D01*
X0256030Y0012567D01*
X0255263Y0011800D01*
X0252961Y0011800D01*
X0252961Y0016404D01*
X0258332Y0016404D02*
X0258332Y0011800D01*
X0259099Y0011800D02*
X0257565Y0011800D01*
X0260634Y0012567D02*
X0260634Y0014102D01*
X0261401Y0014869D01*
X0262936Y0014869D01*
X0263703Y0014102D01*
X0263703Y0012567D01*
X0262936Y0011800D01*
X0261401Y0011800D01*
X0260634Y0012567D01*
X0259099Y0016404D02*
X0258332Y0016404D01*
X0265238Y0015637D02*
X0266005Y0016404D01*
X0267540Y0016404D01*
X0268307Y0015637D01*
X0268307Y0014869D01*
X0267540Y0014102D01*
X0266005Y0014102D01*
X0265238Y0013335D01*
X0265238Y0012567D01*
X0266005Y0011800D01*
X0267540Y0011800D01*
X0268307Y0012567D01*
X0269842Y0014102D02*
X0272911Y0014102D01*
X0274446Y0016404D02*
X0277515Y0016404D01*
X0277515Y0011800D01*
X0279050Y0011800D02*
X0279050Y0016404D01*
X0280584Y0014869D01*
X0282119Y0016404D01*
X0282119Y0011800D01*
X0283654Y0011800D02*
X0283654Y0016404D01*
X0285188Y0014869D01*
X0286723Y0016404D01*
X0286723Y0011800D01*
X0288257Y0011800D02*
X0289792Y0013335D01*
X0289025Y0011800D02*
X0288257Y0012567D01*
X0288257Y0015637D01*
X0289025Y0016404D01*
X0290559Y0016404D01*
X0291327Y0015637D01*
X0291327Y0012567D01*
X0290559Y0011800D01*
X0289025Y0011800D01*
X0292861Y0012567D02*
X0293629Y0011800D01*
X0295931Y0011800D01*
X0295931Y0016404D01*
X0293629Y0016404D01*
X0292861Y0015637D01*
X0292861Y0014869D01*
X0293629Y0014102D01*
X0295931Y0014102D01*
X0297465Y0014102D02*
X0300535Y0014102D01*
X0300535Y0014869D02*
X0299000Y0016404D01*
X0297465Y0014869D01*
X0297465Y0011800D01*
X0300535Y0011800D02*
X0300535Y0014869D01*
X0302069Y0016404D02*
X0305139Y0011800D01*
X0306673Y0012567D02*
X0306673Y0015637D01*
X0307440Y0016404D01*
X0308975Y0016404D01*
X0309742Y0015637D01*
X0309742Y0014869D01*
X0308975Y0014102D01*
X0306673Y0014102D01*
X0306673Y0012567D02*
X0307440Y0011800D01*
X0308975Y0011800D01*
X0309742Y0012567D01*
X0311277Y0011800D02*
X0313579Y0011800D01*
X0314346Y0012567D01*
X0314346Y0014102D01*
X0313579Y0014869D01*
X0311277Y0014869D01*
X0311277Y0011033D01*
X0312044Y0010265D01*
X0312812Y0010265D01*
X0315881Y0012567D02*
X0315881Y0014102D01*
X0316648Y0014869D01*
X0318183Y0014869D01*
X0318950Y0014102D01*
X0318950Y0012567D01*
X0318183Y0011800D01*
X0316648Y0011800D01*
X0315881Y0012567D01*
X0320485Y0011800D02*
X0320485Y0014102D01*
X0321252Y0014869D01*
X0322787Y0014869D01*
X0323554Y0014102D01*
X0325089Y0014869D02*
X0326623Y0014869D01*
X0325856Y0015637D02*
X0325856Y0012567D01*
X0325089Y0011800D01*
X0323554Y0011800D02*
X0323554Y0016404D01*
X0328158Y0014869D02*
X0328925Y0014869D01*
X0330460Y0013335D01*
X0330460Y0014869D02*
X0330460Y0011800D01*
X0331995Y0011800D02*
X0334297Y0011800D01*
X0335064Y0012567D01*
X0334297Y0013335D01*
X0331995Y0013335D01*
X0331995Y0014102D02*
X0331995Y0011800D01*
X0331995Y0014102D02*
X0332762Y0014869D01*
X0334297Y0014869D01*
X0336599Y0014869D02*
X0336599Y0012567D01*
X0337366Y0011800D01*
X0338133Y0012567D01*
X0338901Y0011800D01*
X0339668Y0012567D01*
X0339668Y0014869D01*
X0341203Y0016404D02*
X0344272Y0011800D01*
X0345807Y0011800D02*
X0345807Y0014102D01*
X0346574Y0014869D01*
X0347341Y0014102D01*
X0347341Y0011800D01*
X0348876Y0011800D02*
X0348876Y0014869D01*
X0348108Y0014869D01*
X0347341Y0014102D01*
X0350410Y0014102D02*
X0351178Y0014869D01*
X0352712Y0014869D01*
X0353480Y0014102D01*
X0353480Y0012567D01*
X0352712Y0011800D01*
X0351178Y0011800D01*
X0350410Y0012567D01*
X0350410Y0014102D01*
X0355014Y0014869D02*
X0357316Y0014869D01*
X0358084Y0014102D01*
X0358084Y0012567D01*
X0357316Y0011800D01*
X0355014Y0011800D01*
X0359618Y0011800D02*
X0360386Y0011800D01*
X0360386Y0012567D01*
X0359618Y0012567D01*
X0359618Y0011800D01*
X0361920Y0012567D02*
X0361920Y0014102D01*
X0362688Y0014869D01*
X0364990Y0014869D01*
X0366524Y0014869D02*
X0366524Y0011800D01*
X0368826Y0011800D01*
X0369593Y0012567D01*
X0369593Y0014869D01*
X0371128Y0014102D02*
X0371128Y0011800D01*
X0371128Y0014102D02*
X0371895Y0014869D01*
X0373430Y0014869D01*
X0374197Y0014102D01*
X0375732Y0014869D02*
X0377267Y0014869D01*
X0376499Y0015637D02*
X0376499Y0012567D01*
X0375732Y0011800D01*
X0374197Y0011800D02*
X0374197Y0016404D01*
X0379569Y0016404D02*
X0379569Y0017171D01*
X0379569Y0014869D02*
X0379569Y0011800D01*
X0380336Y0011800D02*
X0378801Y0011800D01*
X0381871Y0011800D02*
X0384173Y0011800D01*
X0384940Y0012567D01*
X0384940Y0014102D01*
X0384173Y0014869D01*
X0381871Y0014869D01*
X0381871Y0011033D01*
X0382638Y0010265D01*
X0383405Y0010265D01*
X0380336Y0014869D02*
X0379569Y0014869D01*
X0386475Y0016404D02*
X0389544Y0011800D01*
X0394148Y0011800D02*
X0391078Y0016404D01*
X0395682Y0014869D02*
X0395682Y0014102D01*
X0396450Y0014102D01*
X0396450Y0014869D01*
X0395682Y0014869D01*
X0395682Y0012567D02*
X0395682Y0011800D01*
X0396450Y0011800D01*
X0396450Y0012567D01*
X0395682Y0012567D01*
X0397984Y0012567D02*
X0398752Y0013335D01*
X0400286Y0013335D01*
X0401054Y0014102D01*
X0400286Y0014869D01*
X0397984Y0014869D01*
X0397984Y0012567D02*
X0398752Y0011800D01*
X0401054Y0011800D01*
X0402588Y0012567D02*
X0403356Y0011800D01*
X0405658Y0011800D01*
X0407192Y0011800D02*
X0407959Y0012567D01*
X0407959Y0015637D01*
X0407192Y0014869D02*
X0408727Y0014869D01*
X0410261Y0014869D02*
X0411796Y0014869D01*
X0411029Y0015637D02*
X0411029Y0012567D01*
X0410261Y0011800D01*
X0413331Y0011800D02*
X0413331Y0014102D01*
X0414098Y0014869D01*
X0415633Y0014869D01*
X0416400Y0014102D01*
X0416400Y0016404D02*
X0416400Y0011800D01*
X0405658Y0010265D02*
X0405658Y0014869D01*
X0403356Y0014869D01*
X0402588Y0014102D01*
X0402588Y0012567D01*
X0364990Y0011800D02*
X0362688Y0011800D01*
X0361920Y0012567D01*
X0364990Y0011800D02*
X0364990Y0016404D01*
X0293629Y0014102D02*
X0292861Y0013335D01*
X0292861Y0012567D01*
X0277515Y0014102D02*
X0275980Y0014102D01*
X0238382Y0016404D02*
X0238382Y0017171D01*
D11*
X0317889Y0143150D02*
X0317889Y0147420D01*
X0320024Y0149555D01*
X0322159Y0147420D01*
X0322159Y0143150D01*
X0324334Y0144218D02*
X0324334Y0148488D01*
X0325402Y0149555D01*
X0328605Y0149555D01*
X0328605Y0143150D01*
X0325402Y0143150D01*
X0324334Y0144218D01*
X0322159Y0146353D02*
X0317889Y0146353D01*
X0317889Y0153150D02*
X0322159Y0153150D01*
X0322159Y0159555D01*
X0322159Y0161900D02*
X0318956Y0161900D01*
X0317889Y0162968D01*
X0317889Y0167238D01*
X0318956Y0168305D01*
X0322159Y0168305D01*
X0322159Y0161900D01*
X0324334Y0161900D02*
X0324334Y0168305D01*
X0328605Y0168305D02*
X0324334Y0161900D01*
X0325402Y0159555D02*
X0327537Y0159555D01*
X0328605Y0158488D01*
X0328605Y0154218D01*
X0327537Y0153150D01*
X0325402Y0153150D01*
X0324334Y0154218D01*
X0324334Y0158488D02*
X0325402Y0159555D01*
X0328605Y0161900D02*
X0328605Y0168305D01*
X0330780Y0167238D02*
X0331847Y0168305D01*
X0333982Y0168305D01*
X0335050Y0167238D01*
X0335050Y0162968D01*
X0333982Y0161900D01*
X0331847Y0161900D01*
X0330780Y0162968D01*
X0330780Y0165103D01*
X0332915Y0165103D01*
X0331847Y0159555D02*
X0333982Y0159555D01*
X0335050Y0158488D01*
X0335050Y0157420D01*
X0333982Y0156353D01*
X0331847Y0156353D01*
X0330780Y0155285D01*
X0330780Y0154218D01*
X0331847Y0153150D01*
X0333982Y0153150D01*
X0335050Y0154218D01*
X0333982Y0149555D02*
X0331847Y0149555D01*
X0330780Y0148488D01*
X0331847Y0146353D02*
X0330780Y0145285D01*
X0330780Y0144218D01*
X0331847Y0143150D01*
X0333982Y0143150D01*
X0335050Y0144218D01*
X0333982Y0146353D02*
X0331847Y0146353D01*
X0333982Y0146353D02*
X0335050Y0147420D01*
X0335050Y0148488D01*
X0333982Y0149555D01*
X0330780Y0158488D02*
X0331847Y0159555D01*
X0332915Y0173150D02*
X0330780Y0175285D01*
X0330780Y0179555D01*
X0328605Y0179555D02*
X0326469Y0179555D01*
X0327537Y0179555D02*
X0327537Y0173150D01*
X0328605Y0173150D02*
X0326469Y0173150D01*
X0324308Y0173150D02*
X0324308Y0179555D01*
X0320037Y0173150D01*
X0320037Y0179555D01*
X0332915Y0173150D02*
X0335050Y0175285D01*
X0335050Y0179555D01*
D12*
X0383475Y0202975D02*
X0383475Y0205975D01*
X0382475Y0205975D01*
X0383475Y0205975D02*
X0383475Y0208975D01*
X0403475Y0208975D01*
X0403475Y0205975D01*
X0404475Y0205975D01*
X0403475Y0205975D02*
X0403475Y0202975D01*
X0383475Y0202975D01*
X0395975Y0219725D02*
X0395975Y0234725D01*
D13*
X0214150Y0106750D02*
X0066550Y0106750D01*
X0066550Y0313950D01*
X0214150Y0313950D01*
X0214150Y0106750D01*
X0190350Y0122850D02*
X0190350Y0125350D01*
X0190350Y0127850D01*
X0190350Y0125350D02*
X0192850Y0125350D01*
X0190350Y0125350D02*
X0187850Y0125350D01*
X0140350Y0127850D02*
X0140350Y0122850D01*
X0095350Y0165350D02*
X0095350Y0167850D01*
X0097850Y0167850D01*
X0095350Y0167850D02*
X0095350Y0170350D01*
X0095350Y0167850D02*
X0092850Y0167850D01*
X0090350Y0175350D02*
X0100350Y0175350D01*
X0100350Y0180350D01*
X0090350Y0180350D01*
X0090350Y0175350D01*
X0090350Y0180350D02*
X0085350Y0180350D01*
X0085350Y0240350D01*
X0105350Y0240350D01*
X0105350Y0180350D01*
X0100350Y0180350D01*
X0130350Y0180350D02*
X0150350Y0180350D01*
X0150350Y0240350D01*
X0145350Y0240350D01*
X0145350Y0245350D01*
X0135350Y0245350D01*
X0135350Y0240350D01*
X0145350Y0240350D01*
X0135350Y0240350D02*
X0130350Y0240350D01*
X0130350Y0180350D01*
X0140350Y0175350D02*
X0140350Y0170350D01*
X0175350Y0180350D02*
X0175350Y0240350D01*
X0195350Y0240350D01*
X0195350Y0180350D01*
X0190350Y0180350D01*
X0190350Y0175350D01*
X0180350Y0175350D01*
X0180350Y0180350D01*
X0190350Y0180350D01*
X0180350Y0180350D02*
X0175350Y0180350D01*
X0185350Y0170350D02*
X0185350Y0165350D01*
X0182850Y0167850D02*
X0187850Y0167850D01*
X0185350Y0245350D02*
X0185350Y0250350D01*
X0142850Y0252850D02*
X0137850Y0252850D01*
X0140350Y0250350D02*
X0140350Y0255350D01*
X0095350Y0250350D02*
X0095350Y0245350D01*
X0390852Y0201410D02*
X0392120Y0200142D01*
X0391803Y0199825D01*
X0391169Y0199825D01*
X0390852Y0200142D01*
X0390852Y0201410D01*
X0391169Y0201727D01*
X0391803Y0201727D01*
X0392120Y0201410D01*
X0392120Y0200142D01*
X0393062Y0199825D02*
X0394330Y0199825D01*
X0393696Y0199825D02*
X0393696Y0201727D01*
X0394330Y0201093D01*
X0395272Y0201410D02*
X0395272Y0200776D01*
X0395589Y0200459D01*
X0396540Y0200459D01*
X0396540Y0199825D02*
X0396540Y0201727D01*
X0395589Y0201727D01*
X0395272Y0201410D01*
X0395906Y0200459D02*
X0395272Y0199825D01*
D14*
X0186600Y0210350D03*
X0094100Y0210350D03*
M02*
