%
M48
M72
T01C0.0120
T02C0.0315
T03C0.0320
T04C0.0354
T05C0.0400
T06C0.0405
T07C0.0440
T08C0.0787
T09C0.1260
%
T01
X23910Y15660
X24910Y14660
X25910Y10160
X25410Y9160
X27160Y8660
X27660Y9660
X26660Y6535
X33160Y6535
X34160Y5660
X35160Y7660
X38160Y8660
X39160Y9660
X40160Y7660
X44160Y7660
X39660Y4160
X34160Y13660
X32160Y14660
X31660Y13660
X32160Y17160
X33160Y18160
X33160Y19035
X34160Y19660
X30660Y19160
X27910Y24160
X26410Y25785
X30410Y26660
X31285Y26035
X32660Y26410
X33910Y26035
X41160Y19660
X40535Y19160
X40160Y17160
X37660Y18160
X37160Y15660
T02
X37160Y11660
X36160Y11660
X35160Y11660
X34160Y11660
X33160Y11660
X32160Y11660
X31160Y11660
X30160Y11660
X38160Y11660
X39160Y11660
X40160Y11660
X41160Y11660
X42160Y11660
X43160Y11660
X44160Y11660
X44160Y2660
X43160Y2660
X42160Y2660
X41160Y2660
X40160Y2660
X39160Y2660
X38160Y2660
X37160Y2660
X36160Y2660
X35160Y2660
X34160Y2660
X33160Y2660
X32160Y2660
X31160Y2660
X30160Y2660
T03
X38098Y22723
X39098Y22723
T04
X37848Y20598
X40848Y20598
X22785Y14635
X22785Y11635
X23660Y2660
X26660Y2660
T05
X13380Y4770
X13380Y6550
X15940Y6550
X17380Y6550
X17380Y8270
X17380Y10050
X19940Y10050
X19940Y8270
X19940Y6550
X21380Y6550
X21380Y4770
X19940Y4770
X19940Y3175
X19940Y1395
X17380Y1395
X17380Y3175
X17380Y4770
X15940Y4770
X23940Y4770
X23940Y6550
X30410Y14660
X30410Y15660
X30410Y16660
X30410Y17660
X29910Y27535
X28910Y27535
X27910Y27535
X26910Y27535
X25910Y27535
X25910Y28535
X26910Y28535
X27910Y28535
X28910Y28535
X29910Y28535
X30910Y28535
X31910Y28535
X32910Y28535
X33910Y28535
X34910Y28535
X34910Y27535
X33910Y27535
X32910Y27535
X31910Y27535
X30910Y27535
T06
X19035Y11695
X14035Y11695
T07
X21910Y22667
X22910Y22667
X23910Y22667
X24910Y22667
T08
X27997Y22470
X18823Y22470
X18823Y13100
X27997Y13100
T09
X28660Y11160
X28660Y3160
X45660Y3160
X45660Y11160
M30
