G75*
%MOIN*%
%OFA0B0*%
%FSLAX25Y25*%
%IPPOS*%
%LPD*%
%AMOC8*
5,1,8,0,0,1.08239X$1,22.5*
%
%ADD10R,0.00250X0.00250*%
%ADD11R,0.00510X0.00250*%
%ADD12R,0.00760X0.00250*%
%ADD13R,0.01250X0.00250*%
%ADD14R,0.01490X0.00250*%
%ADD15R,0.02000X0.00250*%
%ADD16R,0.02250X0.00250*%
%ADD17R,0.02760X0.00250*%
%ADD18R,0.03000X0.00250*%
%ADD19R,0.03250X0.00250*%
%ADD20R,0.03760X0.00250*%
%ADD21R,0.04010X0.00250*%
%ADD22R,0.04490X0.00250*%
%ADD23R,0.04740X0.00250*%
%ADD24R,0.05250X0.00250*%
%ADD25R,0.05500X0.00250*%
%ADD26R,0.06250X0.00250*%
%ADD27R,0.06510X0.00250*%
%ADD28R,0.07010X0.00250*%
%ADD29R,0.07250X0.00250*%
%ADD30R,0.07500X0.00250*%
%ADD31R,0.08250X0.00250*%
%ADD32R,0.08500X0.00250*%
%ADD33R,0.08990X0.00250*%
%ADD34R,0.09250X0.00250*%
%ADD35R,0.09760X0.00250*%
%ADD36R,0.10010X0.00250*%
%ADD37R,0.10250X0.00250*%
%ADD38R,0.10760X0.00250*%
%ADD39R,0.11010X0.00250*%
%ADD40R,0.11500X0.00250*%
%ADD41R,0.11740X0.00250*%
%ADD42R,0.12260X0.00250*%
%ADD43R,0.12510X0.00250*%
%ADD44R,0.12760X0.00250*%
%ADD45R,0.13240X0.00250*%
%ADD46R,0.13490X0.00250*%
%ADD47R,0.14000X0.00250*%
%ADD48R,0.14250X0.00250*%
%ADD49R,0.14500X0.00250*%
%ADD50R,0.14750X0.00250*%
%ADD51R,0.15000X0.00250*%
%ADD52R,0.15250X0.00250*%
%ADD53R,0.15740X0.00250*%
%ADD54R,0.15990X0.00250*%
%ADD55R,0.16240X0.00250*%
%ADD56R,0.16490X0.00250*%
%ADD57R,0.16740X0.00250*%
%ADD58R,0.16990X0.00250*%
%ADD59R,0.17250X0.00250*%
%ADD60R,0.17500X0.00250*%
%ADD61R,0.17740X0.00250*%
%ADD62R,0.00240X0.00250*%
%ADD63R,0.18000X0.00250*%
%ADD64R,0.00740X0.00250*%
%ADD65R,0.01240X0.00250*%
%ADD66R,0.18240X0.00250*%
%ADD67R,0.02500X0.00250*%
%ADD68R,0.18500X0.00250*%
%ADD69R,0.03990X0.00250*%
%ADD70R,0.19000X0.00250*%
%ADD71R,0.05000X0.00250*%
%ADD72R,0.05750X0.00250*%
%ADD73R,0.19260X0.00250*%
%ADD74R,0.06740X0.00250*%
%ADD75R,0.07240X0.00250*%
%ADD76R,0.19500X0.00250*%
%ADD77R,0.08750X0.00250*%
%ADD78R,0.19760X0.00250*%
%ADD79R,0.09990X0.00250*%
%ADD80R,0.20000X0.00250*%
%ADD81R,0.10490X0.00250*%
%ADD82R,0.20250X0.00250*%
%ADD83R,0.10990X0.00250*%
%ADD84R,0.11490X0.00250*%
%ADD85R,0.20510X0.00250*%
%ADD86R,0.12500X0.00250*%
%ADD87R,0.13000X0.00250*%
%ADD88R,0.20750X0.00250*%
%ADD89R,0.13500X0.00250*%
%ADD90R,0.21010X0.00250*%
%ADD91R,0.21490X0.00250*%
%ADD92R,0.17240X0.00250*%
%ADD93R,0.21750X0.00250*%
%ADD94R,0.21990X0.00250*%
%ADD95R,0.22490X0.00250*%
%ADD96R,0.21000X0.00250*%
%ADD97R,0.21500X0.00250*%
%ADD98R,0.22740X0.00250*%
%ADD99R,0.22240X0.00250*%
%ADD100R,0.23000X0.00250*%
%ADD101R,0.22990X0.00250*%
%ADD102R,0.23740X0.00250*%
%ADD103R,0.24240X0.00250*%
%ADD104R,0.23240X0.00250*%
%ADD105R,0.49510X0.00250*%
%ADD106R,0.48250X0.00250*%
%ADD107R,0.47000X0.00250*%
%ADD108R,0.45760X0.00250*%
%ADD109R,0.44750X0.00250*%
%ADD110R,0.43750X0.00250*%
%ADD111R,0.42750X0.00250*%
%ADD112R,0.41750X0.00250*%
%ADD113R,0.40990X0.00250*%
%ADD114R,0.39990X0.00250*%
%ADD115R,0.39250X0.00250*%
%ADD116R,0.38760X0.00250*%
%ADD117R,0.37760X0.00250*%
%ADD118R,0.37250X0.00250*%
%ADD119R,0.36510X0.00250*%
%ADD120R,0.35510X0.00250*%
%ADD121R,0.35000X0.00250*%
%ADD122R,0.34260X0.00250*%
%ADD123R,0.33750X0.00250*%
%ADD124R,0.33250X0.00250*%
%ADD125R,0.32500X0.00250*%
%ADD126R,0.32000X0.00250*%
%ADD127R,0.31250X0.00250*%
%ADD128R,0.30750X0.00250*%
%ADD129R,0.30250X0.00250*%
%ADD130R,0.30010X0.00250*%
%ADD131R,0.29250X0.00250*%
%ADD132R,0.28750X0.00250*%
%ADD133R,0.28250X0.00250*%
%ADD134R,0.27760X0.00250*%
%ADD135R,0.27260X0.00250*%
%ADD136R,0.26760X0.00250*%
%ADD137R,0.26500X0.00250*%
%ADD138R,0.26000X0.00250*%
%ADD139R,0.25500X0.00250*%
%ADD140R,0.25000X0.00250*%
%ADD141R,0.24500X0.00250*%
%ADD142R,0.23500X0.00250*%
%ADD143R,0.23260X0.00250*%
%ADD144R,0.22760X0.00250*%
%ADD145R,0.22260X0.00250*%
%ADD146R,0.21760X0.00250*%
%ADD147R,0.04250X0.00250*%
%ADD148R,0.21510X0.00250*%
%ADD149R,0.05490X0.00250*%
%ADD150R,0.07510X0.00250*%
%ADD151R,0.08510X0.00250*%
%ADD152R,0.19990X0.00250*%
%ADD153R,0.19490X0.00250*%
%ADD154R,0.10000X0.00250*%
%ADD155R,0.19250X0.00250*%
%ADD156R,0.18750X0.00250*%
%ADD157R,0.11760X0.00250*%
%ADD158R,0.18250X0.00250*%
%ADD159R,0.13250X0.00250*%
%ADD160R,0.17750X0.00250*%
%ADD161R,0.13750X0.00250*%
%ADD162R,0.17510X0.00250*%
%ADD163R,0.17010X0.00250*%
%ADD164R,0.15510X0.00250*%
%ADD165R,0.16750X0.00250*%
%ADD166R,0.16000X0.00250*%
%ADD167R,0.16260X0.00250*%
%ADD168R,0.16010X0.00250*%
%ADD169R,0.17260X0.00250*%
%ADD170R,0.18010X0.00250*%
%ADD171R,0.15500X0.00250*%
%ADD172R,0.18740X0.00250*%
%ADD173R,0.19240X0.00250*%
%ADD174R,0.14740X0.00250*%
%ADD175R,0.19740X0.00250*%
%ADD176R,0.20490X0.00250*%
%ADD177R,0.21250X0.00250*%
%ADD178R,0.13760X0.00250*%
%ADD179R,0.13260X0.00250*%
%ADD180R,0.24010X0.00250*%
%ADD181R,0.24510X0.00250*%
%ADD182R,0.12000X0.00250*%
%ADD183R,0.25010X0.00250*%
%ADD184R,0.25250X0.00250*%
%ADD185R,0.25750X0.00250*%
%ADD186R,0.11240X0.00250*%
%ADD187R,0.11000X0.00250*%
%ADD188R,0.27000X0.00250*%
%ADD189R,0.10740X0.00250*%
%ADD190R,0.27500X0.00250*%
%ADD191R,0.27750X0.00250*%
%ADD192R,0.28490X0.00250*%
%ADD193R,0.28990X0.00250*%
%ADD194R,0.29750X0.00250*%
%ADD195R,0.34500X0.00250*%
%ADD196R,0.34240X0.00250*%
%ADD197R,0.30500X0.00250*%
%ADD198R,0.34000X0.00250*%
%ADD199R,0.31000X0.00250*%
%ADD200R,0.33740X0.00250*%
%ADD201R,0.31240X0.00250*%
%ADD202R,0.31740X0.00250*%
%ADD203R,0.32990X0.00250*%
%ADD204R,0.32260X0.00250*%
%ADD205R,0.32750X0.00250*%
%ADD206R,0.32760X0.00250*%
%ADD207R,0.32250X0.00250*%
%ADD208R,0.33000X0.00250*%
%ADD209R,0.31990X0.00250*%
%ADD210R,0.33500X0.00250*%
%ADD211R,0.31490X0.00250*%
%ADD212R,0.34750X0.00250*%
%ADD213R,0.30990X0.00250*%
%ADD214R,0.35250X0.00250*%
%ADD215R,0.35500X0.00250*%
%ADD216R,0.30240X0.00250*%
%ADD217R,0.36240X0.00250*%
%ADD218R,0.30000X0.00250*%
%ADD219R,0.36500X0.00250*%
%ADD220R,0.29740X0.00250*%
%ADD221R,0.36740X0.00250*%
%ADD222R,0.37490X0.00250*%
%ADD223R,0.29000X0.00250*%
%ADD224R,0.37750X0.00250*%
%ADD225R,0.37990X0.00250*%
%ADD226R,0.28500X0.00250*%
%ADD227R,0.38490X0.00250*%
%ADD228R,0.39010X0.00250*%
%ADD229R,0.27990X0.00250*%
%ADD230R,0.39750X0.00250*%
%ADD231R,0.27240X0.00250*%
%ADD232R,0.40010X0.00250*%
%ADD233R,0.40500X0.00250*%
%ADD234R,0.26740X0.00250*%
%ADD235R,0.40750X0.00250*%
%ADD236R,0.41250X0.00250*%
%ADD237R,0.26240X0.00250*%
%ADD238R,0.41500X0.00250*%
%ADD239R,0.41990X0.00250*%
%ADD240R,0.25740X0.00250*%
%ADD241R,0.42240X0.00250*%
%ADD242R,0.42490X0.00250*%
%ADD243R,0.25240X0.00250*%
%ADD244R,0.43240X0.00250*%
%ADD245R,0.24750X0.00250*%
%ADD246R,0.43500X0.00250*%
%ADD247R,0.24490X0.00250*%
%ADD248R,0.43740X0.00250*%
%ADD249R,0.24250X0.00250*%
%ADD250R,0.44000X0.00250*%
%ADD251R,0.44500X0.00250*%
%ADD252R,0.23990X0.00250*%
%ADD253R,0.44760X0.00250*%
%ADD254R,0.23750X0.00250*%
%ADD255R,0.45260X0.00250*%
%ADD256R,0.23490X0.00250*%
%ADD257R,0.45750X0.00250*%
%ADD258R,0.23250X0.00250*%
%ADD259R,0.46010X0.00250*%
%ADD260R,0.46250X0.00250*%
%ADD261R,0.22750X0.00250*%
%ADD262R,0.46510X0.00250*%
%ADD263R,0.22250X0.00250*%
%ADD264R,0.22000X0.00250*%
%ADD265R,0.47260X0.00250*%
%ADD266R,0.47500X0.00250*%
%ADD267R,0.48000X0.00250*%
%ADD268R,0.48240X0.00250*%
%ADD269R,0.48500X0.00250*%
%ADD270R,0.49000X0.00250*%
%ADD271R,0.49250X0.00250*%
%ADD272R,0.49750X0.00250*%
%ADD273R,0.50250X0.00250*%
%ADD274R,0.19750X0.00250*%
%ADD275R,0.50500X0.00250*%
%ADD276R,0.19510X0.00250*%
%ADD277R,0.50750X0.00250*%
%ADD278R,0.51250X0.00250*%
%ADD279R,0.51510X0.00250*%
%ADD280R,0.19010X0.00250*%
%ADD281R,0.51750X0.00250*%
%ADD282R,0.52250X0.00250*%
%ADD283R,0.18510X0.00250*%
%ADD284R,0.52490X0.00250*%
%ADD285R,0.53010X0.00250*%
%ADD286R,0.53250X0.00250*%
%ADD287R,0.53510X0.00250*%
%ADD288R,0.54000X0.00250*%
%ADD289R,0.17000X0.00250*%
%ADD290R,0.54260X0.00250*%
%ADD291R,0.54750X0.00250*%
%ADD292R,0.16760X0.00250*%
%ADD293R,0.55010X0.00250*%
%ADD294R,0.16500X0.00250*%
%ADD295R,0.55250X0.00250*%
%ADD296R,0.55510X0.00250*%
%ADD297R,0.55750X0.00250*%
%ADD298R,0.56010X0.00250*%
%ADD299R,0.15760X0.00250*%
%ADD300R,0.56490X0.00250*%
%ADD301R,0.15260X0.00250*%
%ADD302R,0.15010X0.00250*%
%ADD303R,0.57010X0.00250*%
%ADD304R,0.57250X0.00250*%
%ADD305R,0.14760X0.00250*%
%ADD306R,0.57500X0.00250*%
%ADD307R,0.14510X0.00250*%
%ADD308R,0.58000X0.00250*%
%ADD309R,0.14260X0.00250*%
%ADD310R,0.58250X0.00250*%
%ADD311R,0.58750X0.00250*%
%ADD312R,0.59000X0.00250*%
%ADD313R,0.13510X0.00250*%
%ADD314R,0.59500X0.00250*%
%ADD315R,0.59740X0.00250*%
%ADD316R,0.60250X0.00250*%
%ADD317R,0.13010X0.00250*%
%ADD318R,0.60490X0.00250*%
%ADD319R,0.60750X0.00250*%
%ADD320R,0.12750X0.00250*%
%ADD321R,0.61010X0.00250*%
%ADD322R,0.61250X0.00250*%
%ADD323R,0.12250X0.00250*%
%ADD324R,0.61760X0.00250*%
%ADD325R,0.62000X0.00250*%
%ADD326R,0.12010X0.00250*%
%ADD327R,0.62240X0.00250*%
%ADD328R,0.62500X0.00250*%
%ADD329R,0.62990X0.00250*%
%ADD330R,0.11260X0.00250*%
%ADD331R,0.63250X0.00250*%
%ADD332R,0.63750X0.00250*%
%ADD333R,0.64260X0.00250*%
%ADD334R,0.10500X0.00250*%
%ADD335R,0.64500X0.00250*%
%ADD336R,0.65000X0.00250*%
%ADD337R,0.10260X0.00250*%
%ADD338R,0.65490X0.00250*%
%ADD339R,0.65750X0.00250*%
%ADD340R,0.09260X0.00250*%
%ADD341R,0.66250X0.00250*%
%ADD342R,0.66510X0.00250*%
%ADD343R,0.09010X0.00250*%
%ADD344R,0.67000X0.00250*%
%ADD345R,0.08760X0.00250*%
%ADD346R,0.67250X0.00250*%
%ADD347R,0.67490X0.00250*%
%ADD348R,0.67990X0.00250*%
%ADD349R,0.08260X0.00250*%
%ADD350R,0.68240X0.00250*%
%ADD351R,0.68500X0.00250*%
%ADD352R,0.07760X0.00250*%
%ADD353R,0.68750X0.00250*%
%ADD354R,0.69250X0.00250*%
%ADD355R,0.69500X0.00250*%
%ADD356R,0.07260X0.00250*%
%ADD357R,0.69750X0.00250*%
%ADD358R,0.70000X0.00250*%
%ADD359R,0.70500X0.00250*%
%ADD360R,0.06760X0.00250*%
%ADD361R,0.70760X0.00250*%
%ADD362R,0.71000X0.00250*%
%ADD363R,0.06500X0.00250*%
%ADD364R,0.71510X0.00250*%
%ADD365R,0.72000X0.00250*%
%ADD366R,0.06000X0.00250*%
%ADD367R,0.72500X0.00250*%
%ADD368R,0.73000X0.00250*%
%ADD369R,0.73260X0.00250*%
%ADD370R,0.07490X0.00250*%
%ADD371R,0.73510X0.00250*%
%ADD372R,0.07990X0.00250*%
%ADD373R,0.74000X0.00250*%
%ADD374R,0.08490X0.00250*%
%ADD375R,0.74260X0.00250*%
%ADD376R,0.74500X0.00250*%
%ADD377R,0.09490X0.00250*%
%ADD378R,0.74990X0.00250*%
%ADD379R,0.75250X0.00250*%
%ADD380R,0.75510X0.00250*%
%ADD381R,0.76000X0.00250*%
%ADD382R,0.11510X0.00250*%
%ADD383R,0.76500X0.00250*%
%ADD384R,0.76990X0.00250*%
%ADD385R,0.77510X0.00250*%
%ADD386R,0.77760X0.00250*%
%ADD387R,0.78240X0.00250*%
%ADD388R,0.78500X0.00250*%
%ADD389R,0.78750X0.00250*%
%ADD390R,0.79250X0.00250*%
%ADD391R,0.79500X0.00250*%
%ADD392R,0.79750X0.00250*%
%ADD393R,0.80250X0.00250*%
%ADD394R,0.80490X0.00250*%
%ADD395R,0.18260X0.00250*%
%ADD396R,0.81000X0.00250*%
%ADD397R,0.81250X0.00250*%
%ADD398R,0.81500X0.00250*%
%ADD399R,0.81750X0.00250*%
%ADD400R,0.82240X0.00250*%
%ADD401R,0.20760X0.00250*%
%ADD402R,0.82760X0.00250*%
%ADD403R,0.83010X0.00250*%
%ADD404R,0.83260X0.00250*%
%ADD405R,0.83500X0.00250*%
%ADD406R,0.84000X0.00250*%
%ADD407R,0.84250X0.00250*%
%ADD408R,0.23510X0.00250*%
%ADD409R,0.84510X0.00250*%
%ADD410R,0.24000X0.00250*%
%ADD411R,0.84760X0.00250*%
%ADD412R,0.85240X0.00250*%
%ADD413R,0.85750X0.00250*%
%ADD414R,0.86010X0.00250*%
%ADD415R,0.86500X0.00250*%
%ADD416R,0.86740X0.00250*%
%ADD417R,0.87250X0.00250*%
%ADD418R,0.87760X0.00250*%
%ADD419R,0.88240X0.00250*%
%ADD420R,0.88490X0.00250*%
%ADD421R,0.89010X0.00250*%
%ADD422R,0.89260X0.00250*%
%ADD423R,0.89740X0.00250*%
%ADD424R,0.89990X0.00250*%
%ADD425R,0.90510X0.00250*%
%ADD426R,0.91010X0.00250*%
%ADD427R,0.21740X0.00250*%
%ADD428R,0.91490X0.00250*%
%ADD429R,0.91750X0.00250*%
%ADD430R,0.92510X0.00250*%
%ADD431R,0.92750X0.00250*%
%ADD432R,0.93250X0.00250*%
%ADD433R,0.93750X0.00250*%
%ADD434R,0.94240X0.00250*%
%ADD435R,0.94750X0.00250*%
%ADD436R,0.95250X0.00250*%
%ADD437R,0.20260X0.00250*%
%ADD438R,0.95740X0.00250*%
%ADD439R,0.96250X0.00250*%
%ADD440R,0.20010X0.00250*%
%ADD441R,0.96740X0.00250*%
%ADD442R,0.97240X0.00250*%
%ADD443R,0.97750X0.00250*%
%ADD444R,0.98490X0.00250*%
%ADD445R,0.99000X0.00250*%
%ADD446R,0.18760X0.00250*%
%ADD447R,0.99490X0.00250*%
%ADD448R,1.00250X0.00250*%
%ADD449R,1.00740X0.00250*%
%ADD450R,1.01500X0.00250*%
%ADD451R,1.03000X0.00250*%
%ADD452R,1.03490X0.00250*%
%ADD453R,1.04490X0.00250*%
%ADD454R,1.05250X0.00250*%
%ADD455R,1.06000X0.00250*%
%ADD456R,1.06990X0.00250*%
%ADD457R,1.07990X0.00250*%
%ADD458R,1.09240X0.00250*%
%ADD459R,1.10490X0.00250*%
%ADD460R,0.16250X0.00250*%
%ADD461R,1.12250X0.00250*%
%ADD462R,0.01010X0.00250*%
%ADD463R,1.14250X0.00250*%
%ADD464R,1.24750X0.00250*%
%ADD465R,0.15750X0.00250*%
%ADD466R,1.25010X0.00250*%
%ADD467R,1.25000X0.00250*%
%ADD468R,0.14010X0.00250*%
%ADD469R,1.25250X0.00250*%
%ADD470R,1.25260X0.00250*%
%ADD471R,0.12240X0.00250*%
%ADD472R,0.11990X0.00250*%
%ADD473R,1.25240X0.00250*%
%ADD474R,1.25500X0.00250*%
%ADD475R,0.10240X0.00250*%
%ADD476R,0.09740X0.00250*%
%ADD477R,1.25490X0.00250*%
%ADD478R,0.09240X0.00250*%
%ADD479R,1.25740X0.00250*%
%ADD480R,0.08740X0.00250*%
%ADD481R,1.25750X0.00250*%
%ADD482R,0.08240X0.00250*%
%ADD483R,0.08000X0.00250*%
%ADD484R,1.26000X0.00250*%
%ADD485R,0.47510X0.00250*%
%ADD486R,0.46500X0.00250*%
%ADD487R,0.71240X0.00250*%
%ADD488R,0.70740X0.00250*%
%ADD489R,0.70250X0.00250*%
%ADD490R,0.44010X0.00250*%
%ADD491R,0.69000X0.00250*%
%ADD492R,0.43250X0.00250*%
%ADD493R,0.68740X0.00250*%
%ADD494R,0.42760X0.00250*%
%ADD495R,0.68250X0.00250*%
%ADD496R,0.42500X0.00250*%
%ADD497R,0.42250X0.00250*%
%ADD498R,0.67750X0.00250*%
%ADD499R,0.41760X0.00250*%
%ADD500R,0.67500X0.00250*%
%ADD501R,0.41240X0.00250*%
%ADD502R,0.05510X0.00250*%
%ADD503R,0.05260X0.00250*%
%ADD504R,0.67240X0.00250*%
%ADD505R,0.66750X0.00250*%
%ADD506R,0.05010X0.00250*%
%ADD507R,0.66490X0.00250*%
%ADD508R,0.04760X0.00250*%
%ADD509R,0.66240X0.00250*%
%ADD510R,0.39500X0.00250*%
%ADD511R,0.04510X0.00250*%
%ADD512R,0.66000X0.00250*%
%ADD513R,0.39240X0.00250*%
%ADD514R,0.01990X0.00250*%
%ADD515R,0.38750X0.00250*%
%ADD516R,0.04260X0.00250*%
%ADD517R,0.65740X0.00250*%
%ADD518R,0.38500X0.00250*%
%ADD519R,0.65250X0.00250*%
%ADD520R,0.38260X0.00250*%
%ADD521R,0.65260X0.00250*%
%ADD522R,0.38000X0.00250*%
%ADD523R,0.04750X0.00250*%
%ADD524R,0.64750X0.00250*%
%ADD525R,0.37500X0.00250*%
%ADD526R,0.64760X0.00250*%
%ADD527R,0.09750X0.00250*%
%ADD528R,0.37260X0.00250*%
%ADD529R,0.64510X0.00250*%
%ADD530R,0.10510X0.00250*%
%ADD531R,0.37000X0.00250*%
%ADD532R,0.11250X0.00250*%
%ADD533R,0.05760X0.00250*%
%ADD534R,0.11750X0.00250*%
%ADD535R,0.36750X0.00250*%
%ADD536R,0.64250X0.00250*%
%ADD537R,0.64010X0.00250*%
%ADD538R,0.12740X0.00250*%
%ADD539R,0.36010X0.00250*%
%ADD540R,0.63760X0.00250*%
%ADD541R,0.63510X0.00250*%
%ADD542R,0.35760X0.00250*%
%ADD543R,0.07000X0.00250*%
%ADD544R,0.63500X0.00250*%
%ADD545R,0.15240X0.00250*%
%ADD546R,0.63010X0.00250*%
%ADD547R,0.35010X0.00250*%
%ADD548R,0.34760X0.00250*%
%ADD549R,0.08010X0.00250*%
%ADD550R,0.62750X0.00250*%
%ADD551R,0.17490X0.00250*%
%ADD552R,0.34250X0.00250*%
%ADD553R,0.31760X0.00250*%
%ADD554R,0.34010X0.00250*%
%ADD555R,0.09000X0.00250*%
%ADD556R,0.26010X0.00250*%
%ADD557R,0.29760X0.00250*%
%ADD558R,0.18990X0.00250*%
%ADD559R,0.33760X0.00250*%
%ADD560R,0.09500X0.00250*%
%ADD561R,0.29510X0.00250*%
%ADD562R,0.29010X0.00250*%
%ADD563R,0.28510X0.00250*%
%ADD564R,0.28010X0.00250*%
%ADD565R,0.22500X0.00250*%
%ADD566R,0.20990X0.00250*%
%ADD567R,0.27510X0.00250*%
%ADD568R,0.27010X0.00250*%
%ADD569R,0.20740X0.00250*%
%ADD570R,0.22010X0.00250*%
%ADD571R,0.26750X0.00250*%
%ADD572R,0.22510X0.00250*%
%ADD573R,0.26260X0.00250*%
%ADD574R,0.25760X0.00250*%
%ADD575R,0.24260X0.00250*%
%ADD576R,0.31500X0.00250*%
%ADD577R,0.24990X0.00250*%
%ADD578R,0.13990X0.00250*%
%ADD579R,0.30760X0.00250*%
%ADD580R,0.14240X0.00250*%
%ADD581R,0.14490X0.00250*%
%ADD582R,0.24740X0.00250*%
%ADD583R,0.14990X0.00250*%
%ADD584R,0.27250X0.00250*%
%ADD585R,0.01760X0.00250*%
%ADD586R,0.27740X0.00250*%
%ADD587R,0.28000X0.00250*%
%ADD588R,0.20240X0.00250*%
%ADD589R,0.48010X0.00250*%
%ADD590R,0.48260X0.00250*%
%ADD591R,0.17760X0.00250*%
%ADD592R,0.17990X0.00250*%
%ADD593R,0.48750X0.00250*%
%ADD594R,0.48740X0.00250*%
%ADD595R,0.48990X0.00250*%
%ADD596R,0.21240X0.00250*%
%ADD597R,0.49500X0.00250*%
%ADD598R,0.20500X0.00250*%
%ADD599R,0.49990X0.00250*%
%ADD600R,0.18490X0.00250*%
%ADD601R,0.51240X0.00250*%
%ADD602R,0.66500X0.00250*%
%ADD603R,0.25490X0.00250*%
%ADD604R,0.66760X0.00250*%
%ADD605R,0.25990X0.00250*%
%ADD606R,0.67260X0.00250*%
%ADD607R,0.67760X0.00250*%
%ADD608R,0.68000X0.00250*%
%ADD609R,0.68260X0.00250*%
%ADD610R,0.12990X0.00250*%
%ADD611R,0.69010X0.00250*%
%ADD612R,0.69510X0.00250*%
%ADD613R,0.12490X0.00250*%
%ADD614R,0.70010X0.00250*%
%ADD615R,0.70490X0.00250*%
%ADD616R,0.29490X0.00250*%
%ADD617R,0.70750X0.00250*%
%ADD618R,0.70990X0.00250*%
%ADD619R,0.29990X0.00250*%
%ADD620R,0.71740X0.00250*%
%ADD621R,0.10750X0.00250*%
%ADD622R,0.72240X0.00250*%
%ADD623R,0.72490X0.00250*%
%ADD624R,0.73250X0.00250*%
%ADD625R,0.32240X0.00250*%
%ADD626R,0.32740X0.00250*%
%ADD627R,0.74760X0.00250*%
%ADD628R,0.33240X0.00250*%
%ADD629R,0.75260X0.00250*%
%ADD630R,0.76240X0.00250*%
%ADD631R,0.77240X0.00250*%
%ADD632R,1.16990X0.00250*%
%ADD633R,1.17250X0.00250*%
%ADD634R,1.17500X0.00250*%
%ADD635R,1.17740X0.00250*%
%ADD636R,1.17990X0.00250*%
%ADD637R,1.18250X0.00250*%
%ADD638R,0.07750X0.00250*%
%ADD639R,1.18500X0.00250*%
%ADD640R,1.18750X0.00250*%
%ADD641R,1.18990X0.00250*%
%ADD642R,1.19250X0.00250*%
%ADD643R,1.19500X0.00250*%
%ADD644R,1.19750X0.00250*%
%ADD645R,1.19990X0.00250*%
%ADD646R,1.20250X0.00250*%
%ADD647R,0.00990X0.00250*%
%ADD648R,1.20500X0.00250*%
%ADD649R,1.20990X0.00250*%
%ADD650R,1.21250X0.00250*%
%ADD651R,1.21750X0.00250*%
%ADD652R,0.02510X0.00250*%
%ADD653R,1.21990X0.00250*%
%ADD654R,1.22500X0.00250*%
%ADD655R,0.03510X0.00250*%
%ADD656R,1.23240X0.00250*%
%ADD657R,0.04000X0.00250*%
%ADD658R,1.23750X0.00250*%
%ADD659R,1.24240X0.00250*%
%ADD660R,1.35250X0.00250*%
%ADD661R,1.35490X0.00250*%
%ADD662R,0.03500X0.00250*%
%ADD663R,1.35740X0.00250*%
%ADD664R,1.36000X0.00250*%
%ADD665R,0.04500X0.00250*%
%ADD666R,0.04990X0.00250*%
%ADD667R,1.36250X0.00250*%
%ADD668R,0.05240X0.00250*%
%ADD669R,0.05740X0.00250*%
%ADD670R,1.36500X0.00250*%
%ADD671R,0.05990X0.00250*%
%ADD672R,0.06240X0.00250*%
%ADD673R,1.36740X0.00250*%
%ADD674R,0.06490X0.00250*%
%ADD675R,1.36490X0.00250*%
%ADD676R,1.36750X0.00250*%
%ADD677R,1.37000X0.00250*%
%ADD678R,1.37250X0.00250*%
%ADD679R,1.37240X0.00250*%
%ADD680R,1.37500X0.00250*%
%ADD681R,1.37750X0.00250*%
%ADD682R,1.37990X0.00250*%
%ADD683R,1.38250X0.00250*%
%ADD684R,1.38000X0.00250*%
%ADD685R,1.38500X0.00250*%
%ADD686R,0.13740X0.00250*%
%ADD687R,1.38490X0.00250*%
%ADD688R,1.38750X0.00250*%
%ADD689R,1.39000X0.00250*%
%ADD690R,1.38990X0.00250*%
%ADD691R,1.39240X0.00250*%
%ADD692R,1.39250X0.00250*%
%ADD693R,1.39500X0.00250*%
%ADD694R,1.39490X0.00250*%
%ADD695R,1.39740X0.00250*%
%ADD696R,1.39750X0.00250*%
%ADD697R,1.06260X0.00250*%
%ADD698R,1.06250X0.00250*%
%ADD699R,0.79490X0.00250*%
%ADD700R,0.40240X0.00250*%
%ADD701R,0.39740X0.00250*%
%ADD702R,0.28260X0.00250*%
%ADD703R,0.40250X0.00250*%
%ADD704R,0.06010X0.00250*%
%ADD705R,0.06750X0.00250*%
%ADD706R,0.41510X0.00250*%
%ADD707R,0.07740X0.00250*%
%ADD708R,0.28760X0.00250*%
%ADD709R,0.42740X0.00250*%
%ADD710R,0.44250X0.00250*%
%ADD711R,0.44740X0.00250*%
%ADD712R,0.06260X0.00250*%
%ADD713R,0.45250X0.00250*%
%ADD714R,0.46740X0.00250*%
%ADD715R,0.46990X0.00250*%
%ADD716R,0.47240X0.00250*%
%ADD717R,0.47750X0.00250*%
%ADD718R,0.03260X0.00250*%
%ADD719R,0.03010X0.00250*%
%ADD720R,0.02750X0.00250*%
%ADD721R,0.06990X0.00250*%
%ADD722R,0.49490X0.00250*%
%ADD723R,0.01510X0.00250*%
%ADD724R,0.50010X0.00250*%
%ADD725R,0.50260X0.00250*%
%ADD726R,0.50740X0.00250*%
%ADD727R,0.31750X0.00250*%
%ADD728R,0.52260X0.00250*%
%ADD729R,0.52750X0.00250*%
%ADD730R,0.54010X0.00250*%
%ADD731R,0.54500X0.00250*%
%ADD732R,0.55740X0.00250*%
%ADD733R,0.33990X0.00250*%
%ADD734R,0.56250X0.00250*%
%ADD735R,0.34740X0.00250*%
%ADD736R,0.57740X0.00250*%
%ADD737R,0.35240X0.00250*%
%ADD738R,0.58500X0.00250*%
%ADD739R,0.36250X0.00250*%
%ADD740R,0.60760X0.00250*%
%ADD741R,0.23760X0.00250*%
%ADD742R,0.61750X0.00250*%
%ADD743R,0.62740X0.00250*%
%ADD744R,1.08740X0.00250*%
%ADD745R,0.26510X0.00250*%
%ADD746R,1.09250X0.00250*%
%ADD747R,1.10000X0.00250*%
%ADD748R,1.10740X0.00250*%
%ADD749R,1.12000X0.00250*%
%ADD750R,1.47750X0.00250*%
%ADD751R,1.47740X0.00250*%
%ADD752R,1.48000X0.00250*%
%ADD753R,1.48250X0.00250*%
%ADD754R,1.48490X0.00250*%
%ADD755R,1.49000X0.00250*%
%ADD756R,1.49240X0.00250*%
%ADD757R,1.49500X0.00250*%
%ADD758R,1.49760X0.00250*%
%ADD759R,1.50000X0.00250*%
%ADD760R,1.49750X0.00250*%
%ADD761R,1.50260X0.00250*%
%ADD762R,1.50510X0.00250*%
%ADD763R,1.50750X0.00250*%
%ADD764R,1.51010X0.00250*%
%ADD765R,1.51510X0.00250*%
%ADD766R,1.51500X0.00250*%
%ADD767R,1.52010X0.00250*%
%ADD768R,1.52250X0.00250*%
%ADD769R,1.52510X0.00250*%
%ADD770R,1.53010X0.00250*%
%ADD771R,1.53760X0.00250*%
%ADD772R,1.54010X0.00250*%
%ADD773R,1.54510X0.00250*%
%ADD774R,1.54750X0.00250*%
%ADD775R,1.55250X0.00250*%
%ADD776R,1.55760X0.00250*%
%ADD777R,1.56000X0.00250*%
%ADD778R,1.56740X0.00250*%
%ADD779R,1.57000X0.00250*%
%ADD780R,1.57750X0.00250*%
%ADD781R,1.58490X0.00250*%
%ADD782R,1.59000X0.00250*%
%ADD783R,1.59750X0.00250*%
%ADD784R,1.60240X0.00250*%
%ADD785R,1.61250X0.00250*%
%ADD786R,1.61990X0.00250*%
%ADD787R,1.62500X0.00250*%
%ADD788R,1.61740X0.00250*%
%ADD789R,1.61490X0.00250*%
%ADD790R,1.61240X0.00250*%
%ADD791R,1.60990X0.00250*%
%ADD792R,1.60750X0.00250*%
%ADD793R,1.60500X0.00250*%
%ADD794R,1.60250X0.00250*%
%ADD795R,1.60000X0.00250*%
%ADD796R,1.59500X0.00250*%
%ADD797R,0.15490X0.00250*%
%ADD798R,1.58750X0.00250*%
%ADD799R,1.58500X0.00250*%
%ADD800R,1.58240X0.00250*%
%ADD801R,1.58000X0.00250*%
%ADD802R,1.57490X0.00250*%
%ADD803R,1.57240X0.00250*%
%ADD804R,1.56750X0.00250*%
%ADD805R,1.56490X0.00250*%
%ADD806R,1.56250X0.00250*%
%ADD807R,1.56010X0.00250*%
%ADD808R,1.55500X0.00250*%
%ADD809R,1.55010X0.00250*%
%ADD810R,1.54500X0.00250*%
%ADD811R,1.53750X0.00250*%
%ADD812R,1.53490X0.00250*%
%ADD813R,1.53240X0.00250*%
%ADD814R,1.53000X0.00250*%
%ADD815R,1.52750X0.00250*%
%ADD816R,1.52490X0.00250*%
%ADD817R,0.03750X0.00250*%
%ADD818R,0.03240X0.00250*%
%ADD819R,1.51760X0.00250*%
%ADD820R,0.02260X0.00250*%
%ADD821R,1.51250X0.00250*%
%ADD822R,1.51000X0.00250*%
%ADD823R,0.21260X0.00250*%
%ADD824R,0.00500X0.00250*%
%ADD825R,1.50500X0.00250*%
%ADD826R,1.50250X0.00250*%
%ADD827R,1.49990X0.00250*%
%ADD828R,1.49740X0.00250*%
%ADD829R,1.48990X0.00250*%
%ADD830R,1.48740X0.00250*%
%ADD831R,1.47500X0.00250*%
%ADD832R,1.47260X0.00250*%
%ADD833R,1.47010X0.00250*%
%ADD834R,1.46750X0.00250*%
%ADD835R,1.46260X0.00250*%
%ADD836R,1.46000X0.00250*%
%ADD837R,1.45740X0.00250*%
%ADD838R,0.16510X0.00250*%
%ADD839R,1.45250X0.00250*%
%ADD840R,0.01750X0.00250*%
%ADD841R,1.45000X0.00250*%
%ADD842R,1.44740X0.00250*%
%ADD843R,1.44490X0.00250*%
%ADD844R,1.44250X0.00250*%
%ADD845R,1.43750X0.00250*%
%ADD846R,1.43500X0.00250*%
%ADD847R,1.43260X0.00250*%
%ADD848R,1.42750X0.00250*%
%ADD849R,1.42500X0.00250*%
%ADD850R,1.42260X0.00250*%
%ADD851R,1.41750X0.00250*%
%ADD852R,1.41260X0.00250*%
%ADD853R,1.40750X0.00250*%
%ADD854R,1.40490X0.00250*%
%ADD855R,1.40250X0.00250*%
%ADD856R,1.38240X0.00250*%
%ADD857R,1.36240X0.00250*%
%ADD858R,1.35510X0.00250*%
%ADD859R,1.34760X0.00250*%
%ADD860R,1.34500X0.00250*%
%ADD861R,1.33990X0.00250*%
%ADD862R,1.33750X0.00250*%
%ADD863R,1.33250X0.00250*%
%ADD864R,1.33000X0.00250*%
%ADD865R,1.32510X0.00250*%
%ADD866R,1.32250X0.00250*%
%ADD867R,1.31750X0.00250*%
%ADD868R,1.31250X0.00250*%
%ADD869R,1.31010X0.00250*%
%ADD870R,1.30500X0.00250*%
%ADD871R,1.30010X0.00250*%
%ADD872R,1.29750X0.00250*%
%ADD873R,1.29250X0.00250*%
%ADD874R,1.29010X0.00250*%
%ADD875R,1.28500X0.00250*%
%ADD876R,1.28010X0.00250*%
%ADD877R,1.27490X0.00250*%
%ADD878R,1.27250X0.00250*%
%ADD879R,1.26760X0.00250*%
%ADD880R,1.26500X0.00250*%
%ADD881R,1.24250X0.00250*%
%ADD882R,1.23740X0.00250*%
%ADD883R,1.23500X0.00250*%
%ADD884R,1.22990X0.00250*%
%ADD885R,1.22510X0.00250*%
%ADD886R,1.22000X0.00250*%
%ADD887R,1.21500X0.00250*%
%ADD888R,1.20750X0.00250*%
%ADD889R,1.20260X0.00250*%
%ADD890R,1.19740X0.00250*%
%ADD891R,1.18510X0.00250*%
%ADD892R,1.18000X0.00250*%
%ADD893R,1.17510X0.00250*%
%ADD894R,1.16510X0.00250*%
%ADD895R,1.16000X0.00250*%
%ADD896R,1.15510X0.00250*%
%ADD897R,1.14990X0.00250*%
%ADD898R,1.14500X0.00250*%
%ADD899R,1.14000X0.00250*%
%ADD900R,1.13500X0.00250*%
%ADD901R,1.12990X0.00250*%
%ADD902R,1.12500X0.00250*%
%ADD903R,1.11500X0.00250*%
%ADD904R,1.11000X0.00250*%
%ADD905R,1.10500X0.00250*%
%ADD906R,1.10010X0.00250*%
%ADD907R,1.08750X0.00250*%
%ADD908R,1.08250X0.00250*%
%ADD909R,1.07760X0.00250*%
%ADD910R,1.07000X0.00250*%
%ADD911R,1.06490X0.00250*%
%ADD912R,1.06010X0.00250*%
%ADD913R,1.05500X0.00250*%
%ADD914R,1.05010X0.00250*%
%ADD915R,1.04250X0.00250*%
%ADD916R,1.03760X0.00250*%
%ADD917R,1.03010X0.00250*%
%ADD918R,1.02490X0.00250*%
%ADD919R,1.02010X0.00250*%
%ADD920R,1.00000X0.00250*%
%ADD921R,0.98240X0.00250*%
%ADD922R,0.97000X0.00250*%
%ADD923R,0.96500X0.00250*%
%ADD924R,0.95750X0.00250*%
%ADD925R,0.95000X0.00250*%
%ADD926R,0.94500X0.00250*%
%ADD927R,0.00260X0.00250*%
%ADD928R,0.93000X0.00250*%
%ADD929R,0.00750X0.00250*%
%ADD930R,0.01000X0.00250*%
%ADD931R,0.91000X0.00250*%
%ADD932R,0.89750X0.00250*%
%ADD933R,0.89000X0.00250*%
%ADD934R,0.02490X0.00250*%
%ADD935R,0.87500X0.00250*%
%ADD936R,0.02740X0.00250*%
%ADD937R,0.86750X0.00250*%
%ADD938R,0.85990X0.00250*%
%ADD939R,0.85500X0.00250*%
%ADD940R,0.84500X0.00250*%
%ADD941R,0.26250X0.00250*%
%ADD942R,0.26490X0.00250*%
%ADD943R,0.26990X0.00250*%
%ADD944R,0.81490X0.00250*%
%ADD945R,0.80760X0.00250*%
%ADD946R,0.78510X0.00250*%
%ADD947R,0.77750X0.00250*%
%ADD948R,0.76760X0.00250*%
%ADD949R,0.75990X0.00250*%
%ADD950R,0.75000X0.00250*%
%ADD951R,0.74250X0.00250*%
%ADD952R,0.73240X0.00250*%
%ADD953R,0.72260X0.00250*%
%ADD954R,0.71490X0.00250*%
%ADD955R,0.69490X0.00250*%
%ADD956R,0.63490X0.00250*%
%ADD957R,0.61240X0.00250*%
%ADD958R,0.60500X0.00250*%
%ADD959R,0.09510X0.00250*%
%ADD960R,0.56990X0.00250*%
%ADD961R,0.55760X0.00250*%
%ADD962R,0.54490X0.00250*%
%ADD963R,0.53260X0.00250*%
%ADD964R,0.52010X0.00250*%
%ADD965R,0.50490X0.00250*%
%ADD966R,0.49260X0.00250*%
%ADD967R,0.47990X0.00250*%
%ADD968R,0.46490X0.00250*%
%ADD969R,0.45010X0.00250*%
%ADD970R,0.43260X0.00250*%
%ADD971R,0.27490X0.00250*%
%ADD972R,0.01500X0.00250*%
%ADD973R,0.29500X0.00250*%
%ADD974R,0.59010X0.00250*%
%ADD975R,0.58510X0.00250*%
%ADD976R,0.57990X0.00250*%
%ADD977R,0.01260X0.00250*%
%ADD978R,0.25510X0.00250*%
%ADD979R,0.03740X0.00250*%
%ADD980R,0.03490X0.00250*%
%ADD981C,0.06343*%
%ADD982C,0.08200*%
%ADD983C,0.06875*%
%ADD984C,0.08400*%
%ADD985C,0.13398*%
%ADD986C,0.08200*%
%ADD987C,0.08674*%
%ADD988C,0.06800*%
%ADD989OC8,0.06800*%
%ADD990C,0.03600*%
D10*
X0104845Y0055600D03*
X0171595Y0209850D03*
X0216355Y0286600D03*
X0216355Y0286850D03*
D11*
X0153225Y0363350D03*
X0168725Y0185600D03*
X0104975Y0055850D03*
D12*
X0105100Y0056100D03*
X0216100Y0287600D03*
X0216100Y0287850D03*
X0153100Y0363100D03*
D13*
X0192845Y0318100D03*
X0171095Y0210600D03*
X0168355Y0185350D03*
X0105105Y0056350D03*
D14*
X0105225Y0056600D03*
X0170975Y0210850D03*
X0192725Y0318350D03*
X0152975Y0362600D03*
D15*
X0163480Y0337350D03*
X0188480Y0345850D03*
X0192470Y0318600D03*
X0215730Y0289600D03*
X0215730Y0289350D03*
X0218720Y0283600D03*
X0115220Y0364100D03*
X0078720Y0351600D03*
X0117470Y0093350D03*
X0105230Y0056850D03*
X0069730Y0073350D03*
D16*
X0105355Y0057100D03*
X0170855Y0211100D03*
X0215605Y0289850D03*
X0192345Y0318850D03*
X0152845Y0362100D03*
D17*
X0191850Y0319600D03*
X0079100Y0351100D03*
X0167600Y0184850D03*
X0105350Y0057350D03*
D18*
X0105470Y0057600D03*
X0070230Y0073850D03*
X0170480Y0211600D03*
X0215480Y0290850D03*
X0162720Y0337850D03*
X0187980Y0345350D03*
X0152730Y0361600D03*
X0071730Y0321600D03*
X0047730Y0293600D03*
X0047730Y0293350D03*
X0046980Y0292350D03*
X0031480Y0256850D03*
X0031480Y0256600D03*
X0031480Y0256350D03*
X0031480Y0256100D03*
D19*
X0031605Y0257100D03*
X0031605Y0257350D03*
X0047855Y0293850D03*
X0047855Y0294100D03*
X0072355Y0322350D03*
X0115355Y0363350D03*
X0162355Y0338100D03*
X0191605Y0320100D03*
X0171855Y0155100D03*
X0116845Y0093600D03*
X0105595Y0057850D03*
D20*
X0105600Y0058100D03*
X0025100Y0213350D03*
X0025100Y0213600D03*
X0025100Y0215600D03*
X0025100Y0215850D03*
X0031600Y0258100D03*
X0031600Y0258350D03*
X0152600Y0361350D03*
X0215100Y0291850D03*
D21*
X0031475Y0258600D03*
X0030475Y0254600D03*
X0024975Y0216100D03*
X0024975Y0213100D03*
X0105725Y0058350D03*
D22*
X0105725Y0058600D03*
X0070725Y0074350D03*
X0152475Y0360850D03*
D23*
X0152350Y0360600D03*
X0214850Y0293100D03*
X0105850Y0058850D03*
D24*
X0105855Y0059100D03*
X0119605Y0172600D03*
X0178605Y0245350D03*
X0178605Y0245600D03*
X0178605Y0245850D03*
X0073855Y0324350D03*
X0073595Y0324100D03*
X0103105Y0339600D03*
X0115605Y0361850D03*
X0048855Y0297100D03*
X0048855Y0296850D03*
X0031595Y0261100D03*
X0031595Y0260850D03*
X0031595Y0260600D03*
X0024355Y0211350D03*
D25*
X0024230Y0211100D03*
X0029480Y0253350D03*
X0048730Y0324600D03*
X0190230Y0322100D03*
X0214470Y0294350D03*
X0214470Y0294100D03*
X0105980Y0059350D03*
D26*
X0106095Y0059600D03*
X0071605Y0075100D03*
X0041855Y0103100D03*
X0044845Y0133850D03*
X0044595Y0134350D03*
X0029855Y0169100D03*
X0029855Y0169350D03*
X0028355Y0175100D03*
X0023855Y0210100D03*
X0031595Y0262350D03*
X0031595Y0262600D03*
X0049355Y0298350D03*
X0049355Y0298600D03*
X0074355Y0325100D03*
X0080345Y0349350D03*
X0115605Y0361350D03*
X0152105Y0359600D03*
X0160355Y0339100D03*
X0186605Y0344100D03*
X0189605Y0323100D03*
X0222105Y0281350D03*
X0178845Y0247100D03*
X0176845Y0243100D03*
D27*
X0119725Y0172850D03*
X0029725Y0168850D03*
X0029725Y0168600D03*
X0115475Y0094350D03*
X0106225Y0059850D03*
X0074725Y0325350D03*
X0080475Y0349100D03*
X0151975Y0359350D03*
D28*
X0115725Y0360850D03*
X0080725Y0348850D03*
X0074975Y0325850D03*
X0168725Y0212850D03*
X0045225Y0132600D03*
X0029725Y0167850D03*
X0029725Y0168100D03*
X0106225Y0060100D03*
D29*
X0106345Y0060350D03*
X0043845Y0134850D03*
X0023595Y0209100D03*
X0023595Y0221100D03*
X0023595Y0221350D03*
X0031595Y0264100D03*
X0049855Y0299850D03*
X0049855Y0300100D03*
X0151855Y0358850D03*
X0186105Y0343600D03*
X0189105Y0323850D03*
X0222855Y0280850D03*
X0178855Y0248350D03*
D30*
X0178980Y0248600D03*
X0178980Y0248850D03*
X0119730Y0173100D03*
X0027480Y0176100D03*
X0027230Y0176350D03*
X0023470Y0208600D03*
X0023470Y0208850D03*
X0023470Y0221600D03*
X0023470Y0221850D03*
X0027980Y0251600D03*
X0031720Y0264350D03*
X0031720Y0264600D03*
X0031720Y0264850D03*
X0043970Y0291350D03*
X0106470Y0060600D03*
D31*
X0106605Y0060850D03*
X0072355Y0075850D03*
X0119595Y0173350D03*
X0023345Y0222850D03*
X0050355Y0301350D03*
X0075855Y0326850D03*
X0115855Y0359850D03*
X0159095Y0339850D03*
X0188345Y0324850D03*
X0213345Y0297850D03*
X0223595Y0280350D03*
X0179105Y0249850D03*
X0179105Y0249600D03*
D32*
X0213470Y0298100D03*
X0151480Y0358100D03*
X0075980Y0327100D03*
X0026480Y0177600D03*
X0106730Y0061100D03*
D33*
X0106725Y0061350D03*
X0042225Y0135850D03*
X0029725Y0165100D03*
X0022725Y0206350D03*
X0022975Y0223850D03*
X0022975Y0224100D03*
X0130475Y0333600D03*
X0151475Y0357850D03*
X0115975Y0359350D03*
X0187975Y0325350D03*
X0213225Y0298850D03*
X0213225Y0298600D03*
D34*
X0158595Y0340100D03*
X0151345Y0357600D03*
X0185355Y0342850D03*
X0179105Y0250850D03*
X0050855Y0303100D03*
X0026105Y0178350D03*
X0114105Y0095100D03*
X0072855Y0076350D03*
X0106855Y0061600D03*
D35*
X0106850Y0061850D03*
X0046350Y0129100D03*
X0159600Y0256100D03*
X0076850Y0328100D03*
D36*
X0081725Y0347350D03*
X0184975Y0342600D03*
X0234975Y0273600D03*
X0046225Y0128850D03*
X0069225Y0103100D03*
X0106975Y0062100D03*
D37*
X0107095Y0062350D03*
X0069605Y0102600D03*
X0022095Y0204600D03*
X0022345Y0226100D03*
X0026105Y0249350D03*
X0031855Y0268600D03*
X0031855Y0268850D03*
X0116105Y0358350D03*
X0151105Y0356850D03*
X0225095Y0279350D03*
X0179355Y0251850D03*
X0159605Y0255850D03*
D38*
X0082100Y0346850D03*
X0151100Y0356600D03*
X0031850Y0269600D03*
X0024850Y0180100D03*
X0046600Y0127850D03*
X0107100Y0062600D03*
D39*
X0107225Y0062850D03*
X0113475Y0095600D03*
X0040725Y0136850D03*
X0024725Y0180350D03*
X0024725Y0180600D03*
X0025475Y0248600D03*
X0031975Y0269850D03*
X0031975Y0270100D03*
X0150975Y0356350D03*
X0184475Y0342100D03*
X0225475Y0279100D03*
X0179225Y0252600D03*
X0159475Y0255600D03*
D40*
X0147220Y0193850D03*
X0147480Y0193100D03*
X0147480Y0192850D03*
X0046970Y0126850D03*
X0046970Y0126600D03*
X0024230Y0181100D03*
X0021970Y0227850D03*
X0021970Y0228100D03*
X0051980Y0305850D03*
X0077980Y0329350D03*
X0078220Y0329600D03*
X0082230Y0346600D03*
X0150980Y0356100D03*
X0156980Y0340850D03*
X0184230Y0341850D03*
X0107230Y0063100D03*
D41*
X0107350Y0063350D03*
X0070350Y0101600D03*
X0029600Y0160850D03*
X0029600Y0161100D03*
X0021850Y0228350D03*
X0085850Y0254100D03*
X0052100Y0306100D03*
X0052100Y0306350D03*
X0082350Y0346350D03*
X0186350Y0327600D03*
X0212100Y0302350D03*
X0212100Y0302100D03*
X0226100Y0278600D03*
X0179350Y0253350D03*
X0179350Y0253100D03*
D42*
X0085850Y0253850D03*
X0032100Y0271600D03*
X0032100Y0271850D03*
X0032100Y0272100D03*
X0078600Y0330100D03*
X0183850Y0341600D03*
X0185850Y0328100D03*
X0070850Y0100850D03*
X0107350Y0063600D03*
D43*
X0107475Y0063850D03*
X0047225Y0125600D03*
X0032225Y0272350D03*
D44*
X0032100Y0272600D03*
X0078850Y0330350D03*
X0211850Y0303350D03*
X0211850Y0303100D03*
X0029600Y0159600D03*
X0071100Y0100600D03*
X0107600Y0064100D03*
D45*
X0107600Y0064350D03*
X0020850Y0200850D03*
X0021350Y0230350D03*
X0021350Y0230600D03*
X0052850Y0308100D03*
D46*
X0021225Y0231100D03*
X0021225Y0230850D03*
X0107725Y0064600D03*
D47*
X0107730Y0064850D03*
X0071980Y0099350D03*
X0071720Y0099600D03*
X0047720Y0123600D03*
X0047720Y0123850D03*
X0038480Y0138350D03*
X0032230Y0274350D03*
X0032230Y0274600D03*
X0053230Y0308850D03*
X0083220Y0345100D03*
X0211230Y0304850D03*
D48*
X0211105Y0305100D03*
X0227855Y0277350D03*
X0150355Y0354100D03*
X0079855Y0331350D03*
X0053105Y0323100D03*
X0032355Y0275100D03*
X0032355Y0274850D03*
X0023105Y0245600D03*
X0021095Y0231850D03*
X0038105Y0138600D03*
X0075105Y0078350D03*
X0107855Y0065100D03*
D49*
X0107730Y0065350D03*
X0107730Y0065600D03*
X0107730Y0065850D03*
X0072230Y0099100D03*
X0029480Y0157100D03*
X0029480Y0157350D03*
X0020970Y0232100D03*
X0020970Y0232350D03*
X0022980Y0245350D03*
X0085730Y0252850D03*
X0053480Y0309600D03*
X0116470Y0355350D03*
X0130730Y0333350D03*
X0155230Y0341600D03*
X0150230Y0353850D03*
X0184730Y0329600D03*
X0211230Y0305350D03*
X0179480Y0255600D03*
X0179480Y0255350D03*
X0159480Y0254100D03*
X0147720Y0189600D03*
D50*
X0085855Y0252600D03*
X0032355Y0275350D03*
X0032355Y0275600D03*
X0053605Y0309850D03*
X0159355Y0253850D03*
X0228355Y0277100D03*
X0211105Y0305600D03*
X0184355Y0329850D03*
X0029605Y0156850D03*
X0111855Y0096850D03*
X0075355Y0078600D03*
X0107605Y0066350D03*
X0107605Y0066100D03*
D51*
X0107480Y0066600D03*
X0107480Y0066850D03*
X0107480Y0067100D03*
X0037730Y0138850D03*
X0029480Y0156600D03*
X0179480Y0255850D03*
X0083480Y0344600D03*
X0053730Y0310100D03*
X0032480Y0276100D03*
X0032480Y0275850D03*
X0150230Y0353600D03*
D52*
X0184105Y0330100D03*
X0080595Y0332100D03*
X0053855Y0310350D03*
X0032355Y0276350D03*
X0022605Y0245100D03*
X0021595Y0185350D03*
X0029605Y0156350D03*
X0029605Y0156100D03*
X0092355Y0184600D03*
X0092355Y0184850D03*
X0072605Y0098600D03*
X0075605Y0078850D03*
X0107355Y0067600D03*
X0107355Y0067350D03*
D53*
X0107350Y0067850D03*
X0107350Y0068100D03*
X0021350Y0185850D03*
X0019850Y0198100D03*
X0020600Y0233850D03*
X0020600Y0234100D03*
X0032600Y0277100D03*
X0038600Y0289100D03*
X0083850Y0344100D03*
X0159350Y0253350D03*
D54*
X0147975Y0188350D03*
X0032475Y0277350D03*
X0019725Y0197850D03*
X0019725Y0197600D03*
X0075975Y0079100D03*
X0107225Y0068850D03*
X0107225Y0068600D03*
X0107225Y0068350D03*
X0182225Y0340100D03*
X0149975Y0353100D03*
D55*
X0149850Y0352850D03*
X0116600Y0354100D03*
X0084100Y0343850D03*
X0032600Y0277850D03*
X0032600Y0277600D03*
X0019600Y0197350D03*
X0021100Y0186100D03*
X0159350Y0253100D03*
X0107100Y0069350D03*
X0107100Y0069100D03*
D56*
X0106975Y0069600D03*
X0106975Y0069850D03*
X0093475Y0185850D03*
X0020975Y0186350D03*
X0019475Y0197100D03*
X0020225Y0235100D03*
X0020225Y0235350D03*
X0054475Y0311850D03*
X0159225Y0252850D03*
D57*
X0119350Y0176850D03*
X0019350Y0196600D03*
X0019350Y0196850D03*
X0032600Y0278100D03*
X0032600Y0278350D03*
X0076100Y0079350D03*
X0106850Y0070600D03*
X0106850Y0070350D03*
X0106850Y0070100D03*
D58*
X0106725Y0070850D03*
X0106725Y0071100D03*
X0119225Y0177100D03*
X0020475Y0187100D03*
X0020225Y0235600D03*
X0020225Y0235850D03*
X0032725Y0278600D03*
X0032725Y0278850D03*
X0054725Y0312350D03*
X0081725Y0333350D03*
D59*
X0054855Y0312600D03*
X0085605Y0251100D03*
X0021355Y0243600D03*
X0019345Y0196350D03*
X0029605Y0153600D03*
X0093855Y0186100D03*
X0230095Y0275850D03*
X0210105Y0308350D03*
X0183105Y0331350D03*
X0149605Y0352100D03*
X0106595Y0071350D03*
D60*
X0106720Y0071600D03*
X0049220Y0119350D03*
X0029480Y0153350D03*
X0019220Y0196100D03*
X0091980Y0182350D03*
X0094220Y0186350D03*
X0159230Y0252100D03*
X0209980Y0308600D03*
D61*
X0082350Y0333850D03*
X0054850Y0312850D03*
X0032850Y0279850D03*
X0020850Y0243100D03*
X0019850Y0237100D03*
X0019850Y0236850D03*
X0019100Y0195850D03*
X0019100Y0195600D03*
X0020100Y0187850D03*
X0106600Y0072350D03*
X0106600Y0072100D03*
X0106600Y0071850D03*
D62*
X0068850Y0072600D03*
X0115100Y0365350D03*
D63*
X0054980Y0313100D03*
X0159230Y0251850D03*
X0159230Y0251600D03*
X0029480Y0152600D03*
X0019720Y0188350D03*
X0076730Y0079850D03*
X0106470Y0072850D03*
X0106470Y0072600D03*
D64*
X0118100Y0093100D03*
X0069100Y0072850D03*
X0171350Y0210100D03*
X0115100Y0365100D03*
D65*
X0153100Y0362850D03*
X0078600Y0351850D03*
X0069350Y0073100D03*
D66*
X0106350Y0073100D03*
X0106350Y0073350D03*
X0106350Y0073600D03*
X0018850Y0195100D03*
X0032850Y0280350D03*
X0032850Y0280600D03*
X0055100Y0313350D03*
X0082600Y0334100D03*
X0153100Y0342350D03*
X0182350Y0332100D03*
D67*
X0188230Y0345600D03*
X0215480Y0290350D03*
X0215480Y0290100D03*
X0238480Y0272600D03*
X0047480Y0292850D03*
X0047230Y0325100D03*
X0069980Y0073600D03*
D68*
X0076980Y0080100D03*
X0106220Y0074100D03*
X0106220Y0073850D03*
X0148720Y0186600D03*
X0179480Y0258100D03*
X0231220Y0274600D03*
X0231220Y0274850D03*
X0209480Y0309600D03*
X0209480Y0309850D03*
X0116730Y0352350D03*
X0055230Y0322350D03*
X0055230Y0313600D03*
X0019720Y0237850D03*
D69*
X0086225Y0256100D03*
X0046225Y0292100D03*
X0119725Y0172350D03*
X0070475Y0074100D03*
D70*
X0077230Y0080350D03*
X0106230Y0074600D03*
X0106230Y0074350D03*
X0018470Y0194100D03*
X0020220Y0242100D03*
X0032980Y0281350D03*
X0032980Y0281600D03*
X0055480Y0314100D03*
X0111730Y0342850D03*
X0149230Y0350850D03*
X0180970Y0338850D03*
X0179480Y0258350D03*
D71*
X0190480Y0321850D03*
X0187230Y0344600D03*
X0161230Y0338600D03*
X0152220Y0360350D03*
X0115480Y0362100D03*
X0048730Y0296600D03*
X0031470Y0260350D03*
X0024480Y0211850D03*
X0024480Y0211600D03*
X0070980Y0074600D03*
D72*
X0071355Y0074850D03*
X0029855Y0169600D03*
X0029855Y0169850D03*
X0029855Y0170100D03*
X0024105Y0210600D03*
X0024105Y0210850D03*
X0086105Y0255850D03*
X0031595Y0261350D03*
X0031595Y0261600D03*
X0031595Y0261850D03*
X0049105Y0297850D03*
X0074105Y0324600D03*
X0103605Y0339850D03*
X0080095Y0349600D03*
X0214345Y0294600D03*
D73*
X0209350Y0310350D03*
X0116850Y0351600D03*
X0029600Y0151350D03*
X0029600Y0151100D03*
X0106100Y0075350D03*
X0106100Y0075100D03*
X0106100Y0074850D03*
D74*
X0071850Y0075350D03*
X0023850Y0220350D03*
X0023850Y0220600D03*
X0214100Y0295600D03*
X0214100Y0295850D03*
D75*
X0213850Y0296350D03*
X0213850Y0296600D03*
X0104600Y0340350D03*
X0072100Y0075600D03*
D76*
X0077480Y0080600D03*
X0105980Y0075850D03*
X0105980Y0075600D03*
X0018970Y0189600D03*
X0159230Y0250350D03*
X0159230Y0250600D03*
X0209230Y0310600D03*
X0149220Y0350600D03*
X0083480Y0334850D03*
X0055730Y0314600D03*
D77*
X0050605Y0302350D03*
X0081355Y0347850D03*
X0115855Y0359600D03*
X0185605Y0343100D03*
X0213345Y0298350D03*
X0159605Y0256350D03*
X0086105Y0255100D03*
X0026355Y0177850D03*
X0072605Y0076100D03*
D78*
X0105850Y0076100D03*
X0105850Y0076350D03*
X0029600Y0150600D03*
X0029600Y0150850D03*
X0033100Y0282350D03*
X0033100Y0282600D03*
X0152100Y0342600D03*
D79*
X0187225Y0326350D03*
X0187475Y0326100D03*
X0212725Y0300350D03*
X0212725Y0300100D03*
X0179225Y0251600D03*
X0022475Y0225850D03*
X0022475Y0225600D03*
X0041475Y0136350D03*
X0073225Y0076600D03*
D80*
X0105730Y0076600D03*
X0019220Y0239850D03*
X0019220Y0240100D03*
X0055980Y0322100D03*
X0083730Y0335100D03*
X0116970Y0351100D03*
X0181470Y0333100D03*
X0208980Y0311100D03*
X0159230Y0249850D03*
D81*
X0085975Y0254600D03*
X0186975Y0326600D03*
X0041225Y0136600D03*
X0073475Y0076850D03*
D82*
X0077855Y0080850D03*
X0075605Y0094850D03*
X0050105Y0116600D03*
X0033605Y0141600D03*
X0105855Y0077100D03*
X0105855Y0076850D03*
X0019095Y0240350D03*
X0019345Y0241100D03*
X0035605Y0287850D03*
X0085605Y0248600D03*
X0085605Y0248350D03*
X0159105Y0249600D03*
X0179355Y0259100D03*
X0085605Y0341600D03*
D83*
X0051475Y0323600D03*
X0029475Y0162100D03*
X0073725Y0077100D03*
D84*
X0073975Y0077350D03*
X0029475Y0161350D03*
X0021475Y0202850D03*
X0021475Y0203100D03*
X0186475Y0327350D03*
X0212225Y0301850D03*
D85*
X0085475Y0248100D03*
X0033225Y0283350D03*
X0033225Y0283600D03*
X0119225Y0179350D03*
X0029725Y0149600D03*
X0105725Y0077600D03*
X0105725Y0077350D03*
D86*
X0112730Y0096100D03*
X0074230Y0077600D03*
X0029470Y0159850D03*
X0029470Y0160100D03*
X0023730Y0182100D03*
X0023470Y0182350D03*
X0024480Y0247100D03*
X0052480Y0307100D03*
X0116220Y0356850D03*
X0150720Y0355350D03*
X0156480Y0341100D03*
X0211980Y0302850D03*
X0159480Y0255100D03*
D87*
X0179480Y0254350D03*
X0079230Y0330600D03*
X0052730Y0307850D03*
X0040470Y0289850D03*
X0024230Y0246850D03*
X0023980Y0246600D03*
X0023220Y0182850D03*
X0039230Y0137850D03*
X0071220Y0100350D03*
X0074480Y0077850D03*
D88*
X0075855Y0094600D03*
X0050355Y0116100D03*
X0105605Y0078100D03*
X0105605Y0077850D03*
X0149355Y0185600D03*
X0159095Y0249100D03*
X0179355Y0259350D03*
X0208605Y0311850D03*
X0209095Y0315850D03*
X0180845Y0333600D03*
X0116855Y0350600D03*
X0084355Y0335600D03*
X0085595Y0247850D03*
X0018095Y0191100D03*
D89*
X0022970Y0183350D03*
X0020720Y0200600D03*
X0032230Y0273600D03*
X0032230Y0273850D03*
X0052980Y0308350D03*
X0150480Y0354600D03*
X0155980Y0341350D03*
X0183470Y0341100D03*
X0185230Y0328850D03*
X0179470Y0254850D03*
X0159470Y0254600D03*
X0145970Y0194850D03*
X0147730Y0190600D03*
X0147730Y0190350D03*
X0074730Y0078100D03*
D90*
X0076225Y0094350D03*
X0105475Y0078850D03*
X0105475Y0078600D03*
X0105475Y0078350D03*
X0159225Y0248850D03*
X0085725Y0341350D03*
X0033225Y0284100D03*
X0033225Y0283850D03*
D91*
X0116975Y0350100D03*
X0149475Y0185350D03*
X0119225Y0180100D03*
X0029725Y0148100D03*
X0105475Y0079350D03*
X0105475Y0079100D03*
D92*
X0076350Y0079600D03*
X0020350Y0187350D03*
X0020100Y0236100D03*
X0020100Y0236350D03*
X0032600Y0279100D03*
X0082100Y0333600D03*
X0181850Y0339600D03*
X0148350Y0187350D03*
D93*
X0091355Y0179600D03*
X0032355Y0142350D03*
X0050855Y0114850D03*
X0105345Y0079850D03*
X0105345Y0079600D03*
X0159105Y0247600D03*
X0159105Y0247850D03*
X0056855Y0316600D03*
X0084855Y0336100D03*
X0086095Y0340850D03*
X0180345Y0334100D03*
D94*
X0179225Y0259850D03*
X0085475Y0246350D03*
X0085475Y0246100D03*
X0085475Y0245850D03*
X0105225Y0080600D03*
X0105225Y0080350D03*
X0105225Y0080100D03*
D95*
X0105225Y0080850D03*
X0105225Y0081100D03*
X0179225Y0260100D03*
X0085225Y0336350D03*
D96*
X0056480Y0315850D03*
X0116980Y0350350D03*
X0148980Y0349600D03*
X0208480Y0312350D03*
X0208480Y0312100D03*
X0029720Y0149100D03*
X0029720Y0148850D03*
X0050480Y0115850D03*
X0077980Y0081100D03*
D97*
X0078230Y0081350D03*
X0049480Y0103350D03*
X0050730Y0115100D03*
X0050730Y0115350D03*
X0091480Y0179850D03*
X0085480Y0246600D03*
X0085480Y0246850D03*
X0159230Y0248100D03*
X0056730Y0316350D03*
X0056730Y0321850D03*
X0148730Y0349100D03*
X0179980Y0338100D03*
D98*
X0029850Y0146850D03*
X0029850Y0146600D03*
X0078850Y0081850D03*
X0105100Y0081850D03*
X0105100Y0081600D03*
X0105100Y0081350D03*
D99*
X0078600Y0081600D03*
X0029850Y0147100D03*
X0029850Y0147350D03*
X0180100Y0334350D03*
D100*
X0207730Y0314350D03*
X0179230Y0260350D03*
X0158970Y0245600D03*
X0149980Y0184850D03*
X0078980Y0082100D03*
D101*
X0104975Y0082100D03*
X0104975Y0082350D03*
X0051225Y0113850D03*
X0029975Y0146350D03*
X0085475Y0244350D03*
X0085475Y0244600D03*
X0085475Y0244850D03*
X0085475Y0245100D03*
X0057475Y0317850D03*
X0057475Y0321600D03*
X0085475Y0336600D03*
X0086475Y0340350D03*
X0117225Y0348850D03*
X0148475Y0348100D03*
D102*
X0148350Y0347600D03*
X0050850Y0188850D03*
X0050850Y0188600D03*
X0050850Y0188350D03*
X0050850Y0188100D03*
X0077850Y0092600D03*
X0079350Y0082350D03*
D103*
X0079600Y0082600D03*
X0078100Y0092350D03*
X0030100Y0144850D03*
X0051600Y0185350D03*
X0051600Y0185600D03*
X0179100Y0260850D03*
X0207350Y0315100D03*
X0148100Y0347350D03*
D104*
X0179600Y0334850D03*
X0085850Y0336850D03*
X0085350Y0244100D03*
X0091100Y0179100D03*
X0029850Y0146100D03*
X0104850Y0082600D03*
D105*
X0091975Y0082850D03*
X0091975Y0083100D03*
D106*
X0091345Y0083350D03*
D107*
X0090720Y0083600D03*
X0099980Y0114350D03*
D108*
X0090100Y0083850D03*
D109*
X0089355Y0084100D03*
D110*
X0088855Y0084350D03*
X0147855Y0168600D03*
X0122105Y0251350D03*
X0122105Y0251600D03*
D111*
X0088355Y0084600D03*
D112*
X0087855Y0084850D03*
D113*
X0087475Y0085100D03*
X0148975Y0170350D03*
D114*
X0149475Y0171100D03*
X0122225Y0245350D03*
X0130725Y0330850D03*
X0086975Y0085350D03*
D115*
X0086605Y0085600D03*
X0102355Y0109100D03*
D116*
X0086100Y0085850D03*
D117*
X0085600Y0086100D03*
D118*
X0085345Y0086350D03*
D119*
X0084975Y0086600D03*
D120*
X0084475Y0086850D03*
D121*
X0084220Y0087100D03*
X0056230Y0103600D03*
D122*
X0083850Y0087350D03*
D123*
X0083355Y0087600D03*
X0061105Y0259100D03*
D124*
X0060855Y0258850D03*
X0152355Y0179350D03*
X0152355Y0179100D03*
X0055605Y0104850D03*
X0083105Y0087850D03*
D125*
X0082730Y0088100D03*
X0152730Y0180600D03*
X0060230Y0258100D03*
D126*
X0152980Y0181600D03*
X0152980Y0181350D03*
X0082480Y0088350D03*
D127*
X0082105Y0088600D03*
X0054605Y0106350D03*
X0153355Y0182850D03*
X0153355Y0183100D03*
X0059105Y0256600D03*
D128*
X0058605Y0255850D03*
X0058355Y0255350D03*
X0052605Y0203850D03*
X0081855Y0088850D03*
D129*
X0081605Y0089100D03*
X0105345Y0103850D03*
X0058105Y0254850D03*
D130*
X0081225Y0089350D03*
D131*
X0080845Y0089600D03*
X0105845Y0103350D03*
X0053855Y0107850D03*
X0051855Y0202600D03*
X0056845Y0252100D03*
X0056845Y0252350D03*
X0057105Y0252850D03*
D132*
X0056095Y0250600D03*
X0056095Y0250350D03*
X0056095Y0250100D03*
X0054105Y0241350D03*
X0051605Y0202100D03*
X0051605Y0201850D03*
X0053605Y0108350D03*
X0080595Y0089850D03*
X0089105Y0338850D03*
X0117855Y0344850D03*
D133*
X0178345Y0262100D03*
X0119095Y0185850D03*
X0054105Y0242350D03*
X0054105Y0242600D03*
X0054105Y0242850D03*
X0054105Y0243100D03*
X0054845Y0245850D03*
X0054845Y0246100D03*
X0054845Y0246350D03*
X0055345Y0247850D03*
X0055345Y0248100D03*
X0053355Y0108850D03*
X0080345Y0090100D03*
D134*
X0080100Y0090350D03*
X0054600Y0179600D03*
X0117600Y0345600D03*
D135*
X0117600Y0345850D03*
X0054100Y0180100D03*
X0079850Y0090600D03*
D136*
X0079600Y0090850D03*
X0053600Y0180850D03*
X0177600Y0336600D03*
X0147600Y0345600D03*
D137*
X0147730Y0345850D03*
X0117480Y0346350D03*
X0050730Y0199100D03*
X0050730Y0198850D03*
X0053470Y0181100D03*
X0052730Y0110350D03*
X0079230Y0091100D03*
X0106980Y0101850D03*
D138*
X0078980Y0091350D03*
X0052480Y0110850D03*
X0053220Y0181600D03*
X0117480Y0346850D03*
X0147730Y0346100D03*
D139*
X0087230Y0337850D03*
X0052730Y0182350D03*
X0052230Y0111350D03*
X0078730Y0091600D03*
D140*
X0078480Y0091850D03*
X0029980Y0144100D03*
X0052480Y0183100D03*
X0050480Y0196100D03*
X0050480Y0196350D03*
X0178970Y0261100D03*
X0130730Y0332600D03*
X0147980Y0346850D03*
X0178480Y0335850D03*
X0086730Y0337600D03*
D141*
X0086480Y0337350D03*
X0149730Y0343100D03*
X0050230Y0194600D03*
X0050230Y0194350D03*
X0051730Y0185100D03*
X0051730Y0184850D03*
X0150730Y0184600D03*
X0078230Y0092100D03*
D142*
X0077470Y0092850D03*
X0090970Y0178850D03*
X0085480Y0243100D03*
X0085480Y0243350D03*
X0085480Y0243600D03*
X0085480Y0243850D03*
X0158980Y0244600D03*
X0158980Y0244850D03*
X0207480Y0314850D03*
D143*
X0179100Y0337350D03*
X0159100Y0245350D03*
X0159100Y0245100D03*
X0031350Y0143100D03*
X0077350Y0093100D03*
X0108100Y0100350D03*
D144*
X0108350Y0100100D03*
X0077100Y0093350D03*
X0031600Y0142850D03*
X0033850Y0287100D03*
X0207850Y0313850D03*
X0207850Y0314100D03*
D145*
X0179600Y0337850D03*
X0117100Y0349600D03*
X0119100Y0180600D03*
X0108600Y0099850D03*
X0076850Y0093600D03*
D146*
X0076600Y0093850D03*
X0108850Y0099600D03*
X0033350Y0284850D03*
X0033350Y0285100D03*
X0151100Y0342850D03*
X0208350Y0312850D03*
D147*
X0217345Y0316100D03*
X0191105Y0320850D03*
X0214855Y0292600D03*
X0220605Y0282350D03*
X0115345Y0362600D03*
X0079605Y0350350D03*
X0073095Y0323350D03*
X0072855Y0323100D03*
X0048355Y0295600D03*
X0048355Y0295350D03*
X0031595Y0259100D03*
X0031595Y0258850D03*
X0166855Y0184600D03*
X0116345Y0093850D03*
D148*
X0076475Y0094100D03*
X0085975Y0341100D03*
D149*
X0048975Y0297600D03*
X0048975Y0297350D03*
X0152225Y0360100D03*
X0024475Y0218350D03*
X0024475Y0218100D03*
X0115725Y0094100D03*
D150*
X0114975Y0094600D03*
X0045475Y0131850D03*
X0029725Y0167100D03*
X0029725Y0167350D03*
X0188975Y0324100D03*
X0075225Y0326100D03*
D151*
X0031725Y0266350D03*
X0031725Y0266100D03*
X0027225Y0250600D03*
X0026725Y0177350D03*
X0045725Y0130600D03*
X0114475Y0094850D03*
D152*
X0075475Y0095100D03*
X0091725Y0180600D03*
X0018475Y0190350D03*
X0018225Y0192850D03*
X0018225Y0193100D03*
X0019475Y0241350D03*
X0085475Y0341850D03*
D153*
X0085225Y0342100D03*
X0180725Y0338600D03*
X0181725Y0332850D03*
X0179475Y0258600D03*
X0119225Y0178600D03*
X0018475Y0193600D03*
X0018475Y0193850D03*
X0019475Y0239100D03*
X0019475Y0239350D03*
X0019725Y0241600D03*
X0075225Y0095350D03*
D154*
X0069480Y0102850D03*
X0068980Y0103350D03*
X0113730Y0095350D03*
X0025480Y0179100D03*
X0022220Y0204850D03*
X0022220Y0205100D03*
X0051230Y0304100D03*
X0115980Y0358600D03*
X0151230Y0357100D03*
X0224720Y0279600D03*
D155*
X0091855Y0181100D03*
X0034355Y0141100D03*
X0049845Y0117600D03*
X0075105Y0095600D03*
X0085605Y0249350D03*
X0033105Y0281850D03*
D156*
X0085595Y0249850D03*
X0018595Y0194350D03*
X0034605Y0140850D03*
X0049595Y0118100D03*
X0074855Y0095850D03*
X0091845Y0181350D03*
X0091845Y0181600D03*
X0119345Y0178100D03*
X0231095Y0275100D03*
X0209355Y0310100D03*
X0182095Y0332350D03*
X0149355Y0351100D03*
X0116855Y0352100D03*
X0083105Y0334600D03*
D157*
X0107600Y0341600D03*
X0116100Y0357350D03*
X0032100Y0271350D03*
X0032100Y0271100D03*
X0025100Y0248100D03*
X0113100Y0095850D03*
D158*
X0074605Y0096100D03*
X0074345Y0096350D03*
X0049345Y0118600D03*
X0049345Y0118850D03*
X0029605Y0152350D03*
X0019595Y0188600D03*
X0019845Y0237350D03*
X0019845Y0237600D03*
X0085605Y0250350D03*
X0091855Y0181850D03*
X0209605Y0309350D03*
D159*
X0227105Y0277850D03*
X0150605Y0354850D03*
X0116355Y0356100D03*
X0116355Y0356350D03*
X0079355Y0330850D03*
X0032105Y0273350D03*
X0147605Y0190850D03*
X0119355Y0175350D03*
X0047595Y0124600D03*
X0038855Y0138100D03*
X0023095Y0183100D03*
X0112355Y0096350D03*
D160*
X0074095Y0096600D03*
X0029605Y0152850D03*
X0029605Y0153100D03*
X0119355Y0177600D03*
X0209855Y0308850D03*
X0182595Y0331850D03*
X0181595Y0339350D03*
X0149605Y0351850D03*
X0116605Y0352850D03*
D161*
X0116355Y0355850D03*
X0079605Y0331100D03*
X0032355Y0274100D03*
X0085855Y0253100D03*
X0020595Y0200350D03*
X0020595Y0200100D03*
X0119355Y0175600D03*
X0112105Y0096600D03*
X0211355Y0304600D03*
X0185105Y0329100D03*
D162*
X0116725Y0353100D03*
X0037475Y0288600D03*
X0021225Y0243350D03*
X0073975Y0096850D03*
D163*
X0073725Y0097100D03*
X0036225Y0139850D03*
X0091975Y0182850D03*
X0085725Y0251350D03*
X0116725Y0353350D03*
X0116725Y0353600D03*
X0149725Y0352350D03*
D164*
X0210725Y0306600D03*
X0210725Y0306350D03*
X0080725Y0332350D03*
X0147975Y0188600D03*
X0092225Y0184350D03*
X0092225Y0184100D03*
X0111475Y0097100D03*
D165*
X0110855Y0097600D03*
X0073595Y0097350D03*
X0029605Y0154100D03*
X0029605Y0154350D03*
X0020845Y0186600D03*
X0020595Y0186850D03*
X0092105Y0183100D03*
X0021605Y0243850D03*
X0054605Y0312100D03*
X0081605Y0333100D03*
X0153845Y0342100D03*
X0183355Y0331100D03*
X0229845Y0276100D03*
X0179605Y0257100D03*
X0159355Y0252600D03*
D166*
X0210480Y0307100D03*
X0054230Y0311100D03*
X0054230Y0311350D03*
X0020470Y0234600D03*
X0020470Y0234350D03*
X0029480Y0155350D03*
X0029480Y0155100D03*
X0048470Y0121350D03*
X0048470Y0121100D03*
X0072980Y0098100D03*
X0111230Y0097350D03*
D167*
X0073350Y0097600D03*
X0048600Y0120850D03*
X0036600Y0139600D03*
X0092100Y0183350D03*
X0092100Y0183600D03*
X0119350Y0176600D03*
X0021850Y0244350D03*
D168*
X0085725Y0251850D03*
X0179475Y0256600D03*
X0183725Y0330600D03*
X0036975Y0139350D03*
X0073225Y0097850D03*
D169*
X0049100Y0119600D03*
X0035850Y0140100D03*
X0092100Y0182600D03*
X0159350Y0252350D03*
X0084350Y0343350D03*
X0110600Y0097850D03*
D170*
X0110225Y0098100D03*
X0049225Y0119100D03*
X0035475Y0140350D03*
X0091975Y0182100D03*
X0085725Y0250600D03*
X0179475Y0257850D03*
X0230475Y0275600D03*
X0209725Y0309100D03*
X0149475Y0351600D03*
X0084725Y0342850D03*
D171*
X0109720Y0342350D03*
X0116480Y0354600D03*
X0053980Y0310600D03*
X0179470Y0256350D03*
X0183980Y0330350D03*
X0019970Y0198600D03*
X0019970Y0198350D03*
X0021470Y0185600D03*
X0029480Y0155850D03*
X0072730Y0098350D03*
D172*
X0110100Y0098350D03*
X0019350Y0188850D03*
X0019600Y0238100D03*
X0019600Y0238350D03*
X0020350Y0242350D03*
X0032850Y0281100D03*
X0055350Y0313850D03*
X0082850Y0334350D03*
D173*
X0055600Y0314350D03*
X0019850Y0241850D03*
X0019100Y0189350D03*
X0109850Y0098600D03*
X0181850Y0332600D03*
D174*
X0182850Y0340600D03*
X0039100Y0289350D03*
X0020850Y0232850D03*
X0020850Y0232600D03*
X0022100Y0184600D03*
X0119350Y0175850D03*
X0072350Y0098850D03*
D175*
X0109600Y0098850D03*
X0018600Y0190100D03*
X0018350Y0193350D03*
X0019350Y0239600D03*
X0055850Y0314850D03*
D176*
X0148975Y0349850D03*
X0159225Y0249350D03*
X0018225Y0190850D03*
X0050225Y0116350D03*
X0109225Y0099100D03*
D177*
X0109105Y0099350D03*
X0050605Y0115600D03*
X0032855Y0142100D03*
X0029845Y0148350D03*
X0029845Y0148600D03*
X0085605Y0247100D03*
X0085605Y0247350D03*
X0035105Y0287600D03*
X0084605Y0335850D03*
X0179355Y0259600D03*
X0159105Y0248600D03*
X0159105Y0248350D03*
D178*
X0083100Y0345350D03*
X0023600Y0246100D03*
X0029600Y0158350D03*
X0029600Y0158100D03*
X0071600Y0099850D03*
D179*
X0071350Y0100100D03*
X0029600Y0158850D03*
X0029600Y0159100D03*
X0085850Y0253350D03*
X0179350Y0254600D03*
X0211600Y0303850D03*
X0082850Y0345600D03*
D180*
X0119225Y0182100D03*
X0107975Y0100600D03*
D181*
X0107725Y0100850D03*
X0178725Y0335600D03*
X0178475Y0336850D03*
D182*
X0150730Y0355600D03*
X0078470Y0329850D03*
X0052230Y0306600D03*
X0040970Y0290100D03*
X0024730Y0247600D03*
X0023980Y0181600D03*
X0119480Y0174850D03*
X0070480Y0101350D03*
X0070720Y0101100D03*
D183*
X0107475Y0101100D03*
D184*
X0107355Y0101350D03*
X0090605Y0178350D03*
X0119105Y0183100D03*
X0050355Y0196600D03*
X0050355Y0196850D03*
X0058605Y0319850D03*
X0117345Y0347350D03*
D185*
X0058855Y0320350D03*
X0178855Y0261350D03*
X0050605Y0198100D03*
X0050605Y0197850D03*
X0107105Y0101600D03*
D186*
X0070100Y0101850D03*
X0029600Y0161600D03*
X0029600Y0161850D03*
X0021600Y0203350D03*
X0041600Y0290350D03*
X0051850Y0305600D03*
X0116100Y0357600D03*
X0116100Y0357850D03*
X0212350Y0301600D03*
X0147350Y0193600D03*
X0147350Y0193350D03*
D187*
X0085980Y0254350D03*
X0022220Y0227100D03*
X0021720Y0203600D03*
X0046720Y0127600D03*
X0046720Y0127350D03*
X0069980Y0102100D03*
X0212470Y0301100D03*
X0212470Y0301350D03*
X0077730Y0329100D03*
X0051730Y0305350D03*
D188*
X0050980Y0199850D03*
X0052980Y0109850D03*
X0106730Y0102100D03*
D189*
X0069850Y0102350D03*
X0029600Y0162350D03*
X0029600Y0162600D03*
X0051600Y0304850D03*
X0051600Y0305100D03*
X0077600Y0328850D03*
X0106850Y0341350D03*
X0116100Y0358100D03*
X0186850Y0326850D03*
D190*
X0051230Y0200850D03*
X0051230Y0200600D03*
X0089730Y0177850D03*
X0053230Y0109350D03*
X0106480Y0102350D03*
D191*
X0106355Y0102600D03*
D192*
X0106225Y0102850D03*
X0051475Y0201600D03*
X0117725Y0345100D03*
D193*
X0051725Y0202350D03*
X0105975Y0103100D03*
D194*
X0105595Y0103600D03*
X0052105Y0203100D03*
X0057355Y0253350D03*
X0057355Y0253600D03*
D195*
X0130730Y0331600D03*
X0151730Y0177350D03*
X0151730Y0177100D03*
X0103980Y0106100D03*
X0055980Y0103850D03*
D196*
X0055850Y0104100D03*
X0061600Y0259600D03*
D197*
X0058480Y0255600D03*
X0058230Y0255100D03*
X0052480Y0203600D03*
X0056220Y0178100D03*
X0054480Y0106850D03*
X0105470Y0104100D03*
X0153730Y0184350D03*
D198*
X0054230Y0205600D03*
X0055730Y0104350D03*
D199*
X0105220Y0104350D03*
X0153480Y0183350D03*
X0153480Y0183600D03*
X0052730Y0204100D03*
X0058730Y0256100D03*
X0058980Y0256350D03*
X0177480Y0262600D03*
D200*
X0055600Y0104600D03*
D201*
X0105100Y0104600D03*
D202*
X0104850Y0104850D03*
X0053100Y0204600D03*
D203*
X0163475Y0242600D03*
X0163475Y0242850D03*
X0055475Y0105100D03*
D204*
X0104850Y0105100D03*
D205*
X0055355Y0105350D03*
D206*
X0104600Y0105350D03*
X0152600Y0180100D03*
X0152600Y0180350D03*
D207*
X0152855Y0180850D03*
X0152855Y0181100D03*
X0055105Y0105600D03*
X0059855Y0257600D03*
X0130595Y0331850D03*
D208*
X0163220Y0242100D03*
X0152480Y0179850D03*
X0152480Y0179600D03*
X0104480Y0105600D03*
D209*
X0054975Y0105850D03*
D210*
X0104230Y0105850D03*
X0152230Y0178850D03*
D211*
X0055225Y0240850D03*
X0059475Y0257100D03*
X0054725Y0106100D03*
D212*
X0103855Y0106350D03*
D213*
X0054475Y0106600D03*
D214*
X0103605Y0106600D03*
X0151355Y0176100D03*
X0054605Y0205850D03*
D215*
X0062480Y0260350D03*
X0151230Y0175850D03*
X0103480Y0106850D03*
D216*
X0054350Y0107100D03*
X0089850Y0339350D03*
D217*
X0130600Y0331350D03*
X0103350Y0107100D03*
D218*
X0054230Y0107350D03*
X0057730Y0254100D03*
X0057730Y0254350D03*
D219*
X0150980Y0174850D03*
X0103220Y0107350D03*
D220*
X0054100Y0107600D03*
X0057600Y0253850D03*
D221*
X0103100Y0107600D03*
D222*
X0102975Y0107850D03*
X0063725Y0261100D03*
D223*
X0056470Y0251600D03*
X0056470Y0251350D03*
X0054230Y0241100D03*
X0118980Y0186350D03*
X0053730Y0108100D03*
D224*
X0102845Y0108100D03*
X0150355Y0173350D03*
D225*
X0102725Y0108350D03*
X0130725Y0331100D03*
D226*
X0055720Y0249350D03*
X0055720Y0249100D03*
X0055220Y0247600D03*
X0054230Y0243350D03*
X0053980Y0242100D03*
X0053980Y0241850D03*
X0053980Y0241600D03*
X0118970Y0186100D03*
X0053480Y0108600D03*
D227*
X0102475Y0108600D03*
D228*
X0102475Y0108850D03*
D229*
X0053225Y0109100D03*
X0088725Y0338600D03*
D230*
X0122105Y0245100D03*
X0122105Y0244850D03*
X0122105Y0244600D03*
X0149595Y0171350D03*
X0102105Y0109350D03*
D231*
X0053100Y0109600D03*
X0051100Y0200100D03*
X0051100Y0200350D03*
X0178600Y0261850D03*
D232*
X0101975Y0109600D03*
D233*
X0101980Y0109850D03*
X0149220Y0170850D03*
D234*
X0052850Y0110100D03*
X0050850Y0199350D03*
X0050850Y0199600D03*
X0117600Y0346100D03*
D235*
X0122095Y0247350D03*
X0122095Y0247100D03*
X0122095Y0246850D03*
X0122095Y0246600D03*
X0149095Y0170600D03*
X0101855Y0110100D03*
D236*
X0101605Y0110350D03*
X0122105Y0247600D03*
X0122105Y0247850D03*
X0122105Y0248100D03*
D237*
X0052600Y0110600D03*
D238*
X0101480Y0110600D03*
D239*
X0101475Y0110850D03*
D240*
X0052350Y0111100D03*
X0052850Y0182100D03*
X0119100Y0183350D03*
X0119100Y0183600D03*
D241*
X0101350Y0111100D03*
D242*
X0101225Y0111350D03*
D243*
X0052100Y0111600D03*
X0052600Y0182600D03*
X0052600Y0182850D03*
D244*
X0101100Y0111600D03*
D245*
X0052105Y0111850D03*
X0052105Y0183850D03*
X0052105Y0184100D03*
X0119105Y0182850D03*
X0119105Y0182600D03*
X0117345Y0347600D03*
X0117345Y0347850D03*
X0148105Y0347100D03*
D246*
X0121980Y0251100D03*
X0100970Y0111850D03*
D247*
X0051975Y0112100D03*
X0029975Y0144350D03*
X0029975Y0144600D03*
X0051975Y0184350D03*
X0090725Y0178600D03*
X0207225Y0315350D03*
X0058225Y0319350D03*
D248*
X0100850Y0112100D03*
D249*
X0051855Y0112350D03*
X0051855Y0112600D03*
X0030355Y0143850D03*
X0051355Y0186100D03*
X0051355Y0186350D03*
X0050355Y0192350D03*
X0050355Y0192600D03*
X0050355Y0192850D03*
X0050355Y0193100D03*
X0050355Y0193350D03*
X0050355Y0193600D03*
X0050355Y0193850D03*
X0050355Y0194100D03*
X0085605Y0241850D03*
X0159105Y0243100D03*
X0058105Y0319100D03*
X0117355Y0348100D03*
D250*
X0100720Y0112350D03*
D251*
X0100730Y0112600D03*
X0147730Y0168100D03*
D252*
X0051725Y0112850D03*
X0029975Y0145100D03*
X0029975Y0145350D03*
X0051225Y0186600D03*
X0051225Y0186850D03*
X0051225Y0187100D03*
X0050725Y0189100D03*
X0085475Y0242100D03*
X0085475Y0242350D03*
X0085475Y0242600D03*
X0057975Y0318850D03*
D253*
X0100600Y0112850D03*
D254*
X0051605Y0113100D03*
X0119095Y0181850D03*
X0051105Y0187350D03*
X0050605Y0189350D03*
X0050605Y0189600D03*
X0050605Y0189850D03*
X0050605Y0190100D03*
X0050605Y0190350D03*
X0085355Y0242850D03*
X0159105Y0243850D03*
X0159105Y0244100D03*
X0159105Y0244350D03*
X0057855Y0318600D03*
X0086855Y0339850D03*
X0178855Y0337100D03*
D255*
X0147350Y0167850D03*
X0100350Y0113100D03*
D256*
X0051475Y0113350D03*
X0029975Y0145600D03*
X0029975Y0145850D03*
X0119225Y0181600D03*
X0057725Y0318350D03*
X0117225Y0348600D03*
X0148475Y0347850D03*
D257*
X0122105Y0253350D03*
X0147105Y0167600D03*
X0100355Y0113350D03*
D258*
X0051355Y0113600D03*
X0119105Y0181350D03*
X0033605Y0286850D03*
X0057605Y0318100D03*
X0086605Y0340100D03*
X0207605Y0314600D03*
D259*
X0100225Y0113600D03*
D260*
X0100105Y0113850D03*
X0122105Y0253600D03*
X0122105Y0253850D03*
D261*
X0159095Y0246350D03*
X0159095Y0246100D03*
X0159095Y0245850D03*
X0119105Y0181100D03*
X0051105Y0114100D03*
X0033605Y0286350D03*
X0033605Y0286600D03*
X0057355Y0317600D03*
X0117105Y0349100D03*
X0148595Y0348350D03*
X0179355Y0337600D03*
X0179845Y0334600D03*
D262*
X0099975Y0114100D03*
D263*
X0051105Y0114350D03*
X0032105Y0142600D03*
X0149855Y0185100D03*
X0159105Y0246850D03*
X0159105Y0247100D03*
X0159105Y0247350D03*
X0208105Y0313350D03*
X0148605Y0348600D03*
X0086345Y0340600D03*
X0057105Y0317100D03*
D264*
X0056980Y0316850D03*
X0034480Y0287350D03*
X0130730Y0332850D03*
X0148730Y0348850D03*
X0208230Y0313100D03*
X0050980Y0114600D03*
D265*
X0099850Y0114600D03*
D266*
X0099730Y0114850D03*
D267*
X0099720Y0115100D03*
X0109730Y0187100D03*
X0109730Y0187350D03*
D268*
X0109850Y0187600D03*
X0109850Y0187850D03*
X0110100Y0188100D03*
X0110100Y0188350D03*
X0099600Y0115350D03*
D269*
X0099470Y0115600D03*
X0110230Y0188600D03*
X0110230Y0188850D03*
X0110480Y0189350D03*
X0110480Y0189600D03*
D270*
X0099480Y0115850D03*
D271*
X0099355Y0116100D03*
X0110855Y0190850D03*
X0110855Y0191100D03*
X0110855Y0191350D03*
X0122095Y0255850D03*
D272*
X0111105Y0192600D03*
X0111105Y0192350D03*
X0111105Y0192100D03*
X0099105Y0116350D03*
D273*
X0099105Y0116600D03*
X0111355Y0193600D03*
X0111355Y0193850D03*
D274*
X0119355Y0178850D03*
X0050095Y0116850D03*
X0033855Y0141350D03*
X0018845Y0189850D03*
X0085595Y0248850D03*
X0085595Y0249100D03*
X0159105Y0250100D03*
X0179345Y0258850D03*
X0209105Y0310850D03*
X0149095Y0350350D03*
X0116845Y0351350D03*
D275*
X0111480Y0194600D03*
X0111480Y0194350D03*
X0111480Y0194100D03*
X0098980Y0116850D03*
D276*
X0049975Y0117100D03*
X0049975Y0117350D03*
X0091725Y0180850D03*
X0148975Y0186100D03*
X0032975Y0282100D03*
X0036225Y0288100D03*
D277*
X0111605Y0194850D03*
X0098855Y0117100D03*
D278*
X0098855Y0117350D03*
X0122095Y0257100D03*
D279*
X0098725Y0117600D03*
D280*
X0049725Y0117850D03*
X0148725Y0186350D03*
X0085725Y0249600D03*
X0159225Y0250850D03*
X0159225Y0251100D03*
X0116725Y0351850D03*
D281*
X0122105Y0257350D03*
X0098605Y0117850D03*
D282*
X0098595Y0118100D03*
D283*
X0049475Y0118350D03*
X0036725Y0288350D03*
X0084975Y0342600D03*
X0130725Y0333100D03*
X0149475Y0351350D03*
D284*
X0098475Y0118600D03*
X0098475Y0118350D03*
D285*
X0098475Y0118850D03*
D286*
X0098355Y0119100D03*
X0122095Y0258100D03*
D287*
X0098225Y0119350D03*
D288*
X0098230Y0119600D03*
D289*
X0048970Y0119850D03*
X0048970Y0120100D03*
X0029480Y0153850D03*
X0148230Y0187600D03*
X0179480Y0257350D03*
X0210230Y0307850D03*
X0210230Y0308100D03*
X0110730Y0342600D03*
X0054480Y0322600D03*
D290*
X0098100Y0119850D03*
D291*
X0098105Y0120100D03*
D292*
X0048850Y0120350D03*
D293*
X0097975Y0120350D03*
X0121975Y0258850D03*
D294*
X0085730Y0251600D03*
X0021730Y0244100D03*
X0029480Y0154600D03*
X0048720Y0120600D03*
X0148230Y0187850D03*
X0179480Y0256850D03*
X0210230Y0307600D03*
X0183480Y0330850D03*
X0181970Y0339850D03*
X0149720Y0352600D03*
X0116730Y0353850D03*
X0084230Y0343600D03*
D295*
X0097855Y0120600D03*
D296*
X0097725Y0120850D03*
D297*
X0097605Y0121100D03*
D298*
X0097475Y0121350D03*
D299*
X0048350Y0121600D03*
X0092850Y0185350D03*
X0210600Y0306850D03*
X0154600Y0341850D03*
D300*
X0097475Y0121850D03*
X0097475Y0121600D03*
D301*
X0048350Y0121850D03*
X0037350Y0139100D03*
X0092600Y0185100D03*
X0147850Y0188850D03*
X0085850Y0252350D03*
X0159350Y0253600D03*
X0210850Y0306100D03*
X0150100Y0353350D03*
X0116600Y0354850D03*
D302*
X0116475Y0355100D03*
X0210975Y0305850D03*
X0147975Y0189100D03*
X0048225Y0122350D03*
X0048225Y0122100D03*
D303*
X0097475Y0122100D03*
D304*
X0097355Y0122350D03*
X0121855Y0259600D03*
D305*
X0147850Y0189350D03*
X0048100Y0122600D03*
X0080350Y0331850D03*
D306*
X0097230Y0122600D03*
D307*
X0047975Y0122850D03*
D308*
X0097230Y0122850D03*
D309*
X0047850Y0123100D03*
X0047850Y0123350D03*
X0029600Y0157600D03*
X0023350Y0245850D03*
X0080100Y0331600D03*
X0083350Y0344850D03*
X0116350Y0355600D03*
X0184850Y0329350D03*
D310*
X0130605Y0327600D03*
X0097105Y0123100D03*
D311*
X0097105Y0123350D03*
X0097105Y0123600D03*
D312*
X0096980Y0123850D03*
D313*
X0047725Y0124100D03*
X0047725Y0124350D03*
X0029475Y0158600D03*
X0023725Y0246350D03*
X0211475Y0304100D03*
X0211475Y0304350D03*
D314*
X0130730Y0327350D03*
X0121730Y0260350D03*
X0096970Y0124100D03*
D315*
X0096850Y0124350D03*
D316*
X0096845Y0124600D03*
D317*
X0047475Y0124850D03*
X0047475Y0125100D03*
X0029475Y0159350D03*
X0159475Y0254850D03*
X0211725Y0303600D03*
X0185475Y0328600D03*
X0108225Y0341850D03*
X0032225Y0273100D03*
X0032225Y0272850D03*
D318*
X0096725Y0124850D03*
D319*
X0096855Y0125100D03*
D320*
X0047345Y0125350D03*
X0023345Y0182600D03*
X0147595Y0191100D03*
X0147595Y0191350D03*
X0179355Y0254100D03*
X0226855Y0278100D03*
X0185605Y0328350D03*
X0116345Y0356600D03*
X0052355Y0323350D03*
D321*
X0096725Y0125350D03*
D322*
X0096605Y0125600D03*
D323*
X0047095Y0125850D03*
X0047095Y0126100D03*
X0039605Y0137600D03*
X0023855Y0181850D03*
X0024605Y0247350D03*
X0147595Y0191850D03*
X0147595Y0191600D03*
X0179355Y0253600D03*
X0179355Y0253850D03*
X0186095Y0327850D03*
D324*
X0096600Y0125850D03*
D325*
X0096480Y0126100D03*
D326*
X0046975Y0126350D03*
X0039975Y0137350D03*
X0147475Y0192100D03*
X0116225Y0357100D03*
D327*
X0096600Y0126350D03*
D328*
X0096470Y0126600D03*
X0072470Y0177350D03*
X0130480Y0326600D03*
D329*
X0096475Y0126850D03*
D330*
X0046850Y0127100D03*
X0025350Y0248350D03*
X0032100Y0270350D03*
D331*
X0073095Y0176100D03*
X0096345Y0127100D03*
D332*
X0096355Y0127350D03*
X0096355Y0127600D03*
D333*
X0096350Y0127850D03*
X0074100Y0174350D03*
X0074100Y0174600D03*
D334*
X0021970Y0204350D03*
X0022470Y0226350D03*
X0025730Y0248850D03*
X0025980Y0249100D03*
X0031980Y0269100D03*
X0031980Y0269350D03*
X0051480Y0304600D03*
X0179230Y0252100D03*
X0212720Y0300600D03*
X0184730Y0342350D03*
X0046470Y0128350D03*
X0046470Y0128100D03*
D335*
X0096230Y0128100D03*
D336*
X0096220Y0128350D03*
X0096220Y0128600D03*
X0074720Y0173350D03*
D337*
X0025350Y0179350D03*
X0046350Y0128600D03*
X0077100Y0328350D03*
X0081850Y0347100D03*
D338*
X0075225Y0172600D03*
X0096225Y0128850D03*
D339*
X0096095Y0129100D03*
X0130605Y0325850D03*
D340*
X0224350Y0279850D03*
X0031850Y0267850D03*
X0031850Y0267600D03*
X0031850Y0267350D03*
X0046100Y0129600D03*
X0046100Y0129350D03*
D341*
X0096105Y0129350D03*
D342*
X0095975Y0129600D03*
D343*
X0045975Y0129850D03*
X0119725Y0173600D03*
X0179225Y0250600D03*
X0223975Y0280100D03*
X0076475Y0327600D03*
X0031725Y0267100D03*
X0026975Y0250350D03*
D344*
X0118730Y0198350D03*
X0118730Y0198100D03*
X0118730Y0197850D03*
X0095980Y0129850D03*
D345*
X0045850Y0130100D03*
X0045850Y0130350D03*
X0179100Y0250100D03*
X0179100Y0250350D03*
X0076350Y0327350D03*
X0031850Y0266850D03*
X0031850Y0266600D03*
D346*
X0095855Y0130100D03*
D347*
X0095975Y0130350D03*
D348*
X0095975Y0130600D03*
D349*
X0045600Y0130850D03*
X0045600Y0131100D03*
X0026850Y0177100D03*
X0027350Y0250850D03*
X0031850Y0265850D03*
X0151600Y0358350D03*
D350*
X0095850Y0130850D03*
D351*
X0095980Y0131100D03*
X0117980Y0200600D03*
X0117980Y0200850D03*
D352*
X0027100Y0176600D03*
X0045600Y0131600D03*
X0045600Y0131350D03*
X0236100Y0273350D03*
X0151600Y0358600D03*
D353*
X0130605Y0325100D03*
X0095855Y0131350D03*
D354*
X0095855Y0131600D03*
X0117855Y0201350D03*
D355*
X0078230Y0168600D03*
X0095730Y0131850D03*
D356*
X0045350Y0132100D03*
X0045350Y0132350D03*
X0029850Y0167600D03*
D357*
X0078605Y0168350D03*
X0117605Y0202100D03*
X0095855Y0132100D03*
D358*
X0095730Y0132350D03*
D359*
X0095720Y0132600D03*
X0130480Y0324600D03*
D360*
X0186350Y0343850D03*
X0023600Y0209350D03*
X0029850Y0168350D03*
X0045100Y0133100D03*
X0045100Y0132850D03*
D361*
X0095850Y0132850D03*
D362*
X0095730Y0133100D03*
D363*
X0044970Y0133350D03*
X0044970Y0133600D03*
X0044220Y0134600D03*
X0028230Y0175350D03*
X0027980Y0175600D03*
X0023730Y0209600D03*
X0023730Y0209850D03*
X0028730Y0252350D03*
X0031720Y0262850D03*
X0031720Y0263100D03*
X0115730Y0361100D03*
D364*
X0095725Y0133600D03*
X0095725Y0133350D03*
D365*
X0095730Y0133850D03*
X0079980Y0167350D03*
D366*
X0044720Y0134100D03*
X0028480Y0174850D03*
X0023980Y0210350D03*
X0031720Y0262100D03*
X0189730Y0322850D03*
X0189980Y0322600D03*
X0214220Y0295100D03*
X0214220Y0294850D03*
X0221730Y0281600D03*
D367*
X0095720Y0134350D03*
X0095720Y0134100D03*
D368*
X0095730Y0134600D03*
X0080480Y0167100D03*
D369*
X0095600Y0134850D03*
D370*
X0043475Y0135100D03*
X0213725Y0296850D03*
X0115725Y0360350D03*
X0115725Y0360600D03*
X0075475Y0326350D03*
X0049975Y0300350D03*
D371*
X0116475Y0204600D03*
X0095725Y0135100D03*
D372*
X0042975Y0135350D03*
X0178975Y0249350D03*
X0086225Y0255350D03*
X0050225Y0300850D03*
X0050225Y0301100D03*
X0080975Y0348350D03*
X0188475Y0324600D03*
D373*
X0095730Y0135350D03*
D374*
X0042725Y0135600D03*
X0029725Y0165600D03*
X0029725Y0165850D03*
X0022975Y0206850D03*
X0022975Y0207100D03*
X0023225Y0223100D03*
X0023225Y0223350D03*
X0043475Y0291100D03*
X0050475Y0301600D03*
X0050475Y0301850D03*
X0050475Y0302100D03*
X0081225Y0348100D03*
D375*
X0116350Y0204850D03*
X0095600Y0135600D03*
D376*
X0095720Y0135850D03*
D377*
X0041975Y0136100D03*
X0029725Y0164350D03*
X0022475Y0205600D03*
X0022725Y0224850D03*
X0022725Y0225100D03*
X0085975Y0254850D03*
X0042725Y0290850D03*
X0179225Y0251100D03*
X0212975Y0299350D03*
X0212975Y0299600D03*
D378*
X0095725Y0136100D03*
D379*
X0095595Y0136350D03*
D380*
X0095725Y0136600D03*
D381*
X0095730Y0136850D03*
X0095730Y0137100D03*
D382*
X0040475Y0137100D03*
X0024975Y0247850D03*
X0031975Y0270600D03*
X0031975Y0270850D03*
D383*
X0095720Y0137350D03*
D384*
X0095725Y0137600D03*
X0095725Y0137850D03*
D385*
X0095725Y0138100D03*
D386*
X0095850Y0138350D03*
D387*
X0095850Y0138600D03*
D388*
X0095720Y0138850D03*
D389*
X0095845Y0139100D03*
D390*
X0095855Y0139350D03*
X0130605Y0322100D03*
D391*
X0095980Y0139600D03*
D392*
X0095855Y0139850D03*
D393*
X0095855Y0140100D03*
X0130605Y0321850D03*
D394*
X0095975Y0140350D03*
D395*
X0119350Y0177850D03*
X0148600Y0186850D03*
X0035100Y0140600D03*
X0230850Y0275350D03*
D396*
X0095980Y0140600D03*
D397*
X0096105Y0140850D03*
D398*
X0095980Y0141100D03*
D399*
X0096105Y0141350D03*
D400*
X0096100Y0141600D03*
X0130600Y0321100D03*
D401*
X0029600Y0149350D03*
X0033100Y0141850D03*
D402*
X0096100Y0141850D03*
D403*
X0096225Y0142100D03*
X0130725Y0320850D03*
D404*
X0096350Y0142350D03*
D405*
X0096470Y0142600D03*
D406*
X0096480Y0142850D03*
X0130720Y0320600D03*
D407*
X0096605Y0143100D03*
D408*
X0030975Y0143350D03*
X0179225Y0335100D03*
D409*
X0096475Y0143350D03*
D410*
X0051480Y0185850D03*
X0050980Y0187600D03*
X0050980Y0187850D03*
X0050480Y0190600D03*
X0050480Y0190850D03*
X0050480Y0191100D03*
X0050480Y0191350D03*
X0050480Y0191600D03*
X0050480Y0191850D03*
X0050480Y0192100D03*
X0030730Y0143600D03*
X0158980Y0243350D03*
X0158980Y0243600D03*
X0178980Y0335350D03*
X0117230Y0348350D03*
X0086980Y0339600D03*
X0086230Y0337100D03*
D411*
X0096600Y0143600D03*
D412*
X0096600Y0143850D03*
D413*
X0096595Y0144100D03*
D414*
X0096725Y0144350D03*
D415*
X0096730Y0144600D03*
D416*
X0096850Y0144850D03*
D417*
X0096845Y0145100D03*
D418*
X0097100Y0145350D03*
D419*
X0097100Y0145600D03*
X0130600Y0319100D03*
D420*
X0097225Y0145850D03*
D421*
X0097225Y0146100D03*
D422*
X0097350Y0146350D03*
D423*
X0097350Y0146600D03*
D424*
X0097475Y0146850D03*
D425*
X0097475Y0147100D03*
X0130725Y0318350D03*
D426*
X0097725Y0147350D03*
D427*
X0029850Y0147600D03*
X0029850Y0147850D03*
X0117100Y0349850D03*
D428*
X0097725Y0147600D03*
D429*
X0097855Y0147850D03*
X0130605Y0317850D03*
D430*
X0130725Y0317600D03*
X0097975Y0148100D03*
D431*
X0098095Y0148350D03*
D432*
X0098105Y0148600D03*
D433*
X0098355Y0148850D03*
X0130605Y0317100D03*
D434*
X0098350Y0149100D03*
D435*
X0098605Y0149350D03*
D436*
X0098605Y0149600D03*
D437*
X0029600Y0149850D03*
X0029600Y0150100D03*
X0033100Y0282850D03*
X0033100Y0283100D03*
X0208850Y0311350D03*
D438*
X0098850Y0149850D03*
D439*
X0098855Y0150100D03*
D440*
X0119225Y0179100D03*
X0029725Y0150350D03*
D441*
X0099100Y0150350D03*
D442*
X0099100Y0150600D03*
D443*
X0099355Y0150850D03*
X0130605Y0315600D03*
D444*
X0099475Y0151100D03*
D445*
X0099730Y0151350D03*
X0130730Y0315100D03*
D446*
X0029600Y0152100D03*
X0029600Y0151850D03*
X0029600Y0151600D03*
D447*
X0099975Y0151600D03*
D448*
X0100105Y0151850D03*
D449*
X0100350Y0152100D03*
X0130600Y0314600D03*
D450*
X0130730Y0314350D03*
X0100480Y0152350D03*
D451*
X0100980Y0152600D03*
D452*
X0101225Y0152850D03*
D453*
X0101475Y0153100D03*
D454*
X0101855Y0153350D03*
D455*
X0102230Y0153600D03*
X0126480Y0241600D03*
D456*
X0102475Y0153850D03*
D457*
X0102975Y0154100D03*
D458*
X0103350Y0154350D03*
X0130600Y0310850D03*
D459*
X0103975Y0154600D03*
D460*
X0093095Y0185600D03*
X0148105Y0188100D03*
X0029605Y0154850D03*
X0020345Y0234850D03*
X0054355Y0311600D03*
X0081355Y0332850D03*
X0210355Y0307350D03*
X0229355Y0276350D03*
D461*
X0104605Y0154850D03*
D462*
X0172975Y0154850D03*
X0238975Y0272350D03*
X0217975Y0284100D03*
X0215975Y0288100D03*
D463*
X0105605Y0155100D03*
D464*
X0110345Y0156600D03*
X0110855Y0155350D03*
X0130605Y0302850D03*
D465*
X0081105Y0332600D03*
X0053855Y0322850D03*
X0054105Y0310850D03*
X0116605Y0354350D03*
X0229105Y0276600D03*
X0119355Y0176350D03*
X0092105Y0183850D03*
X0029605Y0155600D03*
X0022105Y0244600D03*
X0022355Y0244850D03*
X0085855Y0252100D03*
D466*
X0109475Y0159100D03*
X0109475Y0158850D03*
X0109475Y0158600D03*
X0109725Y0158350D03*
X0109725Y0158100D03*
X0110475Y0156350D03*
X0110475Y0156100D03*
X0110725Y0155850D03*
X0110725Y0155600D03*
D467*
X0110220Y0156850D03*
X0110220Y0157100D03*
X0109970Y0157350D03*
X0109970Y0157600D03*
X0109220Y0159600D03*
X0108970Y0160350D03*
X0108730Y0161100D03*
X0130730Y0302600D03*
D468*
X0108975Y0342100D03*
X0150475Y0354350D03*
X0179475Y0255100D03*
X0029475Y0157850D03*
D469*
X0108105Y0163100D03*
X0108355Y0162350D03*
X0108355Y0162100D03*
X0108605Y0161600D03*
X0108605Y0161350D03*
X0109095Y0160100D03*
X0109095Y0159850D03*
X0109845Y0157850D03*
D470*
X0109350Y0159350D03*
D471*
X0029600Y0160350D03*
X0021350Y0202100D03*
X0021350Y0202350D03*
X0021600Y0229100D03*
X0052350Y0306850D03*
X0082600Y0346100D03*
D472*
X0211975Y0302600D03*
X0226475Y0278350D03*
X0146725Y0194350D03*
X0029475Y0160600D03*
X0021475Y0202600D03*
X0021725Y0228600D03*
X0021725Y0228850D03*
D473*
X0108850Y0160850D03*
X0108850Y0160600D03*
D474*
X0108480Y0161850D03*
X0108230Y0162600D03*
X0108230Y0162850D03*
X0107980Y0163350D03*
X0107980Y0163600D03*
X0107980Y0163850D03*
X0107480Y0165350D03*
X0099730Y0212850D03*
D475*
X0029600Y0163350D03*
X0029600Y0163100D03*
X0029600Y0162850D03*
X0042100Y0290600D03*
X0051350Y0304350D03*
X0077350Y0328600D03*
D476*
X0106350Y0341100D03*
X0187600Y0325850D03*
X0212850Y0299850D03*
X0179100Y0251350D03*
X0029600Y0164100D03*
X0029600Y0163850D03*
X0029600Y0163600D03*
X0022350Y0205350D03*
X0022600Y0225350D03*
D477*
X0107725Y0164600D03*
X0107725Y0164350D03*
X0107725Y0164100D03*
X0130725Y0302350D03*
D478*
X0187850Y0325600D03*
X0213100Y0299100D03*
X0029600Y0164850D03*
X0029600Y0164600D03*
X0022600Y0205850D03*
X0022600Y0206100D03*
X0022850Y0224350D03*
X0022850Y0224600D03*
D479*
X0107600Y0165100D03*
X0107600Y0164850D03*
D480*
X0029600Y0165350D03*
X0022850Y0206600D03*
X0023100Y0223600D03*
X0188100Y0325100D03*
D481*
X0107105Y0166850D03*
X0107105Y0166600D03*
X0107355Y0166100D03*
X0107355Y0165850D03*
X0107355Y0165600D03*
D482*
X0029600Y0166100D03*
X0023100Y0207350D03*
X0050100Y0324100D03*
X0105100Y0340600D03*
D483*
X0115730Y0360100D03*
X0185730Y0343350D03*
X0188730Y0324350D03*
X0213470Y0297600D03*
X0223230Y0280600D03*
X0031720Y0265600D03*
X0031720Y0265350D03*
X0031720Y0265100D03*
X0027480Y0251100D03*
X0023220Y0222600D03*
X0023220Y0222350D03*
X0023220Y0208100D03*
X0023220Y0207850D03*
X0023220Y0207600D03*
X0029720Y0166850D03*
X0029720Y0166600D03*
X0029720Y0166350D03*
D484*
X0107230Y0166350D03*
X0130730Y0302100D03*
D485*
X0146225Y0167100D03*
D486*
X0146730Y0167350D03*
D487*
X0117100Y0203350D03*
X0079600Y0167600D03*
D488*
X0079100Y0167850D03*
D489*
X0078855Y0168100D03*
D490*
X0147725Y0168350D03*
D491*
X0077980Y0168850D03*
D492*
X0148105Y0168850D03*
X0122105Y0250600D03*
X0122105Y0250850D03*
D493*
X0077850Y0169100D03*
D494*
X0148350Y0169100D03*
X0123350Y0242100D03*
D495*
X0077355Y0169600D03*
X0077605Y0169350D03*
D496*
X0148480Y0169350D03*
X0121980Y0249850D03*
D497*
X0122105Y0249600D03*
X0122105Y0249350D03*
X0148605Y0169600D03*
D498*
X0077105Y0169850D03*
X0130605Y0325350D03*
D499*
X0122100Y0249100D03*
X0122100Y0248850D03*
X0122100Y0248600D03*
X0148850Y0169850D03*
D500*
X0118480Y0198850D03*
X0118480Y0199100D03*
X0076980Y0170100D03*
X0076730Y0170350D03*
D501*
X0148850Y0170100D03*
D502*
X0159725Y0257100D03*
X0186975Y0344350D03*
X0029225Y0253100D03*
X0028725Y0174350D03*
X0028975Y0174100D03*
X0029975Y0170350D03*
D503*
X0029850Y0170600D03*
X0029850Y0170850D03*
X0029100Y0173850D03*
D504*
X0076600Y0170600D03*
D505*
X0076355Y0170850D03*
X0076105Y0171100D03*
X0119105Y0196100D03*
X0119105Y0196350D03*
X0130605Y0325600D03*
D506*
X0073475Y0323850D03*
X0029725Y0253600D03*
X0029975Y0171350D03*
X0029975Y0171100D03*
D507*
X0075975Y0171350D03*
D508*
X0029850Y0171600D03*
X0029850Y0253850D03*
X0169850Y0212350D03*
X0190600Y0321600D03*
D509*
X0075850Y0171600D03*
D510*
X0149720Y0171600D03*
X0122230Y0242850D03*
X0122230Y0243100D03*
X0122230Y0243350D03*
X0122230Y0243600D03*
X0122230Y0243850D03*
X0122230Y0244100D03*
X0122230Y0244350D03*
D511*
X0177975Y0243600D03*
X0187475Y0344850D03*
X0115475Y0362350D03*
X0024725Y0212600D03*
X0024725Y0212350D03*
X0029475Y0173350D03*
X0029725Y0173100D03*
X0029975Y0172100D03*
X0029975Y0171850D03*
D512*
X0075480Y0172100D03*
X0075730Y0171850D03*
D513*
X0149850Y0171850D03*
D514*
X0119725Y0172100D03*
X0152975Y0362350D03*
D515*
X0064355Y0261350D03*
X0149855Y0172100D03*
D516*
X0029850Y0172350D03*
X0029850Y0172600D03*
X0029850Y0172850D03*
X0024850Y0212850D03*
X0024850Y0216350D03*
X0030100Y0254100D03*
X0030350Y0254350D03*
D517*
X0075350Y0172350D03*
D518*
X0149980Y0172350D03*
X0149980Y0172600D03*
D519*
X0075105Y0172850D03*
D520*
X0150100Y0172850D03*
D521*
X0074850Y0173100D03*
D522*
X0150230Y0173100D03*
D523*
X0177855Y0243350D03*
X0178355Y0244600D03*
X0178355Y0244850D03*
X0221105Y0282100D03*
X0079855Y0350100D03*
X0073345Y0323600D03*
X0048605Y0296350D03*
X0048605Y0296100D03*
X0031595Y0260100D03*
X0031595Y0259850D03*
X0031595Y0259600D03*
X0024845Y0217100D03*
X0024845Y0216850D03*
X0024605Y0212100D03*
X0029355Y0173600D03*
D524*
X0074595Y0173600D03*
X0130605Y0326100D03*
D525*
X0150480Y0173600D03*
D526*
X0074350Y0173850D03*
D527*
X0119605Y0173850D03*
X0025605Y0178850D03*
X0026355Y0249600D03*
X0031855Y0268100D03*
X0031855Y0268350D03*
X0051105Y0303600D03*
X0051105Y0303850D03*
X0050855Y0323850D03*
X0158105Y0340350D03*
D528*
X0150600Y0173850D03*
D529*
X0074225Y0174100D03*
X0120975Y0261350D03*
D530*
X0025225Y0179600D03*
X0024975Y0179850D03*
X0119725Y0174100D03*
D531*
X0150730Y0174100D03*
X0150730Y0174350D03*
D532*
X0119605Y0174350D03*
X0024605Y0180850D03*
X0022095Y0227350D03*
X0022095Y0227600D03*
X0179345Y0252850D03*
X0225855Y0278850D03*
X0186595Y0327100D03*
D533*
X0190100Y0322350D03*
X0160850Y0338850D03*
X0178600Y0246350D03*
X0178600Y0246100D03*
X0169350Y0212600D03*
X0028600Y0174600D03*
D534*
X0024105Y0181350D03*
X0119605Y0174600D03*
X0147605Y0192350D03*
X0147605Y0192600D03*
X0147095Y0194100D03*
X0159595Y0255350D03*
X0150855Y0355850D03*
D535*
X0063105Y0260850D03*
X0150855Y0174600D03*
D536*
X0073845Y0174850D03*
D537*
X0073725Y0175100D03*
D538*
X0119350Y0175100D03*
X0146350Y0194600D03*
X0085850Y0253600D03*
X0021600Y0229850D03*
X0021600Y0229600D03*
X0021100Y0201600D03*
X0052600Y0307350D03*
X0052600Y0307600D03*
X0082850Y0345850D03*
X0150600Y0355100D03*
D539*
X0150975Y0175350D03*
X0150975Y0175100D03*
D540*
X0073600Y0175350D03*
D541*
X0073475Y0175600D03*
D542*
X0151100Y0175600D03*
D543*
X0178980Y0248100D03*
X0189230Y0323600D03*
X0159980Y0339350D03*
X0049480Y0324350D03*
X0031720Y0263850D03*
X0031720Y0263600D03*
X0028230Y0251850D03*
X0023720Y0220850D03*
X0027730Y0175850D03*
D544*
X0073220Y0175850D03*
D545*
X0119350Y0176100D03*
X0021850Y0185100D03*
X0020600Y0233350D03*
X0020600Y0233600D03*
X0083600Y0344350D03*
X0182600Y0340350D03*
X0228600Y0276850D03*
X0179600Y0256100D03*
D546*
X0072725Y0176850D03*
X0072725Y0176600D03*
X0072975Y0176350D03*
D547*
X0151475Y0176350D03*
D548*
X0151600Y0176600D03*
X0151600Y0176850D03*
D549*
X0026975Y0176850D03*
D550*
X0072345Y0177600D03*
X0072595Y0177100D03*
D551*
X0119225Y0177350D03*
X0085725Y0250850D03*
X0032725Y0279350D03*
X0032725Y0279600D03*
X0019975Y0236600D03*
X0020225Y0187600D03*
X0179475Y0257600D03*
X0182725Y0331600D03*
D552*
X0151855Y0177600D03*
D553*
X0153100Y0181850D03*
X0153100Y0182100D03*
X0056850Y0177850D03*
D554*
X0151975Y0177850D03*
X0151975Y0178100D03*
D555*
X0026230Y0178100D03*
X0026730Y0250100D03*
X0050730Y0302600D03*
X0050730Y0302850D03*
X0105720Y0340850D03*
D556*
X0090225Y0178100D03*
D557*
X0055850Y0178350D03*
D558*
X0019225Y0189100D03*
X0019475Y0238600D03*
X0019475Y0238850D03*
X0119225Y0178350D03*
X0084975Y0342350D03*
D559*
X0152100Y0178600D03*
X0152100Y0178350D03*
D560*
X0025730Y0178600D03*
X0026480Y0249850D03*
X0050980Y0303350D03*
X0115970Y0358850D03*
X0115970Y0359100D03*
X0151220Y0357350D03*
D561*
X0177975Y0262350D03*
X0056975Y0252600D03*
X0055475Y0178600D03*
D562*
X0055225Y0178850D03*
X0056225Y0250850D03*
X0056725Y0251850D03*
D563*
X0055475Y0248850D03*
X0055475Y0248600D03*
X0055475Y0248350D03*
X0054975Y0246600D03*
X0054975Y0179100D03*
D564*
X0054725Y0179350D03*
X0117725Y0345350D03*
D565*
X0057230Y0317350D03*
X0033480Y0286100D03*
X0033480Y0285850D03*
X0085480Y0245600D03*
X0085480Y0245350D03*
X0091230Y0179350D03*
X0207980Y0313600D03*
D566*
X0085475Y0247600D03*
X0017975Y0191850D03*
X0091475Y0180100D03*
X0119225Y0179850D03*
X0119225Y0179600D03*
D567*
X0054225Y0179850D03*
D568*
X0053975Y0180350D03*
X0147475Y0345350D03*
D569*
X0056350Y0315600D03*
X0019100Y0240850D03*
X0017850Y0192100D03*
X0091600Y0180350D03*
D570*
X0119225Y0180350D03*
X0033475Y0285350D03*
X0033475Y0285600D03*
D571*
X0119105Y0184600D03*
X0119105Y0184350D03*
X0053845Y0180600D03*
D572*
X0119225Y0180850D03*
X0158975Y0246600D03*
X0117225Y0349350D03*
D573*
X0119100Y0184100D03*
X0119100Y0183850D03*
X0053350Y0181350D03*
D574*
X0053100Y0181850D03*
X0178100Y0336100D03*
X0147850Y0346350D03*
D575*
X0119100Y0182350D03*
D576*
X0153230Y0182350D03*
X0153230Y0182600D03*
X0052980Y0204350D03*
X0059230Y0256850D03*
D577*
X0058475Y0319600D03*
X0052225Y0183600D03*
X0052225Y0183350D03*
D578*
X0022725Y0183600D03*
X0022475Y0183850D03*
X0020475Y0199850D03*
X0021225Y0231600D03*
X0039725Y0289600D03*
X0159475Y0254350D03*
X0147725Y0190100D03*
X0147725Y0189850D03*
D579*
X0153600Y0184100D03*
X0153600Y0183850D03*
D580*
X0145600Y0195100D03*
X0022350Y0184100D03*
X0020350Y0199600D03*
X0053350Y0309100D03*
X0053350Y0309350D03*
X0183100Y0340850D03*
D581*
X0020225Y0199350D03*
X0020225Y0199100D03*
X0022225Y0184350D03*
D582*
X0050350Y0194850D03*
X0050350Y0195100D03*
X0050350Y0195350D03*
X0050350Y0195600D03*
X0050350Y0195850D03*
X0051850Y0184600D03*
X0207100Y0315600D03*
D583*
X0020725Y0233100D03*
X0020225Y0198850D03*
X0021975Y0184850D03*
D584*
X0119105Y0184850D03*
X0119105Y0185100D03*
X0147355Y0345100D03*
D585*
X0115100Y0364350D03*
X0159850Y0257600D03*
X0168100Y0185100D03*
D586*
X0119100Y0185350D03*
X0051350Y0201100D03*
X0147350Y0344850D03*
D587*
X0051480Y0201350D03*
X0118970Y0185600D03*
D588*
X0149100Y0185850D03*
X0018350Y0190600D03*
X0018100Y0192600D03*
X0056100Y0315100D03*
X0149100Y0350100D03*
X0180350Y0338350D03*
X0181100Y0333350D03*
D589*
X0121975Y0255100D03*
X0109475Y0186600D03*
D590*
X0109600Y0186850D03*
X0122100Y0255350D03*
D591*
X0148350Y0187100D03*
X0084600Y0343100D03*
D592*
X0116725Y0352600D03*
X0032725Y0280100D03*
X0020725Y0242850D03*
X0018975Y0195350D03*
X0019975Y0188100D03*
X0231225Y0273850D03*
X0231225Y0274100D03*
X0231225Y0274350D03*
D593*
X0110355Y0189100D03*
D594*
X0110600Y0189850D03*
X0110600Y0190100D03*
X0122100Y0255600D03*
D595*
X0110725Y0190600D03*
X0110725Y0190350D03*
D596*
X0017850Y0191350D03*
X0017850Y0191600D03*
X0056600Y0316100D03*
X0113100Y0343100D03*
X0180600Y0333850D03*
D597*
X0110980Y0191850D03*
X0110980Y0191600D03*
D598*
X0017970Y0192350D03*
X0019220Y0240600D03*
X0056230Y0315350D03*
X0083980Y0335350D03*
X0116980Y0350850D03*
X0208730Y0311600D03*
D599*
X0111225Y0193350D03*
X0111225Y0193100D03*
X0111225Y0192850D03*
D600*
X0085725Y0250100D03*
X0032975Y0280850D03*
X0020475Y0242600D03*
X0018725Y0194850D03*
X0018725Y0194600D03*
X0159225Y0251350D03*
X0181225Y0339100D03*
D601*
X0111600Y0195100D03*
D602*
X0118980Y0196600D03*
X0118980Y0196850D03*
X0119230Y0195850D03*
X0119230Y0195600D03*
X0119230Y0195350D03*
D603*
X0050475Y0197100D03*
X0050475Y0197350D03*
X0050475Y0197600D03*
X0058725Y0320100D03*
D604*
X0118850Y0197600D03*
X0118850Y0197350D03*
X0118850Y0197100D03*
D605*
X0050725Y0198350D03*
X0050725Y0198600D03*
X0058975Y0320600D03*
D606*
X0118600Y0198600D03*
D607*
X0118350Y0199350D03*
X0118350Y0199600D03*
D608*
X0118230Y0199850D03*
X0118230Y0200100D03*
D609*
X0118100Y0200350D03*
D610*
X0020975Y0201100D03*
X0020975Y0201350D03*
X0021475Y0230100D03*
X0183725Y0341350D03*
D611*
X0117975Y0201100D03*
D612*
X0117725Y0201600D03*
X0117725Y0201850D03*
D613*
X0021225Y0201850D03*
X0021725Y0229350D03*
D614*
X0117475Y0202350D03*
D615*
X0117475Y0202600D03*
D616*
X0051975Y0202850D03*
X0057225Y0253100D03*
D617*
X0117345Y0202850D03*
D618*
X0117225Y0203100D03*
D619*
X0052225Y0203350D03*
X0057975Y0254600D03*
X0130725Y0332100D03*
D620*
X0117100Y0203600D03*
D621*
X0179355Y0252350D03*
X0212595Y0300850D03*
X0157605Y0340600D03*
X0022345Y0226850D03*
X0022345Y0226600D03*
X0021845Y0204100D03*
X0021845Y0203850D03*
D622*
X0116850Y0203850D03*
D623*
X0116725Y0204100D03*
D624*
X0116605Y0204350D03*
D625*
X0053350Y0204850D03*
X0060100Y0257850D03*
D626*
X0060350Y0258350D03*
X0053600Y0205100D03*
X0163350Y0242350D03*
D627*
X0116100Y0205100D03*
D628*
X0053850Y0205350D03*
X0060600Y0258600D03*
D629*
X0115850Y0205350D03*
D630*
X0115600Y0205600D03*
D631*
X0115100Y0205850D03*
D632*
X0095475Y0206100D03*
X0095475Y0206350D03*
X0130725Y0307100D03*
D633*
X0095605Y0206850D03*
X0095605Y0206600D03*
D634*
X0095730Y0207100D03*
D635*
X0095850Y0207350D03*
X0095850Y0207600D03*
D636*
X0095975Y0207850D03*
D637*
X0096105Y0208100D03*
D638*
X0159605Y0256600D03*
X0213595Y0297100D03*
X0213595Y0297350D03*
X0159605Y0339600D03*
X0080855Y0348600D03*
X0075605Y0326600D03*
X0050105Y0300600D03*
X0027855Y0251350D03*
X0023345Y0222100D03*
X0023345Y0208350D03*
D639*
X0096230Y0208350D03*
X0096230Y0208600D03*
D640*
X0096355Y0208850D03*
X0130605Y0306100D03*
D641*
X0096475Y0209100D03*
D642*
X0096605Y0209350D03*
X0130595Y0305850D03*
D643*
X0096730Y0209600D03*
D644*
X0096855Y0209850D03*
D645*
X0096975Y0210100D03*
D646*
X0097105Y0210350D03*
D647*
X0171225Y0210350D03*
X0046475Y0325350D03*
D648*
X0097230Y0210600D03*
D649*
X0097475Y0210850D03*
X0130725Y0304850D03*
D650*
X0097605Y0211100D03*
D651*
X0097855Y0211350D03*
D652*
X0170725Y0211350D03*
X0078975Y0351350D03*
D653*
X0097975Y0211600D03*
D654*
X0098230Y0211850D03*
D655*
X0031475Y0257600D03*
X0031475Y0257850D03*
X0030725Y0254850D03*
X0170225Y0211850D03*
X0215225Y0291600D03*
D656*
X0098600Y0212100D03*
D657*
X0159730Y0257350D03*
X0214980Y0292100D03*
X0214980Y0292350D03*
X0237730Y0272850D03*
X0169980Y0212100D03*
X0048230Y0295100D03*
X0047980Y0324850D03*
X0072730Y0322850D03*
X0152480Y0361100D03*
D658*
X0098855Y0212350D03*
D659*
X0099100Y0212600D03*
D660*
X0104605Y0213100D03*
X0104605Y0213350D03*
X0130605Y0296100D03*
D661*
X0104725Y0214600D03*
X0104725Y0214350D03*
X0104725Y0214100D03*
X0104725Y0213850D03*
X0104725Y0213600D03*
D662*
X0025230Y0213850D03*
X0025230Y0214100D03*
X0025230Y0214350D03*
X0025230Y0214600D03*
X0025230Y0214850D03*
X0025230Y0215100D03*
X0025230Y0215350D03*
X0047980Y0294350D03*
X0191480Y0320350D03*
D663*
X0104850Y0215850D03*
X0104850Y0215600D03*
X0104850Y0215350D03*
X0104850Y0215100D03*
X0104850Y0214850D03*
D664*
X0104980Y0216100D03*
X0104980Y0216350D03*
X0104980Y0216600D03*
X0104980Y0216850D03*
X0104980Y0217100D03*
X0130480Y0295600D03*
D665*
X0161730Y0338350D03*
X0190730Y0321350D03*
X0190980Y0321100D03*
X0214730Y0292850D03*
X0178230Y0244350D03*
X0178230Y0244100D03*
X0178230Y0243850D03*
X0048480Y0295850D03*
X0031470Y0259350D03*
X0024970Y0216600D03*
D666*
X0024725Y0217350D03*
X0024725Y0217600D03*
X0045725Y0291850D03*
X0079975Y0349850D03*
X0214725Y0293350D03*
X0178475Y0245100D03*
D667*
X0105105Y0218350D03*
X0105105Y0218100D03*
X0105105Y0217850D03*
X0105105Y0217600D03*
X0105105Y0217350D03*
D668*
X0024600Y0217850D03*
X0214600Y0293600D03*
X0214600Y0293850D03*
X0221350Y0281850D03*
D669*
X0152100Y0359850D03*
X0115600Y0361600D03*
X0024350Y0218850D03*
X0024350Y0218600D03*
D670*
X0105230Y0218600D03*
X0105230Y0218850D03*
X0105230Y0219100D03*
X0105230Y0219350D03*
D671*
X0024225Y0219350D03*
X0024225Y0219100D03*
X0049225Y0298100D03*
X0074225Y0324850D03*
D672*
X0024100Y0219600D03*
X0214100Y0295350D03*
D673*
X0105350Y0219850D03*
X0105350Y0219600D03*
D674*
X0178725Y0247350D03*
X0103975Y0340100D03*
X0049475Y0298850D03*
X0023975Y0220100D03*
X0023975Y0219850D03*
D675*
X0105475Y0220100D03*
X0105475Y0220350D03*
X0105475Y0220600D03*
D676*
X0105605Y0220850D03*
X0105605Y0221100D03*
X0105605Y0221350D03*
X0105605Y0221600D03*
X0130605Y0295100D03*
D677*
X0130480Y0294850D03*
X0105730Y0222350D03*
X0105730Y0222100D03*
X0105730Y0221850D03*
D678*
X0105855Y0222600D03*
X0105855Y0222850D03*
X0105855Y0223100D03*
X0105855Y0223350D03*
X0105855Y0223600D03*
X0130605Y0294600D03*
D679*
X0106100Y0224600D03*
X0106100Y0224350D03*
X0106100Y0224100D03*
X0106100Y0223850D03*
D680*
X0106230Y0224850D03*
X0106230Y0225100D03*
X0106230Y0225350D03*
X0106230Y0225600D03*
D681*
X0106355Y0225850D03*
X0106355Y0226100D03*
X0106355Y0226350D03*
X0106355Y0226600D03*
X0106605Y0226850D03*
X0106605Y0227100D03*
X0106605Y0227350D03*
X0106605Y0227600D03*
X0130605Y0294350D03*
D682*
X0106725Y0228600D03*
X0106725Y0228350D03*
X0106725Y0228100D03*
X0106725Y0227850D03*
D683*
X0106855Y0228850D03*
X0106855Y0229100D03*
X0107105Y0229850D03*
X0107105Y0230100D03*
X0107105Y0230350D03*
X0107105Y0230600D03*
X0107355Y0231600D03*
D684*
X0106980Y0229600D03*
X0106980Y0229350D03*
D685*
X0107230Y0230850D03*
X0107230Y0231100D03*
X0107230Y0231350D03*
X0107730Y0233350D03*
D686*
X0021100Y0231350D03*
X0053100Y0308600D03*
X0227600Y0277600D03*
D687*
X0130475Y0293850D03*
X0107475Y0232350D03*
X0107475Y0232100D03*
X0107475Y0231850D03*
D688*
X0107605Y0232600D03*
X0107605Y0232850D03*
X0107605Y0233100D03*
X0107855Y0233600D03*
X0107855Y0233850D03*
X0107855Y0234100D03*
X0107855Y0234350D03*
X0108105Y0235100D03*
X0130605Y0293600D03*
D689*
X0107980Y0234850D03*
X0107980Y0234600D03*
D690*
X0108225Y0235350D03*
X0108225Y0235600D03*
X0108225Y0235850D03*
X0108225Y0236100D03*
X0108475Y0236850D03*
D691*
X0108350Y0236600D03*
X0108350Y0236350D03*
D692*
X0108605Y0237100D03*
X0108605Y0237350D03*
X0108605Y0237600D03*
X0108605Y0237850D03*
X0108855Y0238350D03*
X0108855Y0238600D03*
X0130605Y0293350D03*
D693*
X0130480Y0293100D03*
X0108730Y0238100D03*
D694*
X0108975Y0238850D03*
X0108975Y0239100D03*
X0108975Y0239350D03*
X0109225Y0239850D03*
X0109225Y0240100D03*
D695*
X0109100Y0239600D03*
D696*
X0109355Y0240350D03*
X0109355Y0240600D03*
X0130605Y0292850D03*
D697*
X0126100Y0240850D03*
D698*
X0126355Y0241100D03*
X0126355Y0241350D03*
D699*
X0139975Y0241850D03*
D700*
X0122350Y0242350D03*
D701*
X0122350Y0242600D03*
D702*
X0055100Y0246850D03*
X0055100Y0247100D03*
X0055100Y0247350D03*
X0054600Y0245600D03*
X0054600Y0245350D03*
X0054600Y0245100D03*
X0054600Y0244850D03*
X0054350Y0244600D03*
X0054350Y0244350D03*
X0054350Y0244100D03*
X0054350Y0243850D03*
X0054350Y0243600D03*
D703*
X0122095Y0245600D03*
X0122095Y0245850D03*
X0122095Y0246100D03*
X0122095Y0246350D03*
D704*
X0178725Y0246600D03*
X0178725Y0246850D03*
X0236975Y0273100D03*
X0028975Y0252850D03*
D705*
X0028355Y0252100D03*
X0031595Y0263350D03*
X0044595Y0291600D03*
X0049605Y0299100D03*
X0049605Y0299350D03*
X0074845Y0325600D03*
X0151855Y0359100D03*
X0189355Y0323350D03*
X0159605Y0256850D03*
X0178855Y0247850D03*
X0178855Y0247600D03*
D706*
X0121975Y0248350D03*
X0130725Y0330600D03*
D707*
X0179100Y0249100D03*
D708*
X0056350Y0251100D03*
X0055850Y0249850D03*
X0055850Y0249600D03*
D709*
X0122100Y0250100D03*
X0122100Y0250350D03*
D710*
X0122105Y0251850D03*
X0122105Y0252100D03*
D711*
X0122100Y0252350D03*
X0122100Y0252600D03*
D712*
X0028850Y0252600D03*
D713*
X0122105Y0252850D03*
X0122105Y0253100D03*
D714*
X0122100Y0254100D03*
D715*
X0121975Y0254350D03*
D716*
X0122100Y0254600D03*
D717*
X0122105Y0254850D03*
D718*
X0030850Y0255100D03*
X0072100Y0322100D03*
X0079350Y0350850D03*
X0215350Y0291350D03*
X0215350Y0291100D03*
D719*
X0219475Y0283100D03*
X0191725Y0319850D03*
X0071975Y0321850D03*
X0031225Y0255350D03*
D720*
X0031355Y0255600D03*
X0031355Y0255850D03*
X0047355Y0292600D03*
X0047605Y0293100D03*
X0115355Y0363600D03*
X0215355Y0290600D03*
D721*
X0213975Y0296100D03*
X0222475Y0281100D03*
X0086225Y0255600D03*
X0049725Y0299600D03*
D722*
X0121975Y0256100D03*
D723*
X0086225Y0256350D03*
X0215975Y0288350D03*
X0215975Y0288600D03*
X0218475Y0283850D03*
X0115225Y0364600D03*
D724*
X0121975Y0256350D03*
D725*
X0122100Y0256600D03*
D726*
X0122100Y0256850D03*
D727*
X0059605Y0257350D03*
D728*
X0122100Y0257600D03*
D729*
X0122105Y0257850D03*
D730*
X0121975Y0258350D03*
D731*
X0121980Y0258600D03*
D732*
X0121850Y0259100D03*
D733*
X0061225Y0259350D03*
D734*
X0121855Y0259350D03*
D735*
X0061850Y0259850D03*
D736*
X0121850Y0259850D03*
D737*
X0062100Y0260100D03*
D738*
X0121730Y0260100D03*
D739*
X0062855Y0260600D03*
D740*
X0121600Y0260600D03*
D741*
X0179100Y0260600D03*
D742*
X0121355Y0260850D03*
D743*
X0121350Y0261100D03*
D744*
X0099350Y0261600D03*
D745*
X0178725Y0261600D03*
D746*
X0099855Y0261850D03*
D747*
X0100230Y0262100D03*
D748*
X0100600Y0262350D03*
D749*
X0101480Y0262600D03*
X0130730Y0309600D03*
D750*
X0130605Y0286850D03*
X0119355Y0262850D03*
D751*
X0119600Y0263100D03*
D752*
X0119730Y0263350D03*
D753*
X0119855Y0263600D03*
X0120105Y0263850D03*
X0130595Y0286600D03*
D754*
X0130475Y0286350D03*
X0120225Y0264100D03*
D755*
X0120480Y0264350D03*
X0120730Y0264600D03*
D756*
X0120850Y0264850D03*
X0130600Y0285600D03*
D757*
X0120980Y0265100D03*
D758*
X0121350Y0265350D03*
D759*
X0121470Y0265600D03*
D760*
X0121595Y0265850D03*
D761*
X0121850Y0266100D03*
D762*
X0121975Y0266350D03*
D763*
X0122345Y0266600D03*
X0130605Y0284350D03*
D764*
X0122475Y0266850D03*
D765*
X0122725Y0267100D03*
D766*
X0122970Y0267350D03*
D767*
X0123225Y0267600D03*
X0130725Y0283100D03*
D768*
X0130605Y0282850D03*
X0123595Y0267850D03*
D769*
X0123725Y0268100D03*
D770*
X0123975Y0268350D03*
D771*
X0124600Y0268600D03*
D772*
X0124975Y0268850D03*
X0130725Y0281100D03*
D773*
X0125225Y0269100D03*
D774*
X0125595Y0269350D03*
D775*
X0125845Y0269600D03*
X0130605Y0280100D03*
D776*
X0130600Y0279600D03*
X0126100Y0269850D03*
D777*
X0126480Y0270100D03*
D778*
X0126850Y0270350D03*
D779*
X0127230Y0270600D03*
X0130720Y0278350D03*
D780*
X0130595Y0277600D03*
X0127605Y0270850D03*
D781*
X0127975Y0271100D03*
D782*
X0128480Y0271350D03*
X0130730Y0276100D03*
X0130730Y0276350D03*
D783*
X0128855Y0271600D03*
D784*
X0129350Y0271850D03*
D785*
X0129855Y0272100D03*
D786*
X0130475Y0272350D03*
X0130725Y0272850D03*
X0130725Y0273100D03*
D787*
X0130730Y0272600D03*
D788*
X0130600Y0273350D03*
D789*
X0130725Y0273600D03*
D790*
X0130600Y0273850D03*
D791*
X0130725Y0274100D03*
D792*
X0130605Y0274350D03*
D793*
X0130730Y0274600D03*
D794*
X0130605Y0274850D03*
D795*
X0130730Y0275100D03*
X0130730Y0275350D03*
D796*
X0130730Y0275600D03*
X0130730Y0275850D03*
D797*
X0032475Y0276600D03*
X0032475Y0276850D03*
D798*
X0130605Y0276600D03*
D799*
X0130730Y0276850D03*
D800*
X0130600Y0277100D03*
D801*
X0130720Y0277350D03*
D802*
X0130725Y0277850D03*
D803*
X0130600Y0278100D03*
D804*
X0130595Y0278600D03*
D805*
X0130725Y0278850D03*
D806*
X0130605Y0279100D03*
D807*
X0130725Y0279350D03*
D808*
X0130730Y0279850D03*
D809*
X0130725Y0280350D03*
D810*
X0130730Y0280600D03*
X0130730Y0280850D03*
D811*
X0130595Y0281350D03*
D812*
X0130725Y0281600D03*
D813*
X0130600Y0281850D03*
D814*
X0130720Y0282100D03*
D815*
X0130595Y0282350D03*
D816*
X0130725Y0282600D03*
D817*
X0072605Y0322600D03*
X0079355Y0350600D03*
X0048105Y0294850D03*
X0048105Y0294600D03*
X0187605Y0345100D03*
X0191355Y0320600D03*
X0220355Y0282600D03*
D818*
X0219850Y0282850D03*
D819*
X0130600Y0283350D03*
X0130600Y0283600D03*
D820*
X0219100Y0283350D03*
D821*
X0130605Y0283850D03*
D822*
X0130480Y0284100D03*
D823*
X0208350Y0312600D03*
X0148850Y0349350D03*
X0033350Y0284600D03*
X0033350Y0284350D03*
D824*
X0078230Y0352350D03*
X0193480Y0317100D03*
X0216230Y0287350D03*
X0216230Y0287100D03*
X0217720Y0284350D03*
D825*
X0130480Y0284600D03*
D826*
X0130605Y0284850D03*
D827*
X0130475Y0285100D03*
D828*
X0130600Y0285350D03*
D829*
X0130475Y0285850D03*
D830*
X0130600Y0286100D03*
D831*
X0130480Y0287100D03*
D832*
X0130600Y0287350D03*
D833*
X0130475Y0287600D03*
D834*
X0130605Y0287850D03*
D835*
X0130600Y0288100D03*
D836*
X0130470Y0288350D03*
D837*
X0130600Y0288600D03*
D838*
X0037975Y0288850D03*
D839*
X0130595Y0288850D03*
D840*
X0215855Y0288850D03*
X0215855Y0289100D03*
D841*
X0130470Y0289100D03*
D842*
X0130600Y0289350D03*
D843*
X0130475Y0289600D03*
D844*
X0130595Y0289850D03*
D845*
X0130605Y0290100D03*
D846*
X0130480Y0290350D03*
D847*
X0130600Y0290600D03*
D848*
X0130605Y0290850D03*
D849*
X0130480Y0291100D03*
D850*
X0130600Y0291350D03*
D851*
X0130605Y0291600D03*
D852*
X0130600Y0291850D03*
D853*
X0130605Y0292100D03*
D854*
X0130475Y0292350D03*
D855*
X0130595Y0292600D03*
D856*
X0130600Y0294100D03*
D857*
X0130600Y0295350D03*
D858*
X0130475Y0295850D03*
D859*
X0130600Y0296350D03*
D860*
X0130470Y0296600D03*
D861*
X0130475Y0296850D03*
D862*
X0130595Y0297100D03*
D863*
X0130605Y0297350D03*
D864*
X0130480Y0297600D03*
D865*
X0130475Y0297850D03*
D866*
X0130605Y0298100D03*
D867*
X0130595Y0298350D03*
X0130595Y0298600D03*
D868*
X0130605Y0298850D03*
D869*
X0130725Y0299100D03*
D870*
X0130730Y0299350D03*
D871*
X0130725Y0299600D03*
D872*
X0130595Y0299850D03*
D873*
X0130605Y0300100D03*
D874*
X0130725Y0300350D03*
D875*
X0130730Y0300600D03*
D876*
X0130725Y0300850D03*
D877*
X0130725Y0301100D03*
D878*
X0130605Y0301350D03*
D879*
X0130600Y0301600D03*
D880*
X0130730Y0301850D03*
D881*
X0130605Y0303100D03*
D882*
X0130600Y0303350D03*
D883*
X0130720Y0303600D03*
D884*
X0130725Y0303850D03*
D885*
X0130725Y0304100D03*
D886*
X0130730Y0304350D03*
D887*
X0130720Y0304600D03*
D888*
X0130605Y0305100D03*
D889*
X0130600Y0305350D03*
D890*
X0130600Y0305600D03*
D891*
X0130725Y0306350D03*
D892*
X0130730Y0306600D03*
D893*
X0130725Y0306850D03*
D894*
X0130725Y0307350D03*
D895*
X0130730Y0307600D03*
D896*
X0130725Y0307850D03*
D897*
X0130725Y0308100D03*
D898*
X0130730Y0308350D03*
D899*
X0130730Y0308600D03*
D900*
X0130730Y0308850D03*
D901*
X0130725Y0309100D03*
D902*
X0130730Y0309350D03*
D903*
X0130730Y0309850D03*
D904*
X0130720Y0310100D03*
D905*
X0130730Y0310350D03*
D906*
X0130725Y0310600D03*
D907*
X0130595Y0311100D03*
D908*
X0130605Y0311350D03*
D909*
X0130600Y0311600D03*
D910*
X0130720Y0311850D03*
D911*
X0130725Y0312100D03*
D912*
X0130725Y0312350D03*
D913*
X0130730Y0312600D03*
D914*
X0130725Y0312850D03*
D915*
X0130605Y0313100D03*
D916*
X0130600Y0313350D03*
D917*
X0130725Y0313600D03*
D918*
X0130725Y0313850D03*
D919*
X0130725Y0314100D03*
D920*
X0130730Y0314850D03*
D921*
X0130600Y0315350D03*
D922*
X0130730Y0315850D03*
D923*
X0130720Y0316100D03*
D924*
X0130605Y0316350D03*
D925*
X0130730Y0316600D03*
D926*
X0130720Y0316850D03*
D927*
X0189350Y0346600D03*
X0193600Y0316850D03*
D928*
X0130730Y0317350D03*
D929*
X0189105Y0346350D03*
X0193355Y0317350D03*
D930*
X0193230Y0317600D03*
X0192970Y0317850D03*
X0164230Y0336850D03*
X0078480Y0352100D03*
D931*
X0130730Y0318100D03*
D932*
X0130605Y0318600D03*
D933*
X0130730Y0318850D03*
D934*
X0162975Y0337600D03*
X0152725Y0361850D03*
X0115225Y0363850D03*
X0192225Y0319100D03*
D935*
X0130730Y0319350D03*
D936*
X0192100Y0319350D03*
D937*
X0130605Y0319600D03*
D938*
X0130725Y0319850D03*
D939*
X0130730Y0320100D03*
D940*
X0130730Y0320350D03*
D941*
X0117605Y0346600D03*
X0087605Y0338100D03*
X0059105Y0320850D03*
X0177855Y0336350D03*
D942*
X0115725Y0343350D03*
X0059225Y0321100D03*
D943*
X0059475Y0321350D03*
D944*
X0130725Y0321350D03*
D945*
X0130600Y0321600D03*
D946*
X0130475Y0322350D03*
D947*
X0130595Y0322600D03*
D948*
X0130600Y0322850D03*
D949*
X0130475Y0323100D03*
D950*
X0130480Y0323350D03*
D951*
X0130605Y0323600D03*
D952*
X0130600Y0323850D03*
D953*
X0130600Y0324100D03*
D954*
X0130475Y0324350D03*
D955*
X0130475Y0324850D03*
D956*
X0130475Y0326350D03*
D957*
X0130600Y0326850D03*
D958*
X0130730Y0327100D03*
D959*
X0081475Y0347600D03*
X0076725Y0327850D03*
D960*
X0130725Y0327850D03*
D961*
X0130600Y0328100D03*
D962*
X0130725Y0328350D03*
D963*
X0130600Y0328600D03*
D964*
X0130725Y0328850D03*
D965*
X0130725Y0329100D03*
D966*
X0130600Y0329350D03*
D967*
X0130725Y0329600D03*
D968*
X0130725Y0329850D03*
D969*
X0130725Y0330100D03*
D970*
X0130600Y0330350D03*
D971*
X0130725Y0332350D03*
X0088225Y0338350D03*
D972*
X0163730Y0337100D03*
D973*
X0146980Y0343350D03*
X0089480Y0339100D03*
D974*
X0132225Y0343600D03*
D975*
X0132225Y0343850D03*
X0132225Y0344100D03*
D976*
X0132225Y0344350D03*
X0132225Y0344600D03*
D977*
X0115100Y0364850D03*
X0188850Y0346100D03*
D978*
X0147975Y0346600D03*
X0117475Y0347100D03*
D979*
X0115350Y0362850D03*
D980*
X0115475Y0363100D03*
D981*
X0232850Y0146350D03*
X0232850Y0116350D03*
D982*
X0199400Y0100500D03*
X0199400Y0082700D03*
X0199400Y0065500D03*
X0199400Y0047700D03*
X0199400Y0031750D03*
X0199400Y0013950D03*
X0173800Y0013950D03*
X0173800Y0031750D03*
X0173800Y0047700D03*
X0173800Y0065500D03*
X0173800Y0082700D03*
X0173800Y0100500D03*
X0378475Y0205975D03*
X0380975Y0227225D03*
X0390975Y0227225D03*
X0408475Y0205975D03*
D983*
X0193387Y0116950D02*
X0187312Y0116950D01*
X0143388Y0116950D02*
X0137313Y0116950D01*
D984*
X0301600Y0116600D03*
X0311600Y0116600D03*
X0321600Y0116600D03*
X0331600Y0116600D03*
X0341600Y0116600D03*
X0351600Y0116600D03*
X0361600Y0116600D03*
X0371600Y0116600D03*
X0381600Y0116600D03*
X0391600Y0116600D03*
X0401600Y0116600D03*
X0411600Y0116600D03*
X0421600Y0116600D03*
X0431600Y0116600D03*
X0441600Y0116600D03*
X0441600Y0026600D03*
X0431600Y0026600D03*
X0421600Y0026600D03*
X0411600Y0026600D03*
X0401600Y0026600D03*
X0391600Y0026600D03*
X0381600Y0026600D03*
X0371600Y0026600D03*
X0361600Y0026600D03*
X0351600Y0026600D03*
X0341600Y0026600D03*
X0331600Y0026600D03*
X0321600Y0026600D03*
X0311600Y0026600D03*
X0301600Y0026600D03*
D985*
X0286600Y0031600D03*
X0286600Y0111600D03*
X0456600Y0111600D03*
X0456600Y0031600D03*
D986*
X0264100Y0237969D02*
X0264100Y0245369D01*
X0254100Y0245369D02*
X0254100Y0237969D01*
X0244100Y0237969D02*
X0244100Y0245369D01*
X0234100Y0245369D02*
X0234100Y0237969D01*
D987*
X0203234Y0239700D03*
X0294966Y0239700D03*
X0294966Y0146000D03*
X0203234Y0146000D03*
D988*
X0388600Y0146600D02*
X0394600Y0146600D01*
X0394600Y0156600D02*
X0388600Y0156600D01*
X0388600Y0166600D02*
X0394600Y0166600D01*
X0394600Y0176600D02*
X0388600Y0176600D01*
D989*
X0349100Y0275350D03*
X0339100Y0275350D03*
X0329100Y0275350D03*
X0319100Y0275350D03*
X0309100Y0275350D03*
X0299100Y0275350D03*
X0289100Y0275350D03*
X0279100Y0275350D03*
X0269100Y0275350D03*
X0259100Y0275350D03*
X0259100Y0285350D03*
X0269100Y0285350D03*
X0279100Y0285350D03*
X0289100Y0285350D03*
X0299100Y0285350D03*
X0309100Y0285350D03*
X0319100Y0285350D03*
X0329100Y0285350D03*
X0339100Y0285350D03*
X0349100Y0285350D03*
D990*
X0326600Y0264100D03*
X0339100Y0260350D03*
X0312850Y0260350D03*
X0304100Y0266600D03*
X0264100Y0262850D03*
X0279100Y0216600D03*
X0306600Y0206600D03*
X0321600Y0191600D03*
X0321600Y0176600D03*
X0341600Y0196600D03*
X0331600Y0206600D03*
X0331600Y0211600D03*
X0392850Y0211600D03*
X0411600Y0196600D03*
X0401600Y0191600D03*
X0341600Y0136600D03*
X0326600Y0126600D03*
X0316600Y0136600D03*
X0264100Y0176600D03*
X0254100Y0166600D03*
X0259100Y0101600D03*
X0249100Y0091600D03*
X0271600Y0086600D03*
X0276600Y0096600D03*
X0311600Y0041600D03*
X0351600Y0076600D03*
X0381600Y0086600D03*
X0391600Y0096600D03*
X0401600Y0076600D03*
X0441600Y0076600D03*
M02*
