G75*
%MOIN*%
%OFA0B0*%
%FSLAX25Y25*%
%IPPOS*%
%LPD*%
%AMOC8*
5,1,8,0,0,1.08239X$1,22.5*
%
%ADD10C,0.00400*%
%ADD11C,0.00600*%
%ADD12C,0.00800*%
%ADD13C,0.00500*%
%ADD14C,0.13600*%
D10*
X0161800Y0116800D02*
X0166404Y0116800D01*
X0166404Y0119102D01*
X0165637Y0119869D01*
X0164102Y0119869D01*
X0163335Y0119102D01*
X0163335Y0116800D01*
X0163335Y0118335D02*
X0161800Y0119869D01*
X0162567Y0121404D02*
X0164102Y0121404D01*
X0164869Y0122171D01*
X0164869Y0123706D01*
X0164102Y0124473D01*
X0163335Y0124473D01*
X0163335Y0121404D01*
X0162567Y0121404D02*
X0161800Y0122171D01*
X0161800Y0123706D01*
X0161800Y0126008D02*
X0164869Y0126008D01*
X0164869Y0126775D01*
X0164102Y0127542D01*
X0164869Y0128310D01*
X0164102Y0129077D01*
X0161800Y0129077D01*
X0161800Y0127542D02*
X0164102Y0127542D01*
X0164869Y0130612D02*
X0164869Y0131379D01*
X0161800Y0131379D01*
X0161800Y0130612D02*
X0161800Y0132146D01*
X0161800Y0133681D02*
X0164869Y0133681D01*
X0164869Y0135983D01*
X0164102Y0136750D01*
X0161800Y0136750D01*
X0162567Y0138285D02*
X0164102Y0138285D01*
X0164869Y0139052D01*
X0164869Y0141354D01*
X0166404Y0141354D02*
X0161800Y0141354D01*
X0161800Y0139052D01*
X0162567Y0138285D01*
X0162567Y0142889D02*
X0164102Y0142889D01*
X0164869Y0143656D01*
X0164869Y0145191D01*
X0164102Y0145958D01*
X0163335Y0145958D01*
X0163335Y0142889D01*
X0162567Y0142889D02*
X0161800Y0143656D01*
X0161800Y0145191D01*
X0161800Y0147493D02*
X0164869Y0147493D01*
X0163335Y0147493D02*
X0164869Y0149027D01*
X0164869Y0149795D01*
X0164869Y0151329D02*
X0164102Y0151329D01*
X0164102Y0152097D01*
X0164869Y0152097D01*
X0164869Y0151329D01*
X0162567Y0151329D02*
X0161800Y0151329D01*
X0161800Y0152097D01*
X0162567Y0152097D01*
X0162567Y0151329D01*
X0161800Y0158235D02*
X0161800Y0160537D01*
X0162567Y0161305D01*
X0164102Y0161305D01*
X0164869Y0160537D01*
X0164869Y0158235D01*
X0160265Y0158235D01*
X0162567Y0162839D02*
X0161800Y0163607D01*
X0161800Y0165909D01*
X0164869Y0165909D01*
X0164869Y0167443D02*
X0164869Y0168978D01*
X0165637Y0168210D02*
X0162567Y0168210D01*
X0161800Y0168978D01*
X0162567Y0162839D02*
X0164869Y0162839D01*
X0164869Y0175116D02*
X0164869Y0176651D01*
X0165637Y0175884D02*
X0162567Y0175884D01*
X0161800Y0176651D01*
X0161800Y0178186D02*
X0166404Y0178186D01*
X0164869Y0178953D02*
X0164869Y0180488D01*
X0164102Y0181255D01*
X0161800Y0181255D01*
X0162567Y0182790D02*
X0164102Y0182790D01*
X0164869Y0183557D01*
X0164869Y0185092D01*
X0164102Y0185859D01*
X0163335Y0185859D01*
X0163335Y0182790D01*
X0162567Y0182790D02*
X0161800Y0183557D01*
X0161800Y0185092D01*
X0164869Y0178953D02*
X0164102Y0178186D01*
X0164869Y0191997D02*
X0164869Y0194299D01*
X0164102Y0195067D01*
X0162567Y0195067D01*
X0161800Y0194299D01*
X0161800Y0191997D01*
X0166404Y0191997D01*
X0162567Y0196601D02*
X0163335Y0197369D01*
X0163335Y0199671D01*
X0164102Y0199671D02*
X0161800Y0199671D01*
X0161800Y0197369D01*
X0162567Y0196601D01*
X0164869Y0197369D02*
X0164869Y0198903D01*
X0164102Y0199671D01*
X0164869Y0201205D02*
X0164869Y0202740D01*
X0165637Y0201973D02*
X0162567Y0201973D01*
X0161800Y0202740D01*
X0162567Y0205042D02*
X0161800Y0205809D01*
X0162567Y0205042D02*
X0165637Y0205042D01*
X0164869Y0204275D02*
X0164869Y0205809D01*
X0164102Y0207344D02*
X0164869Y0208111D01*
X0164869Y0209646D01*
X0164102Y0210413D01*
X0163335Y0210413D01*
X0163335Y0207344D01*
X0164102Y0207344D02*
X0162567Y0207344D01*
X0161800Y0208111D01*
X0161800Y0209646D01*
X0161800Y0211948D02*
X0164869Y0211948D01*
X0163335Y0211948D02*
X0164869Y0213482D01*
X0164869Y0214250D01*
X0164869Y0215784D02*
X0162567Y0215784D01*
X0161800Y0216552D01*
X0161800Y0218854D01*
X0161033Y0218854D02*
X0160265Y0218086D01*
X0160265Y0217319D01*
X0161033Y0218854D02*
X0164869Y0218854D01*
X0164102Y0224992D02*
X0164869Y0225760D01*
X0164869Y0227294D01*
X0164102Y0228061D01*
X0161800Y0228061D01*
X0162567Y0229596D02*
X0161800Y0230363D01*
X0161800Y0231898D01*
X0162567Y0232665D01*
X0164102Y0232665D01*
X0164869Y0231898D01*
X0164869Y0230363D01*
X0164102Y0229596D01*
X0162567Y0229596D01*
X0161800Y0224992D02*
X0166404Y0224992D01*
X0166404Y0234200D02*
X0166404Y0234967D01*
X0161800Y0234967D01*
X0161800Y0234200D02*
X0161800Y0235735D01*
X0162567Y0237269D02*
X0164102Y0237269D01*
X0164869Y0238037D01*
X0164869Y0240339D01*
X0166404Y0240339D02*
X0161800Y0240339D01*
X0161800Y0238037D01*
X0162567Y0237269D01*
X0162567Y0241873D02*
X0164102Y0241873D01*
X0164869Y0242641D01*
X0164869Y0244175D01*
X0164102Y0244943D01*
X0163335Y0244943D01*
X0163335Y0241873D01*
X0162567Y0241873D02*
X0161800Y0242641D01*
X0161800Y0244175D01*
X0161800Y0246477D02*
X0164869Y0246477D01*
X0163335Y0246477D02*
X0164869Y0248012D01*
X0164869Y0248779D01*
X0164102Y0254918D02*
X0162567Y0254918D01*
X0161800Y0255685D01*
X0161800Y0257220D01*
X0162567Y0257987D01*
X0164102Y0257987D01*
X0164869Y0257220D01*
X0164869Y0255685D01*
X0164102Y0254918D01*
X0164869Y0259522D02*
X0161800Y0259522D01*
X0161800Y0262591D02*
X0164102Y0262591D01*
X0164869Y0261824D01*
X0164869Y0259522D01*
X0166404Y0268729D02*
X0166404Y0269497D01*
X0161800Y0269497D01*
X0161800Y0270264D02*
X0161800Y0268729D01*
X0162567Y0271799D02*
X0163335Y0272566D01*
X0163335Y0274868D01*
X0164102Y0274868D02*
X0161800Y0274868D01*
X0161800Y0272566D01*
X0162567Y0271799D01*
X0164869Y0272566D02*
X0164869Y0274101D01*
X0164102Y0274868D01*
X0164102Y0276403D02*
X0164869Y0277170D01*
X0164869Y0279472D01*
X0164869Y0281007D02*
X0164869Y0282541D01*
X0165637Y0281774D02*
X0162567Y0281774D01*
X0161800Y0282541D01*
X0161800Y0284076D02*
X0162567Y0284076D01*
X0164102Y0284076D02*
X0167171Y0284076D01*
X0162567Y0279472D02*
X0163335Y0278705D01*
X0163335Y0277170D01*
X0164102Y0276403D01*
X0161800Y0276403D02*
X0161800Y0278705D01*
X0162567Y0279472D01*
X0231800Y0228950D02*
X0231800Y0226648D01*
X0236404Y0226648D01*
X0236404Y0228950D01*
X0235637Y0229717D01*
X0232567Y0229717D01*
X0231800Y0228950D01*
X0231800Y0225113D02*
X0236404Y0225113D01*
X0236404Y0222044D02*
X0231800Y0222044D01*
X0232567Y0220509D02*
X0234102Y0220509D01*
X0234102Y0218974D01*
X0235637Y0217440D02*
X0232567Y0217440D01*
X0231800Y0218207D01*
X0231800Y0219742D01*
X0232567Y0220509D01*
X0235637Y0220509D02*
X0236404Y0219742D01*
X0236404Y0218207D01*
X0235637Y0217440D01*
X0236404Y0222044D02*
X0231800Y0225113D01*
X0241800Y0224346D02*
X0241800Y0222811D01*
X0242567Y0222044D01*
X0245637Y0222044D01*
X0246404Y0222811D01*
X0246404Y0224346D01*
X0245637Y0225113D01*
X0245637Y0226648D02*
X0242567Y0226648D01*
X0241800Y0227415D01*
X0241800Y0228950D01*
X0242567Y0229717D01*
X0245637Y0229717D02*
X0246404Y0228950D01*
X0246404Y0227415D01*
X0245637Y0226648D01*
X0242567Y0225113D02*
X0241800Y0224346D01*
X0243335Y0220509D02*
X0246404Y0220509D01*
X0246404Y0217440D02*
X0243335Y0217440D01*
X0241800Y0218974D01*
X0243335Y0220509D01*
X0251800Y0219742D02*
X0251800Y0218207D01*
X0252567Y0217440D01*
X0254102Y0218207D02*
X0254102Y0219742D01*
X0253335Y0220509D01*
X0252567Y0220509D01*
X0251800Y0219742D01*
X0252567Y0222044D02*
X0251800Y0222811D01*
X0251800Y0224346D01*
X0252567Y0225113D01*
X0251800Y0226648D02*
X0251800Y0229717D01*
X0251800Y0226648D02*
X0256404Y0226648D01*
X0255637Y0225113D02*
X0256404Y0224346D01*
X0256404Y0222811D01*
X0255637Y0222044D01*
X0252567Y0222044D01*
X0255637Y0220509D02*
X0256404Y0219742D01*
X0256404Y0218207D01*
X0255637Y0217440D01*
X0254869Y0217440D01*
X0254102Y0218207D01*
X0261800Y0218207D02*
X0262567Y0217440D01*
X0261800Y0218207D02*
X0261800Y0219742D01*
X0262567Y0220509D01*
X0263335Y0220509D01*
X0264102Y0219742D01*
X0264102Y0218207D01*
X0264869Y0217440D01*
X0265637Y0217440D01*
X0266404Y0218207D01*
X0266404Y0219742D01*
X0265637Y0220509D01*
X0266404Y0222044D02*
X0266404Y0224346D01*
X0265637Y0225113D01*
X0262567Y0225113D01*
X0261800Y0224346D01*
X0261800Y0222044D01*
X0266404Y0222044D01*
X0264869Y0226648D02*
X0266404Y0228182D01*
X0264869Y0229717D01*
X0261800Y0229717D01*
X0264102Y0229717D02*
X0264102Y0226648D01*
X0264869Y0226648D02*
X0261800Y0226648D01*
X0167171Y0131379D02*
X0166404Y0131379D01*
X0212293Y0016404D02*
X0211525Y0015637D01*
X0211525Y0014869D01*
X0212293Y0014102D01*
X0213827Y0014102D01*
X0214595Y0014869D01*
X0214595Y0015637D01*
X0213827Y0016404D01*
X0212293Y0016404D01*
X0212293Y0014102D02*
X0211525Y0013335D01*
X0211525Y0012567D01*
X0212293Y0011800D01*
X0213827Y0011800D01*
X0214595Y0012567D01*
X0214595Y0013335D01*
X0213827Y0014102D01*
X0216129Y0011800D02*
X0219199Y0011800D01*
X0217664Y0011800D02*
X0217664Y0016404D01*
X0219199Y0014869D01*
X0220733Y0015637D02*
X0223803Y0012567D01*
X0223035Y0011800D01*
X0221501Y0011800D01*
X0220733Y0012567D01*
X0220733Y0015637D01*
X0221501Y0016404D01*
X0223035Y0016404D01*
X0223803Y0015637D01*
X0223803Y0012567D01*
X0225337Y0011800D02*
X0228406Y0011800D01*
X0225337Y0014869D01*
X0225337Y0015637D01*
X0226105Y0016404D01*
X0227639Y0016404D01*
X0228406Y0015637D01*
X0229941Y0014102D02*
X0233010Y0014102D01*
X0234545Y0014869D02*
X0236080Y0014869D01*
X0235312Y0015637D02*
X0235312Y0012567D01*
X0234545Y0011800D01*
X0237614Y0011800D02*
X0239149Y0011800D01*
X0238382Y0011800D02*
X0238382Y0014869D01*
X0239149Y0014869D01*
X0240684Y0014869D02*
X0242986Y0013335D01*
X0240684Y0011800D01*
X0242986Y0011800D02*
X0242986Y0016404D01*
X0244520Y0014869D02*
X0245288Y0014869D01*
X0246822Y0013335D01*
X0246822Y0014869D02*
X0246822Y0011800D01*
X0248357Y0013335D02*
X0251426Y0013335D01*
X0251426Y0014102D02*
X0250659Y0014869D01*
X0249124Y0014869D01*
X0248357Y0014102D01*
X0248357Y0013335D01*
X0249124Y0011800D02*
X0250659Y0011800D01*
X0251426Y0012567D01*
X0251426Y0014102D01*
X0252961Y0014869D02*
X0255263Y0014869D01*
X0256030Y0014102D01*
X0256030Y0012567D01*
X0255263Y0011800D01*
X0252961Y0011800D01*
X0252961Y0016404D01*
X0258332Y0016404D02*
X0258332Y0011800D01*
X0259099Y0011800D02*
X0257565Y0011800D01*
X0260634Y0012567D02*
X0260634Y0014102D01*
X0261401Y0014869D01*
X0262936Y0014869D01*
X0263703Y0014102D01*
X0263703Y0012567D01*
X0262936Y0011800D01*
X0261401Y0011800D01*
X0260634Y0012567D01*
X0259099Y0016404D02*
X0258332Y0016404D01*
X0265238Y0015637D02*
X0266005Y0016404D01*
X0267540Y0016404D01*
X0268307Y0015637D01*
X0268307Y0014869D01*
X0267540Y0014102D01*
X0266005Y0014102D01*
X0265238Y0013335D01*
X0265238Y0012567D01*
X0266005Y0011800D01*
X0267540Y0011800D01*
X0268307Y0012567D01*
X0269842Y0014102D02*
X0272911Y0014102D01*
X0274446Y0016404D02*
X0277515Y0016404D01*
X0277515Y0011800D01*
X0279050Y0011800D02*
X0279050Y0016404D01*
X0280584Y0014869D01*
X0282119Y0016404D01*
X0282119Y0011800D01*
X0283654Y0011800D02*
X0283654Y0016404D01*
X0285188Y0014869D01*
X0286723Y0016404D01*
X0286723Y0011800D01*
X0288257Y0011800D02*
X0289792Y0013335D01*
X0289025Y0011800D02*
X0288257Y0012567D01*
X0288257Y0015637D01*
X0289025Y0016404D01*
X0290559Y0016404D01*
X0291327Y0015637D01*
X0291327Y0012567D01*
X0290559Y0011800D01*
X0289025Y0011800D01*
X0292861Y0012567D02*
X0293629Y0011800D01*
X0295931Y0011800D01*
X0295931Y0016404D01*
X0293629Y0016404D01*
X0292861Y0015637D01*
X0292861Y0014869D01*
X0293629Y0014102D01*
X0295931Y0014102D01*
X0297465Y0014102D02*
X0300535Y0014102D01*
X0300535Y0014869D02*
X0299000Y0016404D01*
X0297465Y0014869D01*
X0297465Y0011800D01*
X0300535Y0011800D02*
X0300535Y0014869D01*
X0302069Y0016404D02*
X0305139Y0011800D01*
X0306673Y0012567D02*
X0306673Y0015637D01*
X0307440Y0016404D01*
X0308975Y0016404D01*
X0309742Y0015637D01*
X0309742Y0014869D01*
X0308975Y0014102D01*
X0306673Y0014102D01*
X0306673Y0012567D02*
X0307440Y0011800D01*
X0308975Y0011800D01*
X0309742Y0012567D01*
X0311277Y0011800D02*
X0313579Y0011800D01*
X0314346Y0012567D01*
X0314346Y0014102D01*
X0313579Y0014869D01*
X0311277Y0014869D01*
X0311277Y0011033D01*
X0312044Y0010265D01*
X0312812Y0010265D01*
X0315881Y0012567D02*
X0315881Y0014102D01*
X0316648Y0014869D01*
X0318183Y0014869D01*
X0318950Y0014102D01*
X0318950Y0012567D01*
X0318183Y0011800D01*
X0316648Y0011800D01*
X0315881Y0012567D01*
X0320485Y0011800D02*
X0320485Y0014102D01*
X0321252Y0014869D01*
X0322787Y0014869D01*
X0323554Y0014102D01*
X0325089Y0014869D02*
X0326623Y0014869D01*
X0325856Y0015637D02*
X0325856Y0012567D01*
X0325089Y0011800D01*
X0323554Y0011800D02*
X0323554Y0016404D01*
X0328158Y0014869D02*
X0328925Y0014869D01*
X0330460Y0013335D01*
X0330460Y0014869D02*
X0330460Y0011800D01*
X0331995Y0011800D02*
X0334297Y0011800D01*
X0335064Y0012567D01*
X0334297Y0013335D01*
X0331995Y0013335D01*
X0331995Y0014102D02*
X0331995Y0011800D01*
X0331995Y0014102D02*
X0332762Y0014869D01*
X0334297Y0014869D01*
X0336599Y0014869D02*
X0336599Y0012567D01*
X0337366Y0011800D01*
X0338133Y0012567D01*
X0338901Y0011800D01*
X0339668Y0012567D01*
X0339668Y0014869D01*
X0341203Y0016404D02*
X0344272Y0011800D01*
X0345807Y0011800D02*
X0345807Y0014102D01*
X0346574Y0014869D01*
X0347341Y0014102D01*
X0347341Y0011800D01*
X0348876Y0011800D02*
X0348876Y0014869D01*
X0348108Y0014869D01*
X0347341Y0014102D01*
X0350410Y0014102D02*
X0351178Y0014869D01*
X0352712Y0014869D01*
X0353480Y0014102D01*
X0353480Y0012567D01*
X0352712Y0011800D01*
X0351178Y0011800D01*
X0350410Y0012567D01*
X0350410Y0014102D01*
X0355014Y0014869D02*
X0357316Y0014869D01*
X0358084Y0014102D01*
X0358084Y0012567D01*
X0357316Y0011800D01*
X0355014Y0011800D01*
X0359618Y0011800D02*
X0360386Y0011800D01*
X0360386Y0012567D01*
X0359618Y0012567D01*
X0359618Y0011800D01*
X0361920Y0012567D02*
X0361920Y0014102D01*
X0362688Y0014869D01*
X0364990Y0014869D01*
X0366524Y0014869D02*
X0366524Y0011800D01*
X0368826Y0011800D01*
X0369593Y0012567D01*
X0369593Y0014869D01*
X0371128Y0014102D02*
X0371128Y0011800D01*
X0371128Y0014102D02*
X0371895Y0014869D01*
X0373430Y0014869D01*
X0374197Y0014102D01*
X0375732Y0014869D02*
X0377267Y0014869D01*
X0376499Y0015637D02*
X0376499Y0012567D01*
X0375732Y0011800D01*
X0374197Y0011800D02*
X0374197Y0016404D01*
X0379569Y0016404D02*
X0379569Y0017171D01*
X0379569Y0014869D02*
X0379569Y0011800D01*
X0380336Y0011800D02*
X0378801Y0011800D01*
X0381871Y0011800D02*
X0384173Y0011800D01*
X0384940Y0012567D01*
X0384940Y0014102D01*
X0384173Y0014869D01*
X0381871Y0014869D01*
X0381871Y0011033D01*
X0382638Y0010265D01*
X0383405Y0010265D01*
X0380336Y0014869D02*
X0379569Y0014869D01*
X0386475Y0016404D02*
X0389544Y0011800D01*
X0394148Y0011800D02*
X0391078Y0016404D01*
X0395682Y0014869D02*
X0395682Y0014102D01*
X0396450Y0014102D01*
X0396450Y0014869D01*
X0395682Y0014869D01*
X0395682Y0012567D02*
X0395682Y0011800D01*
X0396450Y0011800D01*
X0396450Y0012567D01*
X0395682Y0012567D01*
X0397984Y0012567D02*
X0398752Y0013335D01*
X0400286Y0013335D01*
X0401054Y0014102D01*
X0400286Y0014869D01*
X0397984Y0014869D01*
X0397984Y0012567D02*
X0398752Y0011800D01*
X0401054Y0011800D01*
X0402588Y0012567D02*
X0403356Y0011800D01*
X0405658Y0011800D01*
X0407192Y0011800D02*
X0407959Y0012567D01*
X0407959Y0015637D01*
X0407192Y0014869D02*
X0408727Y0014869D01*
X0410261Y0014869D02*
X0411796Y0014869D01*
X0411029Y0015637D02*
X0411029Y0012567D01*
X0410261Y0011800D01*
X0413331Y0011800D02*
X0413331Y0014102D01*
X0414098Y0014869D01*
X0415633Y0014869D01*
X0416400Y0014102D01*
X0416400Y0016404D02*
X0416400Y0011800D01*
X0405658Y0010265D02*
X0405658Y0014869D01*
X0403356Y0014869D01*
X0402588Y0014102D01*
X0402588Y0012567D01*
X0364990Y0011800D02*
X0362688Y0011800D01*
X0361920Y0012567D01*
X0364990Y0011800D02*
X0364990Y0016404D01*
X0402699Y0051800D02*
X0405769Y0051800D01*
X0402699Y0054869D01*
X0402699Y0055637D01*
X0403467Y0056404D01*
X0405001Y0056404D01*
X0405769Y0055637D01*
X0407303Y0052567D02*
X0407303Y0051800D01*
X0408071Y0051800D01*
X0408071Y0052567D01*
X0407303Y0052567D01*
X0409605Y0051800D02*
X0412675Y0051800D01*
X0411140Y0051800D02*
X0411140Y0056404D01*
X0412675Y0054869D01*
X0418813Y0054869D02*
X0418813Y0054102D01*
X0419580Y0054102D01*
X0419580Y0054869D01*
X0418813Y0054869D01*
X0418813Y0052567D02*
X0418813Y0051800D01*
X0419580Y0051800D01*
X0419580Y0052567D01*
X0418813Y0052567D01*
X0421115Y0051800D02*
X0421115Y0054102D01*
X0421882Y0054869D01*
X0424184Y0054869D01*
X0424184Y0051800D01*
X0425719Y0052567D02*
X0425719Y0054102D01*
X0426486Y0054869D01*
X0428021Y0054869D01*
X0428788Y0054102D01*
X0428788Y0052567D01*
X0428021Y0051800D01*
X0426486Y0051800D01*
X0425719Y0052567D01*
X0430323Y0051800D02*
X0431858Y0051800D01*
X0431090Y0051800D02*
X0431090Y0054869D01*
X0431858Y0054869D01*
X0433392Y0054869D02*
X0435694Y0054869D01*
X0436461Y0054102D01*
X0435694Y0053335D01*
X0434160Y0053335D01*
X0433392Y0052567D01*
X0434160Y0051800D01*
X0436461Y0051800D01*
X0437996Y0054869D02*
X0438763Y0054869D01*
X0440298Y0053335D01*
X0440298Y0054869D02*
X0440298Y0051800D01*
X0441833Y0053335D02*
X0444902Y0053335D01*
X0444902Y0054102D02*
X0444135Y0054869D01*
X0442600Y0054869D01*
X0441833Y0054102D01*
X0441833Y0053335D01*
X0442600Y0051800D02*
X0444135Y0051800D01*
X0444902Y0052567D01*
X0444902Y0054102D01*
X0446437Y0053335D02*
X0446437Y0056404D01*
X0449506Y0056404D02*
X0449506Y0053335D01*
X0447971Y0051800D01*
X0446437Y0053335D01*
X0455644Y0054869D02*
X0457946Y0054869D01*
X0458714Y0054102D01*
X0458714Y0052567D01*
X0457946Y0051800D01*
X0455644Y0051800D01*
X0455644Y0056404D01*
X0460248Y0054869D02*
X0461016Y0054869D01*
X0462550Y0053335D01*
X0462550Y0054869D02*
X0462550Y0051800D01*
X0464085Y0051800D02*
X0466387Y0051800D01*
X0467154Y0052567D01*
X0466387Y0053335D01*
X0464085Y0053335D01*
X0464085Y0054102D02*
X0464085Y0051800D01*
X0464085Y0054102D02*
X0464852Y0054869D01*
X0466387Y0054869D01*
X0468689Y0054102D02*
X0468689Y0052567D01*
X0469456Y0051800D01*
X0470991Y0051800D01*
X0471758Y0052567D01*
X0471758Y0054102D01*
X0470991Y0054869D01*
X0469456Y0054869D01*
X0468689Y0054102D01*
X0473293Y0054869D02*
X0474060Y0054102D01*
X0476362Y0054102D01*
X0474060Y0054102D02*
X0473293Y0053335D01*
X0473293Y0052567D01*
X0474060Y0051800D01*
X0476362Y0051800D01*
X0476362Y0056404D01*
X0474060Y0056404D01*
X0473293Y0055637D01*
X0473293Y0054869D01*
X0473293Y0066800D02*
X0473293Y0069869D01*
X0474828Y0071404D01*
X0476362Y0069869D01*
X0476362Y0066800D01*
X0476362Y0069102D02*
X0473293Y0069102D01*
X0471758Y0069869D02*
X0471758Y0066800D01*
X0471758Y0068335D02*
X0470224Y0069869D01*
X0469456Y0069869D01*
X0467922Y0069869D02*
X0466387Y0069869D01*
X0467154Y0070637D02*
X0467154Y0067567D01*
X0466387Y0066800D01*
X0464852Y0067567D02*
X0464085Y0066800D01*
X0463318Y0067567D01*
X0462550Y0066800D01*
X0461783Y0067567D01*
X0461783Y0069869D01*
X0460248Y0069102D02*
X0460248Y0067567D01*
X0459481Y0066800D01*
X0457946Y0066800D01*
X0457179Y0067567D01*
X0457179Y0069102D01*
X0457946Y0069869D01*
X0459481Y0069869D01*
X0460248Y0069102D01*
X0455644Y0069869D02*
X0455644Y0066800D01*
X0455644Y0068335D02*
X0454110Y0069869D01*
X0453343Y0069869D01*
X0451808Y0068335D02*
X0449506Y0069869D01*
X0451808Y0068335D02*
X0449506Y0066800D01*
X0451808Y0066800D02*
X0451808Y0071404D01*
X0443367Y0071404D02*
X0443367Y0066800D01*
X0441065Y0066800D01*
X0440298Y0067567D01*
X0440298Y0069102D01*
X0441065Y0069869D01*
X0443367Y0069869D01*
X0438763Y0069869D02*
X0438763Y0067567D01*
X0437996Y0066800D01*
X0435694Y0066800D01*
X0435694Y0066033D02*
X0436461Y0065265D01*
X0437229Y0065265D01*
X0435694Y0066033D02*
X0435694Y0069869D01*
X0429556Y0071404D02*
X0429556Y0066800D01*
X0427254Y0066800D01*
X0426486Y0067567D01*
X0426486Y0070637D01*
X0427254Y0071404D01*
X0429556Y0071404D01*
X0424952Y0069869D02*
X0424952Y0066800D01*
X0424952Y0068335D02*
X0423417Y0069869D01*
X0422650Y0069869D01*
X0421115Y0067567D02*
X0420348Y0067567D01*
X0420348Y0066800D01*
X0421115Y0066800D01*
X0421115Y0067567D01*
X0414209Y0071404D02*
X0411140Y0071404D01*
X0412675Y0071404D02*
X0412675Y0066800D01*
X0409605Y0067567D02*
X0409605Y0069102D01*
X0408838Y0069869D01*
X0407303Y0069869D01*
X0406536Y0069102D01*
X0406536Y0068335D01*
X0409605Y0068335D01*
X0409605Y0067567D02*
X0408838Y0066800D01*
X0407303Y0066800D01*
X0405001Y0066800D02*
X0405001Y0069869D01*
X0403467Y0069869D02*
X0402699Y0069869D01*
X0403467Y0069869D02*
X0405001Y0068335D01*
X0401165Y0068335D02*
X0399630Y0069869D01*
X0398863Y0069869D01*
X0397328Y0069869D02*
X0396561Y0069869D01*
X0396561Y0066800D01*
X0397328Y0066800D02*
X0395793Y0066800D01*
X0396561Y0071404D02*
X0396561Y0072171D01*
X0401165Y0069869D02*
X0401165Y0066800D01*
X0389655Y0067567D02*
X0388888Y0066800D01*
X0387353Y0066800D01*
X0386586Y0067567D01*
X0386586Y0070637D01*
X0387353Y0071404D01*
X0388888Y0071404D01*
X0389655Y0070637D01*
X0389655Y0067567D01*
X0385051Y0067567D02*
X0385051Y0069102D01*
X0384284Y0069869D01*
X0381982Y0069869D01*
X0381982Y0071404D02*
X0381982Y0066800D01*
X0384284Y0066800D01*
X0385051Y0067567D01*
X0380447Y0067567D02*
X0379680Y0068335D01*
X0377378Y0068335D01*
X0377378Y0069102D02*
X0377378Y0066800D01*
X0379680Y0066800D01*
X0380447Y0067567D01*
X0379680Y0069869D02*
X0378145Y0069869D01*
X0377378Y0069102D01*
X0371239Y0087765D02*
X0370472Y0087765D01*
X0369705Y0088533D01*
X0369705Y0092369D01*
X0372774Y0092369D02*
X0372774Y0090067D01*
X0372007Y0089300D01*
X0369705Y0089300D01*
X0374309Y0090835D02*
X0377378Y0090835D01*
X0377378Y0091602D02*
X0376610Y0092369D01*
X0375076Y0092369D01*
X0374309Y0091602D01*
X0374309Y0090835D01*
X0375076Y0089300D02*
X0376610Y0089300D01*
X0377378Y0090067D01*
X0377378Y0091602D01*
X0378912Y0089300D02*
X0380447Y0089300D01*
X0379680Y0089300D02*
X0379680Y0093904D01*
X0380447Y0093904D01*
X0381982Y0092369D02*
X0381982Y0090067D01*
X0382749Y0089300D01*
X0383516Y0090067D01*
X0384284Y0089300D01*
X0385051Y0090067D01*
X0385051Y0092369D01*
X0386586Y0091602D02*
X0386586Y0089300D01*
X0388888Y0089300D01*
X0389655Y0090067D01*
X0388888Y0090835D01*
X0386586Y0090835D01*
X0386586Y0091602D02*
X0387353Y0092369D01*
X0388888Y0092369D01*
X0391190Y0091602D02*
X0394259Y0091602D01*
X0394259Y0089300D02*
X0394259Y0093904D01*
X0391190Y0093904D02*
X0391190Y0089300D01*
X0400397Y0093137D02*
X0400397Y0094671D01*
X0400397Y0093137D02*
X0401165Y0092369D01*
X0402699Y0091602D02*
X0405001Y0091602D01*
X0405769Y0092369D01*
X0405769Y0093137D01*
X0405001Y0093904D01*
X0403467Y0093904D01*
X0402699Y0093137D01*
X0402699Y0090067D01*
X0403467Y0089300D01*
X0405001Y0089300D01*
X0405769Y0090067D01*
X0407303Y0089300D02*
X0409605Y0089300D01*
X0410373Y0090067D01*
X0410373Y0091602D01*
X0409605Y0092369D01*
X0407303Y0092369D01*
X0407303Y0088533D01*
X0408071Y0087765D01*
X0408838Y0087765D01*
X0411907Y0090067D02*
X0411907Y0091602D01*
X0412675Y0092369D01*
X0414209Y0092369D01*
X0414977Y0091602D01*
X0414977Y0090067D01*
X0414209Y0089300D01*
X0412675Y0089300D01*
X0411907Y0090067D01*
X0416511Y0089300D02*
X0416511Y0091602D01*
X0417278Y0092369D01*
X0418813Y0092369D01*
X0419580Y0091602D01*
X0421115Y0092369D02*
X0422650Y0092369D01*
X0421882Y0093137D02*
X0421882Y0090067D01*
X0421115Y0089300D01*
X0419580Y0089300D02*
X0419580Y0093904D01*
X0424184Y0092369D02*
X0424952Y0092369D01*
X0426486Y0090835D01*
X0426486Y0092369D02*
X0426486Y0089300D01*
X0428021Y0089300D02*
X0430323Y0089300D01*
X0431090Y0090067D01*
X0430323Y0090835D01*
X0428021Y0090835D01*
X0428021Y0091602D02*
X0428021Y0089300D01*
X0428021Y0091602D02*
X0428788Y0092369D01*
X0430323Y0092369D01*
X0432625Y0093904D02*
X0432625Y0089300D01*
X0434160Y0090835D01*
X0435694Y0089300D01*
X0435694Y0093904D01*
X0437229Y0094671D02*
X0437229Y0093137D01*
X0437996Y0092369D01*
X0444135Y0091602D02*
X0444135Y0089300D01*
X0444135Y0091602D02*
X0444902Y0092369D01*
X0447204Y0092369D01*
X0447204Y0089300D01*
X0448739Y0089300D02*
X0448739Y0091602D01*
X0449506Y0092369D01*
X0451041Y0092369D01*
X0451808Y0091602D01*
X0453343Y0091602D02*
X0454110Y0092369D01*
X0455645Y0092369D01*
X0456412Y0091602D01*
X0456412Y0090067D01*
X0455645Y0089300D01*
X0454110Y0089300D01*
X0453343Y0090067D01*
X0453343Y0091602D01*
X0451808Y0093904D02*
X0451808Y0089300D01*
X0454877Y0086404D02*
X0454877Y0085637D01*
X0456412Y0084102D01*
X0456412Y0081800D01*
X0456412Y0084102D02*
X0457946Y0085637D01*
X0457946Y0086404D01*
X0459481Y0085637D02*
X0459481Y0084869D01*
X0460248Y0084102D01*
X0462550Y0084102D01*
X0464085Y0084102D02*
X0467154Y0084102D01*
X0468689Y0085637D02*
X0469456Y0086404D01*
X0470991Y0086404D01*
X0471758Y0085637D01*
X0471758Y0082567D01*
X0470991Y0081800D01*
X0469456Y0081800D01*
X0468689Y0082567D01*
X0473293Y0082567D02*
X0474060Y0081800D01*
X0475595Y0081800D01*
X0476362Y0082567D01*
X0476362Y0085637D01*
X0475595Y0086404D01*
X0474060Y0086404D01*
X0473293Y0085637D01*
X0472526Y0089300D02*
X0470991Y0089300D01*
X0470224Y0090067D01*
X0468689Y0089300D02*
X0467154Y0090835D01*
X0467154Y0092369D01*
X0468689Y0093904D01*
X0470224Y0093137D02*
X0470991Y0093904D01*
X0472526Y0093904D01*
X0473293Y0093137D01*
X0473293Y0090067D01*
X0472526Y0089300D01*
X0474828Y0089300D02*
X0476362Y0090835D01*
X0476362Y0092369D01*
X0474828Y0093904D01*
X0462550Y0086404D02*
X0460248Y0086404D01*
X0459481Y0085637D01*
X0460248Y0084102D02*
X0459481Y0083335D01*
X0459481Y0082567D01*
X0460248Y0081800D01*
X0462550Y0081800D01*
X0462550Y0086404D01*
X0460248Y0089300D02*
X0459481Y0089300D01*
X0458714Y0090067D01*
X0458714Y0093904D01*
X0459481Y0093904D02*
X0457946Y0093904D01*
X0461016Y0090067D02*
X0460248Y0089300D01*
X0453343Y0084102D02*
X0450273Y0084102D01*
X0448739Y0084869D02*
X0447971Y0084102D01*
X0446437Y0084102D01*
X0445669Y0083335D01*
X0445669Y0082567D01*
X0446437Y0081800D01*
X0447971Y0081800D01*
X0448739Y0082567D01*
X0448739Y0084869D02*
X0448739Y0085637D01*
X0447971Y0086404D01*
X0446437Y0086404D01*
X0445669Y0085637D01*
X0444135Y0084869D02*
X0442600Y0086404D01*
X0441065Y0084869D01*
X0441065Y0081800D01*
X0441065Y0084102D02*
X0444135Y0084102D01*
X0444135Y0084869D02*
X0444135Y0081800D01*
X0464852Y0069869D02*
X0464852Y0067567D01*
X0431090Y0057171D02*
X0431090Y0056404D01*
X0363566Y0089300D02*
X0360497Y0092369D01*
X0360497Y0093137D01*
X0361264Y0093904D01*
X0362799Y0093904D01*
X0363566Y0093137D01*
X0363566Y0089300D02*
X0360497Y0089300D01*
X0358962Y0090067D02*
X0355893Y0093137D01*
X0355893Y0090067D01*
X0356660Y0089300D01*
X0358195Y0089300D01*
X0358962Y0090067D01*
X0358962Y0093137D01*
X0358195Y0093904D01*
X0356660Y0093904D01*
X0355893Y0093137D01*
X0354358Y0092369D02*
X0352824Y0093904D01*
X0352824Y0089300D01*
X0354358Y0089300D02*
X0351289Y0089300D01*
X0349754Y0090067D02*
X0348987Y0089300D01*
X0347452Y0089300D01*
X0346685Y0090067D01*
X0346685Y0093137D01*
X0347452Y0093904D01*
X0348987Y0093904D01*
X0349754Y0093137D01*
X0349754Y0092369D01*
X0348987Y0091602D01*
X0346685Y0091602D01*
X0293629Y0014102D02*
X0292861Y0013335D01*
X0292861Y0012567D01*
X0277515Y0014102D02*
X0275980Y0014102D01*
X0238382Y0016404D02*
X0238382Y0017171D01*
D11*
X0369725Y0142400D02*
X0369725Y0148805D01*
X0370246Y0152400D02*
X0367043Y0152400D01*
X0365975Y0153468D01*
X0365975Y0157738D01*
X0367043Y0158805D01*
X0370246Y0158805D01*
X0370246Y0152400D01*
X0372421Y0152400D02*
X0372421Y0158805D01*
X0372746Y0162400D02*
X0368475Y0162400D01*
X0372746Y0162400D02*
X0372746Y0168805D01*
X0374921Y0167738D02*
X0375988Y0168805D01*
X0378123Y0168805D01*
X0379191Y0167738D01*
X0379191Y0163468D01*
X0378123Y0162400D01*
X0375988Y0162400D01*
X0374921Y0163468D01*
X0381366Y0163468D02*
X0382434Y0162400D01*
X0384569Y0162400D01*
X0385637Y0163468D01*
X0384569Y0165603D02*
X0385637Y0166670D01*
X0385637Y0167738D01*
X0384569Y0168805D01*
X0382434Y0168805D01*
X0381366Y0167738D01*
X0382434Y0165603D02*
X0381366Y0164535D01*
X0381366Y0163468D01*
X0382434Y0165603D02*
X0384569Y0165603D01*
X0382069Y0158805D02*
X0383137Y0157738D01*
X0383137Y0153468D01*
X0382069Y0152400D01*
X0379934Y0152400D01*
X0378866Y0153468D01*
X0378866Y0155603D01*
X0381001Y0155603D01*
X0378866Y0157738D02*
X0379934Y0158805D01*
X0382069Y0158805D01*
X0376691Y0158805D02*
X0376691Y0152400D01*
X0376157Y0148805D02*
X0378293Y0148805D01*
X0377225Y0148805D02*
X0377225Y0142400D01*
X0378293Y0142400D02*
X0376157Y0142400D01*
X0373996Y0142400D02*
X0373996Y0148805D01*
X0369725Y0142400D01*
X0380468Y0144535D02*
X0380468Y0148805D01*
X0380468Y0144535D02*
X0382603Y0142400D01*
X0384738Y0144535D01*
X0384738Y0148805D01*
X0372421Y0152400D02*
X0376691Y0158805D01*
X0377941Y0173650D02*
X0374738Y0173650D01*
X0373671Y0174718D01*
X0373671Y0178988D01*
X0374738Y0180055D01*
X0377941Y0180055D01*
X0377941Y0173650D01*
X0380116Y0174718D02*
X0381184Y0173650D01*
X0383319Y0173650D01*
X0384387Y0174718D01*
X0383319Y0176853D02*
X0381184Y0176853D01*
X0380116Y0175785D01*
X0380116Y0174718D01*
X0383319Y0176853D02*
X0384387Y0177920D01*
X0384387Y0178988D01*
X0383319Y0180055D01*
X0381184Y0180055D01*
X0380116Y0178988D01*
X0371496Y0177920D02*
X0371496Y0173650D01*
X0371496Y0176853D02*
X0367225Y0176853D01*
X0367225Y0177920D02*
X0367225Y0173650D01*
X0367225Y0177920D02*
X0369360Y0180055D01*
X0371496Y0177920D01*
D12*
X0383475Y0202975D02*
X0383475Y0205975D01*
X0382475Y0205975D01*
X0383475Y0205975D02*
X0383475Y0208975D01*
X0403475Y0208975D01*
X0403475Y0205975D01*
X0404475Y0205975D01*
X0403475Y0205975D02*
X0403475Y0202975D01*
X0383475Y0202975D01*
X0395975Y0219725D02*
X0395975Y0234725D01*
D13*
X0214150Y0106750D02*
X0066550Y0106750D01*
X0066550Y0313950D01*
X0214150Y0313950D01*
X0214150Y0106750D01*
X0190350Y0122850D02*
X0190350Y0125350D01*
X0190350Y0127850D01*
X0190350Y0125350D02*
X0192850Y0125350D01*
X0190350Y0125350D02*
X0187850Y0125350D01*
X0140350Y0127850D02*
X0140350Y0122850D01*
X0095350Y0165350D02*
X0095350Y0167850D01*
X0097850Y0167850D01*
X0095350Y0167850D02*
X0095350Y0170350D01*
X0095350Y0167850D02*
X0092850Y0167850D01*
X0090350Y0175350D02*
X0100350Y0175350D01*
X0100350Y0180350D01*
X0090350Y0180350D01*
X0090350Y0175350D01*
X0090350Y0180350D02*
X0085350Y0180350D01*
X0085350Y0240350D01*
X0105350Y0240350D01*
X0105350Y0180350D01*
X0100350Y0180350D01*
X0130350Y0180350D02*
X0150350Y0180350D01*
X0150350Y0240350D01*
X0145350Y0240350D01*
X0145350Y0245350D01*
X0135350Y0245350D01*
X0135350Y0240350D01*
X0145350Y0240350D01*
X0135350Y0240350D02*
X0130350Y0240350D01*
X0130350Y0180350D01*
X0140350Y0175350D02*
X0140350Y0170350D01*
X0175350Y0180350D02*
X0175350Y0240350D01*
X0195350Y0240350D01*
X0195350Y0180350D01*
X0190350Y0180350D01*
X0190350Y0175350D01*
X0180350Y0175350D01*
X0180350Y0180350D01*
X0190350Y0180350D01*
X0180350Y0180350D02*
X0175350Y0180350D01*
X0185350Y0170350D02*
X0185350Y0165350D01*
X0182850Y0167850D02*
X0187850Y0167850D01*
X0185350Y0245350D02*
X0185350Y0250350D01*
X0142850Y0252850D02*
X0137850Y0252850D01*
X0140350Y0250350D02*
X0140350Y0255350D01*
X0095350Y0250350D02*
X0095350Y0245350D01*
X0384590Y0201493D02*
X0385541Y0200859D01*
X0384590Y0200225D01*
X0385541Y0200225D02*
X0385541Y0202127D01*
X0387117Y0202127D02*
X0387117Y0200225D01*
X0387751Y0200225D02*
X0386483Y0200225D01*
X0387751Y0201493D02*
X0387117Y0202127D01*
X0390852Y0201410D02*
X0392120Y0200142D01*
X0391803Y0199825D01*
X0391169Y0199825D01*
X0390852Y0200142D01*
X0390852Y0201410D01*
X0391169Y0201727D01*
X0391803Y0201727D01*
X0392120Y0201410D01*
X0392120Y0200142D01*
X0393062Y0199825D02*
X0394330Y0199825D01*
X0393696Y0199825D02*
X0393696Y0201727D01*
X0394330Y0201093D01*
X0395272Y0201410D02*
X0395272Y0200776D01*
X0395589Y0200459D01*
X0396540Y0200459D01*
X0396540Y0199825D02*
X0396540Y0201727D01*
X0395589Y0201727D01*
X0395272Y0201410D01*
X0395906Y0200459D02*
X0395272Y0199825D01*
D14*
X0186600Y0210350D03*
X0094100Y0210350D03*
M02*
