G75*
%MOIN*%
%OFA0B0*%
%FSLAX25Y25*%
%IPPOS*%
%LPD*%
%AMOC8*
5,1,8,0,0,1.08239X$1,22.5*
%
%ADD10C,0.06343*%
%ADD11C,0.08200*%
%ADD12C,0.06875*%
%ADD13C,0.08400*%
%ADD14C,0.13398*%
%ADD15C,0.08200*%
%ADD16C,0.08674*%
%ADD17C,0.06800*%
%ADD18OC8,0.06800*%
%ADD19C,0.03600*%
D10*
X0227850Y0116350D03*
X0227850Y0146350D03*
D11*
X0133800Y0047700D03*
X0133800Y0065500D03*
X0159400Y0065500D03*
X0173800Y0065500D03*
X0173800Y0082700D03*
X0173800Y0100500D03*
X0199400Y0100500D03*
X0199400Y0082700D03*
X0199400Y0065500D03*
X0213800Y0065500D03*
X0213800Y0047700D03*
X0199400Y0047700D03*
X0199400Y0031750D03*
X0199400Y0013950D03*
X0173800Y0013950D03*
X0173800Y0031750D03*
X0173800Y0047700D03*
X0159400Y0047700D03*
X0239400Y0047700D03*
X0239400Y0065500D03*
X0236600Y0026600D03*
X0266600Y0026600D03*
X0378475Y0205975D03*
X0380975Y0227225D03*
X0390975Y0227225D03*
X0408475Y0205975D03*
D12*
X0193387Y0116950D02*
X0187312Y0116950D01*
X0143388Y0116950D02*
X0137313Y0116950D01*
D13*
X0301600Y0116600D03*
X0311600Y0116600D03*
X0321600Y0116600D03*
X0331600Y0116600D03*
X0341600Y0116600D03*
X0351600Y0116600D03*
X0361600Y0116600D03*
X0371600Y0116600D03*
X0381600Y0116600D03*
X0391600Y0116600D03*
X0401600Y0116600D03*
X0411600Y0116600D03*
X0421600Y0116600D03*
X0431600Y0116600D03*
X0441600Y0116600D03*
X0441600Y0026600D03*
X0431600Y0026600D03*
X0421600Y0026600D03*
X0411600Y0026600D03*
X0401600Y0026600D03*
X0391600Y0026600D03*
X0381600Y0026600D03*
X0371600Y0026600D03*
X0361600Y0026600D03*
X0351600Y0026600D03*
X0341600Y0026600D03*
X0331600Y0026600D03*
X0321600Y0026600D03*
X0311600Y0026600D03*
X0301600Y0026600D03*
D14*
X0286600Y0031600D03*
X0286600Y0111600D03*
X0456600Y0111600D03*
X0456600Y0031600D03*
D15*
X0249100Y0222969D02*
X0249100Y0230369D01*
X0239100Y0230369D02*
X0239100Y0222969D01*
X0229100Y0222969D02*
X0229100Y0230369D01*
X0219100Y0230369D02*
X0219100Y0222969D01*
D16*
X0188234Y0224700D03*
X0279966Y0224700D03*
X0279966Y0131000D03*
X0188234Y0131000D03*
D17*
X0301100Y0146600D02*
X0307100Y0146600D01*
X0307100Y0156600D02*
X0301100Y0156600D01*
X0301100Y0166600D02*
X0307100Y0166600D01*
X0307100Y0176600D02*
X0301100Y0176600D01*
D18*
X0299100Y0275350D03*
X0289100Y0275350D03*
X0279100Y0275350D03*
X0269100Y0275350D03*
X0259100Y0275350D03*
X0259100Y0285350D03*
X0269100Y0285350D03*
X0279100Y0285350D03*
X0289100Y0285350D03*
X0299100Y0285350D03*
X0309100Y0285350D03*
X0319100Y0285350D03*
X0329100Y0285350D03*
X0339100Y0285350D03*
X0349100Y0285350D03*
X0349100Y0275350D03*
X0339100Y0275350D03*
X0329100Y0275350D03*
X0319100Y0275350D03*
X0309100Y0275350D03*
D19*
X0304100Y0266600D03*
X0312850Y0260350D03*
X0326600Y0264100D03*
X0339100Y0260350D03*
X0279100Y0241600D03*
X0264100Y0257850D03*
X0341600Y0196600D03*
X0331600Y0190350D03*
X0331600Y0181600D03*
X0321600Y0171600D03*
X0306600Y0191600D03*
X0321600Y0146600D03*
X0316600Y0136600D03*
X0341600Y0136600D03*
X0371600Y0156600D03*
X0401600Y0171600D03*
X0405350Y0191600D03*
X0411600Y0196600D03*
X0376600Y0181600D03*
X0391600Y0096600D03*
X0381600Y0086600D03*
X0401600Y0076600D03*
X0441600Y0076600D03*
X0396600Y0041600D03*
X0351600Y0076600D03*
X0331600Y0065350D03*
X0341600Y0056600D03*
X0276600Y0096600D03*
X0271600Y0086600D03*
X0254100Y0091600D03*
X0259100Y0101600D03*
X0266600Y0065350D03*
X0249100Y0146600D03*
X0239100Y0156600D03*
M02*
